<svg width="182" height="39" viewBox="0 0 182 39" fill="none" xmlns="http://www.w3.org/2000/svg">
<rect x="3" y="1" width="176" height="37" rx="18.5" fill="url(#paint0_linear_21_3)"/>
<path d="M46.336 27.216C45.824 27.0667 45.4667 26.9173 45.264 26.768C45.072 26.6187 44.976 26.432 44.976 26.208C44.976 26.0373 45.024 25.7973 45.12 25.488C45.216 25.1787 45.3547 24.816 45.536 24.4C45.728 23.9733 45.952 23.504 46.208 22.992C46.4747 22.48 46.7733 21.9307 47.104 21.344C46.8267 21.3333 46.576 21.328 46.352 21.328C46.1387 21.3173 45.9627 21.312 45.824 21.312C45.888 21.152 46.0693 21.0133 46.368 20.896C46.6667 20.7787 47.0613 20.6773 47.552 20.592C47.968 19.8987 48.4107 19.2373 48.88 18.608C49.36 17.9787 49.84 17.4027 50.32 16.88C50.8 16.3467 51.28 15.8827 51.76 15.488C52.24 15.0827 52.6987 14.7627 53.136 14.528C53.1467 14.4533 53.152 14.3893 53.152 14.336C53.1627 14.2827 53.168 14.2453 53.168 14.224C53.3173 14.224 53.5147 14.2613 53.76 14.336C54.016 14.4107 54.2613 14.5013 54.496 14.608C54.7413 14.7147 54.9547 14.8267 55.136 14.944C55.328 15.0507 55.4347 15.1413 55.456 15.216C55.104 15.8347 54.7573 16.7627 54.416 18C54.0747 19.2267 53.792 20.6987 53.568 22.416C53.5147 22.8427 53.4667 23.328 53.424 23.872C53.392 24.416 53.376 25.024 53.376 25.696C53.376 25.9307 53.376 26.1707 53.376 26.416C53.376 26.6613 53.3867 26.9173 53.408 27.184C53.3867 27.1947 53.3653 27.2 53.344 27.2C53.3227 27.2 53.28 27.2 53.216 27.2C53.0667 27.2 52.8907 27.1733 52.688 27.12C52.496 27.0773 52.304 27.0187 52.112 26.944C51.9307 26.88 51.7707 26.8053 51.632 26.72C51.504 26.6347 51.424 26.56 51.392 26.496C51.3813 26.3573 51.376 26.2187 51.376 26.08C51.376 25.952 51.376 25.8133 51.376 25.664C51.376 25.0027 51.3973 24.3307 51.44 23.648C51.4933 22.9653 51.5787 22.2613 51.696 21.536C51.5467 21.5253 51.3493 21.5147 51.104 21.504C50.8587 21.4827 50.5813 21.4667 50.272 21.456C49.9733 21.4453 49.648 21.4347 49.296 21.424C48.9547 21.4027 48.6187 21.3867 48.288 21.376C48.032 21.856 47.792 22.336 47.568 22.816C47.344 23.2853 47.152 23.76 46.992 24.24C46.8107 24.752 46.6613 25.264 46.544 25.776C46.4373 26.288 46.368 26.768 46.336 27.216ZM52.512 17.6C52.5547 17.4507 52.6027 17.248 52.656 16.992C52.72 16.7253 52.7787 16.448 52.832 16.16C52.5653 16.256 52.2667 16.432 51.936 16.688C51.616 16.944 51.28 17.264 50.928 17.648C50.5867 18.0213 50.2347 18.448 49.872 18.928C49.52 19.3973 49.1787 19.8987 48.848 20.432C49.744 20.3573 50.7627 20.3093 51.904 20.288C51.9893 19.84 52.08 19.3973 52.176 18.96C52.2827 18.512 52.3947 18.0587 52.512 17.6ZM58.8056 18.528C59.019 18.528 59.2643 18.592 59.5416 18.72C59.819 18.848 60.0643 19.0133 60.2776 19.216C60.2243 18.7893 60.155 18.3893 60.0696 18.016C59.995 17.632 59.8776 17.2373 59.7176 16.832C59.5683 16.4267 59.3656 15.984 59.1096 15.504C58.8536 15.024 58.5336 14.4747 58.1496 13.856C58.1816 13.76 58.251 13.648 58.3576 13.52C58.475 13.392 58.603 13.2747 58.7416 13.168C58.891 13.0507 59.0403 12.9493 59.1896 12.864C59.3496 12.7787 59.499 12.7253 59.6376 12.704C59.9363 13.0347 60.219 13.4507 60.4856 13.952C60.7523 14.4427 60.987 14.976 61.1896 15.552C61.3923 16.1173 61.547 16.704 61.6536 17.312C61.771 17.92 61.8296 18.5013 61.8296 19.056C61.8296 19.6107 61.7656 20.1813 61.6376 20.768C61.5203 21.3547 61.3496 21.9307 61.1256 22.496C60.9123 23.0507 60.6616 23.5787 60.3736 24.08C60.0856 24.5813 59.771 25.0293 59.4296 25.424C59.099 25.8187 58.7523 26.1387 58.3896 26.384C58.027 26.64 57.6643 26.8 57.3016 26.864C56.5656 26.7787 56.0003 26.5387 55.6056 26.144C55.2216 25.76 55.0296 25.2267 55.0296 24.544C55.0296 24.1813 55.083 23.7867 55.1896 23.36C55.307 22.9333 55.4563 22.512 55.6376 22.096C55.8296 21.6693 56.0483 21.2587 56.2936 20.864C56.5496 20.4587 56.8163 20.096 57.0936 19.776C57.3816 19.456 57.6696 19.184 57.9576 18.96C58.2456 18.736 58.5283 18.592 58.8056 18.528ZM57.1736 26.224C57.547 26.096 57.9203 25.8133 58.2936 25.376C58.667 24.9387 59.003 24.4267 59.3016 23.84C59.6003 23.2427 59.8403 22.608 60.0216 21.936C60.2136 21.2533 60.3096 20.5973 60.3096 19.968C60.3096 19.7867 60.3096 19.6747 60.3096 19.632C60.3096 19.5893 60.3043 19.5467 60.2936 19.504C60.0376 19.6107 59.7656 19.792 59.4776 20.048C59.1896 20.304 58.9016 20.6027 58.6136 20.944C58.3256 21.2747 58.0536 21.6373 57.7976 22.032C57.5416 22.4267 57.3123 22.8213 57.1096 23.216C56.907 23.6107 56.747 23.9893 56.6296 24.352C56.5123 24.7147 56.4536 25.0347 56.4536 25.312C56.4536 25.8453 56.6936 26.1493 57.1736 26.224ZM63.1195 20.336C63.1195 20.144 63.1302 19.9627 63.1515 19.792C63.1835 19.6213 63.2422 19.4773 63.3275 19.36C63.4128 19.232 63.5302 19.136 63.6795 19.072C63.8288 18.9973 64.0262 18.96 64.2715 18.96C64.4208 18.96 64.5862 18.976 64.7675 19.008C64.9595 19.04 65.0982 19.0987 65.1835 19.184C65.1408 19.3653 65.1035 19.5253 65.0715 19.664C65.0502 19.8027 65.0288 19.9573 65.0075 20.128C64.9968 20.288 64.9862 20.4853 64.9755 20.72C64.9648 20.944 64.9542 21.2373 64.9435 21.6C64.9222 22.3253 64.8848 22.976 64.8315 23.552C64.7888 24.1173 64.6822 24.6827 64.5115 25.248C64.5115 25.2907 64.5275 25.312 64.5595 25.312C64.7195 25.1947 64.9008 25.024 65.1035 24.8C65.3062 24.576 65.5195 24.3253 65.7435 24.048C65.9675 23.76 66.1915 23.456 66.4155 23.136C66.6395 22.816 66.8475 22.5013 67.0395 22.192C67.2955 21.744 67.5782 21.184 67.8875 20.512C68.1968 19.84 68.4528 19.12 68.6555 18.352C68.7195 18.352 68.7995 18.368 68.8955 18.4C69.0022 18.4213 69.1035 18.4533 69.1995 18.496C69.3062 18.528 69.3968 18.5653 69.4715 18.608C69.5568 18.6507 69.6155 18.688 69.6475 18.72C69.6262 19.1787 69.5142 19.648 69.3115 20.128C69.1195 20.608 68.8848 21.072 68.6075 21.52C68.3302 21.968 68.0368 22.3893 67.7275 22.784C67.4182 23.1787 67.1355 23.52 66.8795 23.808C66.3675 24.4053 65.8502 24.9387 65.3275 25.408C64.8155 25.8773 64.2022 26.3307 63.4875 26.768C63.2102 26.6613 62.9915 26.5173 62.8315 26.336C62.6715 26.1653 62.5915 25.984 62.5915 25.792C62.5915 25.664 62.6182 25.52 62.6715 25.36C62.7355 25.1893 62.8048 24.976 62.8795 24.72C62.9542 24.4533 63.0182 24.1227 63.0715 23.728C63.1355 23.3333 63.1675 22.832 63.1675 22.224C63.1675 21.872 63.1568 21.52 63.1355 21.168C63.1248 20.8053 63.1195 20.528 63.1195 20.336ZM74.0079 27.216C73.4959 27.0667 73.1385 26.9173 72.9359 26.768C72.7439 26.6187 72.6479 26.432 72.6479 26.208C72.6479 26.0373 72.6959 25.7973 72.7919 25.488C72.8879 25.1787 73.0265 24.816 73.2079 24.4C73.3999 23.9733 73.6239 23.504 73.8799 22.992C74.1465 22.48 74.4452 21.9307 74.7759 21.344C74.4985 21.3333 74.2479 21.328 74.0239 21.328C73.8105 21.3173 73.6345 21.312 73.4959 21.312C73.5599 21.152 73.7412 21.0133 74.0399 20.896C74.3385 20.7787 74.7332 20.6773 75.2239 20.592C75.6399 19.8987 76.0825 19.2373 76.5519 18.608C77.0319 17.9787 77.5119 17.4027 77.9919 16.88C78.4719 16.3467 78.9519 15.8827 79.4319 15.488C79.9119 15.0827 80.3705 14.7627 80.8079 14.528C80.8185 14.4533 80.8239 14.3893 80.8239 14.336C80.8345 14.2827 80.8399 14.2453 80.8399 14.224C80.9892 14.224 81.1865 14.2613 81.4319 14.336C81.6879 14.4107 81.9332 14.5013 82.1679 14.608C82.4132 14.7147 82.6265 14.8267 82.8079 14.944C82.9999 15.0507 83.1065 15.1413 83.1279 15.216C82.7759 15.8347 82.4292 16.7627 82.0879 18C81.7465 19.2267 81.4639 20.6987 81.2399 22.416C81.1865 22.8427 81.1385 23.328 81.0959 23.872C81.0639 24.416 81.0479 25.024 81.0479 25.696C81.0479 25.9307 81.0479 26.1707 81.0479 26.416C81.0479 26.6613 81.0585 26.9173 81.0799 27.184C81.0585 27.1947 81.0372 27.2 81.0159 27.2C80.9945 27.2 80.9519 27.2 80.8879 27.2C80.7385 27.2 80.5625 27.1733 80.3599 27.12C80.1679 27.0773 79.9759 27.0187 79.7839 26.944C79.6025 26.88 79.4425 26.8053 79.3039 26.72C79.1759 26.6347 79.0959 26.56 79.0639 26.496C79.0532 26.3573 79.0479 26.2187 79.0479 26.08C79.0479 25.952 79.0479 25.8133 79.0479 25.664C79.0479 25.0027 79.0692 24.3307 79.1119 23.648C79.1652 22.9653 79.2505 22.2613 79.3679 21.536C79.2185 21.5253 79.0212 21.5147 78.7759 21.504C78.5305 21.4827 78.2532 21.4667 77.9439 21.456C77.6452 21.4453 77.3199 21.4347 76.9679 21.424C76.6265 21.4027 76.2905 21.3867 75.9599 21.376C75.7039 21.856 75.4639 22.336 75.2399 22.816C75.0159 23.2853 74.8239 23.76 74.6639 24.24C74.4825 24.752 74.3332 25.264 74.2159 25.776C74.1092 26.288 74.0399 26.768 74.0079 27.216ZM80.1839 17.6C80.2265 17.4507 80.2745 17.248 80.3279 16.992C80.3919 16.7253 80.4505 16.448 80.5039 16.16C80.2372 16.256 79.9385 16.432 79.6079 16.688C79.2879 16.944 78.9519 17.264 78.5999 17.648C78.2585 18.0213 77.9065 18.448 77.5439 18.928C77.1919 19.3973 76.8505 19.8987 76.5199 20.432C77.4159 20.3573 78.4345 20.3093 79.5759 20.288C79.6612 19.84 79.7519 19.3973 79.8479 18.96C79.9545 18.512 80.0665 18.0587 80.1839 17.6ZM87.3571 25.648C87.1545 25.4773 87.0158 25.264 86.9411 25.008C86.8771 24.752 86.8451 24.5333 86.8451 24.352C86.8451 24.128 86.8718 23.936 86.9251 23.776C86.8825 23.776 86.7865 23.8613 86.6371 24.032C86.4878 24.2027 86.3225 24.4053 86.1411 24.64C85.9705 24.8747 85.7998 25.104 85.6291 25.328C85.4585 25.552 85.3305 25.7173 85.2451 25.824C85.1065 25.9733 84.9731 26.0907 84.8451 26.176C84.7278 26.2613 84.6318 26.3093 84.5571 26.32C84.3865 26.3093 84.2051 26.272 84.0131 26.208C83.8318 26.1547 83.6558 26.0747 83.4851 25.968C83.3251 25.8613 83.1811 25.7333 83.0531 25.584C82.9358 25.4347 82.8558 25.264 82.8131 25.072C82.8131 24.7733 82.8185 24.528 82.8291 24.336C82.8505 24.144 82.8878 23.936 82.9411 23.712C83.0371 23.3067 83.1758 22.848 83.3571 22.336C83.5491 21.824 83.7678 21.3227 84.0131 20.832C84.2585 20.3307 84.5305 19.8667 84.8291 19.44C85.1385 19.0027 85.4638 18.6613 85.8051 18.416C85.9011 18.416 86.0131 18.4267 86.1411 18.448C86.2691 18.4587 86.3971 18.4853 86.5251 18.528C86.6638 18.5707 86.7918 18.624 86.9091 18.688C87.0371 18.7413 87.1438 18.816 87.2291 18.912C87.1331 19.0187 86.8878 19.376 86.4931 19.984C86.1091 20.592 85.6771 21.4667 85.1971 22.608C85.1438 22.7253 85.0798 22.896 85.0051 23.12C84.9305 23.344 84.8558 23.5787 84.7811 23.824C84.7065 24.0693 84.6425 24.3093 84.5891 24.544C84.5465 24.7787 84.5251 24.9653 84.5251 25.104C84.5251 25.1893 84.5358 25.2533 84.5571 25.296C84.5891 25.3387 84.6158 25.3707 84.6371 25.392C84.7971 25.328 84.9998 25.152 85.2451 24.864C85.4905 24.576 85.8318 24.1333 86.2691 23.536C86.3758 23.3867 86.4985 23.216 86.6371 23.024C86.7865 22.832 86.9358 22.6293 87.0851 22.416C87.2345 22.192 87.3731 21.9627 87.5011 21.728C87.6398 21.4933 87.7518 21.2587 87.8371 21.024C87.8798 20.896 87.9331 20.7467 87.9971 20.576C88.0718 20.3947 88.1571 20.208 88.2531 20.016C88.3598 19.824 88.4771 19.632 88.6051 19.44C88.7438 19.2373 88.9038 19.0507 89.0851 18.88C89.2238 18.88 89.3731 18.896 89.5331 18.928C89.6931 18.96 89.8425 19.0027 89.9811 19.056C90.1305 19.0987 90.2585 19.152 90.3651 19.216C90.4718 19.2693 90.5518 19.328 90.6051 19.392C90.4131 19.8613 90.1998 20.3253 89.9651 20.784C89.7305 21.2427 89.5118 21.696 89.3091 22.144C89.1065 22.5813 88.9358 23.0187 88.7971 23.456C88.6585 23.8933 88.5891 24.32 88.5891 24.736C88.5891 24.96 88.6051 25.1573 88.6371 25.328C88.6798 25.488 88.7225 25.6267 88.7651 25.744C88.8078 25.8507 88.8451 25.9413 88.8771 26.016C88.9198 26.0907 88.9411 26.1547 88.9411 26.208C88.9411 26.2187 88.9305 26.2347 88.9091 26.256C88.8985 26.2667 88.8878 26.272 88.8771 26.272C88.8025 26.272 88.7065 26.256 88.5891 26.224C88.4718 26.192 88.3385 26.144 88.1891 26.08C88.0505 26.0267 87.9065 25.9627 87.7571 25.888C87.6185 25.8133 87.4851 25.7333 87.3571 25.648ZM91.7929 19.872C91.7395 19.808 91.6915 19.6747 91.6489 19.472C91.6062 19.2587 91.5849 19.0773 91.5849 18.928C91.8622 18.9493 92.1289 18.9707 92.3849 18.992C92.6409 19.0027 92.8755 19.0133 93.0889 19.024C93.2489 18.704 93.4195 18.3893 93.6009 18.08C93.7929 17.76 93.9742 17.472 94.1449 17.216C94.3262 16.9493 94.4915 16.7253 94.6409 16.544C94.8009 16.3627 94.9235 16.2453 95.0089 16.192C95.1155 16.192 95.2489 16.2133 95.4089 16.256C95.5795 16.288 95.7502 16.336 95.9209 16.4C96.0915 16.4533 96.2462 16.512 96.3849 16.576C96.5235 16.64 96.6195 16.704 96.6729 16.768C96.3529 17.1733 96.0755 17.552 95.8409 17.904C95.6169 18.2453 95.3715 18.64 95.1049 19.088C95.3182 19.088 95.5315 19.0827 95.7449 19.072C95.9689 19.0613 96.1929 19.0453 96.4169 19.024C96.4702 19.0773 96.5129 19.1467 96.5449 19.232C96.5769 19.3067 96.5929 19.3867 96.5929 19.472C96.0702 19.664 95.4355 19.7707 94.6889 19.792C94.4222 20.304 94.1822 20.816 93.9689 21.328C93.7662 21.8293 93.5902 22.3147 93.4409 22.784C93.3022 23.2533 93.1902 23.696 93.1049 24.112C93.0302 24.528 92.9929 24.9013 92.9929 25.232C92.9929 25.7013 93.1689 25.9627 93.5209 26.016C93.8409 25.9733 94.1449 25.8933 94.4329 25.776C94.7209 25.6587 94.9769 25.5093 95.2009 25.328C95.2649 25.424 95.3022 25.504 95.3129 25.568C95.2489 25.664 95.1369 25.776 94.9769 25.904C94.8275 26.032 94.6622 26.1547 94.4809 26.272C94.2995 26.4 94.1235 26.5067 93.9529 26.592C93.7822 26.6773 93.6542 26.7253 93.5689 26.736C93.3022 26.7253 93.0355 26.6667 92.7689 26.56C92.5022 26.4533 92.2569 26.32 92.0329 26.16C91.8195 26 91.6435 25.824 91.5049 25.632C91.3662 25.4293 91.2969 25.232 91.2969 25.04C91.2969 24.784 91.3289 24.464 91.3929 24.08C91.4675 23.6853 91.5689 23.2587 91.6969 22.8C91.8249 22.3413 91.9742 21.8613 92.1449 21.36C92.3155 20.8587 92.5022 20.3627 92.7049 19.872H91.7929ZM98.3619 26.56C97.7539 26.496 97.2685 26.2293 96.9059 25.76C96.5432 25.2907 96.3619 24.6933 96.3619 23.968C96.3619 23.5413 96.4259 23.0987 96.5539 22.64C96.6819 22.1813 96.8632 21.7387 97.0979 21.312C97.3325 20.8747 97.6099 20.464 97.9299 20.08C98.2499 19.696 98.5965 19.3653 98.9699 19.088C99.5565 18.6507 100.106 18.432 100.618 18.432C100.959 18.6133 101.295 18.992 101.626 19.568C101.679 19.568 101.727 19.568 101.77 19.568C101.813 19.5573 101.861 19.552 101.914 19.552C102.479 19.552 102.762 20.0533 102.762 21.056C102.762 21.728 102.65 22.368 102.426 22.976C102.213 23.5733 101.909 24.1173 101.514 24.608C101.13 25.0987 100.666 25.5147 100.122 25.856C99.5885 26.1867 99.0019 26.4213 98.3619 26.56ZM99.1779 21.52C98.9965 21.7653 98.8259 22.032 98.6659 22.32C98.5059 22.608 98.3672 22.9013 98.2499 23.2C98.1325 23.488 98.0419 23.7707 97.9779 24.048C97.9139 24.3147 97.8819 24.5547 97.8819 24.768C97.8819 25.024 97.9245 25.2693 98.0099 25.504C98.0952 25.7387 98.1912 25.872 98.2979 25.904C98.7779 25.7973 99.2152 25.6 99.6099 25.312C100.015 25.0133 100.362 24.6453 100.65 24.208C100.949 23.7707 101.178 23.2747 101.338 22.72C101.509 22.1653 101.594 21.5733 101.594 20.944C101.594 20.6667 101.578 20.448 101.546 20.288C101.514 20.128 101.461 19.9893 101.386 19.872C100.917 20.0107 100.495 20.2347 100.122 20.544C99.7592 20.8533 99.4445 21.1787 99.1779 21.52ZM114.021 27.184C114 27.1947 113.978 27.2 113.957 27.2C113.936 27.2 113.893 27.2 113.829 27.2C113.68 27.2 113.504 27.1733 113.301 27.12C113.109 27.0773 112.917 27.0187 112.725 26.944C112.544 26.88 112.384 26.8053 112.245 26.72C112.117 26.6347 112.037 26.56 112.005 26.496C111.994 26.3467 111.989 26.192 111.989 26.032C111.989 25.872 111.989 25.7173 111.989 25.568C111.989 24.3733 112.074 23.1253 112.245 21.824C112.426 20.5227 112.72 19.1147 113.125 17.6C113.168 17.4507 113.21 17.264 113.253 17.04C113.306 16.8053 113.36 16.5547 113.413 16.288C113.157 16.4907 112.853 16.816 112.501 17.264C112.149 17.7013 111.776 18.224 111.381 18.832C110.997 19.4293 110.608 20.0907 110.213 20.816C109.829 21.5307 109.477 22.2613 109.157 23.008C108.837 23.744 108.56 24.4747 108.325 25.2C108.101 25.9253 107.962 26.5973 107.909 27.216C107.397 27.0667 107.04 26.9173 106.837 26.768C106.645 26.6187 106.549 26.4373 106.549 26.224C106.549 26.032 106.608 25.76 106.725 25.408C106.842 25.056 107.008 24.64 107.221 24.16C107.434 23.68 107.696 23.1467 108.005 22.56C108.314 21.9627 108.656 21.3227 109.029 20.64C109.456 19.8613 109.872 19.1307 110.277 18.448C110.693 17.7653 111.098 17.1467 111.493 16.592C111.888 16.0373 112.272 15.5573 112.645 15.152C113.029 14.7467 113.408 14.4373 113.781 14.224C113.93 14.224 114.128 14.2613 114.373 14.336C114.629 14.4107 114.874 14.5013 115.109 14.608C115.354 14.7147 115.568 14.8267 115.749 14.944C115.941 15.0507 116.048 15.1413 116.069 15.216C115.92 15.5147 115.744 15.9627 115.541 16.56C115.338 17.1573 115.13 17.8347 114.917 18.592C114.714 19.3493 114.517 20.1547 114.325 21.008C114.144 21.8507 114 22.6613 113.893 23.44C114.138 22.8533 114.421 22.2453 114.741 21.616C115.072 20.976 115.418 20.3467 115.781 19.728C116.144 19.0987 116.512 18.4907 116.885 17.904C117.269 17.3173 117.642 16.784 118.005 16.304C118.368 15.8133 118.704 15.3867 119.013 15.024C119.333 14.6613 119.616 14.3947 119.861 14.224C120.01 14.224 120.208 14.2613 120.453 14.336C120.709 14.4107 120.954 14.5013 121.189 14.608C121.434 14.7147 121.648 14.8267 121.829 14.944C122.021 15.0507 122.128 15.1413 122.149 15.216C121.808 15.824 121.509 16.5653 121.253 17.44C120.997 18.3147 120.778 19.232 120.597 20.192C120.426 21.152 120.293 22.1067 120.197 23.056C120.112 23.9947 120.069 24.8373 120.069 25.584C120.069 25.8293 120.069 26.0853 120.069 26.352C120.069 26.6187 120.08 26.896 120.101 27.184C119.952 27.184 119.77 27.1627 119.557 27.12C119.354 27.088 119.152 27.04 118.949 26.976C118.757 26.912 118.581 26.8373 118.421 26.752C118.261 26.6773 118.149 26.592 118.085 26.496C118.074 26.3467 118.069 26.192 118.069 26.032C118.069 25.872 118.069 25.7173 118.069 25.568C118.069 24.3733 118.154 23.1253 118.325 21.824C118.506 20.5227 118.8 19.1147 119.205 17.6C119.248 17.4507 119.296 17.248 119.349 16.992C119.402 16.736 119.456 16.4693 119.509 16.192C119.21 16.3413 118.869 16.6293 118.485 17.056C118.112 17.472 117.728 17.984 117.333 18.592C116.949 19.1893 116.565 19.856 116.181 20.592C115.808 21.328 115.466 22.08 115.157 22.848C114.858 23.6053 114.602 24.3627 114.389 25.12C114.186 25.8667 114.064 26.5547 114.021 27.184ZM122.877 25.088C122.877 24.704 122.936 24.208 123.053 23.6C123.181 22.9813 123.341 22.32 123.533 21.616C123.736 20.9013 123.965 20.176 124.221 19.44C124.477 18.6933 124.739 17.9947 125.005 17.344C125.272 16.6933 125.533 16.1227 125.789 15.632C126.045 15.1413 126.275 14.7893 126.477 14.576C126.584 14.5867 126.723 14.6293 126.893 14.704C127.075 14.768 127.256 14.848 127.437 14.944C127.619 15.04 127.784 15.1467 127.933 15.264C128.083 15.3707 128.179 15.472 128.221 15.568C127.912 15.8453 127.603 16.2667 127.293 16.832C126.995 17.3867 126.701 18.0213 126.413 18.736C126.136 19.4507 125.875 20.208 125.629 21.008C125.384 21.7973 125.171 22.5653 124.989 23.312C124.808 24.0587 124.664 24.752 124.557 25.392C124.461 26.032 124.413 26.5493 124.413 26.944C124.413 27.1253 124.429 27.2373 124.461 27.28C124.227 27.2693 124.056 27.2267 123.949 27.152C123.843 27.088 123.757 27.0133 123.693 26.928C123.64 26.8533 123.587 26.7733 123.533 26.688C123.491 26.6133 123.421 26.5547 123.325 26.512C123.251 26.48 123.187 26.4053 123.133 26.288C123.08 26.1707 123.032 26.0427 122.989 25.904C122.957 25.7547 122.931 25.6053 122.909 25.456C122.888 25.3067 122.877 25.184 122.877 25.088ZM136.18 26.064C136.084 26.16 135.94 26.2667 135.748 26.384C135.567 26.512 135.369 26.624 135.156 26.72C134.943 26.8267 134.724 26.9173 134.5 26.992C134.287 27.0773 134.111 27.1253 133.972 27.136C133.833 27.136 133.711 27.0827 133.604 26.976C133.497 26.8693 133.385 26.624 133.268 26.24C133.151 25.8667 133.012 25.3227 132.852 24.608C132.703 23.8827 132.511 22.9013 132.276 21.664C131.668 22.2933 131.103 22.9013 130.58 23.488C130.057 24.0747 129.609 24.6187 129.236 25.12C128.863 25.6213 128.569 26.0587 128.356 26.432C128.143 26.8053 128.036 27.088 128.036 27.28C127.908 27.2693 127.775 27.2213 127.636 27.136C127.508 27.0507 127.391 26.9493 127.284 26.832C127.177 26.7147 127.087 26.5867 127.012 26.448C126.948 26.3093 126.916 26.176 126.916 26.048C126.948 25.9307 127.028 25.7653 127.156 25.552C127.284 25.3387 127.444 25.1093 127.636 24.864C128.041 24.3413 128.617 23.7387 129.364 23.056C130.121 22.3627 131.033 21.6 132.1 20.768C131.407 17.3227 130.425 15.6 129.156 15.6C129.284 15.2907 129.487 15.0187 129.764 14.784C130.052 14.5493 130.356 14.4053 130.676 14.352C131.028 14.352 131.316 14.4 131.54 14.496C131.764 14.5813 131.967 14.8053 132.148 15.168C132.329 15.5307 132.511 16.08 132.692 16.816C132.873 17.5413 133.103 18.5387 133.38 19.808C133.732 19.4347 134.068 19.056 134.388 18.672C134.719 18.2773 135.023 17.8987 135.3 17.536C135.577 17.1733 135.823 16.8373 136.036 16.528C136.249 16.2187 136.415 15.952 136.532 15.728C136.649 15.5253 136.708 15.3173 136.708 15.104C136.708 14.912 136.649 14.6613 136.532 14.352C136.873 14.5547 137.129 14.7467 137.3 14.928C137.481 15.0987 137.636 15.3387 137.764 15.648C137.743 15.904 137.668 16.16 137.54 16.416C137.423 16.672 137.209 16.9813 136.9 17.344C136.601 17.696 136.185 18.1333 135.652 18.656C135.119 19.1787 134.42 19.8293 133.556 20.608C133.759 21.568 133.956 22.3787 134.148 23.04C134.34 23.7013 134.537 24.2453 134.74 24.672C134.943 25.088 135.161 25.408 135.396 25.632C135.631 25.8453 135.892 25.9893 136.18 26.064Z" fill="#724106"/>
<defs>
<linearGradient id="paint0_linear_21_3" x1="63.4179" y1="38" x2="147.63" y2="-19.7659" gradientUnits="userSpaceOnUse">
<stop stop-color="#FFC587"/>
<stop offset="1" stop-color="#F5CFA5"/>
</linearGradient>
</defs>
</svg>
