<svg width="85" height="85" viewBox="0 0 85 85" fill="none" xmlns="http://www.w3.org/2000/svg">
<mask id="path-1-outside-1_0_1" maskUnits="userSpaceOnUse" x="10" y="30" width="65" height="29" fill="black">
<rect fill="white" x="10" y="30" width="65" height="29"/>
<path d="M29.72 57.072C27.632 57.072 26.504 56.736 26.336 56.064L25.148 51.42H19.424L18.38 55.884C18.236 56.628 17.084 57 14.924 57C13.772 57 12.92 56.94 12.368 56.82C11.816 56.676 11.54 56.568 11.54 56.496L17.912 32.124C17.912 31.932 19.556 31.836 22.844 31.836C26.132 31.836 27.776 31.932 27.776 32.124L34.004 56.532C34.004 56.7 33.452 56.832 32.348 56.928C31.244 57.024 30.368 57.072 29.72 57.072ZM20.324 46.848H24.104L22.484 39.396H22.268L20.324 46.848ZM45.3178 32.016C45.3178 31.656 46.2658 31.476 48.1618 31.476C48.8098 31.476 49.5538 31.524 50.3938 31.62C51.2578 31.692 51.6898 31.8 51.6898 31.944V50.916H52.9498C53.5498 50.916 53.9458 51.456 54.1378 52.536C54.1858 52.848 54.2098 53.28 54.2098 53.832C54.2098 54.36 54.0418 55.008 53.7058 55.776C53.2258 56.832 52.4578 57.36 51.4018 57.36C50.6098 57.36 49.9018 57.204 49.2778 56.892C48.6778 56.58 48.2698 56.256 48.0538 55.92L47.7298 55.452C46.4098 56.724 44.7538 57.36 42.7618 57.36C40.7698 57.36 39.0658 56.532 37.6498 54.876C36.2338 53.22 35.5258 50.916 35.5258 47.964C35.5258 44.988 36.2698 42.696 37.7578 41.088C39.2458 39.456 41.1058 38.64 43.3378 38.64C43.9858 38.64 44.6458 38.712 45.3178 38.856V32.016ZM44.1298 44.4C42.7858 44.4 42.1138 45.612 42.1138 48.036C42.1138 49.26 42.3058 50.148 42.6898 50.7C43.0738 51.228 43.4938 51.492 43.9498 51.492C44.4298 51.492 44.8858 51.288 45.3178 50.88V44.76C44.9098 44.52 44.5138 44.4 44.1298 44.4ZM55.1613 39.108C55.0893 38.916 56.2053 38.82 58.5093 38.82C60.8373 38.82 62.0013 38.88 62.0013 39L64.5933 51.24L66.5373 39.18C66.6093 38.964 67.7973 38.856 70.1013 38.856C72.4293 38.856 73.5573 38.952 73.4853 39.144L68.4093 56.748C68.2413 56.988 66.8133 57.108 64.1253 57.108C61.4373 57.108 59.9973 56.928 59.8053 56.568L55.1613 39.108Z"/>
</mask>
<path d="M29.72 57.072C27.632 57.072 26.504 56.736 26.336 56.064L25.148 51.42H19.424L18.38 55.884C18.236 56.628 17.084 57 14.924 57C13.772 57 12.92 56.94 12.368 56.82C11.816 56.676 11.54 56.568 11.54 56.496L17.912 32.124C17.912 31.932 19.556 31.836 22.844 31.836C26.132 31.836 27.776 31.932 27.776 32.124L34.004 56.532C34.004 56.7 33.452 56.832 32.348 56.928C31.244 57.024 30.368 57.072 29.72 57.072ZM20.324 46.848H24.104L22.484 39.396H22.268L20.324 46.848ZM45.3178 32.016C45.3178 31.656 46.2658 31.476 48.1618 31.476C48.8098 31.476 49.5538 31.524 50.3938 31.62C51.2578 31.692 51.6898 31.8 51.6898 31.944V50.916H52.9498C53.5498 50.916 53.9458 51.456 54.1378 52.536C54.1858 52.848 54.2098 53.28 54.2098 53.832C54.2098 54.36 54.0418 55.008 53.7058 55.776C53.2258 56.832 52.4578 57.36 51.4018 57.36C50.6098 57.36 49.9018 57.204 49.2778 56.892C48.6778 56.58 48.2698 56.256 48.0538 55.92L47.7298 55.452C46.4098 56.724 44.7538 57.36 42.7618 57.36C40.7698 57.36 39.0658 56.532 37.6498 54.876C36.2338 53.22 35.5258 50.916 35.5258 47.964C35.5258 44.988 36.2698 42.696 37.7578 41.088C39.2458 39.456 41.1058 38.64 43.3378 38.64C43.9858 38.64 44.6458 38.712 45.3178 38.856V32.016ZM44.1298 44.4C42.7858 44.4 42.1138 45.612 42.1138 48.036C42.1138 49.26 42.3058 50.148 42.6898 50.7C43.0738 51.228 43.4938 51.492 43.9498 51.492C44.4298 51.492 44.8858 51.288 45.3178 50.88V44.76C44.9098 44.52 44.5138 44.4 44.1298 44.4ZM55.1613 39.108C55.0893 38.916 56.2053 38.82 58.5093 38.82C60.8373 38.82 62.0013 38.88 62.0013 39L64.5933 51.24L66.5373 39.18C66.6093 38.964 67.7973 38.856 70.1013 38.856C72.4293 38.856 73.5573 38.952 73.4853 39.144L68.4093 56.748C68.2413 56.988 66.8133 57.108 64.1253 57.108C61.4373 57.108 59.9973 56.928 59.8053 56.568L55.1613 39.108Z" fill="url(#paint0_linear_0_1)"/>
<path d="M26.336 56.064L27.3062 55.8215L27.3048 55.8162L26.336 56.064ZM25.148 51.42L26.1168 51.1722L25.9244 50.42H25.148V51.42ZM19.424 51.42V50.42H18.6309L18.4503 51.1923L19.424 51.42ZM18.38 55.884L17.4063 55.6563L17.4019 55.675L17.3982 55.694L18.38 55.884ZM12.368 56.82L12.1156 57.7876L12.1355 57.7928L12.1556 57.7972L12.368 56.82ZM11.54 56.496L10.5725 56.2431L10.54 56.3674V56.496H11.54ZM17.912 32.124L18.8795 32.3769L18.912 32.2526V32.124H17.912ZM27.776 32.124H26.776V32.2496L26.807 32.3712L27.776 32.124ZM34.004 56.532H35.004V56.4064L34.973 56.2848L34.004 56.532ZM32.348 56.928L32.2614 55.9318L32.348 56.928ZM20.324 46.848L19.3564 46.5956L19.0297 47.848H20.324V46.848ZM24.104 46.848V47.848H25.3447L25.0812 46.6356L24.104 46.848ZM22.484 39.396L23.4612 39.1836L23.29 38.396H22.484V39.396ZM22.268 39.396V38.396H21.4954L21.3004 39.1436L22.268 39.396ZM29.72 56.072C28.7103 56.072 28.0197 55.9886 27.5935 55.8616C27.1256 55.7222 27.2571 55.6251 27.3061 55.8215L25.3659 56.3065C25.5829 57.1749 26.3624 57.5818 27.0225 57.7784C27.7243 57.9874 28.6417 58.072 29.72 58.072V56.072ZM27.3048 55.8162L26.1168 51.1722L24.1792 51.6678L25.3672 56.3118L27.3048 55.8162ZM25.148 50.42H19.424V52.42H25.148V50.42ZM18.4503 51.1923L17.4063 55.6563L19.3537 56.1117L20.3977 51.6477L18.4503 51.1923ZM17.3982 55.694C17.4306 55.5269 17.5511 55.624 17.1007 55.7694C16.6729 55.9075 15.9679 56 14.924 56V58C16.0401 58 16.9911 57.9065 17.7153 57.6726C18.4169 57.446 19.1854 56.9851 19.3618 56.074L17.3982 55.694ZM14.924 56C13.7858 56 13.0227 55.939 12.5804 55.8428L12.1556 57.7972C12.8173 57.941 13.7582 58 14.924 58V56ZM12.6204 55.8524C12.3545 55.783 12.1933 55.7318 12.1114 55.6998C12.0642 55.6813 12.087 55.6859 12.138 55.7191C12.1622 55.7349 12.2363 55.7848 12.3142 55.8762C12.3881 55.963 12.54 56.1764 12.54 56.496H10.54C10.54 56.8336 10.7005 57.0661 10.7917 57.1732C10.8868 57.2848 10.9868 57.3561 11.0455 57.3944C11.1655 57.4726 11.2918 57.5267 11.3826 57.5622C11.5767 57.6382 11.8295 57.713 12.1156 57.7876L12.6204 55.8524ZM12.5075 56.7489L18.8795 32.3769L16.9445 31.8711L10.5725 56.2431L12.5075 56.7489ZM18.912 32.124C18.912 32.5056 18.6996 32.7455 18.5902 32.8414C18.4841 32.9343 18.3885 32.9735 18.3674 32.9822C18.3179 33.0024 18.3105 32.9974 18.3928 32.983C18.5398 32.9573 18.8014 32.9298 19.2033 32.9063C19.9951 32.8601 21.2044 32.836 22.844 32.836V30.836C21.1956 30.836 19.9389 30.8599 19.0867 30.9097C18.6666 30.9342 18.3117 30.9667 18.0477 31.013C17.9245 31.0346 17.7629 31.0686 17.6107 31.1308C17.5383 31.1605 17.4041 31.2215 17.2724 31.3369C17.1372 31.4553 16.912 31.7184 16.912 32.124H18.912ZM22.844 32.836C24.4836 32.836 25.6929 32.8601 26.4847 32.9063C26.8867 32.9298 27.1482 32.9573 27.2952 32.983C27.3775 32.9974 27.3701 33.0024 27.3206 32.9822C27.2995 32.9735 27.2039 32.9343 27.0978 32.8414C26.9884 32.7455 26.776 32.5056 26.776 32.124H28.776C28.776 31.7184 28.5508 31.4553 28.4156 31.3369C28.2839 31.2215 28.1497 31.1605 28.0773 31.1308C27.9251 31.0686 27.7635 31.0346 27.6403 31.013C27.3763 30.9667 27.0214 30.9342 26.6013 30.9097C25.7491 30.8599 24.4924 30.836 22.844 30.836V32.836ZM26.807 32.3712L33.035 56.7792L34.973 56.2848L28.745 31.8768L26.807 32.3712ZM33.004 56.532C33.004 56.2558 33.1236 56.0523 33.2229 55.9378C33.3127 55.8344 33.399 55.7856 33.423 55.7726C33.4696 55.7473 33.4669 55.7583 33.3574 55.7844C33.1555 55.8327 32.8012 55.8848 32.2614 55.9318L32.4346 57.9242C32.9988 57.8752 33.4725 57.8133 33.8226 57.7296C33.9891 57.6897 34.1934 57.6302 34.378 57.5299C34.4909 57.4685 35.004 57.1743 35.004 56.532H33.004ZM32.2614 55.9318C31.1691 56.0267 30.3259 56.072 29.72 56.072V58.072C30.4101 58.072 31.3189 58.0213 32.4346 57.9242L32.2614 55.9318ZM20.324 47.848H24.104V45.848H20.324V47.848ZM25.0812 46.6356L23.4612 39.1836L21.5068 39.6084L23.1268 47.0604L25.0812 46.6356ZM22.484 38.396H22.268V40.396H22.484V38.396ZM21.3004 39.1436L19.3564 46.5956L21.2916 47.1004L23.2356 39.6484L21.3004 39.1436ZM50.3938 31.62L50.2803 32.6135L50.2955 32.6153L50.3108 32.6165L50.3938 31.62ZM51.6898 50.916H50.6898V51.916H51.6898V50.916ZM54.1378 52.536L55.1262 52.3839L55.1244 52.3724L55.1224 52.361L54.1378 52.536ZM53.7058 55.776L54.6162 56.1898L54.6192 56.1833L54.622 56.1768L53.7058 55.776ZM49.2778 56.892L48.8165 57.7792L48.8235 57.7829L48.8306 57.7864L49.2778 56.892ZM48.0538 55.92L48.895 55.3792L48.8858 55.3649L48.876 55.3508L48.0538 55.92ZM47.7298 55.452L48.552 54.8828L47.8827 53.916L47.036 54.7319L47.7298 55.452ZM37.6498 54.876L36.8898 55.5259L36.8898 55.5259L37.6498 54.876ZM37.7578 41.088L38.4918 41.7672L38.4968 41.7618L37.7578 41.088ZM45.3178 38.856L45.1083 39.8338L46.3178 40.093V38.856H45.3178ZM42.6898 50.7L41.8689 51.2711L41.8749 51.2797L41.8811 51.2882L42.6898 50.7ZM45.3178 50.88L46.0045 51.607L46.3178 51.311V50.88H45.3178ZM45.3178 44.76H46.3178V44.1881L45.8249 43.8981L45.3178 44.76ZM46.3178 32.016C46.3178 32.4491 46.0097 32.6378 45.9905 32.6487C45.9665 32.6624 46.0169 32.6311 46.2154 32.5934C46.5942 32.5215 47.2288 32.476 48.1618 32.476V30.476C47.1989 30.476 46.4115 30.5205 45.8423 30.6286C45.5668 30.6809 45.2617 30.7621 45.0006 30.9108C44.7445 31.0567 44.3178 31.4029 44.3178 32.016H46.3178ZM48.1618 32.476C48.7625 32.476 49.4673 32.5206 50.2803 32.6135L50.5074 30.6265C49.6403 30.5274 48.8572 30.476 48.1618 30.476V32.476ZM50.3108 32.6165C50.7293 32.6514 50.988 32.6913 51.1233 32.7251C51.1992 32.7441 51.1726 32.746 51.105 32.7065C51.0691 32.6856 50.9782 32.6282 50.8887 32.5164C50.7899 32.3928 50.6898 32.1962 50.6898 31.944H52.6898C52.6898 31.3488 52.2439 31.0555 52.1127 30.979C51.9371 30.8765 51.7485 30.8199 51.6084 30.7849C51.3116 30.7107 50.9224 30.6606 50.4769 30.6235L50.3108 32.6165ZM50.6898 31.944V50.916H52.6898V31.944H50.6898ZM51.6898 51.916H52.9498V49.916H51.6898V51.916ZM52.9498 51.916C52.9436 51.916 52.9155 51.9129 52.885 51.8964C52.8581 51.8818 52.863 51.875 52.8904 51.9124C52.958 52.0046 53.069 52.2368 53.1533 52.711L55.1224 52.361C55.0147 51.7552 54.8316 51.1774 54.5033 50.7296C54.1421 50.2372 53.6088 49.916 52.9498 49.916V51.916ZM53.1495 52.6881C53.1861 52.926 53.2098 53.2993 53.2098 53.832H55.2098C55.2098 53.2607 55.1856 52.77 55.1262 52.3839L53.1495 52.6881ZM53.2098 53.832C53.2098 54.1647 53.0992 54.6676 52.7897 55.3752L54.622 56.1768C54.9845 55.3484 55.2098 54.5553 55.2098 53.832H53.2098ZM52.7955 55.3622C52.6124 55.7649 52.4049 56.0013 52.2033 56.14C52.0076 56.2745 51.7554 56.36 51.4018 56.36V58.36C52.1042 58.36 52.7641 58.1815 53.3364 57.788C53.9028 57.3987 54.3193 56.8431 54.6162 56.1898L52.7955 55.3622ZM51.4018 56.36C50.744 56.36 50.1925 56.2313 49.7251 55.9976L48.8306 57.7864C49.6112 58.1767 50.4757 58.36 51.4018 58.36V56.36ZM49.7392 56.0048C49.1995 55.7241 48.9724 55.4996 48.895 55.3792L47.2127 56.4608C47.5673 57.0124 48.1562 57.4359 48.8165 57.7792L49.7392 56.0048ZM48.876 55.3508L48.552 54.8828L46.9077 56.0212L47.2317 56.4892L48.876 55.3508ZM47.036 54.7319C45.9193 55.808 44.5196 56.36 42.7618 56.36V58.36C44.9881 58.36 46.9004 57.64 48.4237 56.1721L47.036 54.7319ZM42.7618 56.36C41.0918 56.36 39.656 55.6835 38.4099 54.2261L36.8898 55.5259C38.4757 57.3805 40.4479 58.36 42.7618 58.36V56.36ZM38.4099 54.2261C37.1962 52.8067 36.5258 50.7626 36.5258 47.964H34.5258C34.5258 51.0694 35.2715 53.6333 36.8898 55.5259L38.4099 54.2261ZM36.5258 47.964C36.5258 45.1483 37.2282 43.1327 38.4918 41.7672L37.0239 40.4088C35.3114 42.2593 34.5258 44.8277 34.5258 47.964H36.5258ZM38.4968 41.7618C39.793 40.3401 41.3837 39.64 43.3378 39.64V37.64C40.828 37.64 38.6987 38.5719 37.0189 40.4142L38.4968 41.7618ZM43.3378 39.64C43.9113 39.64 44.501 39.7037 45.1083 39.8338L45.5274 37.8782C44.7907 37.7203 44.0604 37.64 43.3378 37.64V39.64ZM46.3178 38.856V32.016H44.3178V38.856H46.3178ZM44.1298 43.4C43.6387 43.4 43.1614 43.5124 42.7326 43.7702C42.3054 44.027 41.9811 44.3952 41.7433 44.8241C41.2844 45.6516 41.1138 46.7644 41.1138 48.036H43.1138C43.1138 46.8836 43.2792 46.1784 43.4924 45.7939C43.5906 45.6168 43.6863 45.5305 43.7631 45.4843C43.8383 45.4391 43.949 45.4 44.1298 45.4V43.4ZM41.1138 48.036C41.1138 49.3188 41.3064 50.4624 41.8689 51.2711L43.5107 50.1289C43.3053 49.8336 43.1138 49.2012 43.1138 48.036H41.1138ZM41.8811 51.2882C42.367 51.9563 43.0511 52.492 43.9498 52.492V50.492C43.9366 50.492 43.7807 50.4997 43.4986 50.1118L41.8811 51.2882ZM43.9498 52.492C44.7426 52.492 45.4332 52.1465 46.0045 51.607L44.6312 50.153C44.3385 50.4295 44.1171 50.492 43.9498 50.492V52.492ZM46.3178 50.88V44.76H44.3178V50.88H46.3178ZM45.8249 43.8981C45.2987 43.5886 44.7293 43.4 44.1298 43.4V45.4C44.2984 45.4 44.5209 45.4514 44.8108 45.6219L45.8249 43.8981ZM55.1613 39.108L56.1277 38.851L56.115 38.8032L56.0976 38.7569L55.1613 39.108ZM62.0013 39H61.0013V39.1047L61.023 39.2072L62.0013 39ZM64.5933 51.24L63.615 51.4472L65.5806 51.3991L64.5933 51.24ZM66.5373 39.18L65.5886 38.8638L65.563 38.9408L65.5501 39.0209L66.5373 39.18ZM73.4853 39.144L72.549 38.7929L72.5353 38.8294L72.5245 38.8669L73.4853 39.144ZM68.4093 56.748L69.2285 57.3215L69.324 57.1851L69.3702 57.0251L68.4093 56.748ZM59.8053 56.568L58.8389 56.825L58.8686 56.9367L58.923 57.0386L59.8053 56.568ZM56.0976 38.7569C56.1784 38.9723 56.1829 39.227 56.0821 39.4643C55.9939 39.6717 55.8578 39.7899 55.7883 39.8418C55.6622 39.9359 55.5604 39.9558 55.596 39.946C55.6334 39.9357 55.7618 39.9114 56.03 39.8883C56.5432 39.8442 57.3627 39.82 58.5093 39.82V37.82C57.3519 37.82 56.4614 37.8438 55.8586 37.8957C55.5688 37.9206 55.2877 37.9563 55.0641 38.018C54.9692 38.0442 54.7741 38.1031 54.5917 38.2392C54.4941 38.3121 54.3391 38.4521 54.2414 38.682C54.131 38.9418 54.1352 39.2197 54.225 39.4591L56.0976 38.7569ZM58.5093 39.82C59.6695 39.82 60.5215 39.835 61.0768 39.8637C61.3599 39.8783 61.5368 39.8951 61.6302 39.9095C61.6854 39.918 61.6635 39.9187 61.6073 39.8985C61.5847 39.8903 61.4866 39.8548 61.376 39.7693C61.2735 39.69 61.0013 39.4386 61.0013 39H63.0013C63.0013 38.5464 62.72 38.2804 62.5994 38.1871C62.4706 38.0876 62.3452 38.0385 62.2862 38.0172C62.1572 37.9707 62.0262 37.947 61.9359 37.933C61.7383 37.9024 61.4787 37.8817 61.1798 37.8663C60.5711 37.835 59.6771 37.82 58.5093 37.82V39.82ZM61.023 39.2072L63.615 51.4472L65.5716 51.0328L62.9796 38.7928L61.023 39.2072ZM65.5806 51.3991L67.5246 39.3391L65.5501 39.0209L63.6061 51.0809L65.5806 51.3991ZM67.486 39.4962C67.3723 39.8374 67.1167 39.9705 67.0907 39.9845C67.033 40.0156 67.0066 40.0178 67.0496 40.0067C67.1289 39.9864 67.2931 39.9583 67.5728 39.9329C68.1206 39.8831 68.9572 39.856 70.1013 39.856V37.856C68.9414 37.856 68.032 37.8829 67.3918 37.9411C67.0776 37.9697 66.7873 38.0091 66.5515 38.0698C66.437 38.0992 66.288 38.1453 66.1425 38.2236C66.0288 38.2848 65.7204 38.4686 65.5886 38.8638L67.486 39.4962ZM70.1013 39.856C71.26 39.856 72.0889 39.8802 72.6085 39.9244C72.8798 39.9475 73.0113 39.9719 73.0512 39.9828C73.088 39.9928 72.988 39.9737 72.8629 39.8816C72.7942 39.831 72.657 39.7139 72.5672 39.5067C72.464 39.2686 72.4671 39.0113 72.549 38.7929L74.4216 39.4951C74.5125 39.2527 74.5152 38.9721 74.4023 38.7115C74.3028 38.4818 74.1464 38.343 74.0493 38.2714C73.8671 38.1373 73.6726 38.0792 73.5774 38.0532C73.3533 37.9921 73.0708 37.9565 72.7781 37.9316C72.1698 37.8798 71.2706 37.856 70.1013 37.856V39.856ZM72.5245 38.8669L67.4485 56.4709L69.3702 57.0251L74.4462 39.4211L72.5245 38.8669ZM67.5901 56.1745C67.6669 56.0648 67.7492 56.0003 67.7944 55.969C67.8417 55.9363 67.8774 55.9201 67.8885 55.9153C67.9081 55.9068 67.8951 55.9146 67.827 55.93C67.6937 55.9601 67.4683 55.993 67.1286 56.0215C66.4568 56.078 65.461 56.108 64.1253 56.108V58.108C65.4776 58.108 66.5398 58.078 67.2961 58.0145C67.6703 57.983 68.0015 57.9409 68.2671 57.881C68.3985 57.8514 68.5456 57.8105 68.686 57.7494C68.7992 57.7002 69.0471 57.5806 69.2285 57.3215L67.5901 56.1745ZM64.1253 56.108C62.7942 56.108 61.8112 56.063 61.1533 55.9807C60.8204 55.9391 60.6118 55.8927 60.4974 55.8549C60.4407 55.8361 60.4385 55.8295 60.4658 55.8466C60.4878 55.8603 60.6 55.9331 60.6877 56.0974L58.923 57.0386C59.0586 57.2929 59.2578 57.4501 59.4058 57.5426C59.5591 57.6384 59.7219 57.7049 59.8692 57.7536C60.1628 57.8508 60.5182 57.9169 60.9053 57.9653C61.6874 58.063 62.7684 58.108 64.1253 58.108V56.108ZM60.7717 56.311L56.1277 38.851L54.1949 39.365L58.8389 56.825L60.7717 56.311Z" fill="black" mask="url(#path-1-outside-1_0_1)"/>
<defs>
<linearGradient id="paint0_linear_0_1" x1="42.5" y1="24" x2="42.5" y2="65" gradientUnits="userSpaceOnUse">
<stop stop-color="#666666"/>
<stop offset="1"/>
</linearGradient>
</defs>
</svg>
