<svg width="138" height="39" viewBox="0 0 138 39" fill="none" xmlns="http://www.w3.org/2000/svg">
<rect x="2" y="1" width="134" height="37" rx="18.5" fill="url(#paint0_linear_21_3)"/>
<path d="M16.336 27.216C15.824 27.0667 15.4667 26.9173 15.264 26.768C15.072 26.6187 14.976 26.432 14.976 26.208C14.976 26.0373 15.024 25.7973 15.12 25.488C15.216 25.1787 15.3547 24.816 15.536 24.4C15.728 23.9733 15.952 23.504 16.208 22.992C16.4747 22.48 16.7733 21.9307 17.104 21.344C16.8267 21.3333 16.576 21.328 16.352 21.328C16.1387 21.3173 15.9627 21.312 15.824 21.312C15.888 21.152 16.0693 21.0133 16.368 20.896C16.6667 20.7787 17.0613 20.6773 17.552 20.592C17.968 19.8987 18.4107 19.2373 18.88 18.608C19.36 17.9787 19.84 17.4027 20.32 16.88C20.8 16.3467 21.28 15.8827 21.76 15.488C22.24 15.0827 22.6987 14.7627 23.136 14.528C23.1467 14.4533 23.152 14.3893 23.152 14.336C23.1627 14.2827 23.168 14.2453 23.168 14.224C23.3173 14.224 23.5147 14.2613 23.76 14.336C24.016 14.4107 24.2613 14.5013 24.496 14.608C24.7413 14.7147 24.9547 14.8267 25.136 14.944C25.328 15.0507 25.4347 15.1413 25.456 15.216C25.104 15.8347 24.7573 16.7627 24.416 18C24.0747 19.2267 23.792 20.6987 23.568 22.416C23.5147 22.8427 23.4667 23.328 23.424 23.872C23.392 24.416 23.376 25.024 23.376 25.696C23.376 25.9307 23.376 26.1707 23.376 26.416C23.376 26.6613 23.3867 26.9173 23.408 27.184C23.3867 27.1947 23.3653 27.2 23.344 27.2C23.3227 27.2 23.28 27.2 23.216 27.2C23.0667 27.2 22.8907 27.1733 22.688 27.12C22.496 27.0773 22.304 27.0187 22.112 26.944C21.9307 26.88 21.7707 26.8053 21.632 26.72C21.504 26.6347 21.424 26.56 21.392 26.496C21.3813 26.3573 21.376 26.2187 21.376 26.08C21.376 25.952 21.376 25.8133 21.376 25.664C21.376 25.0027 21.3973 24.3307 21.44 23.648C21.4933 22.9653 21.5787 22.2613 21.696 21.536C21.5467 21.5253 21.3493 21.5147 21.104 21.504C20.8587 21.4827 20.5813 21.4667 20.272 21.456C19.9733 21.4453 19.648 21.4347 19.296 21.424C18.9547 21.4027 18.6187 21.3867 18.288 21.376C18.032 21.856 17.792 22.336 17.568 22.816C17.344 23.2853 17.152 23.76 16.992 24.24C16.8107 24.752 16.6613 25.264 16.544 25.776C16.4373 26.288 16.368 26.768 16.336 27.216ZM22.512 17.6C22.5547 17.4507 22.6027 17.248 22.656 16.992C22.72 16.7253 22.7787 16.448 22.832 16.16C22.5653 16.256 22.2667 16.432 21.936 16.688C21.616 16.944 21.28 17.264 20.928 17.648C20.5867 18.0213 20.2347 18.448 19.872 18.928C19.52 19.3973 19.1787 19.8987 18.848 20.432C19.744 20.3573 20.7627 20.3093 21.904 20.288C21.9893 19.84 22.08 19.3973 22.176 18.96C22.2827 18.512 22.3947 18.0587 22.512 17.6ZM28.8056 18.528C29.019 18.528 29.2643 18.592 29.5416 18.72C29.819 18.848 30.0643 19.0133 30.2776 19.216C30.2243 18.7893 30.155 18.3893 30.0696 18.016C29.995 17.632 29.8776 17.2373 29.7176 16.832C29.5683 16.4267 29.3656 15.984 29.1096 15.504C28.8536 15.024 28.5336 14.4747 28.1496 13.856C28.1816 13.76 28.251 13.648 28.3576 13.52C28.475 13.392 28.603 13.2747 28.7416 13.168C28.891 13.0507 29.0403 12.9493 29.1896 12.864C29.3496 12.7787 29.499 12.7253 29.6376 12.704C29.9363 13.0347 30.219 13.4507 30.4856 13.952C30.7523 14.4427 30.987 14.976 31.1896 15.552C31.3923 16.1173 31.547 16.704 31.6536 17.312C31.771 17.92 31.8296 18.5013 31.8296 19.056C31.8296 19.6107 31.7656 20.1813 31.6376 20.768C31.5203 21.3547 31.3496 21.9307 31.1256 22.496C30.9123 23.0507 30.6616 23.5787 30.3736 24.08C30.0856 24.5813 29.771 25.0293 29.4296 25.424C29.099 25.8187 28.7523 26.1387 28.3896 26.384C28.027 26.64 27.6643 26.8 27.3016 26.864C26.5656 26.7787 26.0003 26.5387 25.6056 26.144C25.2216 25.76 25.0296 25.2267 25.0296 24.544C25.0296 24.1813 25.083 23.7867 25.1896 23.36C25.307 22.9333 25.4563 22.512 25.6376 22.096C25.8296 21.6693 26.0483 21.2587 26.2936 20.864C26.5496 20.4587 26.8163 20.096 27.0936 19.776C27.3816 19.456 27.6696 19.184 27.9576 18.96C28.2456 18.736 28.5283 18.592 28.8056 18.528ZM27.1736 26.224C27.547 26.096 27.9203 25.8133 28.2936 25.376C28.667 24.9387 29.003 24.4267 29.3016 23.84C29.6003 23.2427 29.8403 22.608 30.0216 21.936C30.2136 21.2533 30.3096 20.5973 30.3096 19.968C30.3096 19.7867 30.3096 19.6747 30.3096 19.632C30.3096 19.5893 30.3043 19.5467 30.2936 19.504C30.0376 19.6107 29.7656 19.792 29.4776 20.048C29.1896 20.304 28.9016 20.6027 28.6136 20.944C28.3256 21.2747 28.0536 21.6373 27.7976 22.032C27.5416 22.4267 27.3123 22.8213 27.1096 23.216C26.907 23.6107 26.747 23.9893 26.6296 24.352C26.5123 24.7147 26.4536 25.0347 26.4536 25.312C26.4536 25.8453 26.6936 26.1493 27.1736 26.224ZM33.1195 20.336C33.1195 20.144 33.1302 19.9627 33.1515 19.792C33.1835 19.6213 33.2422 19.4773 33.3275 19.36C33.4128 19.232 33.5302 19.136 33.6795 19.072C33.8288 18.9973 34.0262 18.96 34.2715 18.96C34.4208 18.96 34.5862 18.976 34.7675 19.008C34.9595 19.04 35.0982 19.0987 35.1835 19.184C35.1408 19.3653 35.1035 19.5253 35.0715 19.664C35.0502 19.8027 35.0288 19.9573 35.0075 20.128C34.9968 20.288 34.9862 20.4853 34.9755 20.72C34.9648 20.944 34.9542 21.2373 34.9435 21.6C34.9222 22.3253 34.8848 22.976 34.8315 23.552C34.7888 24.1173 34.6822 24.6827 34.5115 25.248C34.5115 25.2907 34.5275 25.312 34.5595 25.312C34.7195 25.1947 34.9008 25.024 35.1035 24.8C35.3062 24.576 35.5195 24.3253 35.7435 24.048C35.9675 23.76 36.1915 23.456 36.4155 23.136C36.6395 22.816 36.8475 22.5013 37.0395 22.192C37.2955 21.744 37.5782 21.184 37.8875 20.512C38.1968 19.84 38.4528 19.12 38.6555 18.352C38.7195 18.352 38.7995 18.368 38.8955 18.4C39.0022 18.4213 39.1035 18.4533 39.1995 18.496C39.3062 18.528 39.3968 18.5653 39.4715 18.608C39.5568 18.6507 39.6155 18.688 39.6475 18.72C39.6262 19.1787 39.5142 19.648 39.3115 20.128C39.1195 20.608 38.8848 21.072 38.6075 21.52C38.3302 21.968 38.0368 22.3893 37.7275 22.784C37.4182 23.1787 37.1355 23.52 36.8795 23.808C36.3675 24.4053 35.8502 24.9387 35.3275 25.408C34.8155 25.8773 34.2022 26.3307 33.4875 26.768C33.2102 26.6613 32.9915 26.5173 32.8315 26.336C32.6715 26.1653 32.5915 25.984 32.5915 25.792C32.5915 25.664 32.6182 25.52 32.6715 25.36C32.7355 25.1893 32.8048 24.976 32.8795 24.72C32.9542 24.4533 33.0182 24.1227 33.0715 23.728C33.1355 23.3333 33.1675 22.832 33.1675 22.224C33.1675 21.872 33.1568 21.52 33.1355 21.168C33.1248 20.8053 33.1195 20.528 33.1195 20.336ZM49.9919 19.328C50.3332 19.328 50.5999 19.424 50.7919 19.616C50.9945 19.808 51.0959 20.0747 51.0959 20.416C51.0959 20.5013 51.0905 20.592 51.0799 20.688C51.0692 20.7733 51.0479 20.848 51.0159 20.912C50.8772 20.8907 50.7225 20.8747 50.5519 20.864C50.3812 20.8427 50.1785 20.832 49.9439 20.832C49.4639 20.832 48.9839 20.8747 48.5039 20.96C48.0239 21.0453 47.5652 21.1147 47.1279 21.168C46.6479 22.2987 46.2532 23.36 45.9439 24.352C45.6345 25.344 45.3945 26.3253 45.2239 27.296C44.8612 27.2107 44.5412 27.056 44.2639 26.832C43.9865 26.608 43.7252 26.2933 43.4799 25.888C43.5545 25.7173 43.6452 25.5147 43.7519 25.28C43.8585 25.0347 43.9865 24.7307 44.1359 24.368C44.2852 23.9947 44.4612 23.5467 44.6639 23.024C44.8772 22.4907 45.1279 21.856 45.4159 21.12C44.9679 20.9707 44.6745 20.7093 44.5359 20.336C44.5892 20.2827 44.7385 20.224 44.9839 20.16C45.2292 20.0853 45.5279 20.0053 45.8799 19.92C46.0399 19.504 46.1785 19.136 46.2959 18.816C46.4132 18.4853 46.5199 18.176 46.6159 17.888C46.7119 17.5893 46.7972 17.3013 46.8719 17.024C46.9572 16.736 47.0319 16.432 47.0959 16.112H47.0159C46.6105 16.112 46.2799 16.016 46.0239 15.824C45.7785 15.632 45.6559 15.3813 45.6559 15.072C45.6559 14.9867 45.6665 14.8853 45.6879 14.768C45.7199 14.6507 45.7572 14.5493 45.7999 14.464C46.0025 14.496 46.1999 14.5173 46.3919 14.528C46.5945 14.5387 46.8559 14.544 47.1759 14.544C47.8479 14.544 48.4772 14.528 49.0639 14.496C49.6505 14.4533 50.1785 14.4107 50.6479 14.368C51.1279 14.3253 51.5385 14.288 51.8799 14.256C52.2212 14.2133 52.4825 14.192 52.6639 14.192C52.9092 14.192 53.1279 14.32 53.3199 14.576C53.5119 14.832 53.6612 15.1947 53.7679 15.664C53.4265 15.632 53.1492 15.6107 52.9359 15.6C52.7332 15.5893 52.5519 15.584 52.3919 15.584C51.8479 15.584 51.3465 15.6107 50.8879 15.664C50.4399 15.7067 50.0132 15.76 49.6079 15.824C49.5439 15.92 49.4692 16.0427 49.3839 16.192C49.3092 16.3413 49.2079 16.5547 49.0799 16.832C48.9519 17.0987 48.7865 17.4507 48.5839 17.888C48.3919 18.3253 48.1465 18.88 47.8479 19.552C48.2639 19.488 48.6585 19.4347 49.0319 19.392C49.4159 19.3493 49.7359 19.328 49.9919 19.328ZM56.1071 25.648C55.9045 25.4773 55.7658 25.264 55.6911 25.008C55.6271 24.752 55.5951 24.5333 55.5951 24.352C55.5951 24.128 55.6218 23.936 55.6751 23.776C55.6325 23.776 55.5365 23.8613 55.3871 24.032C55.2378 24.2027 55.0725 24.4053 54.8911 24.64C54.7205 24.8747 54.5498 25.104 54.3791 25.328C54.2085 25.552 54.0805 25.7173 53.9951 25.824C53.8565 25.9733 53.7231 26.0907 53.5951 26.176C53.4778 26.2613 53.3818 26.3093 53.3071 26.32C53.1365 26.3093 52.9551 26.272 52.7631 26.208C52.5818 26.1547 52.4058 26.0747 52.2351 25.968C52.0751 25.8613 51.9311 25.7333 51.8031 25.584C51.6858 25.4347 51.6058 25.264 51.5631 25.072C51.5631 24.7733 51.5685 24.528 51.5791 24.336C51.6005 24.144 51.6378 23.936 51.6911 23.712C51.7871 23.3067 51.9258 22.848 52.1071 22.336C52.2991 21.824 52.5178 21.3227 52.7631 20.832C53.0085 20.3307 53.2805 19.8667 53.5791 19.44C53.8885 19.0027 54.2138 18.6613 54.5551 18.416C54.6511 18.416 54.7631 18.4267 54.8911 18.448C55.0191 18.4587 55.1471 18.4853 55.2751 18.528C55.4138 18.5707 55.5418 18.624 55.6591 18.688C55.7871 18.7413 55.8938 18.816 55.9791 18.912C55.8831 19.0187 55.6378 19.376 55.2431 19.984C54.8591 20.592 54.4271 21.4667 53.9471 22.608C53.8938 22.7253 53.8298 22.896 53.7551 23.12C53.6805 23.344 53.6058 23.5787 53.5311 23.824C53.4565 24.0693 53.3925 24.3093 53.3391 24.544C53.2965 24.7787 53.2751 24.9653 53.2751 25.104C53.2751 25.1893 53.2858 25.2533 53.3071 25.296C53.3391 25.3387 53.3658 25.3707 53.3871 25.392C53.5471 25.328 53.7498 25.152 53.9951 24.864C54.2405 24.576 54.5818 24.1333 55.0191 23.536C55.1258 23.3867 55.2485 23.216 55.3871 23.024C55.5365 22.832 55.6858 22.6293 55.8351 22.416C55.9845 22.192 56.1231 21.9627 56.2511 21.728C56.3898 21.4933 56.5018 21.2587 56.5871 21.024C56.6298 20.896 56.6831 20.7467 56.7471 20.576C56.8218 20.3947 56.9071 20.208 57.0031 20.016C57.1098 19.824 57.2271 19.632 57.3551 19.44C57.4938 19.2373 57.6538 19.0507 57.8351 18.88C57.9738 18.88 58.1231 18.896 58.2831 18.928C58.4431 18.96 58.5925 19.0027 58.7311 19.056C58.8805 19.0987 59.0085 19.152 59.1151 19.216C59.2218 19.2693 59.3018 19.328 59.3551 19.392C59.1631 19.8613 58.9498 20.3253 58.7151 20.784C58.4805 21.2427 58.2618 21.696 58.0591 22.144C57.8565 22.5813 57.6858 23.0187 57.5471 23.456C57.4085 23.8933 57.3391 24.32 57.3391 24.736C57.3391 24.96 57.3551 25.1573 57.3871 25.328C57.4298 25.488 57.4725 25.6267 57.5151 25.744C57.5578 25.8507 57.5951 25.9413 57.6271 26.016C57.6698 26.0907 57.6911 26.1547 57.6911 26.208C57.6911 26.2187 57.6805 26.2347 57.6591 26.256C57.6485 26.2667 57.6378 26.272 57.6271 26.272C57.5525 26.272 57.4565 26.256 57.3391 26.224C57.2218 26.192 57.0885 26.144 56.9391 26.08C56.8005 26.0267 56.6565 25.9627 56.5071 25.888C56.3685 25.8133 56.2351 25.7333 56.1071 25.648ZM62.2534 18.24C62.5307 18.3253 62.792 18.5173 63.0374 18.816C63.2827 19.104 63.464 19.424 63.5814 19.776C63.464 20.064 63.2827 20.4107 63.0374 20.816C62.792 21.2213 62.5467 21.6373 62.3014 22.064C62.056 22.48 61.832 22.88 61.6294 23.264C61.4374 23.6373 61.3254 23.9467 61.2934 24.192C61.464 24.0107 61.6507 23.8027 61.8534 23.568C62.0667 23.3227 62.2694 23.0827 62.4614 22.848C62.664 22.6027 62.8507 22.384 63.0214 22.192C63.192 21.9893 63.3254 21.84 63.4214 21.744C63.624 21.5307 63.864 21.2853 64.1414 21.008C64.4187 20.72 64.7067 20.4533 65.0054 20.208C65.3147 19.952 65.624 19.7387 65.9334 19.568C66.2427 19.3867 66.5254 19.296 66.7814 19.296C67.0587 19.296 67.288 19.392 67.4694 19.584C67.6614 19.7653 67.8107 19.9573 67.9174 20.16C67.9174 20.1813 67.8747 20.2133 67.7894 20.256C67.7147 20.288 67.6027 20.3893 67.4534 20.56C67.304 20.752 67.1334 21.0187 66.9414 21.36C66.76 21.6907 66.5787 22.0533 66.3974 22.448C66.2267 22.832 66.0827 23.2267 65.9654 23.632C65.848 24.0373 65.7894 24.4053 65.7894 24.736C65.7894 25.0027 65.8214 25.1733 65.8854 25.248C65.96 25.3227 66.0614 25.36 66.1894 25.36C66.3067 25.36 66.4294 25.3333 66.5574 25.28C66.6854 25.2267 66.7867 25.2 66.8614 25.2C66.904 25.2213 66.936 25.2693 66.9574 25.344C66.9894 25.408 67.0054 25.4667 67.0054 25.52C66.92 25.5947 66.8187 25.6693 66.7014 25.744C66.584 25.8187 66.4614 25.888 66.3334 25.952C66.2054 26.016 66.0774 26.0693 65.9494 26.112C65.832 26.1547 65.7254 26.176 65.6294 26.176C65.32 26.176 65.064 26.128 64.8614 26.032C64.6694 25.9467 64.5147 25.8293 64.3974 25.68C64.2907 25.5307 64.216 25.3547 64.1734 25.152C64.1307 24.9387 64.1094 24.7147 64.1094 24.48C64.1094 24.352 64.12 24.208 64.1414 24.048C64.1627 23.888 64.2054 23.7013 64.2694 23.488C64.3334 23.264 64.424 23.0027 64.5414 22.704C64.6587 22.3947 64.808 22.0267 64.9894 21.6C64.968 21.6 64.824 21.6747 64.5574 21.824C64.2907 21.9733 64.0027 22.2027 63.6934 22.512C63.192 22.992 62.7387 23.4667 62.3334 23.936C61.9387 24.4053 61.5334 24.928 61.1174 25.504C60.8827 25.8347 60.6747 26.112 60.4934 26.336C60.3227 26.5707 60.1734 26.7253 60.0454 26.8C59.8214 26.672 59.656 26.4907 59.5494 26.256C59.4427 26.032 59.3627 25.7973 59.3094 25.552C59.3094 25.3493 59.336 25.0933 59.3894 24.784C59.4534 24.4747 59.5334 24.1333 59.6294 23.76C59.736 23.376 59.864 22.976 60.0134 22.56C60.1627 22.144 60.328 21.728 60.5094 21.312C60.9147 20.3733 61.2827 19.6373 61.6134 19.104C61.9547 18.5707 62.168 18.2827 62.2534 18.24ZM72.8985 27.216C72.3865 27.0667 72.0292 26.9173 71.8265 26.768C71.6345 26.6187 71.5385 26.432 71.5385 26.208C71.5385 26.0373 71.5865 25.7973 71.6825 25.488C71.7785 25.1787 71.9172 24.816 72.0985 24.4C72.2905 23.9733 72.5145 23.504 72.7705 22.992C73.0372 22.48 73.3358 21.9307 73.6665 21.344C73.3892 21.3333 73.1385 21.328 72.9145 21.328C72.7012 21.3173 72.5252 21.312 72.3865 21.312C72.4505 21.152 72.6318 21.0133 72.9305 20.896C73.2292 20.7787 73.6238 20.6773 74.1145 20.592C74.5305 19.8987 74.9732 19.2373 75.4425 18.608C75.9225 17.9787 76.4025 17.4027 76.8825 16.88C77.3625 16.3467 77.8425 15.8827 78.3225 15.488C78.8025 15.0827 79.2612 14.7627 79.6985 14.528C79.7092 14.4533 79.7145 14.3893 79.7145 14.336C79.7252 14.2827 79.7305 14.2453 79.7305 14.224C79.8798 14.224 80.0772 14.2613 80.3225 14.336C80.5785 14.4107 80.8238 14.5013 81.0585 14.608C81.3038 14.7147 81.5172 14.8267 81.6985 14.944C81.8905 15.0507 81.9972 15.1413 82.0185 15.216C81.6665 15.8347 81.3198 16.7627 80.9785 18C80.6372 19.2267 80.3545 20.6987 80.1305 22.416C80.0772 22.8427 80.0292 23.328 79.9865 23.872C79.9545 24.416 79.9385 25.024 79.9385 25.696C79.9385 25.9307 79.9385 26.1707 79.9385 26.416C79.9385 26.6613 79.9492 26.9173 79.9705 27.184C79.9492 27.1947 79.9278 27.2 79.9065 27.2C79.8852 27.2 79.8425 27.2 79.7785 27.2C79.6292 27.2 79.4532 27.1733 79.2505 27.12C79.0585 27.0773 78.8665 27.0187 78.6745 26.944C78.4932 26.88 78.3332 26.8053 78.1945 26.72C78.0665 26.6347 77.9865 26.56 77.9545 26.496C77.9438 26.3573 77.9385 26.2187 77.9385 26.08C77.9385 25.952 77.9385 25.8133 77.9385 25.664C77.9385 25.0027 77.9598 24.3307 78.0025 23.648C78.0558 22.9653 78.1412 22.2613 78.2585 21.536C78.1092 21.5253 77.9118 21.5147 77.6665 21.504C77.4212 21.4827 77.1438 21.4667 76.8345 21.456C76.5358 21.4453 76.2105 21.4347 75.8585 21.424C75.5172 21.4027 75.1812 21.3867 74.8505 21.376C74.5945 21.856 74.3545 22.336 74.1305 22.816C73.9065 23.2853 73.7145 23.76 73.5545 24.24C73.3732 24.752 73.2238 25.264 73.1065 25.776C72.9998 26.288 72.9305 26.768 72.8985 27.216ZM79.0745 17.6C79.1172 17.4507 79.1652 17.248 79.2185 16.992C79.2825 16.7253 79.3412 16.448 79.3945 16.16C79.1278 16.256 78.8292 16.432 78.4985 16.688C78.1785 16.944 77.8425 17.264 77.4905 17.648C77.1492 18.0213 76.7972 18.448 76.4345 18.928C76.0825 19.3973 75.7412 19.8987 75.4105 20.432C76.3065 20.3573 77.3252 20.3093 78.4665 20.288C78.5518 19.84 78.6425 19.3973 78.7385 18.96C78.8452 18.512 78.9572 18.0587 79.0745 17.6ZM86.2478 25.648C86.0451 25.4773 85.9064 25.264 85.8318 25.008C85.7678 24.752 85.7358 24.5333 85.7358 24.352C85.7358 24.128 85.7624 23.936 85.8158 23.776C85.7731 23.776 85.6771 23.8613 85.5278 24.032C85.3784 24.2027 85.2131 24.4053 85.0318 24.64C84.8611 24.8747 84.6904 25.104 84.5198 25.328C84.3491 25.552 84.2211 25.7173 84.1358 25.824C83.9971 25.9733 83.8638 26.0907 83.7358 26.176C83.6184 26.2613 83.5224 26.3093 83.4478 26.32C83.2771 26.3093 83.0958 26.272 82.9038 26.208C82.7224 26.1547 82.5464 26.0747 82.3758 25.968C82.2158 25.8613 82.0718 25.7333 81.9438 25.584C81.8264 25.4347 81.7464 25.264 81.7038 25.072C81.7038 24.7733 81.7091 24.528 81.7198 24.336C81.7411 24.144 81.7784 23.936 81.8318 23.712C81.9278 23.3067 82.0664 22.848 82.2478 22.336C82.4398 21.824 82.6584 21.3227 82.9038 20.832C83.1491 20.3307 83.4211 19.8667 83.7198 19.44C84.0291 19.0027 84.3544 18.6613 84.6958 18.416C84.7918 18.416 84.9038 18.4267 85.0318 18.448C85.1598 18.4587 85.2878 18.4853 85.4158 18.528C85.5544 18.5707 85.6824 18.624 85.7998 18.688C85.9278 18.7413 86.0344 18.816 86.1198 18.912C86.0238 19.0187 85.7784 19.376 85.3838 19.984C84.9998 20.592 84.5678 21.4667 84.0878 22.608C84.0344 22.7253 83.9704 22.896 83.8958 23.12C83.8211 23.344 83.7464 23.5787 83.6718 23.824C83.5971 24.0693 83.5331 24.3093 83.4798 24.544C83.4371 24.7787 83.4158 24.9653 83.4158 25.104C83.4158 25.1893 83.4264 25.2533 83.4478 25.296C83.4798 25.3387 83.5064 25.3707 83.5278 25.392C83.6878 25.328 83.8904 25.152 84.1358 24.864C84.3811 24.576 84.7224 24.1333 85.1598 23.536C85.2664 23.3867 85.3891 23.216 85.5278 23.024C85.6771 22.832 85.8264 22.6293 85.9758 22.416C86.1251 22.192 86.2638 21.9627 86.3918 21.728C86.5304 21.4933 86.6424 21.2587 86.7278 21.024C86.7704 20.896 86.8238 20.7467 86.8878 20.576C86.9624 20.3947 87.0478 20.208 87.1438 20.016C87.2504 19.824 87.3678 19.632 87.4958 19.44C87.6344 19.2373 87.7944 19.0507 87.9758 18.88C88.1144 18.88 88.2638 18.896 88.4237 18.928C88.5838 18.96 88.7331 19.0027 88.8718 19.056C89.0211 19.0987 89.1491 19.152 89.2558 19.216C89.3624 19.2693 89.4424 19.328 89.4958 19.392C89.3038 19.8613 89.0904 20.3253 88.8558 20.784C88.6211 21.2427 88.4024 21.696 88.1998 22.144C87.9971 22.5813 87.8264 23.0187 87.6878 23.456C87.5491 23.8933 87.4798 24.32 87.4798 24.736C87.4798 24.96 87.4958 25.1573 87.5278 25.328C87.5704 25.488 87.6131 25.6267 87.6558 25.744C87.6984 25.8507 87.7358 25.9413 87.7678 26.016C87.8104 26.0907 87.8318 26.1547 87.8318 26.208C87.8318 26.2187 87.8211 26.2347 87.7998 26.256C87.7891 26.2667 87.7784 26.272 87.7678 26.272C87.6931 26.272 87.5971 26.256 87.4798 26.224C87.3624 26.192 87.2291 26.144 87.0798 26.08C86.9411 26.0267 86.7971 25.9627 86.6478 25.888C86.5091 25.8133 86.3758 25.7333 86.2478 25.648ZM90.6835 19.872C90.6302 19.808 90.5822 19.6747 90.5395 19.472C90.4968 19.2587 90.4755 19.0773 90.4755 18.928C90.7528 18.9493 91.0195 18.9707 91.2755 18.992C91.5315 19.0027 91.7662 19.0133 91.9795 19.024C92.1395 18.704 92.3102 18.3893 92.4915 18.08C92.6835 17.76 92.8648 17.472 93.0355 17.216C93.2168 16.9493 93.3822 16.7253 93.5315 16.544C93.6915 16.3627 93.8142 16.2453 93.8995 16.192C94.0062 16.192 94.1395 16.2133 94.2995 16.256C94.4702 16.288 94.6408 16.336 94.8115 16.4C94.9822 16.4533 95.1368 16.512 95.2755 16.576C95.4142 16.64 95.5102 16.704 95.5635 16.768C95.2435 17.1733 94.9662 17.552 94.7315 17.904C94.5075 18.2453 94.2622 18.64 93.9955 19.088C94.2088 19.088 94.4222 19.0827 94.6355 19.072C94.8595 19.0613 95.0835 19.0453 95.3075 19.024C95.3608 19.0773 95.4035 19.1467 95.4355 19.232C95.4675 19.3067 95.4835 19.3867 95.4835 19.472C94.9608 19.664 94.3262 19.7707 93.5795 19.792C93.3128 20.304 93.0728 20.816 92.8595 21.328C92.6568 21.8293 92.4808 22.3147 92.3315 22.784C92.1928 23.2533 92.0808 23.696 91.9955 24.112C91.9208 24.528 91.8835 24.9013 91.8835 25.232C91.8835 25.7013 92.0595 25.9627 92.4115 26.016C92.7315 25.9733 93.0355 25.8933 93.3235 25.776C93.6115 25.6587 93.8675 25.5093 94.0915 25.328C94.1555 25.424 94.1928 25.504 94.2035 25.568C94.1395 25.664 94.0275 25.776 93.8675 25.904C93.7182 26.032 93.5528 26.1547 93.3715 26.272C93.1902 26.4 93.0142 26.5067 92.8435 26.592C92.6728 26.6773 92.5448 26.7253 92.4595 26.736C92.1928 26.7253 91.9262 26.6667 91.6595 26.56C91.3928 26.4533 91.1475 26.32 90.9235 26.16C90.7102 26 90.5342 25.824 90.3955 25.632C90.2568 25.4293 90.1875 25.232 90.1875 25.04C90.1875 24.784 90.2195 24.464 90.2835 24.08C90.3582 23.6853 90.4595 23.2587 90.5875 22.8C90.7155 22.3413 90.8648 21.8613 91.0355 21.36C91.2062 20.8587 91.3928 20.3627 91.5955 19.872H90.6835ZM95.3485 25.728C95.3485 25.3547 95.3858 24.9173 95.4605 24.416C95.5352 23.904 95.6418 23.36 95.7805 22.784C95.9298 22.208 96.1005 21.6053 96.2925 20.976C96.4952 20.3467 96.7192 19.7173 96.9645 19.088C97.1778 18.5227 97.4232 17.952 97.7005 17.376C97.9885 16.8 98.2978 16.2347 98.6285 15.68C98.9592 15.1253 99.3005 14.5973 99.6525 14.096C100.015 13.5947 100.378 13.136 100.741 12.72C100.911 12.72 101.093 12.7413 101.285 12.784C101.487 12.8267 101.679 12.8853 101.861 12.96C102.053 13.024 102.223 13.104 102.373 13.2C102.533 13.296 102.661 13.392 102.757 13.488C101.957 14.3093 101.237 15.1413 100.597 15.984C99.9565 16.816 99.4498 17.6 99.0765 18.336C98.8738 18.7413 98.6872 19.12 98.5165 19.472C98.3565 19.824 98.2072 20.176 98.0685 20.528C97.9298 20.8693 97.8018 21.216 97.6845 21.568C97.5778 21.9093 97.4765 22.272 97.3805 22.656C99.4285 20.0427 100.949 18.736 101.941 18.736C102.218 18.736 102.517 18.8267 102.837 19.008C103.157 19.1893 103.439 19.4347 103.685 19.744C103.354 20.1067 103.013 20.544 102.661 21.056C102.309 21.568 101.983 22.0853 101.685 22.608C101.397 23.12 101.157 23.6 100.965 24.048C100.783 24.4853 100.693 24.8107 100.693 25.024C100.693 25.1307 100.709 25.2053 100.741 25.248C100.773 25.28 100.842 25.296 100.949 25.296C101.109 25.296 101.237 25.2747 101.333 25.232C101.429 25.1893 101.487 25.168 101.509 25.168C101.562 25.2533 101.594 25.312 101.605 25.344C101.615 25.376 101.621 25.4027 101.621 25.424C101.621 25.4667 101.557 25.5307 101.429 25.616C101.301 25.6907 101.146 25.7707 100.965 25.856C100.794 25.9307 100.623 26 100.453 26.064C100.282 26.128 100.154 26.16 100.069 26.16C99.9618 26.16 99.8552 26.128 99.7485 26.064C99.6418 26.0107 99.5458 25.936 99.4605 25.84C99.3858 25.744 99.3218 25.6373 99.2685 25.52C99.2258 25.4027 99.2045 25.28 99.2045 25.152C99.2045 24.992 99.2472 24.7573 99.3325 24.448C99.4285 24.128 99.5565 23.76 99.7165 23.344C99.8765 22.9173 100.069 22.4533 100.293 21.952C100.517 21.4507 100.757 20.9387 101.013 20.416C101.013 20.3733 100.991 20.352 100.949 20.352C100.917 20.352 100.831 20.3947 100.693 20.48C100.565 20.5653 100.442 20.6507 100.325 20.736C99.9405 21.024 99.5512 21.3813 99.1565 21.808C98.7725 22.224 98.3938 22.6827 98.0205 23.184C97.6578 23.6853 97.3112 24.2187 96.9805 24.784C96.6605 25.3387 96.3832 25.8987 96.1485 26.464C96.1165 26.5387 96.0685 26.608 96.0045 26.672C95.9405 26.736 95.8872 26.768 95.8445 26.768C95.8125 26.768 95.7645 26.7307 95.7005 26.656C95.6472 26.5813 95.5938 26.4853 95.5405 26.368C95.4978 26.2613 95.4552 26.1493 95.4125 26.032C95.3698 25.9147 95.3485 25.8133 95.3485 25.728ZM111.027 25.376C110.813 25.344 110.589 25.2587 110.355 25.12C110.131 24.9813 109.912 24.816 109.699 24.624C109.784 24.3147 109.869 24.0107 109.955 23.712C110.04 23.4027 110.125 23.0987 110.211 22.8C110.029 22.8213 109.848 22.8373 109.667 22.848C109.485 22.8587 109.304 22.864 109.123 22.864C108.739 22.864 108.429 22.7733 108.195 22.592C107.971 22.4 107.859 22.1387 107.859 21.808C107.859 21.7547 107.869 21.6747 107.891 21.568C107.923 21.4507 107.949 21.3653 107.971 21.312C108.173 21.344 108.365 21.3653 108.547 21.376C108.739 21.3867 108.984 21.392 109.283 21.392C109.528 21.392 109.768 21.392 110.003 21.392C110.248 21.392 110.483 21.3813 110.707 21.36C110.952 20.688 111.197 20.0907 111.443 19.568C111.699 19.0347 111.949 18.6133 112.195 18.304C112.323 18.3253 112.488 18.3787 112.691 18.464C112.893 18.5493 113.091 18.6453 113.283 18.752C113.485 18.848 113.667 18.9493 113.827 19.056C113.987 19.1627 114.088 19.248 114.131 19.312C113.885 19.5787 113.656 19.872 113.443 20.192C113.229 20.5013 113.016 20.8427 112.803 21.216C113.187 21.184 113.517 21.152 113.795 21.12C114.083 21.088 114.301 21.072 114.451 21.072C114.685 21.072 114.893 21.1947 115.075 21.44C115.256 21.6853 115.389 22.0373 115.475 22.496C115.165 22.464 114.909 22.4427 114.707 22.432C114.515 22.4213 114.344 22.416 114.195 22.416C113.811 22.416 113.443 22.432 113.091 22.464C112.749 22.4853 112.424 22.5173 112.115 22.56C111.912 23.008 111.72 23.4667 111.539 23.936C111.357 24.4053 111.187 24.8853 111.027 25.376ZM119.933 25.376C119.72 25.344 119.496 25.2587 119.261 25.12C119.037 24.9813 118.818 24.816 118.605 24.624C118.69 24.3147 118.776 24.0107 118.861 23.712C118.946 23.4027 119.032 23.0987 119.117 22.8C118.936 22.8213 118.754 22.8373 118.573 22.848C118.392 22.8587 118.21 22.864 118.029 22.864C117.645 22.864 117.336 22.7733 117.101 22.592C116.877 22.4 116.765 22.1387 116.765 21.808C116.765 21.7547 116.776 21.6747 116.797 21.568C116.829 21.4507 116.856 21.3653 116.877 21.312C117.08 21.344 117.272 21.3653 117.453 21.376C117.645 21.3867 117.89 21.392 118.189 21.392C118.434 21.392 118.674 21.392 118.909 21.392C119.154 21.392 119.389 21.3813 119.613 21.36C119.858 20.688 120.104 20.0907 120.349 19.568C120.605 19.0347 120.856 18.6133 121.101 18.304C121.229 18.3253 121.394 18.3787 121.597 18.464C121.8 18.5493 121.997 18.6453 122.189 18.752C122.392 18.848 122.573 18.9493 122.733 19.056C122.893 19.1627 122.994 19.248 123.037 19.312C122.792 19.5787 122.562 19.872 122.349 20.192C122.136 20.5013 121.922 20.8427 121.709 21.216C122.093 21.184 122.424 21.152 122.701 21.12C122.989 21.088 123.208 21.072 123.357 21.072C123.592 21.072 123.8 21.1947 123.981 21.44C124.162 21.6853 124.296 22.0373 124.381 22.496C124.072 22.464 123.816 22.4427 123.613 22.432C123.421 22.4213 123.25 22.416 123.101 22.416C122.717 22.416 122.349 22.432 121.997 22.464C121.656 22.4853 121.33 22.5173 121.021 22.56C120.818 23.008 120.626 23.4667 120.445 23.936C120.264 24.4053 120.093 24.8853 119.933 25.376Z" fill="#724106"/>
<defs>
<linearGradient id="paint0_linear_21_3" x1="48" y1="38" x2="122.079" y2="-0.688835" gradientUnits="userSpaceOnUse">
<stop stop-color="#FFC587"/>
<stop offset="1" stop-color="#F5CFA5"/>
</linearGradient>
</defs>
</svg>
