<svg width="138" height="39" viewBox="0 0 138 39" fill="none" xmlns="http://www.w3.org/2000/svg">
<rect x="2" y="1" width="134" height="37" rx="18.5" fill="url(#paint0_linear_21_3)"/>
<path d="M20.336 27.216C19.824 27.0667 19.4667 26.9173 19.264 26.768C19.072 26.6187 18.976 26.432 18.976 26.208C18.976 26.0373 19.024 25.7973 19.12 25.488C19.216 25.1787 19.3547 24.816 19.536 24.4C19.728 23.9733 19.952 23.504 20.208 22.992C20.4747 22.48 20.7733 21.9307 21.104 21.344C20.8267 21.3333 20.576 21.328 20.352 21.328C20.1387 21.3173 19.9627 21.312 19.824 21.312C19.888 21.152 20.0693 21.0133 20.368 20.896C20.6667 20.7787 21.0613 20.6773 21.552 20.592C21.968 19.8987 22.4107 19.2373 22.88 18.608C23.36 17.9787 23.84 17.4027 24.32 16.88C24.8 16.3467 25.28 15.8827 25.76 15.488C26.24 15.0827 26.6987 14.7627 27.136 14.528C27.1467 14.4533 27.152 14.3893 27.152 14.336C27.1627 14.2827 27.168 14.2453 27.168 14.224C27.3173 14.224 27.5147 14.2613 27.76 14.336C28.016 14.4107 28.2613 14.5013 28.496 14.608C28.7413 14.7147 28.9547 14.8267 29.136 14.944C29.328 15.0507 29.4347 15.1413 29.456 15.216C29.104 15.8347 28.7573 16.7627 28.416 18C28.0747 19.2267 27.792 20.6987 27.568 22.416C27.5147 22.8427 27.4667 23.328 27.424 23.872C27.392 24.416 27.376 25.024 27.376 25.696C27.376 25.9307 27.376 26.1707 27.376 26.416C27.376 26.6613 27.3867 26.9173 27.408 27.184C27.3867 27.1947 27.3653 27.2 27.344 27.2C27.3227 27.2 27.28 27.2 27.216 27.2C27.0667 27.2 26.8907 27.1733 26.688 27.12C26.496 27.0773 26.304 27.0187 26.112 26.944C25.9307 26.88 25.7707 26.8053 25.632 26.72C25.504 26.6347 25.424 26.56 25.392 26.496C25.3813 26.3573 25.376 26.2187 25.376 26.08C25.376 25.952 25.376 25.8133 25.376 25.664C25.376 25.0027 25.3973 24.3307 25.44 23.648C25.4933 22.9653 25.5787 22.2613 25.696 21.536C25.5467 21.5253 25.3493 21.5147 25.104 21.504C24.8587 21.4827 24.5813 21.4667 24.272 21.456C23.9733 21.4453 23.648 21.4347 23.296 21.424C22.9547 21.4027 22.6187 21.3867 22.288 21.376C22.032 21.856 21.792 22.336 21.568 22.816C21.344 23.2853 21.152 23.76 20.992 24.24C20.8107 24.752 20.6613 25.264 20.544 25.776C20.4373 26.288 20.368 26.768 20.336 27.216ZM26.512 17.6C26.5547 17.4507 26.6027 17.248 26.656 16.992C26.72 16.7253 26.7787 16.448 26.832 16.16C26.5653 16.256 26.2667 16.432 25.936 16.688C25.616 16.944 25.28 17.264 24.928 17.648C24.5867 18.0213 24.2347 18.448 23.872 18.928C23.52 19.3973 23.1787 19.8987 22.848 20.432C23.744 20.3573 24.7627 20.3093 25.904 20.288C25.9893 19.84 26.08 19.3973 26.176 18.96C26.2827 18.512 26.3947 18.0587 26.512 17.6ZM32.8056 18.528C33.019 18.528 33.2643 18.592 33.5416 18.72C33.819 18.848 34.0643 19.0133 34.2776 19.216C34.2243 18.7893 34.155 18.3893 34.0696 18.016C33.995 17.632 33.8776 17.2373 33.7176 16.832C33.5683 16.4267 33.3656 15.984 33.1096 15.504C32.8536 15.024 32.5336 14.4747 32.1496 13.856C32.1816 13.76 32.251 13.648 32.3576 13.52C32.475 13.392 32.603 13.2747 32.7416 13.168C32.891 13.0507 33.0403 12.9493 33.1896 12.864C33.3496 12.7787 33.499 12.7253 33.6376 12.704C33.9363 13.0347 34.219 13.4507 34.4856 13.952C34.7523 14.4427 34.987 14.976 35.1896 15.552C35.3923 16.1173 35.547 16.704 35.6536 17.312C35.771 17.92 35.8296 18.5013 35.8296 19.056C35.8296 19.6107 35.7656 20.1813 35.6376 20.768C35.5203 21.3547 35.3496 21.9307 35.1256 22.496C34.9123 23.0507 34.6616 23.5787 34.3736 24.08C34.0856 24.5813 33.771 25.0293 33.4296 25.424C33.099 25.8187 32.7523 26.1387 32.3896 26.384C32.027 26.64 31.6643 26.8 31.3016 26.864C30.5656 26.7787 30.0003 26.5387 29.6056 26.144C29.2216 25.76 29.0296 25.2267 29.0296 24.544C29.0296 24.1813 29.083 23.7867 29.1896 23.36C29.307 22.9333 29.4563 22.512 29.6376 22.096C29.8296 21.6693 30.0483 21.2587 30.2936 20.864C30.5496 20.4587 30.8163 20.096 31.0936 19.776C31.3816 19.456 31.6696 19.184 31.9576 18.96C32.2456 18.736 32.5283 18.592 32.8056 18.528ZM31.1736 26.224C31.547 26.096 31.9203 25.8133 32.2936 25.376C32.667 24.9387 33.003 24.4267 33.3016 23.84C33.6003 23.2427 33.8403 22.608 34.0216 21.936C34.2136 21.2533 34.3096 20.5973 34.3096 19.968C34.3096 19.7867 34.3096 19.6747 34.3096 19.632C34.3096 19.5893 34.3043 19.5467 34.2936 19.504C34.0376 19.6107 33.7656 19.792 33.4776 20.048C33.1896 20.304 32.9016 20.6027 32.6136 20.944C32.3256 21.2747 32.0536 21.6373 31.7976 22.032C31.5416 22.4267 31.3123 22.8213 31.1096 23.216C30.907 23.6107 30.747 23.9893 30.6296 24.352C30.5123 24.7147 30.4536 25.0347 30.4536 25.312C30.4536 25.8453 30.6936 26.1493 31.1736 26.224ZM37.1195 20.336C37.1195 20.144 37.1302 19.9627 37.1515 19.792C37.1835 19.6213 37.2422 19.4773 37.3275 19.36C37.4128 19.232 37.5302 19.136 37.6795 19.072C37.8288 18.9973 38.0262 18.96 38.2715 18.96C38.4208 18.96 38.5862 18.976 38.7675 19.008C38.9595 19.04 39.0982 19.0987 39.1835 19.184C39.1408 19.3653 39.1035 19.5253 39.0715 19.664C39.0502 19.8027 39.0288 19.9573 39.0075 20.128C38.9968 20.288 38.9862 20.4853 38.9755 20.72C38.9648 20.944 38.9542 21.2373 38.9435 21.6C38.9222 22.3253 38.8848 22.976 38.8315 23.552C38.7888 24.1173 38.6822 24.6827 38.5115 25.248C38.5115 25.2907 38.5275 25.312 38.5595 25.312C38.7195 25.1947 38.9008 25.024 39.1035 24.8C39.3062 24.576 39.5195 24.3253 39.7435 24.048C39.9675 23.76 40.1915 23.456 40.4155 23.136C40.6395 22.816 40.8475 22.5013 41.0395 22.192C41.2955 21.744 41.5782 21.184 41.8875 20.512C42.1968 19.84 42.4528 19.12 42.6555 18.352C42.7195 18.352 42.7995 18.368 42.8955 18.4C43.0022 18.4213 43.1035 18.4533 43.1995 18.496C43.3062 18.528 43.3968 18.5653 43.4715 18.608C43.5568 18.6507 43.6155 18.688 43.6475 18.72C43.6262 19.1787 43.5142 19.648 43.3115 20.128C43.1195 20.608 42.8848 21.072 42.6075 21.52C42.3302 21.968 42.0368 22.3893 41.7275 22.784C41.4182 23.1787 41.1355 23.52 40.8795 23.808C40.3675 24.4053 39.8502 24.9387 39.3275 25.408C38.8155 25.8773 38.2022 26.3307 37.4875 26.768C37.2102 26.6613 36.9915 26.5173 36.8315 26.336C36.6715 26.1653 36.5915 25.984 36.5915 25.792C36.5915 25.664 36.6182 25.52 36.6715 25.36C36.7355 25.1893 36.8048 24.976 36.8795 24.72C36.9542 24.4533 37.0182 24.1227 37.0715 23.728C37.1355 23.3333 37.1675 22.832 37.1675 22.224C37.1675 21.872 37.1568 21.52 37.1355 21.168C37.1248 20.8053 37.1195 20.528 37.1195 20.336ZM53.9919 19.328C54.3332 19.328 54.5999 19.424 54.7919 19.616C54.9945 19.808 55.0959 20.0747 55.0959 20.416C55.0959 20.5013 55.0905 20.592 55.0799 20.688C55.0692 20.7733 55.0479 20.848 55.0159 20.912C54.8772 20.8907 54.7225 20.8747 54.5519 20.864C54.3812 20.8427 54.1785 20.832 53.9439 20.832C53.4639 20.832 52.9839 20.8747 52.5039 20.96C52.0239 21.0453 51.5652 21.1147 51.1279 21.168C50.6479 22.2987 50.2532 23.36 49.9439 24.352C49.6345 25.344 49.3945 26.3253 49.2239 27.296C48.8612 27.2107 48.5412 27.056 48.2639 26.832C47.9865 26.608 47.7252 26.2933 47.4799 25.888C47.5545 25.7173 47.6452 25.5147 47.7519 25.28C47.8585 25.0347 47.9865 24.7307 48.1359 24.368C48.2852 23.9947 48.4612 23.5467 48.6639 23.024C48.8772 22.4907 49.1279 21.856 49.4159 21.12C48.9679 20.9707 48.6745 20.7093 48.5359 20.336C48.5892 20.2827 48.7385 20.224 48.9839 20.16C49.2292 20.0853 49.5279 20.0053 49.8799 19.92C50.0399 19.504 50.1785 19.136 50.2959 18.816C50.4132 18.4853 50.5199 18.176 50.6159 17.888C50.7119 17.5893 50.7972 17.3013 50.8719 17.024C50.9572 16.736 51.0319 16.432 51.0959 16.112H51.0159C50.6105 16.112 50.2799 16.016 50.0239 15.824C49.7785 15.632 49.6559 15.3813 49.6559 15.072C49.6559 14.9867 49.6665 14.8853 49.6879 14.768C49.7199 14.6507 49.7572 14.5493 49.7999 14.464C50.0025 14.496 50.1999 14.5173 50.3919 14.528C50.5945 14.5387 50.8559 14.544 51.1759 14.544C51.8479 14.544 52.4772 14.528 53.0639 14.496C53.6505 14.4533 54.1785 14.4107 54.6479 14.368C55.1279 14.3253 55.5385 14.288 55.8799 14.256C56.2212 14.2133 56.4825 14.192 56.6639 14.192C56.9092 14.192 57.1279 14.32 57.3199 14.576C57.5119 14.832 57.6612 15.1947 57.7679 15.664C57.4265 15.632 57.1492 15.6107 56.9359 15.6C56.7332 15.5893 56.5519 15.584 56.3919 15.584C55.8479 15.584 55.3465 15.6107 54.8879 15.664C54.4399 15.7067 54.0132 15.76 53.6079 15.824C53.5439 15.92 53.4692 16.0427 53.3839 16.192C53.3092 16.3413 53.2079 16.5547 53.0799 16.832C52.9519 17.0987 52.7865 17.4507 52.5839 17.888C52.3919 18.3253 52.1465 18.88 51.8479 19.552C52.2639 19.488 52.6585 19.4347 53.0319 19.392C53.4159 19.3493 53.7359 19.328 53.9919 19.328ZM60.1071 25.648C59.9045 25.4773 59.7658 25.264 59.6911 25.008C59.6271 24.752 59.5951 24.5333 59.5951 24.352C59.5951 24.128 59.6218 23.936 59.6751 23.776C59.6325 23.776 59.5365 23.8613 59.3871 24.032C59.2378 24.2027 59.0725 24.4053 58.8911 24.64C58.7205 24.8747 58.5498 25.104 58.3791 25.328C58.2085 25.552 58.0805 25.7173 57.9951 25.824C57.8565 25.9733 57.7231 26.0907 57.5951 26.176C57.4778 26.2613 57.3818 26.3093 57.3071 26.32C57.1365 26.3093 56.9551 26.272 56.7631 26.208C56.5818 26.1547 56.4058 26.0747 56.2351 25.968C56.0751 25.8613 55.9311 25.7333 55.8031 25.584C55.6858 25.4347 55.6058 25.264 55.5631 25.072C55.5631 24.7733 55.5685 24.528 55.5791 24.336C55.6005 24.144 55.6378 23.936 55.6911 23.712C55.7871 23.3067 55.9258 22.848 56.1071 22.336C56.2991 21.824 56.5178 21.3227 56.7631 20.832C57.0085 20.3307 57.2805 19.8667 57.5791 19.44C57.8885 19.0027 58.2138 18.6613 58.5551 18.416C58.6511 18.416 58.7631 18.4267 58.8911 18.448C59.0191 18.4587 59.1471 18.4853 59.2751 18.528C59.4138 18.5707 59.5418 18.624 59.6591 18.688C59.7871 18.7413 59.8938 18.816 59.9791 18.912C59.8831 19.0187 59.6378 19.376 59.2431 19.984C58.8591 20.592 58.4271 21.4667 57.9471 22.608C57.8938 22.7253 57.8298 22.896 57.7551 23.12C57.6805 23.344 57.6058 23.5787 57.5311 23.824C57.4565 24.0693 57.3925 24.3093 57.3391 24.544C57.2965 24.7787 57.2751 24.9653 57.2751 25.104C57.2751 25.1893 57.2858 25.2533 57.3071 25.296C57.3391 25.3387 57.3658 25.3707 57.3871 25.392C57.5471 25.328 57.7498 25.152 57.9951 24.864C58.2405 24.576 58.5818 24.1333 59.0191 23.536C59.1258 23.3867 59.2485 23.216 59.3871 23.024C59.5365 22.832 59.6858 22.6293 59.8351 22.416C59.9845 22.192 60.1231 21.9627 60.2511 21.728C60.3898 21.4933 60.5018 21.2587 60.5871 21.024C60.6298 20.896 60.6831 20.7467 60.7471 20.576C60.8218 20.3947 60.9071 20.208 61.0031 20.016C61.1098 19.824 61.2271 19.632 61.3551 19.44C61.4938 19.2373 61.6538 19.0507 61.8351 18.88C61.9738 18.88 62.1231 18.896 62.2831 18.928C62.4431 18.96 62.5925 19.0027 62.7311 19.056C62.8805 19.0987 63.0085 19.152 63.1151 19.216C63.2218 19.2693 63.3018 19.328 63.3551 19.392C63.1631 19.8613 62.9498 20.3253 62.7151 20.784C62.4805 21.2427 62.2618 21.696 62.0591 22.144C61.8565 22.5813 61.6858 23.0187 61.5471 23.456C61.4085 23.8933 61.3391 24.32 61.3391 24.736C61.3391 24.96 61.3551 25.1573 61.3871 25.328C61.4298 25.488 61.4725 25.6267 61.5151 25.744C61.5578 25.8507 61.5951 25.9413 61.6271 26.016C61.6698 26.0907 61.6911 26.1547 61.6911 26.208C61.6911 26.2187 61.6805 26.2347 61.6591 26.256C61.6485 26.2667 61.6378 26.272 61.6271 26.272C61.5525 26.272 61.4565 26.256 61.3391 26.224C61.2218 26.192 61.0885 26.144 60.9391 26.08C60.8005 26.0267 60.6565 25.9627 60.5071 25.888C60.3685 25.8133 60.2351 25.7333 60.1071 25.648ZM66.2534 18.24C66.5307 18.3253 66.792 18.5173 67.0374 18.816C67.2827 19.104 67.464 19.424 67.5814 19.776C67.464 20.064 67.2827 20.4107 67.0374 20.816C66.792 21.2213 66.5467 21.6373 66.3014 22.064C66.056 22.48 65.832 22.88 65.6294 23.264C65.4374 23.6373 65.3254 23.9467 65.2934 24.192C65.464 24.0107 65.6507 23.8027 65.8534 23.568C66.0667 23.3227 66.2694 23.0827 66.4614 22.848C66.664 22.6027 66.8507 22.384 67.0214 22.192C67.192 21.9893 67.3254 21.84 67.4214 21.744C67.624 21.5307 67.864 21.2853 68.1414 21.008C68.4187 20.72 68.7067 20.4533 69.0054 20.208C69.3147 19.952 69.624 19.7387 69.9334 19.568C70.2427 19.3867 70.5254 19.296 70.7814 19.296C71.0587 19.296 71.288 19.392 71.4694 19.584C71.6614 19.7653 71.8107 19.9573 71.9174 20.16C71.9174 20.1813 71.8747 20.2133 71.7894 20.256C71.7147 20.288 71.6027 20.3893 71.4534 20.56C71.304 20.752 71.1334 21.0187 70.9414 21.36C70.76 21.6907 70.5787 22.0533 70.3974 22.448C70.2267 22.832 70.0827 23.2267 69.9654 23.632C69.848 24.0373 69.7894 24.4053 69.7894 24.736C69.7894 25.0027 69.8214 25.1733 69.8854 25.248C69.96 25.3227 70.0614 25.36 70.1894 25.36C70.3067 25.36 70.4294 25.3333 70.5574 25.28C70.6854 25.2267 70.7867 25.2 70.8614 25.2C70.904 25.2213 70.936 25.2693 70.9574 25.344C70.9894 25.408 71.0054 25.4667 71.0054 25.52C70.92 25.5947 70.8187 25.6693 70.7014 25.744C70.584 25.8187 70.4614 25.888 70.3334 25.952C70.2054 26.016 70.0774 26.0693 69.9494 26.112C69.832 26.1547 69.7254 26.176 69.6294 26.176C69.32 26.176 69.064 26.128 68.8614 26.032C68.6694 25.9467 68.5147 25.8293 68.3974 25.68C68.2907 25.5307 68.216 25.3547 68.1734 25.152C68.1307 24.9387 68.1094 24.7147 68.1094 24.48C68.1094 24.352 68.12 24.208 68.1414 24.048C68.1627 23.888 68.2054 23.7013 68.2694 23.488C68.3334 23.264 68.424 23.0027 68.5414 22.704C68.6587 22.3947 68.808 22.0267 68.9894 21.6C68.968 21.6 68.824 21.6747 68.5574 21.824C68.2907 21.9733 68.0027 22.2027 67.6934 22.512C67.192 22.992 66.7387 23.4667 66.3334 23.936C65.9387 24.4053 65.5334 24.928 65.1174 25.504C64.8827 25.8347 64.6747 26.112 64.4934 26.336C64.3227 26.5707 64.1734 26.7253 64.0454 26.8C63.8214 26.672 63.656 26.4907 63.5494 26.256C63.4427 26.032 63.3627 25.7973 63.3094 25.552C63.3094 25.3493 63.336 25.0933 63.3894 24.784C63.4534 24.4747 63.5334 24.1333 63.6294 23.76C63.736 23.376 63.864 22.976 64.0134 22.56C64.1627 22.144 64.328 21.728 64.5094 21.312C64.9147 20.3733 65.2827 19.6373 65.6134 19.104C65.9547 18.5707 66.168 18.2827 66.2534 18.24ZM76.8985 27.216C76.3865 27.0667 76.0292 26.9173 75.8265 26.768C75.6345 26.6187 75.5385 26.432 75.5385 26.208C75.5385 26.0373 75.5865 25.7973 75.6825 25.488C75.7785 25.1787 75.9172 24.816 76.0985 24.4C76.2905 23.9733 76.5145 23.504 76.7705 22.992C77.0372 22.48 77.3358 21.9307 77.6665 21.344C77.3892 21.3333 77.1385 21.328 76.9145 21.328C76.7012 21.3173 76.5252 21.312 76.3865 21.312C76.4505 21.152 76.6318 21.0133 76.9305 20.896C77.2292 20.7787 77.6238 20.6773 78.1145 20.592C78.5305 19.8987 78.9732 19.2373 79.4425 18.608C79.9225 17.9787 80.4025 17.4027 80.8825 16.88C81.3625 16.3467 81.8425 15.8827 82.3225 15.488C82.8025 15.0827 83.2612 14.7627 83.6985 14.528C83.7092 14.4533 83.7145 14.3893 83.7145 14.336C83.7252 14.2827 83.7305 14.2453 83.7305 14.224C83.8798 14.224 84.0772 14.2613 84.3225 14.336C84.5785 14.4107 84.8238 14.5013 85.0585 14.608C85.3038 14.7147 85.5172 14.8267 85.6985 14.944C85.8905 15.0507 85.9972 15.1413 86.0185 15.216C85.6665 15.8347 85.3198 16.7627 84.9785 18C84.6372 19.2267 84.3545 20.6987 84.1305 22.416C84.0772 22.8427 84.0292 23.328 83.9865 23.872C83.9545 24.416 83.9385 25.024 83.9385 25.696C83.9385 25.9307 83.9385 26.1707 83.9385 26.416C83.9385 26.6613 83.9492 26.9173 83.9705 27.184C83.9492 27.1947 83.9278 27.2 83.9065 27.2C83.8852 27.2 83.8425 27.2 83.7785 27.2C83.6292 27.2 83.4532 27.1733 83.2505 27.12C83.0585 27.0773 82.8665 27.0187 82.6745 26.944C82.4932 26.88 82.3332 26.8053 82.1945 26.72C82.0665 26.6347 81.9865 26.56 81.9545 26.496C81.9438 26.3573 81.9385 26.2187 81.9385 26.08C81.9385 25.952 81.9385 25.8133 81.9385 25.664C81.9385 25.0027 81.9598 24.3307 82.0025 23.648C82.0558 22.9653 82.1412 22.2613 82.2585 21.536C82.1092 21.5253 81.9118 21.5147 81.6665 21.504C81.4212 21.4827 81.1438 21.4667 80.8345 21.456C80.5358 21.4453 80.2105 21.4347 79.8585 21.424C79.5172 21.4027 79.1812 21.3867 78.8505 21.376C78.5945 21.856 78.3545 22.336 78.1305 22.816C77.9065 23.2853 77.7145 23.76 77.5545 24.24C77.3732 24.752 77.2238 25.264 77.1065 25.776C76.9998 26.288 76.9305 26.768 76.8985 27.216ZM83.0745 17.6C83.1172 17.4507 83.1652 17.248 83.2185 16.992C83.2825 16.7253 83.3412 16.448 83.3945 16.16C83.1278 16.256 82.8292 16.432 82.4985 16.688C82.1785 16.944 81.8425 17.264 81.4905 17.648C81.1492 18.0213 80.7972 18.448 80.4345 18.928C80.0825 19.3973 79.7412 19.8987 79.4105 20.432C80.3065 20.3573 81.3252 20.3093 82.4665 20.288C82.5518 19.84 82.6425 19.3973 82.7385 18.96C82.8452 18.512 82.9572 18.0587 83.0745 17.6ZM90.2478 25.648C90.0451 25.4773 89.9064 25.264 89.8318 25.008C89.7678 24.752 89.7358 24.5333 89.7358 24.352C89.7358 24.128 89.7624 23.936 89.8158 23.776C89.7731 23.776 89.6771 23.8613 89.5278 24.032C89.3784 24.2027 89.2131 24.4053 89.0318 24.64C88.8611 24.8747 88.6904 25.104 88.5198 25.328C88.3491 25.552 88.2211 25.7173 88.1358 25.824C87.9971 25.9733 87.8638 26.0907 87.7358 26.176C87.6184 26.2613 87.5224 26.3093 87.4478 26.32C87.2771 26.3093 87.0958 26.272 86.9038 26.208C86.7224 26.1547 86.5464 26.0747 86.3758 25.968C86.2158 25.8613 86.0718 25.7333 85.9438 25.584C85.8264 25.4347 85.7464 25.264 85.7038 25.072C85.7038 24.7733 85.7091 24.528 85.7198 24.336C85.7411 24.144 85.7784 23.936 85.8318 23.712C85.9278 23.3067 86.0664 22.848 86.2478 22.336C86.4398 21.824 86.6584 21.3227 86.9038 20.832C87.1491 20.3307 87.4211 19.8667 87.7198 19.44C88.0291 19.0027 88.3544 18.6613 88.6958 18.416C88.7918 18.416 88.9038 18.4267 89.0318 18.448C89.1598 18.4587 89.2878 18.4853 89.4158 18.528C89.5544 18.5707 89.6824 18.624 89.7998 18.688C89.9278 18.7413 90.0344 18.816 90.1198 18.912C90.0238 19.0187 89.7784 19.376 89.3838 19.984C88.9998 20.592 88.5678 21.4667 88.0878 22.608C88.0344 22.7253 87.9704 22.896 87.8958 23.12C87.8211 23.344 87.7464 23.5787 87.6718 23.824C87.5971 24.0693 87.5331 24.3093 87.4798 24.544C87.4371 24.7787 87.4158 24.9653 87.4158 25.104C87.4158 25.1893 87.4264 25.2533 87.4478 25.296C87.4798 25.3387 87.5064 25.3707 87.5278 25.392C87.6878 25.328 87.8904 25.152 88.1358 24.864C88.3811 24.576 88.7224 24.1333 89.1598 23.536C89.2664 23.3867 89.3891 23.216 89.5278 23.024C89.6771 22.832 89.8264 22.6293 89.9758 22.416C90.1251 22.192 90.2638 21.9627 90.3918 21.728C90.5304 21.4933 90.6424 21.2587 90.7278 21.024C90.7704 20.896 90.8238 20.7467 90.8878 20.576C90.9624 20.3947 91.0478 20.208 91.1438 20.016C91.2504 19.824 91.3678 19.632 91.4958 19.44C91.6344 19.2373 91.7944 19.0507 91.9758 18.88C92.1144 18.88 92.2638 18.896 92.4237 18.928C92.5838 18.96 92.7331 19.0027 92.8718 19.056C93.0211 19.0987 93.1491 19.152 93.2558 19.216C93.3624 19.2693 93.4424 19.328 93.4958 19.392C93.3038 19.8613 93.0904 20.3253 92.8558 20.784C92.6211 21.2427 92.4024 21.696 92.1998 22.144C91.9971 22.5813 91.8264 23.0187 91.6878 23.456C91.5491 23.8933 91.4798 24.32 91.4798 24.736C91.4798 24.96 91.4958 25.1573 91.5278 25.328C91.5704 25.488 91.6131 25.6267 91.6558 25.744C91.6984 25.8507 91.7358 25.9413 91.7678 26.016C91.8104 26.0907 91.8318 26.1547 91.8318 26.208C91.8318 26.2187 91.8211 26.2347 91.7998 26.256C91.7891 26.2667 91.7784 26.272 91.7678 26.272C91.6931 26.272 91.5971 26.256 91.4798 26.224C91.3624 26.192 91.2291 26.144 91.0798 26.08C90.9411 26.0267 90.7971 25.9627 90.6478 25.888C90.5091 25.8133 90.3758 25.7333 90.2478 25.648ZM94.6835 19.872C94.6302 19.808 94.5822 19.6747 94.5395 19.472C94.4968 19.2587 94.4755 19.0773 94.4755 18.928C94.7528 18.9493 95.0195 18.9707 95.2755 18.992C95.5315 19.0027 95.7662 19.0133 95.9795 19.024C96.1395 18.704 96.3102 18.3893 96.4915 18.08C96.6835 17.76 96.8648 17.472 97.0355 17.216C97.2168 16.9493 97.3822 16.7253 97.5315 16.544C97.6915 16.3627 97.8142 16.2453 97.8995 16.192C98.0062 16.192 98.1395 16.2133 98.2995 16.256C98.4702 16.288 98.6408 16.336 98.8115 16.4C98.9822 16.4533 99.1368 16.512 99.2755 16.576C99.4142 16.64 99.5102 16.704 99.5635 16.768C99.2435 17.1733 98.9662 17.552 98.7315 17.904C98.5075 18.2453 98.2622 18.64 97.9955 19.088C98.2088 19.088 98.4222 19.0827 98.6355 19.072C98.8595 19.0613 99.0835 19.0453 99.3075 19.024C99.3608 19.0773 99.4035 19.1467 99.4355 19.232C99.4675 19.3067 99.4835 19.3867 99.4835 19.472C98.9608 19.664 98.3262 19.7707 97.5795 19.792C97.3128 20.304 97.0728 20.816 96.8595 21.328C96.6568 21.8293 96.4808 22.3147 96.3315 22.784C96.1928 23.2533 96.0808 23.696 95.9955 24.112C95.9208 24.528 95.8835 24.9013 95.8835 25.232C95.8835 25.7013 96.0595 25.9627 96.4115 26.016C96.7315 25.9733 97.0355 25.8933 97.3235 25.776C97.6115 25.6587 97.8675 25.5093 98.0915 25.328C98.1555 25.424 98.1928 25.504 98.2035 25.568C98.1395 25.664 98.0275 25.776 97.8675 25.904C97.7182 26.032 97.5528 26.1547 97.3715 26.272C97.1902 26.4 97.0142 26.5067 96.8435 26.592C96.6728 26.6773 96.5448 26.7253 96.4595 26.736C96.1928 26.7253 95.9262 26.6667 95.6595 26.56C95.3928 26.4533 95.1475 26.32 94.9235 26.16C94.7102 26 94.5342 25.824 94.3955 25.632C94.2568 25.4293 94.1875 25.232 94.1875 25.04C94.1875 24.784 94.2195 24.464 94.2835 24.08C94.3582 23.6853 94.4595 23.2587 94.5875 22.8C94.7155 22.3413 94.8648 21.8613 95.0355 21.36C95.2062 20.8587 95.3928 20.3627 95.5955 19.872H94.6835ZM99.3485 25.728C99.3485 25.3547 99.3858 24.9173 99.4605 24.416C99.5352 23.904 99.6418 23.36 99.7805 22.784C99.9298 22.208 100.101 21.6053 100.293 20.976C100.495 20.3467 100.719 19.7173 100.965 19.088C101.178 18.5227 101.423 17.952 101.701 17.376C101.989 16.8 102.298 16.2347 102.629 15.68C102.959 15.1253 103.301 14.5973 103.653 14.096C104.015 13.5947 104.378 13.136 104.741 12.72C104.911 12.72 105.093 12.7413 105.285 12.784C105.487 12.8267 105.679 12.8853 105.861 12.96C106.053 13.024 106.223 13.104 106.373 13.2C106.533 13.296 106.661 13.392 106.757 13.488C105.957 14.3093 105.237 15.1413 104.597 15.984C103.957 16.816 103.45 17.6 103.077 18.336C102.874 18.7413 102.687 19.12 102.516 19.472C102.357 19.824 102.207 20.176 102.069 20.528C101.93 20.8693 101.802 21.216 101.685 21.568C101.578 21.9093 101.477 22.272 101.381 22.656C103.429 20.0427 104.949 18.736 105.941 18.736C106.218 18.736 106.517 18.8267 106.837 19.008C107.157 19.1893 107.439 19.4347 107.685 19.744C107.354 20.1067 107.013 20.544 106.661 21.056C106.309 21.568 105.983 22.0853 105.685 22.608C105.397 23.12 105.157 23.6 104.965 24.048C104.783 24.4853 104.693 24.8107 104.693 25.024C104.693 25.1307 104.709 25.2053 104.741 25.248C104.773 25.28 104.842 25.296 104.949 25.296C105.109 25.296 105.237 25.2747 105.333 25.232C105.429 25.1893 105.487 25.168 105.509 25.168C105.562 25.2533 105.594 25.312 105.605 25.344C105.615 25.376 105.621 25.4027 105.621 25.424C105.621 25.4667 105.557 25.5307 105.429 25.616C105.301 25.6907 105.146 25.7707 104.965 25.856C104.794 25.9307 104.623 26 104.453 26.064C104.282 26.128 104.154 26.16 104.069 26.16C103.962 26.16 103.855 26.128 103.749 26.064C103.642 26.0107 103.546 25.936 103.461 25.84C103.386 25.744 103.322 25.6373 103.269 25.52C103.226 25.4027 103.205 25.28 103.205 25.152C103.205 24.992 103.247 24.7573 103.333 24.448C103.429 24.128 103.557 23.76 103.717 23.344C103.877 22.9173 104.069 22.4533 104.293 21.952C104.517 21.4507 104.757 20.9387 105.013 20.416C105.013 20.3733 104.991 20.352 104.949 20.352C104.917 20.352 104.831 20.3947 104.693 20.48C104.565 20.5653 104.442 20.6507 104.325 20.736C103.941 21.024 103.551 21.3813 103.157 21.808C102.773 22.224 102.394 22.6827 102.021 23.184C101.658 23.6853 101.311 24.2187 100.981 24.784C100.661 25.3387 100.383 25.8987 100.149 26.464C100.117 26.5387 100.069 26.608 100.005 26.672C99.9405 26.736 99.8872 26.768 99.8445 26.768C99.8125 26.768 99.7645 26.7307 99.7005 26.656C99.6472 26.5813 99.5938 26.4853 99.5405 26.368C99.4978 26.2613 99.4552 26.1493 99.4125 26.032C99.3698 25.9147 99.3485 25.8133 99.3485 25.728ZM115.027 25.376C114.813 25.344 114.589 25.2587 114.355 25.12C114.131 24.9813 113.912 24.816 113.699 24.624C113.784 24.3147 113.869 24.0107 113.955 23.712C114.04 23.4027 114.125 23.0987 114.211 22.8C114.029 22.8213 113.848 22.8373 113.667 22.848C113.485 22.8587 113.304 22.864 113.123 22.864C112.739 22.864 112.429 22.7733 112.195 22.592C111.971 22.4 111.859 22.1387 111.859 21.808C111.859 21.7547 111.869 21.6747 111.891 21.568C111.923 21.4507 111.949 21.3653 111.971 21.312C112.173 21.344 112.365 21.3653 112.547 21.376C112.739 21.3867 112.984 21.392 113.283 21.392C113.528 21.392 113.768 21.392 114.003 21.392C114.248 21.392 114.483 21.3813 114.707 21.36C114.952 20.688 115.197 20.0907 115.443 19.568C115.699 19.0347 115.949 18.6133 116.195 18.304C116.323 18.3253 116.488 18.3787 116.691 18.464C116.893 18.5493 117.091 18.6453 117.283 18.752C117.485 18.848 117.667 18.9493 117.827 19.056C117.987 19.1627 118.088 19.248 118.131 19.312C117.885 19.5787 117.656 19.872 117.443 20.192C117.229 20.5013 117.016 20.8427 116.803 21.216C117.187 21.184 117.517 21.152 117.795 21.12C118.083 21.088 118.301 21.072 118.451 21.072C118.685 21.072 118.893 21.1947 119.075 21.44C119.256 21.6853 119.389 22.0373 119.475 22.496C119.165 22.464 118.909 22.4427 118.707 22.432C118.515 22.4213 118.344 22.416 118.195 22.416C117.811 22.416 117.443 22.432 117.091 22.464C116.749 22.4853 116.424 22.5173 116.115 22.56C115.912 23.008 115.72 23.4667 115.539 23.936C115.357 24.4053 115.187 24.8853 115.027 25.376Z" fill="#724106"/>
<defs>
<linearGradient id="paint0_linear_21_3" x1="48" y1="38" x2="122.079" y2="-0.688835" gradientUnits="userSpaceOnUse">
<stop stop-color="#FFC587"/>
<stop offset="1" stop-color="#F5CFA5"/>
</linearGradient>
</defs>
</svg>
