<svg width="138" height="39" viewBox="0 0 138 39" fill="none" xmlns="http://www.w3.org/2000/svg">
<rect x="2" y="1" width="134" height="37" rx="18.5" fill="url(#paint0_linear_21_3)"/>
<path d="M26.336 27.216C25.824 27.0667 25.4667 26.9173 25.264 26.768C25.072 26.6187 24.976 26.432 24.976 26.208C24.976 26.0373 25.024 25.7973 25.12 25.488C25.216 25.1787 25.3547 24.816 25.536 24.4C25.728 23.9733 25.952 23.504 26.208 22.992C26.4747 22.48 26.7733 21.9307 27.104 21.344C26.8267 21.3333 26.576 21.328 26.352 21.328C26.1387 21.3173 25.9627 21.312 25.824 21.312C25.888 21.152 26.0693 21.0133 26.368 20.896C26.6667 20.7787 27.0613 20.6773 27.552 20.592C27.968 19.8987 28.4107 19.2373 28.88 18.608C29.36 17.9787 29.84 17.4027 30.32 16.88C30.8 16.3467 31.28 15.8827 31.76 15.488C32.24 15.0827 32.6987 14.7627 33.136 14.528C33.1467 14.4533 33.152 14.3893 33.152 14.336C33.1627 14.2827 33.168 14.2453 33.168 14.224C33.3173 14.224 33.5147 14.2613 33.76 14.336C34.016 14.4107 34.2613 14.5013 34.496 14.608C34.7413 14.7147 34.9547 14.8267 35.136 14.944C35.328 15.0507 35.4347 15.1413 35.456 15.216C35.104 15.8347 34.7573 16.7627 34.416 18C34.0747 19.2267 33.792 20.6987 33.568 22.416C33.5147 22.8427 33.4667 23.328 33.424 23.872C33.392 24.416 33.376 25.024 33.376 25.696C33.376 25.9307 33.376 26.1707 33.376 26.416C33.376 26.6613 33.3867 26.9173 33.408 27.184C33.3867 27.1947 33.3653 27.2 33.344 27.2C33.3227 27.2 33.28 27.2 33.216 27.2C33.0667 27.2 32.8907 27.1733 32.688 27.12C32.496 27.0773 32.304 27.0187 32.112 26.944C31.9307 26.88 31.7707 26.8053 31.632 26.72C31.504 26.6347 31.424 26.56 31.392 26.496C31.3813 26.3573 31.376 26.2187 31.376 26.08C31.376 25.952 31.376 25.8133 31.376 25.664C31.376 25.0027 31.3973 24.3307 31.44 23.648C31.4933 22.9653 31.5787 22.2613 31.696 21.536C31.5467 21.5253 31.3493 21.5147 31.104 21.504C30.8587 21.4827 30.5813 21.4667 30.272 21.456C29.9733 21.4453 29.648 21.4347 29.296 21.424C28.9547 21.4027 28.6187 21.3867 28.288 21.376C28.032 21.856 27.792 22.336 27.568 22.816C27.344 23.2853 27.152 23.76 26.992 24.24C26.8107 24.752 26.6613 25.264 26.544 25.776C26.4373 26.288 26.368 26.768 26.336 27.216ZM32.512 17.6C32.5547 17.4507 32.6027 17.248 32.656 16.992C32.72 16.7253 32.7787 16.448 32.832 16.16C32.5653 16.256 32.2667 16.432 31.936 16.688C31.616 16.944 31.28 17.264 30.928 17.648C30.5867 18.0213 30.2347 18.448 29.872 18.928C29.52 19.3973 29.1787 19.8987 28.848 20.432C29.744 20.3573 30.7627 20.3093 31.904 20.288C31.9893 19.84 32.08 19.3973 32.176 18.96C32.2827 18.512 32.3947 18.0587 32.512 17.6ZM38.8056 18.528C39.019 18.528 39.2643 18.592 39.5416 18.72C39.819 18.848 40.0643 19.0133 40.2776 19.216C40.2243 18.7893 40.155 18.3893 40.0696 18.016C39.995 17.632 39.8776 17.2373 39.7176 16.832C39.5683 16.4267 39.3656 15.984 39.1096 15.504C38.8536 15.024 38.5336 14.4747 38.1496 13.856C38.1816 13.76 38.251 13.648 38.3576 13.52C38.475 13.392 38.603 13.2747 38.7416 13.168C38.891 13.0507 39.0403 12.9493 39.1896 12.864C39.3496 12.7787 39.499 12.7253 39.6376 12.704C39.9363 13.0347 40.219 13.4507 40.4856 13.952C40.7523 14.4427 40.987 14.976 41.1896 15.552C41.3923 16.1173 41.547 16.704 41.6536 17.312C41.771 17.92 41.8296 18.5013 41.8296 19.056C41.8296 19.6107 41.7656 20.1813 41.6376 20.768C41.5203 21.3547 41.3496 21.9307 41.1256 22.496C40.9123 23.0507 40.6616 23.5787 40.3736 24.08C40.0856 24.5813 39.771 25.0293 39.4296 25.424C39.099 25.8187 38.7523 26.1387 38.3896 26.384C38.027 26.64 37.6643 26.8 37.3016 26.864C36.5656 26.7787 36.0003 26.5387 35.6056 26.144C35.2216 25.76 35.0296 25.2267 35.0296 24.544C35.0296 24.1813 35.083 23.7867 35.1896 23.36C35.307 22.9333 35.4563 22.512 35.6376 22.096C35.8296 21.6693 36.0483 21.2587 36.2936 20.864C36.5496 20.4587 36.8163 20.096 37.0936 19.776C37.3816 19.456 37.6696 19.184 37.9576 18.96C38.2456 18.736 38.5283 18.592 38.8056 18.528ZM37.1736 26.224C37.547 26.096 37.9203 25.8133 38.2936 25.376C38.667 24.9387 39.003 24.4267 39.3016 23.84C39.6003 23.2427 39.8403 22.608 40.0216 21.936C40.2136 21.2533 40.3096 20.5973 40.3096 19.968C40.3096 19.7867 40.3096 19.6747 40.3096 19.632C40.3096 19.5893 40.3043 19.5467 40.2936 19.504C40.0376 19.6107 39.7656 19.792 39.4776 20.048C39.1896 20.304 38.9016 20.6027 38.6136 20.944C38.3256 21.2747 38.0536 21.6373 37.7976 22.032C37.5416 22.4267 37.3123 22.8213 37.1096 23.216C36.907 23.6107 36.747 23.9893 36.6296 24.352C36.5123 24.7147 36.4536 25.0347 36.4536 25.312C36.4536 25.8453 36.6936 26.1493 37.1736 26.224ZM43.1195 20.336C43.1195 20.144 43.1302 19.9627 43.1515 19.792C43.1835 19.6213 43.2422 19.4773 43.3275 19.36C43.4128 19.232 43.5302 19.136 43.6795 19.072C43.8288 18.9973 44.0262 18.96 44.2715 18.96C44.4208 18.96 44.5862 18.976 44.7675 19.008C44.9595 19.04 45.0982 19.0987 45.1835 19.184C45.1408 19.3653 45.1035 19.5253 45.0715 19.664C45.0502 19.8027 45.0288 19.9573 45.0075 20.128C44.9968 20.288 44.9862 20.4853 44.9755 20.72C44.9648 20.944 44.9542 21.2373 44.9435 21.6C44.9222 22.3253 44.8848 22.976 44.8315 23.552C44.7888 24.1173 44.6822 24.6827 44.5115 25.248C44.5115 25.2907 44.5275 25.312 44.5595 25.312C44.7195 25.1947 44.9008 25.024 45.1035 24.8C45.3062 24.576 45.5195 24.3253 45.7435 24.048C45.9675 23.76 46.1915 23.456 46.4155 23.136C46.6395 22.816 46.8475 22.5013 47.0395 22.192C47.2955 21.744 47.5782 21.184 47.8875 20.512C48.1968 19.84 48.4528 19.12 48.6555 18.352C48.7195 18.352 48.7995 18.368 48.8955 18.4C49.0022 18.4213 49.1035 18.4533 49.1995 18.496C49.3062 18.528 49.3968 18.5653 49.4715 18.608C49.5568 18.6507 49.6155 18.688 49.6475 18.72C49.6262 19.1787 49.5142 19.648 49.3115 20.128C49.1195 20.608 48.8848 21.072 48.6075 21.52C48.3302 21.968 48.0368 22.3893 47.7275 22.784C47.4182 23.1787 47.1355 23.52 46.8795 23.808C46.3675 24.4053 45.8502 24.9387 45.3275 25.408C44.8155 25.8773 44.2022 26.3307 43.4875 26.768C43.2102 26.6613 42.9915 26.5173 42.8315 26.336C42.6715 26.1653 42.5915 25.984 42.5915 25.792C42.5915 25.664 42.6182 25.52 42.6715 25.36C42.7355 25.1893 42.8048 24.976 42.8795 24.72C42.9542 24.4533 43.0182 24.1227 43.0715 23.728C43.1355 23.3333 43.1675 22.832 43.1675 22.224C43.1675 21.872 43.1568 21.52 43.1355 21.168C43.1248 20.8053 43.1195 20.528 43.1195 20.336ZM59.9919 19.328C60.3332 19.328 60.5999 19.424 60.7919 19.616C60.9945 19.808 61.0959 20.0747 61.0959 20.416C61.0959 20.5013 61.0905 20.592 61.0799 20.688C61.0692 20.7733 61.0479 20.848 61.0159 20.912C60.8772 20.8907 60.7225 20.8747 60.5519 20.864C60.3812 20.8427 60.1785 20.832 59.9439 20.832C59.4639 20.832 58.9839 20.8747 58.5039 20.96C58.0239 21.0453 57.5652 21.1147 57.1279 21.168C56.6479 22.2987 56.2532 23.36 55.9439 24.352C55.6345 25.344 55.3945 26.3253 55.2239 27.296C54.8612 27.2107 54.5412 27.056 54.2639 26.832C53.9865 26.608 53.7252 26.2933 53.4799 25.888C53.5545 25.7173 53.6452 25.5147 53.7519 25.28C53.8585 25.0347 53.9865 24.7307 54.1359 24.368C54.2852 23.9947 54.4612 23.5467 54.6639 23.024C54.8772 22.4907 55.1279 21.856 55.4159 21.12C54.9679 20.9707 54.6745 20.7093 54.5359 20.336C54.5892 20.2827 54.7385 20.224 54.9839 20.16C55.2292 20.0853 55.5279 20.0053 55.8799 19.92C56.0399 19.504 56.1785 19.136 56.2959 18.816C56.4132 18.4853 56.5199 18.176 56.6159 17.888C56.7119 17.5893 56.7972 17.3013 56.8719 17.024C56.9572 16.736 57.0319 16.432 57.0959 16.112H57.0159C56.6105 16.112 56.2799 16.016 56.0239 15.824C55.7785 15.632 55.6559 15.3813 55.6559 15.072C55.6559 14.9867 55.6665 14.8853 55.6879 14.768C55.7199 14.6507 55.7572 14.5493 55.7999 14.464C56.0025 14.496 56.1999 14.5173 56.3919 14.528C56.5945 14.5387 56.8559 14.544 57.1759 14.544C57.8479 14.544 58.4772 14.528 59.0639 14.496C59.6505 14.4533 60.1785 14.4107 60.6479 14.368C61.1279 14.3253 61.5385 14.288 61.8799 14.256C62.2212 14.2133 62.4825 14.192 62.6639 14.192C62.9092 14.192 63.1279 14.32 63.3199 14.576C63.5119 14.832 63.6612 15.1947 63.7679 15.664C63.4265 15.632 63.1492 15.6107 62.9359 15.6C62.7332 15.5893 62.5519 15.584 62.3919 15.584C61.8479 15.584 61.3465 15.6107 60.8879 15.664C60.4399 15.7067 60.0132 15.76 59.6079 15.824C59.5439 15.92 59.4692 16.0427 59.3839 16.192C59.3092 16.3413 59.2079 16.5547 59.0799 16.832C58.9519 17.0987 58.7865 17.4507 58.5839 17.888C58.3919 18.3253 58.1465 18.88 57.8479 19.552C58.2639 19.488 58.6585 19.4347 59.0319 19.392C59.4159 19.3493 59.7359 19.328 59.9919 19.328ZM66.1071 25.648C65.9045 25.4773 65.7658 25.264 65.6911 25.008C65.6271 24.752 65.5951 24.5333 65.5951 24.352C65.5951 24.128 65.6218 23.936 65.6751 23.776C65.6325 23.776 65.5365 23.8613 65.3871 24.032C65.2378 24.2027 65.0725 24.4053 64.8911 24.64C64.7205 24.8747 64.5498 25.104 64.3791 25.328C64.2085 25.552 64.0805 25.7173 63.9951 25.824C63.8565 25.9733 63.7231 26.0907 63.5951 26.176C63.4778 26.2613 63.3818 26.3093 63.3071 26.32C63.1365 26.3093 62.9551 26.272 62.7631 26.208C62.5818 26.1547 62.4058 26.0747 62.2351 25.968C62.0751 25.8613 61.9311 25.7333 61.8031 25.584C61.6858 25.4347 61.6058 25.264 61.5631 25.072C61.5631 24.7733 61.5685 24.528 61.5791 24.336C61.6005 24.144 61.6378 23.936 61.6911 23.712C61.7871 23.3067 61.9258 22.848 62.1071 22.336C62.2991 21.824 62.5178 21.3227 62.7631 20.832C63.0085 20.3307 63.2805 19.8667 63.5791 19.44C63.8885 19.0027 64.2138 18.6613 64.5551 18.416C64.6511 18.416 64.7631 18.4267 64.8911 18.448C65.0191 18.4587 65.1471 18.4853 65.2751 18.528C65.4138 18.5707 65.5418 18.624 65.6591 18.688C65.7871 18.7413 65.8938 18.816 65.9791 18.912C65.8831 19.0187 65.6378 19.376 65.2431 19.984C64.8591 20.592 64.4271 21.4667 63.9471 22.608C63.8938 22.7253 63.8298 22.896 63.7551 23.12C63.6805 23.344 63.6058 23.5787 63.5311 23.824C63.4565 24.0693 63.3925 24.3093 63.3391 24.544C63.2965 24.7787 63.2751 24.9653 63.2751 25.104C63.2751 25.1893 63.2858 25.2533 63.3071 25.296C63.3391 25.3387 63.3658 25.3707 63.3871 25.392C63.5471 25.328 63.7498 25.152 63.9951 24.864C64.2405 24.576 64.5818 24.1333 65.0191 23.536C65.1258 23.3867 65.2485 23.216 65.3871 23.024C65.5365 22.832 65.6858 22.6293 65.8351 22.416C65.9845 22.192 66.1231 21.9627 66.2511 21.728C66.3898 21.4933 66.5018 21.2587 66.5871 21.024C66.6298 20.896 66.6831 20.7467 66.7471 20.576C66.8218 20.3947 66.9071 20.208 67.0031 20.016C67.1098 19.824 67.2271 19.632 67.3551 19.44C67.4938 19.2373 67.6538 19.0507 67.8351 18.88C67.9738 18.88 68.1231 18.896 68.2831 18.928C68.4431 18.96 68.5925 19.0027 68.7311 19.056C68.8805 19.0987 69.0085 19.152 69.1151 19.216C69.2218 19.2693 69.3018 19.328 69.3551 19.392C69.1631 19.8613 68.9498 20.3253 68.7151 20.784C68.4805 21.2427 68.2618 21.696 68.0591 22.144C67.8565 22.5813 67.6858 23.0187 67.5471 23.456C67.4085 23.8933 67.3391 24.32 67.3391 24.736C67.3391 24.96 67.3551 25.1573 67.3871 25.328C67.4298 25.488 67.4725 25.6267 67.5151 25.744C67.5578 25.8507 67.5951 25.9413 67.6271 26.016C67.6698 26.0907 67.6911 26.1547 67.6911 26.208C67.6911 26.2187 67.6805 26.2347 67.6591 26.256C67.6485 26.2667 67.6378 26.272 67.6271 26.272C67.5525 26.272 67.4565 26.256 67.3391 26.224C67.2218 26.192 67.0885 26.144 66.9391 26.08C66.8005 26.0267 66.6565 25.9627 66.5071 25.888C66.3685 25.8133 66.2351 25.7333 66.1071 25.648ZM72.2534 18.24C72.5307 18.3253 72.792 18.5173 73.0374 18.816C73.2827 19.104 73.464 19.424 73.5814 19.776C73.464 20.064 73.2827 20.4107 73.0374 20.816C72.792 21.2213 72.5467 21.6373 72.3014 22.064C72.056 22.48 71.832 22.88 71.6294 23.264C71.4374 23.6373 71.3254 23.9467 71.2934 24.192C71.464 24.0107 71.6507 23.8027 71.8534 23.568C72.0667 23.3227 72.2694 23.0827 72.4614 22.848C72.664 22.6027 72.8507 22.384 73.0214 22.192C73.192 21.9893 73.3254 21.84 73.4214 21.744C73.624 21.5307 73.864 21.2853 74.1414 21.008C74.4187 20.72 74.7067 20.4533 75.0054 20.208C75.3147 19.952 75.624 19.7387 75.9334 19.568C76.2427 19.3867 76.5254 19.296 76.7814 19.296C77.0587 19.296 77.288 19.392 77.4694 19.584C77.6614 19.7653 77.8107 19.9573 77.9174 20.16C77.9174 20.1813 77.8747 20.2133 77.7894 20.256C77.7147 20.288 77.6027 20.3893 77.4534 20.56C77.304 20.752 77.1334 21.0187 76.9414 21.36C76.76 21.6907 76.5787 22.0533 76.3974 22.448C76.2267 22.832 76.0827 23.2267 75.9654 23.632C75.848 24.0373 75.7894 24.4053 75.7894 24.736C75.7894 25.0027 75.8214 25.1733 75.8854 25.248C75.96 25.3227 76.0614 25.36 76.1894 25.36C76.3067 25.36 76.4294 25.3333 76.5574 25.28C76.6854 25.2267 76.7867 25.2 76.8614 25.2C76.904 25.2213 76.936 25.2693 76.9574 25.344C76.9894 25.408 77.0054 25.4667 77.0054 25.52C76.92 25.5947 76.8187 25.6693 76.7014 25.744C76.584 25.8187 76.4614 25.888 76.3334 25.952C76.2054 26.016 76.0774 26.0693 75.9494 26.112C75.832 26.1547 75.7254 26.176 75.6294 26.176C75.32 26.176 75.064 26.128 74.8614 26.032C74.6694 25.9467 74.5147 25.8293 74.3974 25.68C74.2907 25.5307 74.216 25.3547 74.1734 25.152C74.1307 24.9387 74.1094 24.7147 74.1094 24.48C74.1094 24.352 74.12 24.208 74.1414 24.048C74.1627 23.888 74.2054 23.7013 74.2694 23.488C74.3334 23.264 74.424 23.0027 74.5414 22.704C74.6587 22.3947 74.808 22.0267 74.9894 21.6C74.968 21.6 74.824 21.6747 74.5574 21.824C74.2907 21.9733 74.0027 22.2027 73.6934 22.512C73.192 22.992 72.7387 23.4667 72.3334 23.936C71.9387 24.4053 71.5334 24.928 71.1174 25.504C70.8827 25.8347 70.6747 26.112 70.4934 26.336C70.3227 26.5707 70.1734 26.7253 70.0454 26.8C69.8214 26.672 69.656 26.4907 69.5494 26.256C69.4427 26.032 69.3627 25.7973 69.3094 25.552C69.3094 25.3493 69.336 25.0933 69.3894 24.784C69.4534 24.4747 69.5334 24.1333 69.6294 23.76C69.736 23.376 69.864 22.976 70.0134 22.56C70.1627 22.144 70.328 21.728 70.5094 21.312C70.9147 20.3733 71.2827 19.6373 71.6134 19.104C71.9547 18.5707 72.168 18.2827 72.2534 18.24ZM82.8985 27.216C82.3865 27.0667 82.0292 26.9173 81.8265 26.768C81.6345 26.6187 81.5385 26.432 81.5385 26.208C81.5385 26.0373 81.5865 25.7973 81.6825 25.488C81.7785 25.1787 81.9172 24.816 82.0985 24.4C82.2905 23.9733 82.5145 23.504 82.7705 22.992C83.0372 22.48 83.3358 21.9307 83.6665 21.344C83.3892 21.3333 83.1385 21.328 82.9145 21.328C82.7012 21.3173 82.5252 21.312 82.3865 21.312C82.4505 21.152 82.6318 21.0133 82.9305 20.896C83.2292 20.7787 83.6238 20.6773 84.1145 20.592C84.5305 19.8987 84.9732 19.2373 85.4425 18.608C85.9225 17.9787 86.4025 17.4027 86.8825 16.88C87.3625 16.3467 87.8425 15.8827 88.3225 15.488C88.8025 15.0827 89.2612 14.7627 89.6985 14.528C89.7092 14.4533 89.7145 14.3893 89.7145 14.336C89.7252 14.2827 89.7305 14.2453 89.7305 14.224C89.8798 14.224 90.0772 14.2613 90.3225 14.336C90.5785 14.4107 90.8238 14.5013 91.0585 14.608C91.3038 14.7147 91.5172 14.8267 91.6985 14.944C91.8905 15.0507 91.9972 15.1413 92.0185 15.216C91.6665 15.8347 91.3198 16.7627 90.9785 18C90.6372 19.2267 90.3545 20.6987 90.1305 22.416C90.0772 22.8427 90.0292 23.328 89.9865 23.872C89.9545 24.416 89.9385 25.024 89.9385 25.696C89.9385 25.9307 89.9385 26.1707 89.9385 26.416C89.9385 26.6613 89.9492 26.9173 89.9705 27.184C89.9492 27.1947 89.9278 27.2 89.9065 27.2C89.8852 27.2 89.8425 27.2 89.7785 27.2C89.6292 27.2 89.4532 27.1733 89.2505 27.12C89.0585 27.0773 88.8665 27.0187 88.6745 26.944C88.4932 26.88 88.3332 26.8053 88.1945 26.72C88.0665 26.6347 87.9865 26.56 87.9545 26.496C87.9438 26.3573 87.9385 26.2187 87.9385 26.08C87.9385 25.952 87.9385 25.8133 87.9385 25.664C87.9385 25.0027 87.9598 24.3307 88.0025 23.648C88.0558 22.9653 88.1412 22.2613 88.2585 21.536C88.1092 21.5253 87.9118 21.5147 87.6665 21.504C87.4212 21.4827 87.1438 21.4667 86.8345 21.456C86.5358 21.4453 86.2105 21.4347 85.8585 21.424C85.5172 21.4027 85.1812 21.3867 84.8505 21.376C84.5945 21.856 84.3545 22.336 84.1305 22.816C83.9065 23.2853 83.7145 23.76 83.5545 24.24C83.3732 24.752 83.2238 25.264 83.1065 25.776C82.9998 26.288 82.9305 26.768 82.8985 27.216ZM89.0745 17.6C89.1172 17.4507 89.1652 17.248 89.2185 16.992C89.2825 16.7253 89.3412 16.448 89.3945 16.16C89.1278 16.256 88.8292 16.432 88.4985 16.688C88.1785 16.944 87.8425 17.264 87.4905 17.648C87.1492 18.0213 86.7972 18.448 86.4345 18.928C86.0825 19.3973 85.7412 19.8987 85.4105 20.432C86.3065 20.3573 87.3252 20.3093 88.4665 20.288C88.5518 19.84 88.6425 19.3973 88.7385 18.96C88.8452 18.512 88.9572 18.0587 89.0745 17.6ZM96.2478 25.648C96.0451 25.4773 95.9064 25.264 95.8318 25.008C95.7678 24.752 95.7358 24.5333 95.7358 24.352C95.7358 24.128 95.7624 23.936 95.8158 23.776C95.7731 23.776 95.6771 23.8613 95.5278 24.032C95.3784 24.2027 95.2131 24.4053 95.0318 24.64C94.8611 24.8747 94.6904 25.104 94.5198 25.328C94.3491 25.552 94.2211 25.7173 94.1358 25.824C93.9971 25.9733 93.8638 26.0907 93.7358 26.176C93.6184 26.2613 93.5224 26.3093 93.4478 26.32C93.2771 26.3093 93.0958 26.272 92.9038 26.208C92.7224 26.1547 92.5464 26.0747 92.3758 25.968C92.2158 25.8613 92.0718 25.7333 91.9438 25.584C91.8264 25.4347 91.7464 25.264 91.7038 25.072C91.7038 24.7733 91.7091 24.528 91.7198 24.336C91.7411 24.144 91.7784 23.936 91.8318 23.712C91.9278 23.3067 92.0664 22.848 92.2478 22.336C92.4398 21.824 92.6584 21.3227 92.9038 20.832C93.1491 20.3307 93.4211 19.8667 93.7198 19.44C94.0291 19.0027 94.3544 18.6613 94.6958 18.416C94.7918 18.416 94.9038 18.4267 95.0318 18.448C95.1598 18.4587 95.2878 18.4853 95.4158 18.528C95.5544 18.5707 95.6824 18.624 95.7998 18.688C95.9278 18.7413 96.0344 18.816 96.1198 18.912C96.0238 19.0187 95.7784 19.376 95.3838 19.984C94.9998 20.592 94.5678 21.4667 94.0878 22.608C94.0344 22.7253 93.9704 22.896 93.8958 23.12C93.8211 23.344 93.7464 23.5787 93.6718 23.824C93.5971 24.0693 93.5331 24.3093 93.4798 24.544C93.4371 24.7787 93.4158 24.9653 93.4158 25.104C93.4158 25.1893 93.4264 25.2533 93.4478 25.296C93.4798 25.3387 93.5064 25.3707 93.5278 25.392C93.6878 25.328 93.8904 25.152 94.1358 24.864C94.3811 24.576 94.7224 24.1333 95.1598 23.536C95.2664 23.3867 95.3891 23.216 95.5278 23.024C95.6771 22.832 95.8264 22.6293 95.9758 22.416C96.1251 22.192 96.2638 21.9627 96.3918 21.728C96.5304 21.4933 96.6424 21.2587 96.7278 21.024C96.7704 20.896 96.8238 20.7467 96.8878 20.576C96.9624 20.3947 97.0478 20.208 97.1438 20.016C97.2504 19.824 97.3678 19.632 97.4958 19.44C97.6344 19.2373 97.7944 19.0507 97.9758 18.88C98.1144 18.88 98.2638 18.896 98.4237 18.928C98.5838 18.96 98.7331 19.0027 98.8718 19.056C99.0211 19.0987 99.1491 19.152 99.2558 19.216C99.3624 19.2693 99.4424 19.328 99.4958 19.392C99.3038 19.8613 99.0904 20.3253 98.8558 20.784C98.6211 21.2427 98.4024 21.696 98.1998 22.144C97.9971 22.5813 97.8264 23.0187 97.6878 23.456C97.5491 23.8933 97.4798 24.32 97.4798 24.736C97.4798 24.96 97.4958 25.1573 97.5278 25.328C97.5704 25.488 97.6131 25.6267 97.6558 25.744C97.6984 25.8507 97.7358 25.9413 97.7678 26.016C97.8104 26.0907 97.8318 26.1547 97.8318 26.208C97.8318 26.2187 97.8211 26.2347 97.7998 26.256C97.7891 26.2667 97.7784 26.272 97.7678 26.272C97.6931 26.272 97.5971 26.256 97.4798 26.224C97.3624 26.192 97.2291 26.144 97.0798 26.08C96.9411 26.0267 96.7971 25.9627 96.6478 25.888C96.5091 25.8133 96.3758 25.7333 96.2478 25.648ZM100.684 19.872C100.63 19.808 100.582 19.6747 100.539 19.472C100.497 19.2587 100.476 19.0773 100.476 18.928C100.753 18.9493 101.02 18.9707 101.276 18.992C101.532 19.0027 101.766 19.0133 101.98 19.024C102.14 18.704 102.31 18.3893 102.492 18.08C102.684 17.76 102.865 17.472 103.036 17.216C103.217 16.9493 103.382 16.7253 103.532 16.544C103.692 16.3627 103.814 16.2453 103.9 16.192C104.006 16.192 104.14 16.2133 104.3 16.256C104.47 16.288 104.641 16.336 104.812 16.4C104.982 16.4533 105.137 16.512 105.276 16.576C105.414 16.64 105.51 16.704 105.564 16.768C105.244 17.1733 104.966 17.552 104.732 17.904C104.508 18.2453 104.262 18.64 103.996 19.088C104.209 19.088 104.422 19.0827 104.636 19.072C104.86 19.0613 105.084 19.0453 105.308 19.024C105.361 19.0773 105.404 19.1467 105.436 19.232C105.468 19.3067 105.484 19.3867 105.484 19.472C104.961 19.664 104.326 19.7707 103.58 19.792C103.313 20.304 103.073 20.816 102.86 21.328C102.657 21.8293 102.481 22.3147 102.332 22.784C102.193 23.2533 102.081 23.696 101.996 24.112C101.921 24.528 101.884 24.9013 101.884 25.232C101.884 25.7013 102.06 25.9627 102.411 26.016C102.731 25.9733 103.036 25.8933 103.324 25.776C103.612 25.6587 103.868 25.5093 104.092 25.328C104.156 25.424 104.193 25.504 104.204 25.568C104.14 25.664 104.028 25.776 103.868 25.904C103.718 26.032 103.553 26.1547 103.372 26.272C103.19 26.4 103.014 26.5067 102.844 26.592C102.673 26.6773 102.545 26.7253 102.46 26.736C102.193 26.7253 101.926 26.6667 101.66 26.56C101.393 26.4533 101.148 26.32 100.924 26.16C100.71 26 100.534 25.824 100.396 25.632C100.257 25.4293 100.188 25.232 100.188 25.04C100.188 24.784 100.22 24.464 100.284 24.08C100.358 23.6853 100.46 23.2587 100.588 22.8C100.716 22.3413 100.865 21.8613 101.036 21.36C101.206 20.8587 101.393 20.3627 101.596 19.872H100.684ZM105.349 25.728C105.349 25.3547 105.386 24.9173 105.461 24.416C105.535 23.904 105.642 23.36 105.781 22.784C105.93 22.208 106.101 21.6053 106.293 20.976C106.495 20.3467 106.719 19.7173 106.965 19.088C107.178 18.5227 107.423 17.952 107.701 17.376C107.989 16.8 108.298 16.2347 108.629 15.68C108.959 15.1253 109.301 14.5973 109.653 14.096C110.015 13.5947 110.378 13.136 110.741 12.72C110.911 12.72 111.093 12.7413 111.285 12.784C111.487 12.8267 111.679 12.8853 111.861 12.96C112.053 13.024 112.223 13.104 112.373 13.2C112.533 13.296 112.661 13.392 112.757 13.488C111.957 14.3093 111.237 15.1413 110.597 15.984C109.957 16.816 109.45 17.6 109.077 18.336C108.874 18.7413 108.687 19.12 108.516 19.472C108.357 19.824 108.207 20.176 108.069 20.528C107.93 20.8693 107.802 21.216 107.685 21.568C107.578 21.9093 107.477 22.272 107.381 22.656C109.429 20.0427 110.949 18.736 111.941 18.736C112.218 18.736 112.517 18.8267 112.837 19.008C113.157 19.1893 113.439 19.4347 113.685 19.744C113.354 20.1067 113.013 20.544 112.661 21.056C112.309 21.568 111.983 22.0853 111.685 22.608C111.397 23.12 111.157 23.6 110.965 24.048C110.783 24.4853 110.693 24.8107 110.693 25.024C110.693 25.1307 110.709 25.2053 110.741 25.248C110.773 25.28 110.842 25.296 110.949 25.296C111.109 25.296 111.237 25.2747 111.333 25.232C111.429 25.1893 111.487 25.168 111.509 25.168C111.562 25.2533 111.594 25.312 111.605 25.344C111.615 25.376 111.621 25.4027 111.621 25.424C111.621 25.4667 111.557 25.5307 111.429 25.616C111.301 25.6907 111.146 25.7707 110.965 25.856C110.794 25.9307 110.623 26 110.453 26.064C110.282 26.128 110.154 26.16 110.069 26.16C109.962 26.16 109.855 26.128 109.749 26.064C109.642 26.0107 109.546 25.936 109.461 25.84C109.386 25.744 109.322 25.6373 109.269 25.52C109.226 25.4027 109.205 25.28 109.205 25.152C109.205 24.992 109.247 24.7573 109.333 24.448C109.429 24.128 109.557 23.76 109.717 23.344C109.877 22.9173 110.069 22.4533 110.293 21.952C110.517 21.4507 110.757 20.9387 111.013 20.416C111.013 20.3733 110.991 20.352 110.949 20.352C110.917 20.352 110.831 20.3947 110.693 20.48C110.565 20.5653 110.442 20.6507 110.325 20.736C109.941 21.024 109.551 21.3813 109.157 21.808C108.773 22.224 108.394 22.6827 108.021 23.184C107.658 23.6853 107.311 24.2187 106.981 24.784C106.661 25.3387 106.383 25.8987 106.149 26.464C106.117 26.5387 106.069 26.608 106.005 26.672C105.941 26.736 105.887 26.768 105.845 26.768C105.813 26.768 105.765 26.7307 105.701 26.656C105.647 26.5813 105.594 26.4853 105.541 26.368C105.498 26.2613 105.455 26.1493 105.413 26.032C105.37 25.9147 105.349 25.8133 105.349 25.728Z" fill="#724106"/>
<defs>
<linearGradient id="paint0_linear_21_3" x1="48" y1="38" x2="122.079" y2="-0.688835" gradientUnits="userSpaceOnUse">
<stop stop-color="#FFC587"/>
<stop offset="1" stop-color="#F5CFA5"/>
</linearGradient>
</defs>
</svg>
