<svg width="182" height="39" viewBox="0 0 182 39" fill="none" xmlns="http://www.w3.org/2000/svg">
<rect x="3" y="1" width="176" height="37" rx="18.5" fill="url(#paint0_linear_21_3)"/>
<path d="M60.336 27.216C59.824 27.0667 59.4667 26.9173 59.264 26.768C59.072 26.6187 58.976 26.432 58.976 26.208C58.976 26.0373 59.024 25.7973 59.12 25.488C59.216 25.1787 59.3547 24.816 59.536 24.4C59.728 23.9733 59.952 23.504 60.208 22.992C60.4747 22.48 60.7733 21.9307 61.104 21.344C60.8267 21.3333 60.576 21.328 60.352 21.328C60.1387 21.3173 59.9627 21.312 59.824 21.312C59.888 21.152 60.0693 21.0133 60.368 20.896C60.6667 20.7787 61.0613 20.6773 61.552 20.592C61.968 19.8987 62.4107 19.2373 62.88 18.608C63.36 17.9787 63.84 17.4027 64.32 16.88C64.8 16.3467 65.28 15.8827 65.76 15.488C66.24 15.0827 66.6987 14.7627 67.136 14.528C67.1467 14.4533 67.152 14.3893 67.152 14.336C67.1627 14.2827 67.168 14.2453 67.168 14.224C67.3173 14.224 67.5147 14.2613 67.76 14.336C68.016 14.4107 68.2613 14.5013 68.496 14.608C68.7413 14.7147 68.9547 14.8267 69.136 14.944C69.328 15.0507 69.4347 15.1413 69.456 15.216C69.104 15.8347 68.7573 16.7627 68.416 18C68.0747 19.2267 67.792 20.6987 67.568 22.416C67.5147 22.8427 67.4667 23.328 67.424 23.872C67.392 24.416 67.376 25.024 67.376 25.696C67.376 25.9307 67.376 26.1707 67.376 26.416C67.376 26.6613 67.3867 26.9173 67.408 27.184C67.3867 27.1947 67.3653 27.2 67.344 27.2C67.3227 27.2 67.28 27.2 67.216 27.2C67.0667 27.2 66.8907 27.1733 66.688 27.12C66.496 27.0773 66.304 27.0187 66.112 26.944C65.9307 26.88 65.7707 26.8053 65.632 26.72C65.504 26.6347 65.424 26.56 65.392 26.496C65.3813 26.3573 65.376 26.2187 65.376 26.08C65.376 25.952 65.376 25.8133 65.376 25.664C65.376 25.0027 65.3973 24.3307 65.44 23.648C65.4933 22.9653 65.5787 22.2613 65.696 21.536C65.5467 21.5253 65.3493 21.5147 65.104 21.504C64.8587 21.4827 64.5813 21.4667 64.272 21.456C63.9733 21.4453 63.648 21.4347 63.296 21.424C62.9547 21.4027 62.6187 21.3867 62.288 21.376C62.032 21.856 61.792 22.336 61.568 22.816C61.344 23.2853 61.152 23.76 60.992 24.24C60.8107 24.752 60.6613 25.264 60.544 25.776C60.4373 26.288 60.368 26.768 60.336 27.216ZM66.512 17.6C66.5547 17.4507 66.6027 17.248 66.656 16.992C66.72 16.7253 66.7787 16.448 66.832 16.16C66.5653 16.256 66.2667 16.432 65.936 16.688C65.616 16.944 65.28 17.264 64.928 17.648C64.5867 18.0213 64.2347 18.448 63.872 18.928C63.52 19.3973 63.1787 19.8987 62.848 20.432C63.744 20.3573 64.7627 20.3093 65.904 20.288C65.9893 19.84 66.08 19.3973 66.176 18.96C66.2827 18.512 66.3947 18.0587 66.512 17.6ZM73.6853 25.648C73.4826 25.4773 73.3439 25.264 73.2693 25.008C73.2053 24.752 73.1733 24.5333 73.1733 24.352C73.1733 24.128 73.1999 23.936 73.2533 23.776C73.2106 23.776 73.1146 23.8613 72.9653 24.032C72.8159 24.2027 72.6506 24.4053 72.4693 24.64C72.2986 24.8747 72.1279 25.104 71.9573 25.328C71.7866 25.552 71.6586 25.7173 71.5733 25.824C71.4346 25.9733 71.3013 26.0907 71.1733 26.176C71.0559 26.2613 70.9599 26.3093 70.8853 26.32C70.7146 26.3093 70.5333 26.272 70.3413 26.208C70.1599 26.1547 69.9839 26.0747 69.8133 25.968C69.6533 25.8613 69.5093 25.7333 69.3813 25.584C69.2639 25.4347 69.1839 25.264 69.1413 25.072C69.1413 24.7733 69.1466 24.528 69.1573 24.336C69.1786 24.144 69.2159 23.936 69.2693 23.712C69.3653 23.3067 69.5039 22.848 69.6853 22.336C69.8773 21.824 70.0959 21.3227 70.3413 20.832C70.5866 20.3307 70.8586 19.8667 71.1573 19.44C71.4666 19.0027 71.7919 18.6613 72.1333 18.416C72.2293 18.416 72.3413 18.4267 72.4693 18.448C72.5973 18.4587 72.7253 18.4853 72.8533 18.528C72.9919 18.5707 73.1199 18.624 73.2373 18.688C73.3653 18.7413 73.4719 18.816 73.5573 18.912C73.4613 19.0187 73.2159 19.376 72.8213 19.984C72.4373 20.592 72.0053 21.4667 71.5253 22.608C71.4719 22.7253 71.4079 22.896 71.3333 23.12C71.2586 23.344 71.1839 23.5787 71.1093 23.824C71.0346 24.0693 70.9706 24.3093 70.9173 24.544C70.8746 24.7787 70.8533 24.9653 70.8533 25.104C70.8533 25.1893 70.8639 25.2533 70.8853 25.296C70.9173 25.3387 70.9439 25.3707 70.9653 25.392C71.1253 25.328 71.3279 25.152 71.5733 24.864C71.8186 24.576 72.1599 24.1333 72.5973 23.536C72.7039 23.3867 72.8266 23.216 72.9653 23.024C73.1146 22.832 73.2639 22.6293 73.4133 22.416C73.5626 22.192 73.7013 21.9627 73.8293 21.728C73.9679 21.4933 74.0799 21.2587 74.1653 21.024C74.2079 20.896 74.2613 20.7467 74.3253 20.576C74.3999 20.3947 74.4853 20.208 74.5813 20.016C74.6879 19.824 74.8053 19.632 74.9333 19.44C75.0719 19.2373 75.2319 19.0507 75.4133 18.88C75.5519 18.88 75.7013 18.896 75.8612 18.928C76.0213 18.96 76.1706 19.0027 76.3093 19.056C76.4586 19.0987 76.5866 19.152 76.6933 19.216C76.7999 19.2693 76.8799 19.328 76.9333 19.392C76.7413 19.8613 76.5279 20.3253 76.2933 20.784C76.0586 21.2427 75.8399 21.696 75.6373 22.144C75.4346 22.5813 75.2639 23.0187 75.1253 23.456C74.9866 23.8933 74.9173 24.32 74.9173 24.736C74.9173 24.96 74.9333 25.1573 74.9653 25.328C75.0079 25.488 75.0506 25.6267 75.0933 25.744C75.1359 25.8507 75.1733 25.9413 75.2053 26.016C75.2479 26.0907 75.2693 26.1547 75.2693 26.208C75.2693 26.2187 75.2586 26.2347 75.2373 26.256C75.2266 26.2667 75.2159 26.272 75.2053 26.272C75.1306 26.272 75.0346 26.256 74.9173 26.224C74.7999 26.192 74.6666 26.144 74.5173 26.08C74.3786 26.0267 74.2346 25.9627 74.0853 25.888C73.9466 25.8133 73.8133 25.7333 73.6853 25.648ZM78.121 19.872C78.0677 19.808 78.0197 19.6747 77.977 19.472C77.9343 19.2587 77.913 19.0773 77.913 18.928C78.1903 18.9493 78.457 18.9707 78.713 18.992C78.969 19.0027 79.2037 19.0133 79.417 19.024C79.577 18.704 79.7477 18.3893 79.929 18.08C80.121 17.76 80.3023 17.472 80.473 17.216C80.6543 16.9493 80.8197 16.7253 80.969 16.544C81.129 16.3627 81.2517 16.2453 81.337 16.192C81.4437 16.192 81.577 16.2133 81.737 16.256C81.9077 16.288 82.0783 16.336 82.249 16.4C82.4197 16.4533 82.5743 16.512 82.713 16.576C82.8517 16.64 82.9477 16.704 83.001 16.768C82.681 17.1733 82.4037 17.552 82.169 17.904C81.945 18.2453 81.6997 18.64 81.433 19.088C81.6463 19.088 81.8597 19.0827 82.073 19.072C82.297 19.0613 82.521 19.0453 82.745 19.024C82.7983 19.0773 82.841 19.1467 82.873 19.232C82.905 19.3067 82.921 19.3867 82.921 19.472C82.3983 19.664 81.7637 19.7707 81.017 19.792C80.7503 20.304 80.5103 20.816 80.297 21.328C80.0943 21.8293 79.9183 22.3147 79.769 22.784C79.6303 23.2533 79.5183 23.696 79.433 24.112C79.3583 24.528 79.321 24.9013 79.321 25.232C79.321 25.7013 79.497 25.9627 79.849 26.016C80.169 25.9733 80.473 25.8933 80.761 25.776C81.049 25.6587 81.305 25.5093 81.529 25.328C81.593 25.424 81.6303 25.504 81.641 25.568C81.577 25.664 81.465 25.776 81.305 25.904C81.1557 26.032 80.9903 26.1547 80.809 26.272C80.6277 26.4 80.4517 26.5067 80.281 26.592C80.1103 26.6773 79.9823 26.7253 79.897 26.736C79.6303 26.7253 79.3637 26.6667 79.097 26.56C78.8303 26.4533 78.585 26.32 78.361 26.16C78.1477 26 77.9717 25.824 77.833 25.632C77.6943 25.4293 77.625 25.232 77.625 25.04C77.625 24.784 77.657 24.464 77.721 24.08C77.7957 23.6853 77.897 23.2587 78.025 22.8C78.153 22.3413 78.3023 21.8613 78.473 21.36C78.6437 20.8587 78.8303 20.3627 79.033 19.872H78.121ZM84.69 26.56C84.082 26.496 83.5967 26.2293 83.234 25.76C82.8713 25.2907 82.69 24.6933 82.69 23.968C82.69 23.5413 82.754 23.0987 82.882 22.64C83.01 22.1813 83.1913 21.7387 83.426 21.312C83.6607 20.8747 83.938 20.464 84.258 20.08C84.578 19.696 84.9247 19.3653 85.298 19.088C85.8847 18.6507 86.434 18.432 86.946 18.432C87.2873 18.6133 87.6233 18.992 87.954 19.568C88.0073 19.568 88.0553 19.568 88.098 19.568C88.1407 19.5573 88.1887 19.552 88.242 19.552C88.8073 19.552 89.09 20.0533 89.09 21.056C89.09 21.728 88.978 22.368 88.754 22.976C88.5407 23.5733 88.2367 24.1173 87.842 24.608C87.458 25.0987 86.994 25.5147 86.45 25.856C85.9167 26.1867 85.33 26.4213 84.69 26.56ZM85.506 21.52C85.3247 21.7653 85.154 22.032 84.994 22.32C84.834 22.608 84.6953 22.9013 84.578 23.2C84.4607 23.488 84.37 23.7707 84.306 24.048C84.242 24.3147 84.21 24.5547 84.21 24.768C84.21 25.024 84.2527 25.2693 84.338 25.504C84.4233 25.7387 84.5193 25.872 84.626 25.904C85.106 25.7973 85.5433 25.6 85.938 25.312C86.3433 25.0133 86.69 24.6453 86.978 24.208C87.2767 23.7707 87.506 23.2747 87.666 22.72C87.8367 22.1653 87.922 21.5733 87.922 20.944C87.922 20.6667 87.906 20.448 87.874 20.288C87.842 20.128 87.7887 19.9893 87.714 19.872C87.2447 20.0107 86.8233 20.2347 86.45 20.544C86.0873 20.8533 85.7727 21.1787 85.506 21.52ZM100.349 27.184C100.328 27.1947 100.306 27.2 100.285 27.2C100.264 27.2 100.221 27.2 100.157 27.2C100.008 27.2 99.8317 27.1733 99.629 27.12C99.437 27.0773 99.245 27.0187 99.053 26.944C98.8717 26.88 98.7117 26.8053 98.573 26.72C98.445 26.6347 98.365 26.56 98.333 26.496C98.3223 26.3467 98.317 26.192 98.317 26.032C98.317 25.872 98.317 25.7173 98.317 25.568C98.317 24.3733 98.4023 23.1253 98.573 21.824C98.7543 20.5227 99.0477 19.1147 99.453 17.6C99.4957 17.4507 99.5383 17.264 99.581 17.04C99.6343 16.8053 99.6877 16.5547 99.741 16.288C99.485 16.4907 99.181 16.816 98.829 17.264C98.477 17.7013 98.1037 18.224 97.709 18.832C97.325 19.4293 96.9357 20.0907 96.541 20.816C96.157 21.5307 95.805 22.2613 95.485 23.008C95.165 23.744 94.8877 24.4747 94.653 25.2C94.429 25.9253 94.2903 26.5973 94.237 27.216C93.725 27.0667 93.3677 26.9173 93.165 26.768C92.973 26.6187 92.877 26.4373 92.877 26.224C92.877 26.032 92.9357 25.76 93.053 25.408C93.1703 25.056 93.3357 24.64 93.549 24.16C93.7623 23.68 94.0237 23.1467 94.333 22.56C94.6423 21.9627 94.9837 21.3227 95.357 20.64C95.7837 19.8613 96.1997 19.1307 96.605 18.448C97.021 17.7653 97.4263 17.1467 97.821 16.592C98.2157 16.0373 98.5997 15.5573 98.973 15.152C99.357 14.7467 99.7357 14.4373 100.109 14.224C100.258 14.224 100.456 14.2613 100.701 14.336C100.957 14.4107 101.202 14.5013 101.437 14.608C101.682 14.7147 101.896 14.8267 102.077 14.944C102.269 15.0507 102.376 15.1413 102.397 15.216C102.248 15.5147 102.072 15.9627 101.869 16.56C101.666 17.1573 101.458 17.8347 101.245 18.592C101.042 19.3493 100.845 20.1547 100.653 21.008C100.472 21.8507 100.328 22.6613 100.221 23.44C100.466 22.8533 100.749 22.2453 101.069 21.616C101.4 20.976 101.746 20.3467 102.109 19.728C102.472 19.0987 102.84 18.4907 103.213 17.904C103.597 17.3173 103.97 16.784 104.333 16.304C104.696 15.8133 105.032 15.3867 105.341 15.024C105.661 14.6613 105.944 14.3947 106.189 14.224C106.338 14.224 106.536 14.2613 106.781 14.336C107.037 14.4107 107.282 14.5013 107.517 14.608C107.762 14.7147 107.976 14.8267 108.157 14.944C108.349 15.0507 108.456 15.1413 108.477 15.216C108.136 15.824 107.837 16.5653 107.581 17.44C107.325 18.3147 107.106 19.232 106.925 20.192C106.754 21.152 106.621 22.1067 106.525 23.056C106.44 23.9947 106.397 24.8373 106.397 25.584C106.397 25.8293 106.397 26.0853 106.397 26.352C106.397 26.6187 106.408 26.896 106.429 27.184C106.28 27.184 106.098 27.1627 105.885 27.12C105.682 27.088 105.48 27.04 105.277 26.976C105.085 26.912 104.909 26.8373 104.749 26.752C104.589 26.6773 104.477 26.592 104.413 26.496C104.402 26.3467 104.397 26.192 104.397 26.032C104.397 25.872 104.397 25.7173 104.397 25.568C104.397 24.3733 104.482 23.1253 104.653 21.824C104.834 20.5227 105.128 19.1147 105.533 17.6C105.576 17.4507 105.624 17.248 105.677 16.992C105.73 16.736 105.784 16.4693 105.837 16.192C105.538 16.3413 105.197 16.6293 104.813 17.056C104.44 17.472 104.056 17.984 103.661 18.592C103.277 19.1893 102.893 19.856 102.509 20.592C102.136 21.328 101.794 22.08 101.485 22.848C101.186 23.6053 100.93 24.3627 100.717 25.12C100.514 25.8667 100.392 26.5547 100.349 27.184ZM109.205 25.088C109.205 24.704 109.264 24.208 109.381 23.6C109.509 22.9813 109.669 22.32 109.861 21.616C110.064 20.9013 110.293 20.176 110.549 19.44C110.805 18.6933 111.067 17.9947 111.333 17.344C111.6 16.6933 111.861 16.1227 112.117 15.632C112.373 15.1413 112.603 14.7893 112.805 14.576C112.912 14.5867 113.051 14.6293 113.221 14.704C113.403 14.768 113.584 14.848 113.765 14.944C113.947 15.04 114.112 15.1467 114.261 15.264C114.411 15.3707 114.507 15.472 114.549 15.568C114.24 15.8453 113.931 16.2667 113.621 16.832C113.323 17.3867 113.029 18.0213 112.741 18.736C112.464 19.4507 112.203 20.208 111.957 21.008C111.712 21.7973 111.499 22.5653 111.317 23.312C111.136 24.0587 110.992 24.752 110.885 25.392C110.789 26.032 110.741 26.5493 110.741 26.944C110.741 27.1253 110.757 27.2373 110.789 27.28C110.555 27.2693 110.384 27.2267 110.277 27.152C110.171 27.088 110.085 27.0133 110.021 26.928C109.968 26.8533 109.915 26.7733 109.861 26.688C109.819 26.6133 109.749 26.5547 109.653 26.512C109.579 26.48 109.515 26.4053 109.461 26.288C109.408 26.1707 109.36 26.0427 109.317 25.904C109.285 25.7547 109.259 25.6053 109.237 25.456C109.216 25.3067 109.205 25.184 109.205 25.088ZM122.508 26.064C122.412 26.16 122.268 26.2667 122.076 26.384C121.895 26.512 121.698 26.624 121.484 26.72C121.271 26.8267 121.052 26.9173 120.828 26.992C120.615 27.0773 120.439 27.1253 120.3 27.136C120.162 27.136 120.039 27.0827 119.932 26.976C119.826 26.8693 119.714 26.624 119.596 26.24C119.479 25.8667 119.34 25.3227 119.18 24.608C119.031 23.8827 118.839 22.9013 118.604 21.664C117.996 22.2933 117.431 22.9013 116.908 23.488C116.386 24.0747 115.938 24.6187 115.564 25.12C115.191 25.6213 114.898 26.0587 114.684 26.432C114.471 26.8053 114.364 27.088 114.364 27.28C114.236 27.2693 114.103 27.2213 113.964 27.136C113.836 27.0507 113.719 26.9493 113.612 26.832C113.506 26.7147 113.415 26.5867 113.34 26.448C113.276 26.3093 113.244 26.176 113.244 26.048C113.276 25.9307 113.356 25.7653 113.484 25.552C113.612 25.3387 113.772 25.1093 113.964 24.864C114.37 24.3413 114.946 23.7387 115.692 23.056C116.45 22.3627 117.362 21.6 118.428 20.768C117.735 17.3227 116.754 15.6 115.484 15.6C115.612 15.2907 115.815 15.0187 116.092 14.784C116.38 14.5493 116.684 14.4053 117.004 14.352C117.356 14.352 117.644 14.4 117.868 14.496C118.092 14.5813 118.295 14.8053 118.476 15.168C118.658 15.5307 118.839 16.08 119.02 16.816C119.202 17.5413 119.431 18.5387 119.708 19.808C120.06 19.4347 120.396 19.056 120.716 18.672C121.047 18.2773 121.351 17.8987 121.628 17.536C121.906 17.1733 122.151 16.8373 122.364 16.528C122.578 16.2187 122.743 15.952 122.86 15.728C122.978 15.5253 123.036 15.3173 123.036 15.104C123.036 14.912 122.978 14.6613 122.86 14.352C123.202 14.5547 123.458 14.7467 123.628 14.928C123.81 15.0987 123.964 15.3387 124.092 15.648C124.071 15.904 123.996 16.16 123.868 16.416C123.751 16.672 123.538 16.9813 123.228 17.344C122.93 17.696 122.514 18.1333 121.98 18.656C121.447 19.1787 120.748 19.8293 119.884 20.608C120.087 21.568 120.284 22.3787 120.476 23.04C120.668 23.7013 120.866 24.2453 121.068 24.672C121.271 25.088 121.49 25.408 121.724 25.632C121.959 25.8453 122.22 25.9893 122.508 26.064Z" fill="#724106"/>
<defs>
<linearGradient id="paint0_linear_21_3" x1="63.4179" y1="38" x2="147.63" y2="-19.7659" gradientUnits="userSpaceOnUse">
<stop stop-color="#FFC587"/>
<stop offset="1" stop-color="#F5CFA5"/>
</linearGradient>
</defs>
</svg>
