<svg width="182" height="39" viewBox="0 0 182 39" fill="none" xmlns="http://www.w3.org/2000/svg">
<rect x="3" y="1" width="176" height="37" rx="18.5" fill="url(#paint0_linear_21_3)"/>
<path d="M28.688 25.168C28.848 24.816 29.04 24.3627 29.264 23.808C29.488 23.2533 29.7227 22.656 29.968 22.016C30.2133 21.3653 30.464 20.704 30.72 20.032C30.976 19.3493 31.216 18.704 31.44 18.096C31.664 17.488 31.856 16.944 32.016 16.464C32.1867 15.984 32.3093 15.616 32.384 15.36C31.712 15.6373 31.136 16.0587 30.656 16.624C30.176 17.1893 29.8133 17.8987 29.568 18.752C29.3227 18.6667 29.0987 18.5173 28.896 18.304C28.6933 18.08 28.56 17.8027 28.496 17.472C28.6027 16.9813 28.8 16.5333 29.088 16.128C29.3867 15.7227 29.76 15.376 30.208 15.088C30.656 14.8 31.1733 14.5813 31.76 14.432C32.3467 14.272 32.976 14.192 33.648 14.192C34.5013 14.192 35.2853 14.32 36 14.576C36.7147 14.8213 37.328 15.168 37.84 15.616C38.352 16.064 38.752 16.6027 39.04 17.232C39.328 17.8613 39.472 18.56 39.472 19.328C39.472 20.3733 39.28 21.3707 38.896 22.32C38.512 23.2693 37.9893 24.1067 37.328 24.832C36.6773 25.5573 35.92 26.1333 35.056 26.56C34.192 26.9973 33.2853 27.216 32.336 27.216C31.4613 27.216 30.7093 27.04 30.08 26.688C29.4613 26.3467 28.9973 25.84 28.688 25.168ZM34.336 14.992C33.8027 14.992 33.296 15.0667 32.816 15.216C33.2853 15.3867 33.6747 15.568 33.984 15.76C34.2933 15.9413 34.5067 16.0853 34.624 16.192C34.5387 16.3093 34.4107 16.5173 34.24 16.816C34.08 17.1147 33.888 17.4773 33.664 17.904C33.4507 18.3307 33.2213 18.8 32.976 19.312C32.7307 19.8133 32.4907 20.3307 32.256 20.864C31.648 22.2187 31.2053 23.2853 30.928 24.064C30.6613 24.8427 30.528 25.3813 30.528 25.68C30.6773 25.7333 30.8587 25.7707 31.072 25.792C31.2853 25.8133 31.5147 25.824 31.76 25.824C32.624 25.824 33.44 25.6267 34.208 25.232C34.9867 24.8267 35.664 24.288 36.24 23.616C36.8267 22.944 37.2853 22.1653 37.616 21.28C37.9573 20.384 38.128 19.4453 38.128 18.464C38.128 17.3653 37.7867 16.512 37.104 15.904C36.4213 15.296 35.4987 14.992 34.336 14.992ZM45.7331 19.376C45.6905 20.0373 45.5731 20.608 45.3811 21.088C45.1891 21.5573 44.9118 21.9733 44.5491 22.336C44.1971 22.688 43.7651 23.008 43.2531 23.296C42.7411 23.584 42.1438 23.8613 41.4611 24.128C41.4611 24.192 41.4558 24.2613 41.4451 24.336C41.4451 24.4 41.4451 24.4693 41.4451 24.544C41.4451 24.6827 41.4558 24.8267 41.4771 24.976C41.4985 25.1253 41.5358 25.264 41.5891 25.392C41.6425 25.52 41.7171 25.6267 41.8131 25.712C41.9091 25.7867 42.0318 25.824 42.1811 25.824C42.4691 25.824 42.7518 25.76 43.0291 25.632C43.3065 25.504 43.5678 25.3493 43.8131 25.168C44.0691 24.976 44.3038 24.7733 44.5171 24.56C44.7411 24.336 44.9385 24.1333 45.1091 23.952C45.2158 24.048 45.3065 24.1387 45.3811 24.224C44.9011 24.864 44.3731 25.3973 43.7971 25.824C43.2318 26.24 42.6931 26.5067 42.1811 26.624C41.4451 26.5387 40.8691 26.272 40.4531 25.824C40.0478 25.3653 39.8451 24.816 39.8451 24.176C39.8451 23.7387 39.9038 23.296 40.0211 22.848C40.1491 22.3893 40.3198 21.952 40.5331 21.536C40.7571 21.1093 41.0131 20.7093 41.3011 20.336C41.5998 19.9627 41.9145 19.6373 42.2451 19.36C42.5865 19.0827 42.9331 18.864 43.2851 18.704C43.6478 18.544 44.0051 18.464 44.3571 18.464C44.8478 18.528 45.3065 18.832 45.7331 19.376ZM44.6291 19.904C44.3411 19.9467 44.0425 20.064 43.7331 20.256C43.4238 20.448 43.1305 20.704 42.8531 21.024C42.5865 21.344 42.3411 21.7173 42.1171 22.144C41.8931 22.5707 41.7171 23.0293 41.5891 23.52C42.4425 23.0933 43.1518 22.5707 43.7171 21.952C44.2825 21.3227 44.5865 20.64 44.6291 19.904ZM52.2019 19.376C52.1592 20.0373 52.0419 20.608 51.8499 21.088C51.6579 21.5573 51.3805 21.9733 51.0179 22.336C50.6659 22.688 50.2339 23.008 49.7219 23.296C49.2099 23.584 48.6125 23.8613 47.9299 24.128C47.9299 24.192 47.9245 24.2613 47.9139 24.336C47.9139 24.4 47.9139 24.4693 47.9139 24.544C47.9139 24.6827 47.9245 24.8267 47.9459 24.976C47.9672 25.1253 48.0045 25.264 48.0579 25.392C48.1112 25.52 48.1859 25.6267 48.2819 25.712C48.3779 25.7867 48.5005 25.824 48.6499 25.824C48.9379 25.824 49.2205 25.76 49.4979 25.632C49.7752 25.504 50.0365 25.3493 50.2819 25.168C50.5379 24.976 50.7725 24.7733 50.9859 24.56C51.2099 24.336 51.4072 24.1333 51.5779 23.952C51.6845 24.048 51.7752 24.1387 51.8499 24.224C51.3699 24.864 50.8419 25.3973 50.2659 25.824C49.7005 26.24 49.1619 26.5067 48.6499 26.624C47.9139 26.5387 47.3379 26.272 46.9219 25.824C46.5165 25.3653 46.3139 24.816 46.3139 24.176C46.3139 23.7387 46.3725 23.296 46.4899 22.848C46.6179 22.3893 46.7885 21.952 47.0019 21.536C47.2259 21.1093 47.4819 20.7093 47.7699 20.336C48.0685 19.9627 48.3832 19.6373 48.7139 19.36C49.0552 19.0827 49.4019 18.864 49.7539 18.704C50.1165 18.544 50.4739 18.464 50.8259 18.464C51.3165 18.528 51.7752 18.832 52.2019 19.376ZM51.0979 19.904C50.8099 19.9467 50.5112 20.064 50.2019 20.256C49.8925 20.448 49.5992 20.704 49.3219 21.024C49.0552 21.344 48.8099 21.7173 48.5859 22.144C48.3619 22.5707 48.1859 23.0293 48.0579 23.52C48.9112 23.0933 49.6205 22.5707 50.1859 21.952C50.7512 21.3227 51.0552 20.64 51.0979 19.904ZM51.7746 31.296C51.6253 31.2533 51.54 31.0933 51.5186 30.816C51.476 30.6773 51.444 30.512 51.4226 30.32C51.412 30.128 51.4066 29.9093 51.4066 29.664C51.4066 29.44 51.444 29.1307 51.5186 28.736C51.5933 28.352 51.6946 27.9147 51.8226 27.424C51.9613 26.9333 52.1266 26.4053 52.3186 25.84C52.5106 25.264 52.724 24.6827 52.9586 24.096C53.2466 23.36 53.4973 22.7253 53.7106 22.192C53.924 21.648 54.1 21.1787 54.2386 20.784C54.388 20.3893 54.5053 20.064 54.5906 19.808C54.6866 19.552 54.7613 19.3333 54.8146 19.152C54.8573 19.024 54.9213 18.8693 55.0066 18.688C55.092 18.5067 55.188 18.3253 55.2946 18.144C55.412 17.952 55.5293 17.776 55.6466 17.616C55.764 17.4453 55.8706 17.3173 55.9666 17.232C56.34 17.2853 56.692 17.3813 57.0226 17.52C57.3533 17.6587 57.556 17.792 57.6306 17.92C57.4813 18.0587 57.3106 18.2773 57.1186 18.576C56.9266 18.864 56.74 19.184 56.5586 19.536C56.3773 19.8773 56.212 20.2293 56.0626 20.592C55.9133 20.9547 55.8013 21.2747 55.7266 21.552C55.8333 21.3707 55.972 21.1733 56.1426 20.96C56.3133 20.7467 56.5746 20.4533 56.9266 20.08C57.3213 19.6747 57.6893 19.3653 58.0306 19.152C58.3826 18.928 58.6866 18.816 58.9426 18.816C59.348 18.816 59.6786 18.928 59.9346 19.152C60.2013 19.376 60.3346 19.664 60.3346 20.016C60.3346 20.784 60.2066 21.5467 59.9506 22.304C59.6946 23.0507 59.3266 23.728 58.8466 24.336C58.6653 24.5707 58.452 24.7947 58.2066 25.008C57.9613 25.2213 57.7053 25.4133 57.4386 25.584C57.172 25.744 56.9106 25.872 56.6546 25.968C56.3986 26.064 56.1693 26.112 55.9666 26.112C55.7746 26.112 55.604 26.0747 55.4546 26C55.316 25.9147 55.22 25.8133 55.1666 25.696C55.5826 25.4507 55.988 25.1093 56.3826 24.672C56.7773 24.2347 57.14 23.7333 57.4706 23.168C57.812 22.592 58.1053 21.9733 58.3506 21.312C58.6066 20.6507 58.7986 19.9787 58.9266 19.296C58.5213 19.5093 58.1533 19.744 57.8226 20C57.5026 20.2453 57.1826 20.5707 56.8626 20.976C56.4786 21.4453 56.1746 21.824 55.9506 22.112C55.7266 22.4 55.54 22.6453 55.3906 22.848C55.252 23.0507 55.1346 23.2427 55.0386 23.424C54.9533 23.5947 54.8573 23.808 54.7506 24.064C54.6013 24.4053 54.4253 24.8587 54.2226 25.424C54.0306 25.9787 53.828 26.6027 53.6146 27.296C53.412 27.9893 53.204 28.7253 52.9906 29.504C52.788 30.2933 52.5906 31.0773 52.3986 31.856C52.2813 31.8347 52.18 31.7493 52.0946 31.6C52.0093 31.504 51.9453 31.4347 51.9026 31.392C51.8706 31.3493 51.828 31.3173 51.7746 31.296ZM71.2668 15.216C71.2988 15.3973 71.3201 15.5253 71.3308 15.6C71.3521 15.664 71.3628 15.7547 71.3628 15.872C71.3628 16.224 71.2828 16.5547 71.1228 16.864C70.9734 17.1627 70.7654 17.376 70.4988 17.504C70.2854 17.216 70.0241 16.9707 69.7148 16.768C69.4054 16.5547 69.0641 16.384 68.6908 16.256C68.3281 16.1173 67.9494 16.016 67.5548 15.952C67.1601 15.888 66.7761 15.856 66.4028 15.856C66.0294 15.856 65.6774 15.888 65.3468 15.952C65.0268 16.0053 64.7388 16.0853 64.4828 16.192C64.2374 16.288 64.0401 16.4107 63.8908 16.56C63.7521 16.7093 63.6828 16.88 63.6828 17.072C63.7148 17.3067 63.8588 17.5467 64.1148 17.792C64.3708 18.0267 64.6854 18.2613 65.0588 18.496C65.4321 18.72 65.8428 18.944 66.2908 19.168C66.7494 19.392 67.1974 19.6053 67.6348 19.808C68.1788 20.064 68.6481 20.304 69.0428 20.528C69.4374 20.7413 69.7628 20.9813 70.0188 21.248C70.2748 21.504 70.4668 21.7973 70.5948 22.128C70.7228 22.4587 70.7868 22.8587 70.7868 23.328C70.7868 23.872 70.6961 24.384 70.5148 24.864C70.3334 25.3333 70.0668 25.744 69.7148 26.096C69.3734 26.448 68.9574 26.72 68.4668 26.912C67.9761 27.1147 67.4268 27.216 66.8188 27.216C66.2214 27.216 65.5761 27.1253 64.8828 26.944C64.1894 26.7627 63.5388 26.512 62.9308 26.192C62.3334 25.8827 61.8321 25.5253 61.4268 25.12C61.0321 24.704 60.8348 24.2667 60.8348 23.808C60.8348 23.5947 60.8934 23.3227 61.0108 22.992C61.1388 22.6613 61.3628 22.3147 61.6828 21.952C61.7148 22.272 61.8854 22.6507 62.1948 23.088C62.5148 23.5253 62.9894 23.9307 63.6188 24.304C64.2054 24.6453 64.8081 24.896 65.4268 25.056C66.0561 25.2053 66.6428 25.28 67.1868 25.28C67.7841 25.28 68.2694 25.2053 68.6428 25.056C69.0161 24.9067 69.3094 24.7307 69.5228 24.528C69.7361 24.3147 69.8854 24.1013 69.9708 23.888C70.0561 23.6747 70.1041 23.504 70.1148 23.376C70.1041 23.1627 70.0028 22.96 69.8108 22.768C69.6294 22.5653 69.3788 22.3733 69.0588 22.192C68.7494 22 68.3868 21.808 67.9708 21.616C67.5548 21.424 67.1228 21.232 66.6748 21.04C66.0028 20.7413 65.4214 20.464 64.9308 20.208C64.4508 19.9413 64.0508 19.6747 63.7308 19.408C63.4214 19.1307 63.1921 18.8427 63.0428 18.544C62.9041 18.2453 62.8348 17.904 62.8348 17.52C62.8348 16.9227 63.0161 16.3573 63.3788 15.824C63.7414 15.2907 64.2641 14.8853 64.9468 14.608C65.2881 14.4587 65.6508 14.352 66.0348 14.288C66.4294 14.224 66.8134 14.192 67.1868 14.192C67.8908 14.192 68.5788 14.288 69.2508 14.48C69.9228 14.672 70.5948 14.9173 71.2668 15.216ZM77.7331 19.376C77.6905 20.0373 77.5731 20.608 77.3811 21.088C77.1891 21.5573 76.9118 21.9733 76.5491 22.336C76.1971 22.688 75.7651 23.008 75.2531 23.296C74.7411 23.584 74.1438 23.8613 73.4611 24.128C73.4611 24.192 73.4558 24.2613 73.4451 24.336C73.4451 24.4 73.4451 24.4693 73.4451 24.544C73.4451 24.6827 73.4558 24.8267 73.4771 24.976C73.4985 25.1253 73.5358 25.264 73.5891 25.392C73.6425 25.52 73.7171 25.6267 73.8131 25.712C73.9091 25.7867 74.0318 25.824 74.1811 25.824C74.4691 25.824 74.7518 25.76 75.0291 25.632C75.3065 25.504 75.5678 25.3493 75.8131 25.168C76.0691 24.976 76.3038 24.7733 76.5171 24.56C76.7411 24.336 76.9385 24.1333 77.1091 23.952C77.2158 24.048 77.3065 24.1387 77.3811 24.224C76.9011 24.864 76.3731 25.3973 75.7971 25.824C75.2318 26.24 74.6931 26.5067 74.1811 26.624C73.4451 26.5387 72.8691 26.272 72.4531 25.824C72.0478 25.3653 71.8451 24.816 71.8451 24.176C71.8451 23.7387 71.9038 23.296 72.0211 22.848C72.1491 22.3893 72.3198 21.952 72.5331 21.536C72.7571 21.1093 73.0131 20.7093 73.3011 20.336C73.5998 19.9627 73.9145 19.6373 74.2451 19.36C74.5865 19.0827 74.9331 18.864 75.2851 18.704C75.6478 18.544 76.0051 18.464 76.3571 18.464C76.8478 18.528 77.3065 18.832 77.7331 19.376ZM76.6291 19.904C76.3411 19.9467 76.0425 20.064 75.7331 20.256C75.4238 20.448 75.1305 20.704 74.8531 21.024C74.5865 21.344 74.3411 21.7173 74.1171 22.144C73.8931 22.5707 73.7171 23.0293 73.5891 23.52C74.4425 23.0933 75.1518 22.5707 75.7171 21.952C76.2825 21.3227 76.5865 20.64 76.6291 19.904ZM84.2019 19.376C84.1592 20.0373 84.0419 20.608 83.8499 21.088C83.6579 21.5573 83.3805 21.9733 83.0179 22.336C82.6659 22.688 82.2339 23.008 81.7219 23.296C81.2099 23.584 80.6125 23.8613 79.9299 24.128C79.9299 24.192 79.9245 24.2613 79.9139 24.336C79.9139 24.4 79.9139 24.4693 79.9139 24.544C79.9139 24.6827 79.9245 24.8267 79.9459 24.976C79.9672 25.1253 80.0045 25.264 80.0579 25.392C80.1112 25.52 80.1859 25.6267 80.2819 25.712C80.3779 25.7867 80.5005 25.824 80.6499 25.824C80.9379 25.824 81.2205 25.76 81.4979 25.632C81.7752 25.504 82.0365 25.3493 82.2819 25.168C82.5379 24.976 82.7725 24.7733 82.9859 24.56C83.2099 24.336 83.4072 24.1333 83.5779 23.952C83.6845 24.048 83.7752 24.1387 83.8499 24.224C83.3699 24.864 82.8419 25.3973 82.2659 25.824C81.7005 26.24 81.1619 26.5067 80.6499 26.624C79.9139 26.5387 79.3379 26.272 78.9219 25.824C78.5165 25.3653 78.3139 24.816 78.3139 24.176C78.3139 23.7387 78.3725 23.296 78.4899 22.848C78.6179 22.3893 78.7885 21.952 79.0019 21.536C79.2259 21.1093 79.4819 20.7093 79.7699 20.336C80.0685 19.9627 80.3832 19.6373 80.7139 19.36C81.0552 19.0827 81.4019 18.864 81.7539 18.704C82.1165 18.544 82.4739 18.464 82.8259 18.464C83.3165 18.528 83.7752 18.832 84.2019 19.376ZM83.0979 19.904C82.8099 19.9467 82.5112 20.064 82.2019 20.256C81.8925 20.448 81.5992 20.704 81.3219 21.024C81.0552 21.344 80.8099 21.7173 80.5859 22.144C80.3619 22.5707 80.1859 23.0293 80.0579 23.52C80.9112 23.0933 81.6205 22.5707 82.1859 21.952C82.7512 21.3227 83.0552 20.64 83.0979 19.904ZM84.9746 24.496C84.9746 24.112 85.0706 23.5787 85.2626 22.896C85.4653 22.2133 85.7266 21.4667 86.0466 20.656C86.3666 19.8453 86.7293 19.008 87.1346 18.144C87.54 17.28 87.9453 16.4747 88.3506 15.728C88.7666 14.9813 89.1613 14.336 89.5346 13.792C89.9186 13.248 90.244 12.88 90.5106 12.688C90.66 12.6987 90.82 12.7627 90.9906 12.88C91.172 12.9973 91.3373 13.1413 91.4866 13.312C91.636 13.472 91.7586 13.6427 91.8546 13.824C91.9613 14.0053 92.0146 14.1707 92.0146 14.32C91.5346 14.704 91.044 15.2 90.5426 15.808C90.052 16.4053 89.5826 17.0667 89.1346 17.792C88.6866 18.5067 88.2706 19.2693 87.8866 20.08C87.5133 20.88 87.1986 21.6693 86.9426 22.448C87.284 21.8613 87.6413 21.328 88.0146 20.848C88.388 20.368 88.7613 19.9573 89.1346 19.616C89.508 19.2747 89.8706 19.0133 90.2226 18.832C90.5853 18.64 90.9266 18.5387 91.2466 18.528C91.716 18.8693 91.9506 19.3227 91.9506 19.888C91.9506 20.2293 91.8813 20.576 91.7426 20.928C91.604 21.2693 91.4173 21.5893 91.1826 21.888C90.9586 22.176 90.6973 22.4267 90.3986 22.64C90.1106 22.8427 89.8066 22.976 89.4866 23.04C89.5933 23.4133 89.7266 23.792 89.8866 24.176C90.0573 24.56 90.2546 24.9333 90.4786 25.296C90.7133 25.6587 90.9746 25.9947 91.2626 26.304C91.5613 26.6133 91.8973 26.8747 92.2706 27.088C92.2173 27.1947 92.1373 27.3013 92.0306 27.408C91.924 27.5147 91.796 27.6053 91.6466 27.68C91.4973 27.7653 91.332 27.8293 91.1506 27.872C90.98 27.9253 90.8093 27.952 90.6386 27.952C90.3506 27.952 90.0786 27.808 89.8226 27.52C89.5773 27.232 89.3533 26.816 89.1506 26.272C88.9906 25.8347 88.836 25.312 88.6866 24.704C88.5373 24.096 88.404 23.4613 88.2866 22.8C88.436 22.704 88.6226 22.5653 88.8466 22.384C89.0706 22.192 89.3053 21.9733 89.5506 21.728C90.4893 20.8213 90.9586 20.0373 90.9586 19.376C90.9586 19.2907 90.9 19.248 90.7826 19.248C90.5693 19.2587 90.3186 19.36 90.0306 19.552C89.7426 19.744 89.4333 20.0107 89.1026 20.352C88.7826 20.6933 88.452 21.0933 88.1106 21.552C87.78 22.0107 87.46 22.5067 87.1506 23.04C87.0226 23.2533 86.9053 23.4987 86.7986 23.776C86.692 24.0533 86.596 24.3413 86.5106 24.64C86.436 24.928 86.3773 25.216 86.3346 25.504C86.292 25.792 86.2706 26.0587 86.2706 26.304C86.2706 26.4533 86.2866 26.576 86.3186 26.672C85.988 26.64 85.7853 26.5547 85.7106 26.416C85.6253 26.288 85.5506 26.1813 85.4866 26.096C85.4333 26.0213 85.3746 25.9573 85.3106 25.904C85.2146 25.8293 85.1346 25.6693 85.0706 25.424C85.0066 25.1787 84.9746 24.8693 84.9746 24.496ZM107.949 17.184C107.949 17.696 107.832 18.1813 107.597 18.64C107.373 19.088 107.058 19.4933 106.653 19.856C106.248 20.208 105.773 20.5067 105.229 20.752C104.685 20.9973 104.093 21.1627 103.453 21.248C103.613 21.728 103.805 22.224 104.029 22.736C104.264 23.2373 104.514 23.7227 104.781 24.192C105.048 24.6613 105.325 25.0933 105.613 25.488C105.901 25.8827 106.184 26.208 106.461 26.464C106.408 26.5707 106.328 26.6773 106.221 26.784C106.125 26.8907 106.008 26.9867 105.869 27.072C105.741 27.168 105.602 27.2427 105.453 27.296C105.314 27.36 105.181 27.392 105.053 27.392C104.818 27.392 104.594 27.28 104.381 27.056C104.168 26.832 103.949 26.48 103.725 26C103.512 25.5093 103.282 24.88 103.037 24.112C102.802 23.3333 102.541 22.4 102.253 21.312C102.136 21.312 102.018 21.312 101.901 21.312C101.784 21.312 101.693 21.3013 101.629 21.28C101.554 21.2373 101.474 21.1627 101.389 21.056C101.101 21.6747 100.845 22.256 100.621 22.8C100.397 23.344 100.194 23.872 100.013 24.384C99.8425 24.8853 99.6878 25.376 99.5491 25.856C99.4211 26.3253 99.3091 26.8053 99.2131 27.296C98.8505 27.2107 98.5358 27.056 98.2691 26.832C98.0025 26.608 97.7518 26.2933 97.5171 25.888C97.5598 25.792 97.6025 25.7013 97.6451 25.616C97.6985 25.52 97.7625 25.392 97.8371 25.232C97.9118 25.0613 98.0025 24.848 98.1091 24.592C98.2265 24.336 98.3758 23.9947 98.5571 23.568C98.7491 23.1413 98.9731 22.6187 99.2291 22C99.4958 21.3813 99.8158 20.6293 100.189 19.744C100.36 19.3493 100.504 19.0027 100.621 18.704C100.749 18.4053 100.861 18.1227 100.957 17.856C101.053 17.5787 101.138 17.3067 101.213 17.04C101.298 16.7627 101.384 16.448 101.469 16.096C100.978 16.2667 100.52 16.4587 100.093 16.672C99.6771 16.8747 99.3305 17.0933 99.0531 17.328C98.9571 17.264 98.8558 17.168 98.7491 17.04C98.6531 16.912 98.5625 16.7733 98.4771 16.624C98.3918 16.464 98.3171 16.304 98.2531 16.144C98.1891 15.984 98.1518 15.84 98.1411 15.712C98.4611 15.4987 98.8505 15.3013 99.3091 15.12C99.7785 14.9387 100.274 14.784 100.797 14.656C101.32 14.5173 101.853 14.4107 102.397 14.336C102.941 14.2613 103.448 14.224 103.917 14.224C105.197 14.224 106.189 14.4907 106.893 15.024C107.597 15.5467 107.949 16.2667 107.949 17.184ZM104.045 15.84C103.97 15.936 103.853 16.128 103.693 16.416C103.533 16.704 103.346 17.0507 103.133 17.456C102.93 17.8507 102.712 18.2827 102.477 18.752C102.253 19.2213 102.034 19.6853 101.821 20.144C102.621 20.144 103.357 20.0693 104.029 19.92C104.701 19.7707 105.282 19.5627 105.773 19.296C106.264 19.0187 106.642 18.6987 106.909 18.336C107.186 17.9627 107.325 17.552 107.325 17.104C107.325 16.5707 107.133 16.1653 106.749 15.888C106.365 15.6 105.773 15.456 104.973 15.456C104.792 15.456 104.61 15.4667 104.429 15.488C104.248 15.4987 104.056 15.5147 103.853 15.536L104.045 15.84ZM112.593 24.848C112.945 24.848 113.217 24.9387 113.409 25.12C113.612 25.2907 113.713 25.5307 113.713 25.84C113.713 25.9253 113.703 26.0107 113.681 26.096C113.671 26.192 113.655 26.272 113.633 26.336C113.495 26.3147 113.34 26.2933 113.169 26.272C112.999 26.2613 112.796 26.256 112.561 26.256C112.241 26.256 111.911 26.2773 111.569 26.32C111.239 26.3627 110.913 26.4053 110.593 26.448C110.273 26.5013 109.964 26.5493 109.665 26.592C109.367 26.6347 109.089 26.656 108.833 26.656C108.417 26.656 108.06 26.576 107.761 26.416C107.463 26.256 107.26 26.0373 107.153 25.76C107.196 25.7173 107.297 25.6747 107.457 25.632C107.628 25.5787 107.831 25.5253 108.065 25.472C108.311 25.408 108.583 25.3493 108.881 25.296C109.191 25.2427 109.505 25.1893 109.825 25.136C109.975 24.496 110.14 23.84 110.321 23.168C110.513 22.4853 110.705 21.808 110.897 21.136C111.1 20.4533 111.308 19.7813 111.521 19.12C111.735 18.4587 111.948 17.8187 112.161 17.2C111.799 17.3707 111.42 17.6 111.025 17.888C110.641 18.1653 110.311 18.4267 110.033 18.672C109.916 18.608 109.857 18.464 109.857 18.24C110.252 17.7067 110.652 17.232 111.057 16.816C111.463 16.4 111.911 15.9573 112.401 15.488C112.519 15.3707 112.657 15.2053 112.817 14.992C112.988 14.7787 113.132 14.5653 113.249 14.352C113.399 14.3947 113.585 14.4427 113.809 14.496C114.033 14.5387 114.252 14.5973 114.465 14.672C114.689 14.736 114.887 14.816 115.057 14.912C115.239 15.008 115.361 15.12 115.425 15.248C115.287 15.3653 115.159 15.488 115.041 15.616C114.935 15.744 114.839 15.8827 114.753 16.032C114.54 16.416 114.289 16.9547 114.001 17.648C113.724 18.3307 113.436 19.0827 113.137 19.904C112.849 20.7147 112.556 21.5627 112.257 22.448C111.969 23.3227 111.708 24.144 111.473 24.912C111.697 24.8907 111.9 24.8747 112.081 24.864C112.273 24.8533 112.444 24.848 112.593 24.848ZM129.474 27.184C129.453 27.1947 129.431 27.2 129.41 27.2C129.389 27.2 129.346 27.2 129.282 27.2C129.133 27.2 128.957 27.1733 128.754 27.12C128.562 27.0773 128.37 27.0187 128.178 26.944C127.997 26.88 127.837 26.8053 127.698 26.72C127.57 26.6347 127.49 26.56 127.458 26.496C127.447 26.3467 127.442 26.192 127.442 26.032C127.442 25.872 127.442 25.7173 127.442 25.568C127.442 24.3733 127.527 23.1253 127.698 21.824C127.879 20.5227 128.173 19.1147 128.578 17.6C128.621 17.4507 128.663 17.264 128.706 17.04C128.759 16.8053 128.813 16.5547 128.866 16.288C128.61 16.4907 128.306 16.816 127.954 17.264C127.602 17.7013 127.229 18.224 126.834 18.832C126.45 19.4293 126.061 20.0907 125.666 20.816C125.282 21.5307 124.93 22.2613 124.61 23.008C124.29 23.744 124.013 24.4747 123.778 25.2C123.554 25.9253 123.415 26.5973 123.362 27.216C122.85 27.0667 122.493 26.9173 122.29 26.768C122.098 26.6187 122.002 26.4373 122.002 26.224C122.002 26.032 122.061 25.76 122.178 25.408C122.295 25.056 122.461 24.64 122.674 24.16C122.887 23.68 123.149 23.1467 123.458 22.56C123.767 21.9627 124.109 21.3227 124.482 20.64C124.909 19.8613 125.325 19.1307 125.73 18.448C126.146 17.7653 126.551 17.1467 126.946 16.592C127.341 16.0373 127.725 15.5573 128.098 15.152C128.482 14.7467 128.861 14.4373 129.234 14.224C129.383 14.224 129.581 14.2613 129.826 14.336C130.082 14.4107 130.327 14.5013 130.562 14.608C130.807 14.7147 131.021 14.8267 131.202 14.944C131.394 15.0507 131.501 15.1413 131.522 15.216C131.373 15.5147 131.197 15.9627 130.994 16.56C130.791 17.1573 130.583 17.8347 130.37 18.592C130.167 19.3493 129.97 20.1547 129.778 21.008C129.597 21.8507 129.453 22.6613 129.346 23.44C129.591 22.8533 129.874 22.2453 130.194 21.616C130.525 20.976 130.871 20.3467 131.234 19.728C131.597 19.0987 131.965 18.4907 132.338 17.904C132.722 17.3173 133.095 16.784 133.458 16.304C133.821 15.8133 134.157 15.3867 134.466 15.024C134.786 14.6613 135.069 14.3947 135.314 14.224C135.463 14.224 135.661 14.2613 135.906 14.336C136.162 14.4107 136.407 14.5013 136.642 14.608C136.887 14.7147 137.101 14.8267 137.282 14.944C137.474 15.0507 137.581 15.1413 137.602 15.216C137.261 15.824 136.962 16.5653 136.706 17.44C136.45 18.3147 136.231 19.232 136.05 20.192C135.879 21.152 135.746 22.1067 135.65 23.056C135.565 23.9947 135.522 24.8373 135.522 25.584C135.522 25.8293 135.522 26.0853 135.522 26.352C135.522 26.6187 135.533 26.896 135.554 27.184C135.405 27.184 135.223 27.1627 135.01 27.12C134.807 27.088 134.605 27.04 134.402 26.976C134.21 26.912 134.034 26.8373 133.874 26.752C133.714 26.6773 133.602 26.592 133.538 26.496C133.527 26.3467 133.522 26.192 133.522 26.032C133.522 25.872 133.522 25.7173 133.522 25.568C133.522 24.3733 133.607 23.1253 133.778 21.824C133.959 20.5227 134.253 19.1147 134.658 17.6C134.701 17.4507 134.749 17.248 134.802 16.992C134.855 16.736 134.909 16.4693 134.962 16.192C134.663 16.3413 134.322 16.6293 133.938 17.056C133.565 17.472 133.181 17.984 132.786 18.592C132.402 19.1893 132.018 19.856 131.634 20.592C131.261 21.328 130.919 22.08 130.61 22.848C130.311 23.6053 130.055 24.3627 129.842 25.12C129.639 25.8667 129.517 26.5547 129.474 27.184ZM138.33 25.088C138.33 24.704 138.389 24.208 138.506 23.6C138.634 22.9813 138.794 22.32 138.986 21.616C139.189 20.9013 139.418 20.176 139.674 19.44C139.93 18.6933 140.192 17.9947 140.458 17.344C140.725 16.6933 140.986 16.1227 141.242 15.632C141.498 15.1413 141.728 14.7893 141.93 14.576C142.037 14.5867 142.176 14.6293 142.346 14.704C142.528 14.768 142.709 14.848 142.89 14.944C143.072 15.04 143.237 15.1467 143.386 15.264C143.536 15.3707 143.632 15.472 143.674 15.568C143.365 15.8453 143.056 16.2667 142.746 16.832C142.448 17.3867 142.154 18.0213 141.866 18.736C141.589 19.4507 141.328 20.208 141.082 21.008C140.837 21.7973 140.624 22.5653 140.442 23.312C140.261 24.0587 140.117 24.752 140.01 25.392C139.914 26.032 139.866 26.5493 139.866 26.944C139.866 27.1253 139.882 27.2373 139.914 27.28C139.68 27.2693 139.509 27.2267 139.402 27.152C139.296 27.088 139.21 27.0133 139.146 26.928C139.093 26.8533 139.04 26.7733 138.986 26.688C138.944 26.6133 138.874 26.5547 138.778 26.512C138.704 26.48 138.64 26.4053 138.586 26.288C138.533 26.1707 138.485 26.0427 138.442 25.904C138.41 25.7547 138.384 25.6053 138.362 25.456C138.341 25.3067 138.33 25.184 138.33 25.088ZM151.633 26.064C151.537 26.16 151.393 26.2667 151.201 26.384C151.02 26.512 150.823 26.624 150.609 26.72C150.396 26.8267 150.177 26.9173 149.953 26.992C149.74 27.0773 149.564 27.1253 149.425 27.136C149.287 27.136 149.164 27.0827 149.057 26.976C148.951 26.8693 148.839 26.624 148.721 26.24C148.604 25.8667 148.465 25.3227 148.305 24.608C148.156 23.8827 147.964 22.9013 147.729 21.664C147.121 22.2933 146.556 22.9013 146.033 23.488C145.511 24.0747 145.063 24.6187 144.689 25.12C144.316 25.6213 144.023 26.0587 143.809 26.432C143.596 26.8053 143.489 27.088 143.489 27.28C143.361 27.2693 143.228 27.2213 143.089 27.136C142.961 27.0507 142.844 26.9493 142.737 26.832C142.631 26.7147 142.54 26.5867 142.465 26.448C142.401 26.3093 142.369 26.176 142.369 26.048C142.401 25.9307 142.481 25.7653 142.609 25.552C142.737 25.3387 142.897 25.1093 143.089 24.864C143.495 24.3413 144.071 23.7387 144.817 23.056C145.575 22.3627 146.487 21.6 147.553 20.768C146.86 17.3227 145.879 15.6 144.609 15.6C144.737 15.2907 144.94 15.0187 145.217 14.784C145.505 14.5493 145.809 14.4053 146.129 14.352C146.481 14.352 146.769 14.4 146.993 14.496C147.217 14.5813 147.42 14.8053 147.601 15.168C147.783 15.5307 147.964 16.08 148.145 16.816C148.327 17.5413 148.556 18.5387 148.833 19.808C149.185 19.4347 149.521 19.056 149.841 18.672C150.172 18.2773 150.476 17.8987 150.753 17.536C151.031 17.1733 151.276 16.8373 151.489 16.528C151.703 16.2187 151.868 15.952 151.985 15.728C152.103 15.5253 152.161 15.3173 152.161 15.104C152.161 14.912 152.103 14.6613 151.985 14.352C152.327 14.5547 152.583 14.7467 152.753 14.928C152.935 15.0987 153.089 15.3387 153.217 15.648C153.196 15.904 153.121 16.16 152.993 16.416C152.876 16.672 152.663 16.9813 152.353 17.344C152.055 17.696 151.639 18.1333 151.105 18.656C150.572 19.1787 149.873 19.8293 149.009 20.608C149.212 21.568 149.409 22.3787 149.601 23.04C149.793 23.7013 149.991 24.2453 150.193 24.672C150.396 25.088 150.615 25.408 150.849 25.632C151.084 25.8453 151.345 25.9893 151.633 26.064ZM156.605 25.376C156.391 25.344 156.167 25.2587 155.933 25.12C155.709 24.9813 155.49 24.816 155.277 24.624C155.362 24.3147 155.447 24.0107 155.533 23.712C155.618 23.4027 155.703 23.0987 155.789 22.8C155.607 22.8213 155.426 22.8373 155.245 22.848C155.063 22.8587 154.882 22.864 154.701 22.864C154.317 22.864 154.007 22.7733 153.773 22.592C153.549 22.4 153.437 22.1387 153.437 21.808C153.437 21.7547 153.447 21.6747 153.469 21.568C153.501 21.4507 153.527 21.3653 153.549 21.312C153.751 21.344 153.943 21.3653 154.125 21.376C154.317 21.3867 154.562 21.392 154.861 21.392C155.106 21.392 155.346 21.392 155.581 21.392C155.826 21.392 156.061 21.3813 156.285 21.36C156.53 20.688 156.775 20.0907 157.021 19.568C157.277 19.0347 157.527 18.6133 157.773 18.304C157.901 18.3253 158.066 18.3787 158.269 18.464C158.471 18.5493 158.669 18.6453 158.861 18.752C159.063 18.848 159.245 18.9493 159.405 19.056C159.565 19.1627 159.666 19.248 159.709 19.312C159.463 19.5787 159.234 19.872 159.021 20.192C158.807 20.5013 158.594 20.8427 158.381 21.216C158.765 21.184 159.095 21.152 159.373 21.12C159.661 21.088 159.879 21.072 160.029 21.072C160.263 21.072 160.471 21.1947 160.653 21.44C160.834 21.6853 160.967 22.0373 161.053 22.496C160.743 22.464 160.487 22.4427 160.285 22.432C160.093 22.4213 159.922 22.416 159.773 22.416C159.389 22.416 159.021 22.432 158.669 22.464C158.327 22.4853 158.002 22.5173 157.693 22.56C157.49 23.008 157.298 23.4667 157.117 23.936C156.935 24.4053 156.765 24.8853 156.605 25.376Z" fill="#724106"/>
<defs>
<linearGradient id="paint0_linear_21_3" x1="63.4179" y1="38" x2="147.63" y2="-19.7659" gradientUnits="userSpaceOnUse">
<stop stop-color="#FFC587"/>
<stop offset="1" stop-color="#F5CFA5"/>
</linearGradient>
</defs>
</svg>
