<svg width="85" height="85" viewBox="0 0 85 85" fill="none" xmlns="http://www.w3.org/2000/svg">
<rect width="85" height="85" rx="14" fill="url(#paint0_linear_0_1)"/>
<path d="M11.94 33.2C10.0733 33.2 8.54667 32.5867 7.36 31.36C6.18667 30.1333 5.6 28.3467 5.6 26C5.6 23.64 6.19333 21.8533 7.38 20.64C8.58 19.4267 10.12 18.82 12 18.82C13.8933 18.82 15.42 19.42 16.58 20.62C17.74 21.8067 18.32 23.6133 18.32 26.04C18.32 28.4533 17.7267 30.2533 16.54 31.44C15.3533 32.6133 13.82 33.2 11.94 33.2ZM11.96 22.66C11.32 22.66 10.78 22.9533 10.34 23.54C9.91333 24.1267 9.7 24.9533 9.7 26.02C9.7 27.0733 9.90667 27.8867 10.32 28.46C10.7333 29.02 11.2733 29.3 11.94 29.3C12.62 29.3 13.1667 29.0133 13.58 28.44C14.0067 27.8667 14.22 27.0467 14.22 25.98C14.22 24.9133 14 24.0933 13.56 23.52C13.1333 22.9467 12.6 22.66 11.96 22.66ZM24.1258 36.64C24.1258 36.7333 23.5524 36.78 22.4058 36.78C21.2724 36.78 20.7058 36.7333 20.7058 36.64V26.34H20.0258C19.7058 26.34 19.4858 26.0467 19.3658 25.46C19.3258 25.2733 19.3058 25.0333 19.3058 24.74C19.3058 24.4467 19.3991 24.1 19.5858 23.7C19.8524 23.1133 20.2791 22.82 20.8658 22.82C21.2524 22.82 21.6058 22.9133 21.9258 23.1C22.2591 23.2733 22.4858 23.44 22.6058 23.6C22.7391 23.7467 22.8058 23.8333 22.8058 23.86C23.6991 23.1667 24.6658 22.82 25.7058 22.82C26.7458 22.82 27.6391 23.2267 28.3858 24.04C29.1324 24.84 29.5058 26.0867 29.5058 27.78C29.5058 29.46 29.1324 30.7667 28.3858 31.7C27.6391 32.62 26.6924 33.08 25.5458 33.08C25.0258 33.08 24.5524 33.0533 24.1258 33V36.64ZM24.9458 26.32C24.7191 26.32 24.4991 26.3933 24.2858 26.54V30.08C24.5124 30.1067 24.6924 30.12 24.8258 30.12C24.9724 30.12 25.0858 30.12 25.1658 30.12C25.7124 30.0667 25.9858 29.3667 25.9858 28.02C25.9858 26.8867 25.6391 26.32 24.9458 26.32ZM38.4795 32.46C37.6395 32.9533 36.5595 33.2 35.2395 33.2C33.9195 33.2 32.8062 32.7533 31.8995 31.86C30.9929 30.9533 30.5395 29.7067 30.5395 28.12C30.5395 26.52 30.9729 25.2333 31.8395 24.26C32.7195 23.2867 33.8262 22.8 35.1595 22.8C36.4929 22.8 37.5195 23.14 38.2395 23.82C38.9729 24.5 39.3395 25.3267 39.3395 26.3C39.3395 28.46 38.0995 29.54 35.6195 29.54H34.2395C34.2395 29.94 34.3462 30.22 34.5595 30.38C34.7862 30.5267 35.1129 30.6 35.5395 30.6C36.4729 30.6 37.3595 30.3867 38.1995 29.96C38.2129 29.9467 38.2729 30.04 38.3795 30.24C38.6995 30.8133 38.8595 31.3 38.8595 31.7C38.8595 32.0867 38.7329 32.34 38.4795 32.46ZM35.9795 26.68C35.9795 26.12 35.7062 25.84 35.1595 25.84C34.9062 25.84 34.6862 25.92 34.4995 26.08C34.3262 26.2267 34.2395 26.4467 34.2395 26.74V27.36H35.3195C35.7595 27.36 35.9795 27.1333 35.9795 26.68ZM44.8261 32.88C44.8261 32.9733 44.3461 33.02 43.3861 33.02C42.0528 32.98 41.3861 32.9067 41.3861 32.8V26.32H40.8661C40.5194 26.32 40.2928 26.0267 40.1861 25.44C40.1594 25.2667 40.1461 25.0933 40.1461 24.92C40.1461 24.5067 40.2261 24.0933 40.3861 23.68C40.6261 23.0933 40.9994 22.8 41.5061 22.8C42.0128 22.8 42.4661 22.92 42.8661 23.16C43.2661 23.4 43.5328 23.64 43.6661 23.88C44.5061 23.16 45.5061 22.8 46.6661 22.8C47.8261 22.8 48.6661 23.1133 49.1861 23.74C49.7061 24.3667 49.9661 25.3933 49.9661 26.82V32.82C49.9661 32.98 49.3928 33.06 48.2461 33.06C47.1128 33.06 46.5461 32.98 46.5461 32.82V27.04C46.5461 26.3733 46.3128 26.04 45.8461 26.04C45.7128 26.04 45.5261 26.1 45.2861 26.22C45.0461 26.3267 44.8928 26.4067 44.8261 26.46V32.88ZM61.1617 33.04C60.0017 33.04 59.3751 32.8533 59.2817 32.48L58.6217 29.9H55.4417L54.8617 32.38C54.7817 32.7933 54.1417 33 52.9417 33C52.3017 33 51.8284 32.9667 51.5217 32.9C51.2151 32.82 51.0617 32.76 51.0617 32.72L54.6017 19.18C54.6017 19.0733 55.5151 19.02 57.3417 19.02C59.1684 19.02 60.0817 19.0733 60.0817 19.18L63.5417 32.74C63.5417 32.8333 63.2351 32.9067 62.6217 32.96C62.0084 33.0133 61.5217 33.04 61.1617 33.04ZM55.9417 27.36H58.0417L57.1417 23.22H57.0217L55.9417 27.36ZM66.1872 29.56V22.44H64.7672C64.5405 22.44 64.3805 22.1533 64.2872 21.58C64.2472 21.3 64.2272 21.0133 64.2272 20.72C64.2272 20.4267 64.2472 20.14 64.2872 19.86C64.3805 19.2867 64.5405 19 64.7672 19H71.4872C71.7139 19 71.8672 19.2867 71.9472 19.86C72.0005 20.14 72.0272 20.4267 72.0272 20.72C72.0272 21.0133 72.0005 21.3 71.9472 21.58C71.8672 22.1533 71.7139 22.44 71.4872 22.44H70.1472V29.56H71.5472C71.7739 29.56 71.9339 29.8467 72.0272 30.42C72.0805 30.7 72.1072 30.9867 72.1072 31.28C72.1072 31.5733 72.0805 31.86 72.0272 32.14C71.9339 32.7133 71.7739 33 71.5472 33H64.8072C64.5805 33 64.4272 32.7133 64.3472 32.14C64.2939 31.86 64.2672 31.5733 64.2672 31.28C64.2672 30.9867 64.2939 30.7 64.3472 30.42C64.4272 29.8467 64.5805 29.56 64.8072 29.56H66.1872ZM13.4 51.82L13.44 49.1C13.44 48.9133 13.6333 48.7933 14.02 48.74C14.4067 48.6733 14.7267 48.64 14.98 48.64L15.76 48.7C16.2667 48.78 16.52 48.92 16.52 49.12L16.44 55.38C16.1733 55.5667 15.6333 55.7533 14.82 55.94C14.02 56.1133 13.1 56.2 12.06 56.2C10.1267 56.2 8.56667 55.5733 7.38 54.32C6.19333 53.0667 5.6 51.2267 5.6 48.8C5.6 46.7333 6.18 45.0533 7.34 43.76C8.5 42.4667 10.1067 41.82 12.16 41.82C13.0933 41.82 13.9333 41.9133 14.68 42.1C15.44 42.2733 15.96 42.5133 16.24 42.82C16.2533 42.9267 16.26 43.1267 16.26 43.42C16.26 43.7133 16.16 44.1333 15.96 44.68C15.76 45.2133 15.5333 45.6133 15.28 45.88C15.0267 46.1467 14.84 46.28 14.72 46.28C14.6133 46.28 14.4933 46.2333 14.36 46.14C14.24 46.0333 13.9933 45.9267 13.62 45.82C13.2467 45.7 12.8867 45.64 12.54 45.64C11.7133 45.64 11.04 45.9067 10.52 46.44C10.0133 46.9733 9.76 47.8 9.76 48.92C9.76 50.04 10.02 50.8933 10.54 51.48C11.0733 52.0533 11.68 52.34 12.36 52.34C13.0533 52.34 13.4 52.1667 13.4 51.82ZM20.1619 56.04C18.9485 56.04 18.3419 55.9067 18.3419 55.64V42.68C18.3419 42.2267 18.5485 42 18.9619 42H22.4819C24.4552 42 25.8752 42.4067 26.7419 43.22C27.6219 44.0333 28.0619 45.2133 28.0619 46.76C28.0619 48.04 27.6485 49.2133 26.8219 50.28C26.4085 50.8133 25.8019 51.24 25.0019 51.56C24.2019 51.88 23.2685 52.04 22.2019 52.04V55.62C22.2019 55.78 21.9485 55.8933 21.4419 55.96C20.9485 56.0133 20.5219 56.04 20.1619 56.04ZM22.2019 45.48V48.64H22.4619C22.9285 48.64 23.3219 48.4933 23.6419 48.2C23.9619 47.9067 24.1219 47.4933 24.1219 46.96C24.1219 46.4267 24.0085 46.0467 23.7819 45.82C23.5685 45.5933 23.1819 45.48 22.6219 45.48H22.2019ZM35.8481 55.68C35.8481 55.9467 35.1881 56.08 33.8681 56.08C32.5481 56.08 31.8881 55.9467 31.8881 55.68V45.64H29.4881C29.2615 45.64 29.1015 45.3333 29.0081 44.72C28.9681 44.4267 28.9481 44.1267 28.9481 43.82C28.9481 43.5133 28.9681 43.2133 29.0081 42.92C29.1015 42.3067 29.2615 42 29.4881 42H38.1881C38.4148 42 38.5748 42.3067 38.6681 42.92C38.7081 43.2133 38.7281 43.5133 38.7281 43.82C38.7281 44.1267 38.7081 44.4267 38.6681 44.72C38.5748 45.3333 38.4148 45.64 38.1881 45.64H35.8481V55.68ZM48.0672 52.2H40.1672C39.9272 52.2 39.7539 52.0067 39.6472 51.62C39.5939 51.42 39.5672 51.2267 39.5672 51.04C39.5672 50.8533 39.5939 50.66 39.6472 50.46C39.7539 50.0733 39.9272 49.88 40.1672 49.88H48.0672C48.3072 49.88 48.4805 50.0733 48.5872 50.46C48.6405 50.66 48.6672 50.8533 48.6672 51.04C48.6672 51.2267 48.6405 51.42 48.5872 51.62C48.4805 52.0067 48.3072 52.2 48.0672 52.2ZM57.915 42C58.1683 42 58.295 42.5533 58.295 43.66C58.295 44.0067 58.2617 44.42 58.195 44.9C58.1417 45.3667 58.035 45.6 57.875 45.6H53.975L53.955 47.06H54.615C56.0417 47.06 57.1017 47.4733 57.795 48.3C58.5017 49.1267 58.855 50.22 58.855 51.58C58.855 52.94 58.375 54.0533 57.415 54.92C56.455 55.7733 55.2217 56.2 53.715 56.2C52.2083 56.2 51.1083 55.9867 50.415 55.56C50.3083 55.3867 50.255 55.12 50.255 54.76C50.255 54.3867 50.3083 53.8667 50.415 53.2C50.5217 52.52 50.6683 52.18 50.855 52.18C50.8683 52.18 50.9083 52.2067 50.975 52.26C51.9217 52.6467 52.6417 52.84 53.135 52.84C53.6417 52.84 54.055 52.7067 54.375 52.44C54.7083 52.16 54.875 51.8067 54.875 51.38C54.875 50.3133 54.3017 49.78 53.155 49.78L51.435 49.8C51.3017 49.8267 51.1683 49.7733 51.035 49.64C50.9017 49.4933 50.835 49.3067 50.835 49.08V42.82C50.835 42.2733 51.035 42 51.435 42H57.915ZM64.0433 56.06C64.0433 56.1533 63.4099 56.2 62.1433 56.2C60.8899 56.2 60.2633 56.16 60.2633 56.08V52.48C60.2633 52.36 60.8899 52.3 62.1433 52.3C63.4099 52.3 64.0433 52.3333 64.0433 52.4V56.06ZM75.3736 50.02C75.5069 50.02 75.5736 50.5267 75.5736 51.54C75.5736 52.54 75.5069 53.04 75.3736 53.04L74.0536 53.06V55.58C74.0536 55.7267 73.7803 55.8333 73.2336 55.9C72.6869 55.9667 72.2136 56 71.8136 56L70.9936 55.96C70.3136 55.9067 69.9736 55.7867 69.9736 55.6V53.12H65.9936C65.6469 52.7733 65.3336 52.3267 65.0536 51.78C64.7736 51.22 64.6336 50.82 64.6336 50.58C64.6336 50.3267 64.6736 50.1267 64.7536 49.98L69.1336 42.22C69.1869 42.1133 69.5936 42.0333 70.3536 41.98C71.1269 41.9267 71.9336 41.9 72.7736 41.9C73.6136 41.9 74.0336 41.9333 74.0336 42L74.0536 50.02H75.3736ZM70.5536 50.04V45.86L68.2136 50.04H70.5536Z" fill="black"/>
<rect x="5" y="64" width="72" height="2" rx="1" fill="url(#paint1_linear_0_1)"/>
<rect x="5" y="69" width="46" height="2" rx="1" fill="url(#paint2_linear_0_1)"/>
<defs>
<linearGradient id="paint0_linear_0_1" x1="42.5" y1="0" x2="42.5" y2="85" gradientUnits="userSpaceOnUse">
<stop stop-color="#F6F6F6"/>
<stop offset="1" stop-color="#E7E7E7"/>
</linearGradient>
<linearGradient id="paint1_linear_0_1" x1="5" y1="65" x2="77" y2="65" gradientUnits="userSpaceOnUse">
<stop stop-color="#FF6F31"/>
<stop offset="1" stop-color="#FF3AE8"/>
</linearGradient>
<linearGradient id="paint2_linear_0_1" x1="5" y1="70" x2="51" y2="70" gradientUnits="userSpaceOnUse">
<stop stop-color="#FF58EC"/>
<stop offset="1" stop-color="#FF9D41"/>
</linearGradient>
</defs>
</svg>
