<svg width="85" height="85" viewBox="0 0 85 85" fill="none" xmlns="http://www.w3.org/2000/svg">
<rect width="85" height="85" rx="14" fill="url(#paint0_linear_0_1)"/>
<path d="M16.96 33.56C16.96 33.84 16.3333 33.98 15.08 33.98C13.8267 33.98 13.1467 33.88 13.04 33.68L9.7 27.44V33.66C9.7 33.9 9.08 34.02 7.84 34.02C6.61333 34.02 6 33.9 6 33.66V20.28C6 20.08 6.52667 19.98 7.58 19.98C7.99333 19.98 8.47333 20.02 9.02 20.1C9.58 20.1667 9.92 20.3 10.04 20.5L13.24 26.66V20.38C13.24 20.1267 13.86 20 15.1 20C16.34 20 16.96 20.1267 16.96 20.38V33.56ZM26.4288 33.46C25.5888 33.9533 24.5088 34.2 23.1888 34.2C21.8688 34.2 20.7554 33.7533 19.8488 32.86C18.9421 31.9533 18.4888 30.7067 18.4888 29.12C18.4888 27.52 18.9221 26.2333 19.7888 25.26C20.6688 24.2867 21.7754 23.8 23.1087 23.8C24.4421 23.8 25.4688 24.14 26.1888 24.82C26.9221 25.5 27.2888 26.3267 27.2888 27.3C27.2888 29.46 26.0488 30.54 23.5688 30.54H22.1888C22.1888 30.94 22.2954 31.22 22.5088 31.38C22.7354 31.5267 23.0621 31.6 23.4888 31.6C24.4221 31.6 25.3088 31.3867 26.1488 30.96C26.1621 30.9467 26.2221 31.04 26.3288 31.24C26.6488 31.8133 26.8088 32.3 26.8088 32.7C26.8088 33.0867 26.6821 33.34 26.4288 33.46ZM23.9288 27.68C23.9288 27.12 23.6554 26.84 23.1087 26.84C22.8554 26.84 22.6354 26.92 22.4488 27.08C22.2754 27.2267 22.1888 27.4467 22.1888 27.74V28.36H23.2688C23.7088 28.36 23.9288 28.1333 23.9288 27.68ZM38.9753 24.1C38.9753 23.98 39.342 23.92 40.0753 23.92C41.7286 23.92 42.542 23.9733 42.5153 24.08L40.5553 33.8C40.5153 34.0133 39.7753 34.12 38.3353 34.12C36.8953 34.12 36.1553 34.0133 36.1153 33.8L35.2953 29.32L34.2753 33.8C34.2353 34 33.4686 34.1 31.9753 34.1C30.4953 34.1 29.7353 33.98 29.6953 33.74L27.9153 24C27.8753 23.92 28.4486 23.88 29.6353 23.88C30.8086 23.8933 31.3953 23.92 31.3953 23.96L32.3153 30.72L33.9753 24.04C34.002 23.96 34.442 23.92 35.2953 23.92C36.1486 23.92 36.5886 23.96 36.6153 24.04L38.2553 30.64L38.9753 24.1ZM13.54 43C13.7933 43 13.92 43.5533 13.92 44.66C13.92 45.0067 13.8867 45.42 13.82 45.9C13.7667 46.3667 13.66 46.6 13.5 46.6H9.6L9.58 48.06H10.24C11.6667 48.06 12.7267 48.4733 13.42 49.3C14.1267 50.1267 14.48 51.22 14.48 52.58C14.48 53.94 14 55.0533 13.04 55.92C12.08 56.7733 10.8467 57.2 9.34 57.2C7.83333 57.2 6.73333 56.9867 6.04 56.56C5.93333 56.3867 5.88 56.12 5.88 55.76C5.88 55.3867 5.93333 54.8667 6.04 54.2C6.14667 53.52 6.29333 53.18 6.48 53.18C6.49333 53.18 6.53333 53.2067 6.6 53.26C7.54667 53.6467 8.26667 53.84 8.76 53.84C9.26667 53.84 9.68 53.7067 10 53.44C10.3333 53.16 10.5 52.8067 10.5 52.38C10.5 51.3133 9.92667 50.78 8.78 50.78L7.06 50.8C6.92667 50.8267 6.79333 50.7733 6.66 50.64C6.52667 50.4933 6.46 50.3067 6.46 50.08V43.82C6.46 43.2733 6.66 43 7.06 43H13.54ZM19.6683 57.06C19.6683 57.1533 19.0349 57.2 17.7683 57.2C16.5149 57.2 15.8883 57.16 15.8883 57.08V53.48C15.8883 53.36 16.5149 53.3 17.7683 53.3C19.0349 53.3 19.6683 53.3333 19.6683 53.4V57.06ZM30.9986 51.02C31.1319 51.02 31.1986 51.5267 31.1986 52.54C31.1986 53.54 31.1319 54.04 30.9986 54.04L29.6786 54.06V56.58C29.6786 56.7267 29.4053 56.8333 28.8586 56.9C28.3119 56.9667 27.8386 57 27.4386 57L26.6186 56.96C25.9386 56.9067 25.5986 56.7867 25.5986 56.6V54.12H21.6186C21.2719 53.7733 20.9586 53.3267 20.6786 52.78C20.3986 52.22 20.2586 51.82 20.2586 51.58C20.2586 51.3267 20.2986 51.1267 20.3786 50.98L24.7586 43.22C24.8119 43.1133 25.2186 43.0333 25.9786 42.98C26.7519 42.9267 27.5586 42.9 28.3986 42.9C29.2386 42.9 29.6586 42.9333 29.6586 43L29.6786 51.02H30.9986ZM26.1786 51.04V46.86L23.8386 51.04H26.1786ZM41.2117 53.2H33.3117C33.0717 53.2 32.8984 53.0067 32.7917 52.62C32.7384 52.42 32.7117 52.2267 32.7117 52.04C32.7117 51.8533 32.7384 51.66 32.7917 51.46C32.8984 51.0733 33.0717 50.88 33.3117 50.88H41.2117C41.4517 50.88 41.6251 51.0733 41.7317 51.46C41.7851 51.66 41.8117 51.8533 41.8117 52.04C41.8117 52.2267 41.7851 52.42 41.7317 52.62C41.6251 53.0067 41.4517 53.2 41.2117 53.2ZM52.4795 56.9C52.4795 56.9933 51.9062 57.04 50.7595 57.04C49.6262 57.04 49.0595 56.98 49.0595 56.86V51.04C49.0595 50.3733 48.8395 50.04 48.3995 50.04C48.1729 50.04 47.8729 50.1867 47.4995 50.48V56.88C47.4995 57.0133 46.9262 57.08 45.7795 57.08C44.6462 57.08 44.0795 57.0067 44.0795 56.86V50.32H43.5795C43.1395 50.32 42.9195 49.86 42.9195 48.94C42.9195 48.5267 42.9995 48.1067 43.1595 47.68C43.3729 47.0933 43.7195 46.8 44.1995 46.8C44.6795 46.8 45.1395 46.9267 45.5795 47.18C46.0329 47.4333 46.3062 47.6733 46.3995 47.9C47.2262 47.1667 48.1395 46.8 49.1395 46.8C50.1529 46.8 50.9662 47.1133 51.5795 47.74C52.2995 47.1133 53.1662 46.8 54.1795 46.8C56.3795 46.8 57.4795 48.14 57.4795 50.82V56.9C57.4795 56.9933 56.9062 57.04 55.7595 57.04C54.6262 57.04 54.0595 56.98 54.0595 56.86V51.04C54.0595 50.3733 53.8395 50.04 53.3995 50.04C53.1595 50.04 52.8529 50.1867 52.4795 50.48V56.9ZM62.8413 56.88C62.8413 56.9867 62.2279 57.04 61.0013 57.04C59.7879 57.04 59.1813 56.9933 59.1813 56.9V47.08C59.1813 46.9867 59.7879 46.94 61.0013 46.94C62.2279 46.94 62.8413 46.98 62.8413 47.06V56.88ZM62.8413 45.88C62.8413 45.9733 62.2279 46.02 61.0013 46.02C59.7879 46.02 59.1813 45.98 59.1813 45.9V43.02C59.1813 42.8867 59.7879 42.82 61.0013 42.82C62.2279 42.82 62.8413 42.86 62.8413 42.94V45.88ZM68.83 56.88C68.83 56.9733 68.35 57.02 67.39 57.02C66.0567 56.98 65.39 56.9067 65.39 56.8V50.32H64.87C64.5233 50.32 64.2967 50.0267 64.19 49.44C64.1633 49.2667 64.15 49.0933 64.15 48.92C64.15 48.5067 64.23 48.0933 64.39 47.68C64.63 47.0933 65.0033 46.8 65.51 46.8C66.0167 46.8 66.47 46.92 66.87 47.16C67.27 47.4 67.5367 47.64 67.67 47.88C68.51 47.16 69.51 46.8 70.67 46.8C71.83 46.8 72.67 47.1133 73.19 47.74C73.71 48.3667 73.97 49.3933 73.97 50.82V56.82C73.97 56.98 73.3967 57.06 72.25 57.06C71.1167 57.06 70.55 56.98 70.55 56.82V51.04C70.55 50.3733 70.3167 50.04 69.85 50.04C69.7167 50.04 69.53 50.1 69.29 50.22C69.05 50.3267 68.8967 50.4067 68.83 50.46V56.88ZM79.3256 56.88C79.3256 56.9867 78.7123 57.04 77.4856 57.04C76.2723 57.04 75.6656 56.9933 75.6656 56.9V47.08C75.6656 46.9867 76.2723 46.94 77.4856 46.94C78.7123 46.94 79.3256 46.98 79.3256 47.06V56.88ZM79.3256 45.88C79.3256 45.9733 78.7123 46.02 77.4856 46.02C76.2723 46.02 75.6656 45.98 75.6656 45.9V43.02C75.6656 42.8867 76.2723 42.82 77.4856 42.82C78.7123 42.82 79.3256 42.86 79.3256 42.94V45.88Z" fill="black"/>
<rect x="6" y="64" width="74" height="2" rx="1" fill="url(#paint1_linear_0_1)"/>
<rect x="6" y="69" width="48" height="2" rx="1" fill="url(#paint2_linear_0_1)"/>
<defs>
<linearGradient id="paint0_linear_0_1" x1="42.5" y1="0" x2="42.5" y2="85" gradientUnits="userSpaceOnUse">
<stop stop-color="#F6F6F6"/>
<stop offset="1" stop-color="#E7E7E7"/>
</linearGradient>
<linearGradient id="paint1_linear_0_1" x1="6" y1="65" x2="80" y2="65" gradientUnits="userSpaceOnUse">
<stop stop-color="#0084FF"/>
<stop offset="1" stop-color="#3AFFA0"/>
</linearGradient>
<linearGradient id="paint2_linear_0_1" x1="6" y1="70" x2="54" y2="70" gradientUnits="userSpaceOnUse">
<stop stop-color="#00D9FF"/>
<stop offset="1" stop-color="#3AFF92"/>
</linearGradient>
</defs>
</svg>
