<svg width="85" height="85" viewBox="0 0 85 85" fill="none" xmlns="http://www.w3.org/2000/svg">
<mask id="path-1-outside-1_0_1" maskUnits="userSpaceOnUse" x="10" y="30" width="64" height="26" fill="black">
<rect fill="white" x="10" y="30" width="64" height="26"/>
<path d="M34 54.032C32.1013 54.032 31.152 53.8187 31.152 53.392L30.48 40.56L26.576 53.552C26.4907 53.808 25.7653 53.936 24.4 53.936C23.0347 53.936 22.3307 53.8187 22.288 53.584L18.256 40.432L17.808 53.2C17.7867 53.52 17.3813 53.744 16.592 53.872C15.8027 53.9787 15.1413 54.032 14.608 54.032C14.096 54.032 13.5947 54 13.104 53.936C12.08 53.7867 11.5787 53.52 11.6 53.136L12.336 32.336C12.336 31.824 13.6373 31.568 16.24 31.568C17.008 31.568 17.9467 31.632 19.056 31.76C20.1653 31.8667 20.784 32.0907 20.912 32.432L24.496 42.512L27.632 32.4C27.824 31.8453 29.296 31.568 32.048 31.568C32.8373 31.568 33.776 31.632 34.864 31.76C35.9733 31.8667 36.528 32.0693 36.528 32.368L37.456 53.36C37.456 53.5947 37.04 53.7653 36.208 53.872C35.376 53.9787 34.64 54.032 34 54.032ZM46.3273 53.808C46.3273 53.9787 45.3459 54.064 43.3833 54.064C41.4419 54.064 40.4713 53.9893 40.4713 53.84V38.128C40.4713 37.9787 41.4419 37.904 43.3833 37.904C45.3459 37.904 46.3273 37.968 46.3273 38.096V53.808ZM46.3273 36.208C46.3273 36.3573 45.3459 36.432 43.3833 36.432C41.4419 36.432 40.4713 36.368 40.4713 36.24V31.632C40.4713 31.4187 41.4419 31.312 43.3833 31.312C45.3459 31.312 46.3273 31.376 46.3273 31.504V36.208ZM55.9093 53.808C55.9093 53.9573 55.1413 54.032 53.6053 54.032C51.4719 53.968 50.4053 53.8507 50.4053 53.68V43.312H49.5733C49.0186 43.312 48.6559 42.8427 48.4853 41.904C48.4426 41.6267 48.4213 41.3493 48.4213 41.072C48.4213 40.4107 48.5493 39.7493 48.8053 39.088C49.1893 38.1493 49.7866 37.68 50.5973 37.68C51.4079 37.68 52.1333 37.872 52.7733 38.256C53.4133 38.64 53.8399 39.024 54.0533 39.408C55.3973 38.256 56.9973 37.68 58.8533 37.68C60.7093 37.68 62.0533 38.1813 62.8853 39.184C63.7173 40.1867 64.1333 41.8293 64.1333 44.112V53.712C64.1333 53.968 63.2159 54.096 61.3813 54.096C59.5679 54.096 58.6613 53.968 58.6613 53.712V44.464C58.6613 43.3973 58.2879 42.864 57.5413 42.864C57.3279 42.864 57.0293 42.96 56.6453 43.152C56.2613 43.3227 56.0159 43.4507 55.9093 43.536V53.808ZM72.7023 53.808C72.7023 53.9787 71.7209 54.064 69.7583 54.064C67.8169 54.064 66.8463 53.9893 66.8463 53.84V38.128C66.8463 37.9787 67.8169 37.904 69.7583 37.904C71.7209 37.904 72.7023 37.968 72.7023 38.096V53.808ZM72.7023 36.208C72.7023 36.3573 71.7209 36.432 69.7583 36.432C67.8169 36.432 66.8463 36.368 66.8463 36.24V31.632C66.8463 31.4187 67.8169 31.312 69.7583 31.312C71.7209 31.312 72.7023 31.376 72.7023 31.504V36.208Z"/>
</mask>
<path d="M34 54.032C32.1013 54.032 31.152 53.8187 31.152 53.392L30.48 40.56L26.576 53.552C26.4907 53.808 25.7653 53.936 24.4 53.936C23.0347 53.936 22.3307 53.8187 22.288 53.584L18.256 40.432L17.808 53.2C17.7867 53.52 17.3813 53.744 16.592 53.872C15.8027 53.9787 15.1413 54.032 14.608 54.032C14.096 54.032 13.5947 54 13.104 53.936C12.08 53.7867 11.5787 53.52 11.6 53.136L12.336 32.336C12.336 31.824 13.6373 31.568 16.24 31.568C17.008 31.568 17.9467 31.632 19.056 31.76C20.1653 31.8667 20.784 32.0907 20.912 32.432L24.496 42.512L27.632 32.4C27.824 31.8453 29.296 31.568 32.048 31.568C32.8373 31.568 33.776 31.632 34.864 31.76C35.9733 31.8667 36.528 32.0693 36.528 32.368L37.456 53.36C37.456 53.5947 37.04 53.7653 36.208 53.872C35.376 53.9787 34.64 54.032 34 54.032ZM46.3273 53.808C46.3273 53.9787 45.3459 54.064 43.3833 54.064C41.4419 54.064 40.4713 53.9893 40.4713 53.84V38.128C40.4713 37.9787 41.4419 37.904 43.3833 37.904C45.3459 37.904 46.3273 37.968 46.3273 38.096V53.808ZM46.3273 36.208C46.3273 36.3573 45.3459 36.432 43.3833 36.432C41.4419 36.432 40.4713 36.368 40.4713 36.24V31.632C40.4713 31.4187 41.4419 31.312 43.3833 31.312C45.3459 31.312 46.3273 31.376 46.3273 31.504V36.208ZM55.9093 53.808C55.9093 53.9573 55.1413 54.032 53.6053 54.032C51.4719 53.968 50.4053 53.8507 50.4053 53.68V43.312H49.5733C49.0186 43.312 48.6559 42.8427 48.4853 41.904C48.4426 41.6267 48.4213 41.3493 48.4213 41.072C48.4213 40.4107 48.5493 39.7493 48.8053 39.088C49.1893 38.1493 49.7866 37.68 50.5973 37.68C51.4079 37.68 52.1333 37.872 52.7733 38.256C53.4133 38.64 53.8399 39.024 54.0533 39.408C55.3973 38.256 56.9973 37.68 58.8533 37.68C60.7093 37.68 62.0533 38.1813 62.8853 39.184C63.7173 40.1867 64.1333 41.8293 64.1333 44.112V53.712C64.1333 53.968 63.2159 54.096 61.3813 54.096C59.5679 54.096 58.6613 53.968 58.6613 53.712V44.464C58.6613 43.3973 58.2879 42.864 57.5413 42.864C57.3279 42.864 57.0293 42.96 56.6453 43.152C56.2613 43.3227 56.0159 43.4507 55.9093 43.536V53.808ZM72.7023 53.808C72.7023 53.9787 71.7209 54.064 69.7583 54.064C67.8169 54.064 66.8463 53.9893 66.8463 53.84V38.128C66.8463 37.9787 67.8169 37.904 69.7583 37.904C71.7209 37.904 72.7023 37.968 72.7023 38.096V53.808ZM72.7023 36.208C72.7023 36.3573 71.7209 36.432 69.7583 36.432C67.8169 36.432 66.8463 36.368 66.8463 36.24V31.632C66.8463 31.4187 67.8169 31.312 69.7583 31.312C71.7209 31.312 72.7023 31.376 72.7023 31.504V36.208Z" fill="url(#paint0_linear_0_1)"/>
<path d="M31.152 53.392H32.152V53.3658L32.1506 53.3397L31.152 53.392ZM30.48 40.56L31.4786 40.5077L29.5223 40.2722L30.48 40.56ZM26.576 53.552L27.5247 53.8682L27.5294 53.8541L27.5337 53.8398L26.576 53.552ZM22.288 53.584L23.2719 53.4051L23.2613 53.3472L23.2441 53.2909L22.288 53.584ZM18.256 40.432L19.2121 40.1389L17.2566 40.3969L18.256 40.432ZM17.808 53.2L18.8058 53.2665L18.8068 53.2508L18.8074 53.2351L17.808 53.2ZM16.592 53.872L16.7259 54.863L16.739 54.8612L16.7521 54.8591L16.592 53.872ZM13.104 53.936L12.9597 54.9255L12.9672 54.9266L12.9747 54.9276L13.104 53.936ZM11.6 53.136L12.5985 53.1915L12.599 53.1814L12.5994 53.1714L11.6 53.136ZM12.336 32.336L13.3354 32.3714L13.336 32.3537V32.336H12.336ZM19.056 31.76L18.9414 32.7534L18.9508 32.7545L18.9603 32.7554L19.056 31.76ZM20.912 32.432L21.8542 32.097L21.8513 32.0889L21.8483 32.0809L20.912 32.432ZM24.496 42.512L23.5538 42.847L24.5608 45.6791L25.4511 42.8082L24.496 42.512ZM27.632 32.4L26.687 32.0729L26.6817 32.0883L26.6769 32.1038L27.632 32.4ZM34.864 31.76L34.7472 32.7531L34.7577 32.7544L34.7683 32.7554L34.864 31.76ZM36.528 32.368H35.528V32.3901L35.529 32.4122L36.528 32.368ZM37.456 53.36H38.456V53.3379L38.455 53.3158L37.456 53.36ZM36.208 53.872L36.3352 54.8639L36.3352 54.8639L36.208 53.872ZM34 53.032C33.0687 53.032 32.4467 52.978 32.0833 52.8963C31.8944 52.8539 31.8568 52.8211 31.889 52.8428C31.9421 52.8786 32.152 53.0578 32.152 53.392H30.152C30.152 53.9395 30.4806 54.3054 30.771 54.5012C31.0405 54.6829 31.3589 54.7834 31.6447 54.8477C32.2306 54.9793 33.0326 55.032 34 55.032V53.032ZM32.1506 53.3397L31.4786 40.5077L29.4814 40.6123L30.1534 53.4443L32.1506 53.3397ZM29.5223 40.2722L25.6183 53.2642L27.5337 53.8398L31.4377 40.8478L29.5223 40.2722ZM25.6273 53.2358C25.6817 53.0725 25.7732 52.9642 25.8397 52.9035C25.903 52.8457 25.954 52.821 25.9639 52.8163C25.9783 52.8095 25.9361 52.8302 25.7942 52.8552C25.5183 52.9039 25.0647 52.936 24.4 52.936V54.936C25.1006 54.936 25.6924 54.9041 26.1418 54.8248C26.3625 54.7858 26.603 54.7265 26.8201 54.6237C27.0124 54.5327 27.3748 54.318 27.5247 53.8682L25.6273 53.2358ZM24.4 52.936C23.7323 52.936 23.2812 52.9064 23.0124 52.8616C22.8714 52.8381 22.8416 52.8199 22.8704 52.8335C22.8873 52.8414 22.9574 52.8757 23.0375 52.9548C23.1244 53.0406 23.2328 53.1904 23.2719 53.4051L21.3041 53.7629C21.4043 54.3136 21.8417 54.5596 22.0176 54.6425C22.2331 54.7441 22.4726 54.7992 22.6836 54.8344C23.1188 54.9069 23.7024 54.936 24.4 54.936V52.936ZM23.2441 53.2909L19.2121 40.1389L17.2999 40.7251L21.3319 53.8771L23.2441 53.2909ZM17.2566 40.3969L16.8086 53.1649L18.8074 53.2351L19.2554 40.4671L17.2566 40.3969ZM16.8102 53.1335C16.8193 52.9971 16.8726 52.8821 16.9331 52.8049C16.9855 52.7381 17.026 52.7208 17.0043 52.7328C16.9843 52.7438 16.9311 52.7688 16.8294 52.7988C16.7297 52.8281 16.5988 52.8578 16.4319 52.8849L16.7521 54.8591C17.1902 54.7881 17.6209 54.6771 17.9717 54.4832C18.329 54.2858 18.7634 53.902 18.8058 53.2665L16.8102 53.1335ZM16.4581 52.881C15.6938 52.9843 15.0805 53.032 14.608 53.032V55.032C15.2022 55.032 15.9116 54.973 16.7259 54.863L16.4581 52.881ZM14.608 53.032C14.1378 53.032 13.6797 53.0026 13.2333 52.9444L12.9747 54.9276C13.5097 54.9974 14.0542 55.032 14.608 55.032V53.032ZM13.2483 52.9465C13.0209 52.9133 12.8389 52.8759 12.6971 52.8372C12.5525 52.7978 12.4695 52.7623 12.4296 52.7411C12.3863 52.7181 12.4297 52.731 12.4867 52.8084C12.5572 52.9039 12.6067 53.0426 12.5985 53.1915L10.6015 53.0805C10.5596 53.836 11.0825 54.2899 11.4904 54.5069C11.8942 54.7216 12.4115 54.8456 12.9597 54.9255L13.2483 52.9465ZM12.5994 53.1714L13.3354 32.3714L11.3366 32.3006L10.6006 53.1006L12.5994 53.1714ZM13.336 32.336C13.336 32.5006 13.2789 32.6435 13.2062 32.7436C13.1734 32.7887 13.1424 32.8186 13.122 32.836C13.1017 32.8533 13.0887 32.8609 13.0883 32.8612C13.0876 32.8616 13.0954 32.857 13.1144 32.8487C13.1333 32.8406 13.1601 32.8302 13.1966 32.8182C13.2704 32.794 13.3716 32.7674 13.505 32.7412C14.0573 32.6326 14.9542 32.568 16.24 32.568V30.568C14.9231 30.568 13.8681 30.6314 13.119 30.7788C12.7532 30.8508 12.379 30.9574 12.0717 31.1388C11.7623 31.3214 11.336 31.7027 11.336 32.336H13.336ZM16.24 32.568C16.9568 32.568 17.8547 32.628 18.9414 32.7534L19.1706 30.7666C18.0387 30.636 17.0592 30.568 16.24 30.568V32.568ZM18.9603 32.7554C19.4805 32.8054 19.817 32.8778 20.0116 32.9483C20.1069 32.9828 20.1322 33.0042 20.1204 32.9953C20.1052 32.9838 20.0266 32.9189 19.9757 32.7831L21.8483 32.0809C21.6235 31.4814 21.0699 31.2044 20.6924 31.0677C20.2683 30.9142 19.7408 30.8212 19.1517 30.7646L18.9603 32.7554ZM19.9698 32.767L23.5538 42.847L25.4382 42.177L21.8542 32.097L19.9698 32.767ZM25.4511 42.8082L28.5871 32.6962L26.6769 32.1038L23.5409 42.2158L25.4511 42.8082ZM28.577 32.7271C28.5012 32.9461 28.3573 32.9834 28.4632 32.9304C28.5537 32.8852 28.74 32.82 29.0651 32.7587C29.7092 32.6374 30.6918 32.568 32.048 32.568V30.568C30.6522 30.568 29.5228 30.6373 28.6949 30.7933C28.284 30.8707 27.8943 30.9788 27.5688 31.1416C27.2587 31.2966 26.8588 31.5766 26.687 32.0729L28.577 32.7271ZM32.048 32.568C32.7866 32.568 33.6843 32.6281 34.7472 32.7531L34.9808 30.7668C33.8677 30.6359 32.8881 30.568 32.048 30.568V32.568ZM34.7683 32.7554C35.299 32.8064 35.6132 32.8744 35.7688 32.9313C35.8487 32.9605 35.8186 32.9628 35.7535 32.9039C35.6697 32.8281 35.528 32.6444 35.528 32.368H37.528C37.528 31.9423 37.317 31.6212 37.0945 31.4201C36.8907 31.2359 36.6526 31.1249 36.4552 31.0527C36.0561 30.9069 35.5383 30.8202 34.9597 30.7646L34.7683 32.7554ZM35.529 32.4122L36.457 53.4042L38.455 53.3158L37.527 32.3238L35.529 32.4122ZM36.456 53.36C36.456 53.0876 36.5878 52.8978 36.6801 52.8078C36.7561 52.7338 36.808 52.721 36.7644 52.7388C36.6793 52.7738 36.4712 52.8301 36.0808 52.8801L36.3352 54.8639C36.7768 54.8073 37.1927 54.7249 37.5236 54.5892C37.688 54.5217 37.8959 54.4156 38.0759 54.2402C38.2722 54.0489 38.456 53.7497 38.456 53.36H36.456ZM36.0808 52.8801C35.2789 52.9829 34.5868 53.032 34 53.032V55.032C34.6932 55.032 35.4731 54.9744 36.3352 54.8639L36.0808 52.8801ZM45.3273 53.808C45.3273 53.2912 45.7023 53.0497 45.7613 53.0138C45.8541 52.9573 45.9182 52.9452 45.8908 52.9524C45.8519 52.9625 45.7358 52.9837 45.5046 53.0038C45.0587 53.0425 44.3581 53.064 43.3833 53.064V55.064C44.3711 55.064 45.1424 55.0428 45.6779 54.9962C45.9374 54.9737 46.1892 54.9415 46.3957 54.8876C46.4909 54.8628 46.6471 54.816 46.8012 54.7222C46.9216 54.6489 47.3273 54.3675 47.3273 53.808H45.3273ZM43.3833 53.064C42.4183 53.064 41.7216 53.0452 41.2759 53.0109C41.0456 52.9932 40.9242 52.9742 40.8781 52.9636C40.8465 52.9563 40.9035 52.965 40.9908 53.012C41.0102 53.0225 41.4713 53.2594 41.4713 53.84H39.4713C39.4713 54.458 39.9626 54.7299 40.0427 54.773C40.1907 54.8527 40.3387 54.8917 40.4284 54.9124C40.625 54.9578 40.8676 54.9854 41.1226 55.0051C41.6476 55.0454 42.4068 55.064 43.3833 55.064V53.064ZM41.4713 53.84V38.128H39.4713V53.84H41.4713ZM41.4713 38.128C41.4713 38.7086 41.0102 38.9455 40.9908 38.956C40.9035 39.003 40.8465 39.0117 40.8781 39.0044C40.9242 38.9938 41.0456 38.9748 41.2759 38.9571C41.7216 38.9228 42.4183 38.904 43.3833 38.904V36.904C42.4068 36.904 41.6476 36.9226 41.1226 36.9629C40.8676 36.9826 40.625 37.0102 40.4284 37.0556C40.3387 37.0763 40.1907 37.1153 40.0427 37.195C39.9626 37.2381 39.4713 37.51 39.4713 38.128H41.4713ZM43.3833 38.904C44.3597 38.904 45.0692 38.9201 45.5262 38.9499C45.7613 38.9652 45.8934 38.9821 45.9512 38.9934C45.9891 39.0008 45.9433 38.996 45.866 38.9607C45.8292 38.9439 45.7249 38.8936 45.6165 38.7876C45.4996 38.6733 45.3273 38.439 45.3273 38.096H47.3273C47.3273 37.737 47.1472 37.4872 47.015 37.3579C46.8913 37.2369 46.764 37.1721 46.6965 37.1413C46.5578 37.078 46.4201 37.0472 46.3353 37.0306C46.1477 36.9939 45.9119 36.9708 45.6563 36.9541C45.132 36.9199 44.3695 36.904 43.3833 36.904V38.904ZM45.3273 38.096V53.808H47.3273V38.096H45.3273ZM45.3273 36.208C45.3273 35.6219 45.7963 35.3858 45.8112 35.3779C45.8976 35.3318 45.9534 35.3236 45.9207 35.3311C45.8726 35.3421 45.7486 35.3611 45.5154 35.3789C45.064 35.4132 44.3589 35.432 43.3833 35.432V37.432C44.3703 37.432 45.1372 37.4134 45.6671 37.3731C45.9246 37.3535 46.1686 37.3259 46.3658 37.2809C46.4557 37.2604 46.6036 37.2218 46.7513 37.1431C46.8276 37.1025 47.3273 36.8315 47.3273 36.208H45.3273ZM43.3833 35.432C42.4175 35.432 41.7163 35.4159 41.265 35.3862C41.0327 35.3708 40.9031 35.354 40.8473 35.343C40.8105 35.3357 40.8574 35.3409 40.9358 35.377C40.9733 35.3943 41.0777 35.4453 41.1858 35.5522C41.3027 35.6678 41.4713 35.901 41.4713 36.24H39.4713C39.4713 36.595 39.6474 36.8437 39.7794 36.9743C39.9027 37.0962 40.0299 37.1617 40.0977 37.193C40.2367 37.2571 40.3747 37.2883 40.4592 37.305C40.646 37.3419 40.8804 37.3652 41.1335 37.3818C41.6528 37.4161 42.4077 37.432 43.3833 37.432V35.432ZM41.4713 36.24V31.632H39.4713V36.24H41.4713ZM41.4713 31.632C41.4713 32.0344 41.2298 32.2702 41.1265 32.3496C41.0714 32.392 41.0257 32.4156 41.0036 32.4261C40.9912 32.432 40.9817 32.4359 40.9759 32.4382C40.9701 32.4405 40.9667 32.4416 40.9663 32.4417C40.9661 32.4418 40.9735 32.4394 40.9906 32.4352C41.0074 32.4312 41.0305 32.4262 41.0609 32.4206C41.1224 32.4094 41.2039 32.3975 41.3085 32.386C41.7375 32.3389 42.4209 32.312 43.3833 32.312V30.312C42.4043 30.312 41.6317 30.3385 41.09 30.398C40.8286 30.4267 40.5629 30.4688 40.3402 30.5423C40.2341 30.5772 40.0667 30.6416 39.907 30.7644C39.7431 30.8905 39.4713 31.1762 39.4713 31.632H41.4713ZM43.3833 32.312C44.3597 32.312 45.0692 32.3281 45.5262 32.3579C45.7613 32.3732 45.8934 32.3901 45.9512 32.4014C45.9891 32.4088 45.9433 32.404 45.866 32.3687C45.8292 32.3519 45.7249 32.3016 45.6165 32.1956C45.4996 32.0813 45.3273 31.847 45.3273 31.504H47.3273C47.3273 31.145 47.1472 30.8952 47.015 30.7659C46.8913 30.6449 46.764 30.5801 46.6965 30.5493C46.5579 30.486 46.4201 30.4552 46.3353 30.4386C46.1477 30.4019 45.9119 30.3788 45.6563 30.3621C45.132 30.3279 44.3695 30.312 43.3833 30.312V32.312ZM45.3273 31.504V36.208H47.3273V31.504H45.3273ZM53.6053 54.032L53.5753 55.0316L53.5903 55.032H53.6053V54.032ZM50.4053 43.312H51.4053V42.312H50.4053V43.312ZM48.4853 41.904L47.4969 42.0561L47.4989 42.0695L47.5014 42.0829L48.4853 41.904ZM48.8053 39.088L47.8797 38.7094L47.8761 38.7182L47.8727 38.727L48.8053 39.088ZM52.7733 38.256L52.2588 39.1135L52.2588 39.1135L52.7733 38.256ZM54.0533 39.408L53.1791 39.8936L53.774 40.9644L54.704 40.1673L54.0533 39.408ZM56.6453 43.152L57.0514 44.0658L57.0721 44.0566L57.0925 44.0464L56.6453 43.152ZM55.9093 43.536L55.2846 42.7551L54.9093 43.0554V43.536H55.9093ZM54.9093 53.808C54.9093 53.3421 55.2188 53.0962 55.3106 53.0338C55.3685 52.9944 55.4164 52.9725 55.44 52.9626C55.4655 52.9518 55.4821 52.9469 55.4853 52.946C55.49 52.9446 55.4733 52.9496 55.4253 52.9574C55.3797 52.9648 55.3176 52.9728 55.2365 52.9807C54.9025 53.0132 54.3659 53.032 53.6053 53.032V55.032C54.3806 55.032 54.996 55.0135 55.43 54.9713C55.6382 54.9511 55.8573 54.9208 56.0453 54.866C56.1323 54.8406 56.2846 54.7901 56.4359 54.6872C56.5757 54.5921 56.9093 54.3113 56.9093 53.808H54.9093ZM53.6352 53.0324C52.5746 53.0006 51.807 52.9562 51.3146 52.902C51.0609 52.8741 50.9228 52.8479 50.8659 52.8326C50.8295 52.8228 50.8813 52.8318 50.9634 52.8802C50.9883 52.8949 51.4053 53.1331 51.4053 53.68H49.4053C49.4053 54.2696 49.8555 54.5487 49.9471 54.6028C50.0958 54.6905 50.2476 54.7372 50.3446 54.7634C50.5544 54.8201 50.8163 54.8592 51.0959 54.89C51.6702 54.9532 52.5026 54.9994 53.5753 55.0316L53.6352 53.0324ZM51.4053 53.68V43.312H49.4053V53.68H51.4053ZM50.4053 42.312H49.5733V44.312H50.4053V42.312ZM49.5733 42.312C49.5805 42.312 49.6118 42.3148 49.6487 42.3338C49.6836 42.3516 49.6908 42.3669 49.6765 42.3486C49.6352 42.295 49.5414 42.1225 49.4691 41.7251L47.5014 42.0829C47.5998 42.6242 47.7727 43.1556 48.094 43.5714C48.4495 44.0315 48.9622 44.312 49.5733 44.312V42.312ZM49.4736 41.7519C49.4386 41.5243 49.4213 41.2978 49.4213 41.072H47.4213C47.4213 41.4008 47.4466 41.729 47.4969 42.0561L49.4736 41.7519ZM49.4213 41.072C49.4213 40.5428 49.5231 40.0036 49.7378 39.449L47.8727 38.727C47.5754 39.4951 47.4213 40.2785 47.4213 41.072H49.4213ZM49.7308 39.4666C49.8784 39.1057 50.0347 38.9161 50.1591 38.8183C50.2693 38.7317 50.3999 38.68 50.5973 38.68V36.68C49.984 36.68 49.4105 36.8629 48.9234 37.2457C48.4505 37.6173 48.1161 38.1316 47.8797 38.7094L49.7308 39.4666ZM50.5973 38.68C51.2428 38.68 51.7875 38.8307 52.2588 39.1135L53.2877 37.3985C52.479 36.9133 51.573 36.68 50.5973 36.68V38.68ZM52.2588 39.1135C52.8408 39.4627 53.0913 39.7357 53.1791 39.8936L54.9274 38.9224C54.5885 38.3123 53.9857 37.8173 53.2877 37.3985L52.2588 39.1135ZM54.704 40.1673C55.8575 39.1786 57.2234 38.68 58.8533 38.68V36.68C56.7711 36.68 54.937 37.3334 53.4025 38.6487L54.704 40.1673ZM58.8533 38.68C60.543 38.68 61.544 39.1336 62.1157 39.8226L63.6548 38.5454C62.5625 37.229 60.8755 36.68 58.8533 36.68V38.68ZM62.1157 39.8226C62.722 40.5533 63.1333 41.9045 63.1333 44.112H65.1333C65.1333 41.7542 64.7125 39.82 63.6548 38.5454L62.1157 39.8226ZM63.1333 44.112V53.712H65.1333V44.112H63.1333ZM63.1333 53.712C63.1333 53.4104 63.279 53.1965 63.3915 53.0866C63.4887 52.9917 63.5733 52.9583 63.5751 52.9576C63.5809 52.9551 63.511 52.9811 63.3071 53.0096C62.9194 53.0637 62.2879 53.096 61.3813 53.096V55.096C62.3093 55.096 63.0537 55.0643 63.5834 54.9904C63.8382 54.9549 64.1122 54.9009 64.3474 54.8024C64.4639 54.7537 64.6344 54.6683 64.789 54.5174C64.9588 54.3515 65.1333 54.0776 65.1333 53.712H63.1333ZM61.3813 53.096C60.4854 53.096 59.8625 53.0637 59.481 53.0098C59.2802 52.9815 59.2132 52.9558 59.2212 52.9592C59.2244 52.9605 59.3095 52.9947 59.4067 53.0907C59.5191 53.2018 59.6613 53.4146 59.6613 53.712H57.6613C57.6613 54.0734 57.8317 54.3462 58.0008 54.5133C58.1546 54.6653 58.3247 54.7515 58.4413 54.8008C58.676 54.9002 58.949 54.9545 59.2015 54.9902C59.7266 55.0643 60.4638 55.096 61.3813 55.096V53.096ZM59.6613 53.712V44.464H57.6613V53.712H59.6613ZM59.6613 44.464C59.6613 43.8447 59.5584 43.2019 59.2005 42.6905C58.797 42.1142 58.1855 41.864 57.5413 41.864V43.864C57.609 43.864 57.6202 43.8759 57.6013 43.8669C57.5924 43.8626 57.5822 43.8562 57.573 43.8483C57.5639 43.8405 57.5606 43.8355 57.562 43.8375C57.5658 43.8429 57.5924 43.8842 57.6174 43.9912C57.6424 44.0985 57.6613 44.2525 57.6613 44.464H59.6613ZM57.5413 41.864C57.0825 41.864 56.6077 42.0527 56.198 42.2576L57.0925 44.0464C57.2543 43.9655 57.3764 43.916 57.4633 43.888C57.5557 43.8583 57.5749 43.864 57.5413 43.864V41.864ZM56.2391 42.2382C55.8779 42.3987 55.5094 42.5753 55.2846 42.7551L56.5339 44.3169C56.5082 44.3375 56.5247 44.3205 56.6358 44.2626C56.7331 44.2118 56.8698 44.1465 57.0514 44.0658L56.2391 42.2382ZM54.9093 43.536V53.808H56.9093V43.536H54.9093ZM71.7023 53.808C71.7023 53.2912 72.0773 53.0497 72.1363 53.0138C72.2291 52.9573 72.2932 52.9452 72.2658 52.9524C72.2269 52.9625 72.1108 52.9837 71.8796 53.0038C71.4337 53.0425 70.7331 53.064 69.7583 53.064V55.064C70.7461 55.064 71.5174 55.0428 72.0529 54.9962C72.3124 54.9737 72.5642 54.9415 72.7707 54.8876C72.8659 54.8628 73.0221 54.816 73.1762 54.7222C73.2966 54.6489 73.7023 54.3675 73.7023 53.808H71.7023ZM69.7583 53.064C68.7933 53.064 68.0966 53.0452 67.6509 53.0109C67.4206 52.9932 67.2992 52.9742 67.2531 52.9636C67.2215 52.9563 67.2785 52.965 67.3658 53.012C67.3852 53.0225 67.8463 53.2594 67.8463 53.84H65.8463C65.8463 54.458 66.3376 54.7299 66.4177 54.773C66.5657 54.8527 66.7137 54.8917 66.8034 54.9124C67 54.9578 67.2426 54.9854 67.4976 55.0051C68.0226 55.0454 68.7818 55.064 69.7583 55.064V53.064ZM67.8463 53.84V38.128H65.8463V53.84H67.8463ZM67.8463 38.128C67.8463 38.7086 67.3852 38.9455 67.3658 38.956C67.2785 39.003 67.2215 39.0117 67.2531 39.0044C67.2992 38.9938 67.4206 38.9748 67.6509 38.9571C68.0966 38.9228 68.7933 38.904 69.7583 38.904V36.904C68.7818 36.904 68.0226 36.9226 67.4976 36.9629C67.2426 36.9826 67 37.0102 66.8034 37.0556C66.7137 37.0763 66.5657 37.1153 66.4177 37.195C66.3376 37.2381 65.8463 37.51 65.8463 38.128H67.8463ZM69.7583 38.904C70.7347 38.904 71.4442 38.9201 71.9012 38.9499C72.1363 38.9652 72.2684 38.9821 72.3262 38.9934C72.3641 39.0008 72.3183 38.996 72.241 38.9607C72.2042 38.9439 72.0999 38.8936 71.9915 38.7876C71.8746 38.6733 71.7023 38.439 71.7023 38.096H73.7023C73.7023 37.737 73.5222 37.4872 73.39 37.3579C73.2663 37.2369 73.139 37.1721 73.0715 37.1413C72.9328 37.078 72.7951 37.0472 72.7103 37.0306C72.5227 36.9939 72.2869 36.9708 72.0313 36.9541C71.507 36.9199 70.7445 36.904 69.7583 36.904V38.904ZM71.7023 38.096V53.808H73.7023V38.096H71.7023ZM71.7023 36.208C71.7023 35.6219 72.1713 35.3858 72.1862 35.3779C72.2726 35.3318 72.3284 35.3236 72.2957 35.3311C72.2476 35.3421 72.1236 35.3611 71.8904 35.3789C71.439 35.4132 70.7339 35.432 69.7583 35.432V37.432C70.7453 37.432 71.5122 37.4134 72.0421 37.3731C72.2996 37.3535 72.5436 37.3259 72.7408 37.2809C72.8307 37.2604 72.9786 37.2218 73.1263 37.1431C73.2026 37.1025 73.7023 36.8315 73.7023 36.208H71.7023ZM69.7583 35.432C68.7925 35.432 68.0913 35.4159 67.64 35.3862C67.4077 35.3708 67.2781 35.354 67.2223 35.343C67.1855 35.3357 67.2324 35.3409 67.3108 35.377C67.3483 35.3943 67.4527 35.4453 67.5608 35.5522C67.6777 35.6678 67.8463 35.901 67.8463 36.24H65.8463C65.8463 36.595 66.0224 36.8437 66.1544 36.9743C66.2777 37.0962 66.4049 37.1617 66.4727 37.193C66.6117 37.2571 66.7497 37.2883 66.8342 37.305C67.021 37.3419 67.2554 37.3652 67.5085 37.3818C68.0278 37.4161 68.7827 37.432 69.7583 37.432V35.432ZM67.8463 36.24V31.632H65.8463V36.24H67.8463ZM67.8463 31.632C67.8463 32.0344 67.6048 32.2702 67.5015 32.3496C67.4464 32.392 67.4007 32.4156 67.3786 32.4261C67.3662 32.432 67.3567 32.4359 67.3509 32.4382C67.3451 32.4405 67.3417 32.4416 67.3413 32.4417C67.3411 32.4418 67.3485 32.4394 67.3656 32.4352C67.3824 32.4312 67.4055 32.4262 67.4359 32.4206C67.4974 32.4094 67.5789 32.3975 67.6835 32.386C68.1125 32.3389 68.7959 32.312 69.7583 32.312V30.312C68.7793 30.312 68.0067 30.3385 67.465 30.398C67.2036 30.4267 66.9379 30.4688 66.7152 30.5423C66.6091 30.5772 66.4417 30.6416 66.282 30.7644C66.1181 30.8905 65.8463 31.1762 65.8463 31.632H67.8463ZM69.7583 32.312C70.7347 32.312 71.4442 32.3281 71.9012 32.3579C72.1363 32.3732 72.2684 32.3901 72.3262 32.4014C72.3641 32.4088 72.3183 32.404 72.241 32.3687C72.2042 32.3519 72.0999 32.3016 71.9915 32.1956C71.8746 32.0813 71.7023 31.847 71.7023 31.504H73.7023C73.7023 31.145 73.5222 30.8952 73.39 30.7659C73.2663 30.6449 73.139 30.5801 73.0715 30.5493C72.9329 30.486 72.7951 30.4552 72.7103 30.4386C72.5227 30.4019 72.2869 30.3788 72.0313 30.3621C71.507 30.3279 70.7445 30.312 69.7583 30.312V32.312ZM71.7023 31.504V36.208H73.7023V31.504H71.7023Z" fill="black" mask="url(#path-1-outside-1_0_1)"/>
<defs>
<linearGradient id="paint0_linear_0_1" x1="42.5" y1="24" x2="42.5" y2="61" gradientUnits="userSpaceOnUse">
<stop stop-color="#666666"/>
<stop offset="1"/>
</linearGradient>
</defs>
</svg>
