<svg width="182" height="39" viewBox="0 0 182 39" fill="none" xmlns="http://www.w3.org/2000/svg">
<rect x="3" y="1" width="176" height="37" rx="18.5" fill="url(#paint0_linear_21_3)"/>
<path d="M40.44 26.56C39.832 26.496 39.3467 26.2293 38.984 25.76C38.6213 25.2907 38.44 24.6933 38.44 23.968C38.44 23.5413 38.504 23.0987 38.632 22.64C38.76 22.1813 38.9413 21.7387 39.176 21.312C39.4107 20.8747 39.688 20.464 40.008 20.08C40.328 19.696 40.6747 19.3653 41.048 19.088C41.6347 18.6507 42.184 18.432 42.696 18.432C43.0373 18.6133 43.3733 18.992 43.704 19.568C43.7573 19.568 43.8053 19.568 43.848 19.568C43.8907 19.5573 43.9387 19.552 43.992 19.552C44.5573 19.552 44.84 20.0533 44.84 21.056C44.84 21.728 44.728 22.368 44.504 22.976C44.2907 23.5733 43.9867 24.1173 43.592 24.608C43.208 25.0987 42.744 25.5147 42.2 25.856C41.6667 26.1867 41.08 26.4213 40.44 26.56ZM41.256 21.52C41.0747 21.7653 40.904 22.032 40.744 22.32C40.584 22.608 40.4453 22.9013 40.328 23.2C40.2107 23.488 40.12 23.7707 40.056 24.048C39.992 24.3147 39.96 24.5547 39.96 24.768C39.96 25.024 40.0027 25.2693 40.088 25.504C40.1733 25.7387 40.2693 25.872 40.376 25.904C40.856 25.7973 41.2933 25.6 41.688 25.312C42.0933 25.0133 42.44 24.6453 42.728 24.208C43.0267 23.7707 43.256 23.2747 43.416 22.72C43.5867 22.1653 43.672 21.5733 43.672 20.944C43.672 20.6667 43.656 20.448 43.624 20.288C43.592 20.128 43.5387 19.9893 43.464 19.872C42.9947 20.0107 42.5733 20.2347 42.2 20.544C41.8373 20.8533 41.5227 21.1787 41.256 21.52ZM47.7745 15.408C47.9345 15.3013 48.1532 15.2 48.4305 15.104C48.7078 14.9973 49.0065 14.9067 49.3265 14.832C49.6465 14.7573 49.9665 14.6987 50.2865 14.656C50.6172 14.6133 50.9105 14.592 51.1665 14.592C51.6038 14.592 51.9772 14.656 52.2865 14.784C52.5958 14.9013 52.8465 15.0613 53.0385 15.264C53.2305 15.456 53.3692 15.6747 53.4545 15.92C53.5398 16.1653 53.5825 16.416 53.5825 16.672C53.5825 16.9387 53.5292 17.2213 53.4225 17.52C53.3265 17.8187 53.1825 18.1173 52.9905 18.416C52.7985 18.7147 52.5638 19.008 52.2865 19.296C52.0198 19.5733 51.7212 19.824 51.3905 20.048C52.0945 20.1333 52.6065 20.3467 52.9265 20.688C53.2465 21.0293 53.4065 21.488 53.4065 22.064C53.4065 22.608 53.3052 23.0987 53.1025 23.536C52.8998 23.9627 52.6225 24.3467 52.2705 24.688C51.9292 25.0187 51.5345 25.3067 51.0865 25.552C50.6385 25.7867 50.1638 25.9787 49.6625 26.128C49.1718 26.288 48.6705 26.4 48.1585 26.464C47.6465 26.5387 47.1612 26.576 46.7025 26.576C46.3078 26.4907 46.0092 26.2827 45.8065 25.952C45.6038 25.6213 45.5025 25.216 45.5025 24.736C45.5025 24.704 45.5025 24.672 45.5025 24.64C45.5132 24.608 45.5185 24.5707 45.5185 24.528C45.8492 24.6347 46.2758 24.688 46.7985 24.688C47.3425 24.688 47.9292 24.624 48.5585 24.496C49.1878 24.368 49.7692 24.1813 50.3025 23.936C50.8358 23.6907 51.2785 23.3867 51.6305 23.024C51.9825 22.6613 52.1585 22.24 52.1585 21.76C52.1585 21.408 52.0412 21.12 51.8065 20.896C51.5825 20.6613 51.2252 20.512 50.7345 20.448C50.4145 20.64 50.1052 20.7787 49.8065 20.864C49.5185 20.9387 49.2998 20.976 49.1505 20.976C48.9052 20.976 48.6972 20.8693 48.5265 20.656C48.3558 20.4427 48.2705 20.1173 48.2705 19.68C48.7505 19.68 49.2572 19.6267 49.7905 19.52C50.3345 19.4133 50.8305 19.232 51.2785 18.976C51.7265 18.7093 52.0998 18.3627 52.3985 17.936C52.7078 17.4987 52.8732 16.9493 52.8945 16.288C52.8412 16.0747 52.7132 15.92 52.5105 15.824C52.3185 15.728 52.0838 15.68 51.8065 15.68C51.5505 15.68 51.2678 15.7173 50.9585 15.792C50.6598 15.8667 50.3558 15.9733 50.0465 16.112C49.7478 16.24 49.4545 16.4 49.1665 16.592C48.8892 16.7733 48.6492 16.9707 48.4465 17.184C48.2332 17.056 48.0625 16.864 47.9345 16.608C47.8172 16.3413 47.7585 16.0373 47.7585 15.696C47.7585 15.6427 47.7585 15.5947 47.7585 15.552C47.7585 15.5093 47.7638 15.4613 47.7745 15.408ZM56.2015 23.024C55.8708 23.024 55.6042 22.9333 55.4015 22.752C55.2095 22.56 55.1135 22.2987 55.1135 21.968C55.1135 21.9147 55.1242 21.8347 55.1455 21.728C55.1668 21.6213 55.1882 21.5413 55.2095 21.488C55.3908 21.52 55.5615 21.5413 55.7215 21.552C55.8815 21.552 56.0895 21.552 56.3455 21.552C56.8895 21.552 57.3962 21.536 57.8655 21.504C58.3455 21.472 58.7775 21.4347 59.1615 21.392C59.5455 21.3493 59.8762 21.312 60.1535 21.28C60.4308 21.248 60.6442 21.232 60.7935 21.232C60.9962 21.232 61.1722 21.3547 61.3215 21.6C61.4815 21.8453 61.5988 22.1973 61.6735 22.656C61.4068 22.624 61.1882 22.6027 61.0175 22.592C60.8468 22.5813 60.6975 22.576 60.5695 22.576C60.1108 22.576 59.6842 22.6027 59.2895 22.656C58.8948 22.6987 58.5215 22.7467 58.1695 22.8C57.8175 22.8533 57.4815 22.9067 57.1615 22.96C56.8415 23.0027 56.5215 23.024 56.2015 23.024ZM75.9719 21.088C75.8012 21.0987 75.5932 21.2107 75.3479 21.424C75.1025 21.6267 74.8359 21.8933 74.5479 22.224C74.2705 22.544 73.9772 22.9013 73.6679 23.296C73.3692 23.6907 73.0759 24.0853 72.7879 24.48C72.5105 24.864 72.2492 25.2267 72.0039 25.568C71.7585 25.9093 71.5505 26.1813 71.3799 26.384C71.1452 26.288 70.9425 26.1493 70.7719 25.968C70.6012 25.776 70.4785 25.5413 70.4039 25.264C70.4572 24.9333 70.5319 24.592 70.6279 24.24C70.7239 23.8773 70.8465 23.504 70.9959 23.12C71.1559 22.736 71.3479 22.336 71.5719 21.92C71.8065 21.4933 72.0892 21.0453 72.4199 20.576C72.2599 20.5867 72.0412 20.704 71.7639 20.928C71.4865 21.1413 71.1879 21.424 70.8679 21.776C70.5479 22.1173 70.2172 22.5067 69.8759 22.944C69.5345 23.3707 69.2145 23.792 68.9159 24.208C68.5212 24.7627 68.1905 25.248 67.9239 25.664C67.6679 26.08 67.4812 26.3253 67.3639 26.4C67.0865 26.1973 66.8945 25.9787 66.7879 25.744C66.6812 25.5093 66.6012 25.248 66.5479 24.96C66.5585 24.704 66.5959 24.384 66.6599 24C66.7345 23.616 66.8359 23.2213 66.9639 22.816C67.2092 22.0373 67.5239 21.264 67.9079 20.496C68.3025 19.728 68.6812 19.024 69.0439 18.384C69.3425 18.448 69.6092 18.5493 69.8439 18.688C70.0892 18.8267 70.3452 19.0293 70.6119 19.296C70.5052 19.6267 70.3399 19.9787 70.1159 20.352C69.8919 20.7147 69.6572 21.0987 69.4119 21.504C69.1665 21.9093 68.9425 22.3253 68.7399 22.752C68.5372 23.1787 68.4039 23.6107 68.3399 24.048C68.6385 23.6213 68.9905 23.1307 69.3959 22.576C69.8119 22.0213 70.2332 21.4987 70.6599 21.008C71.0972 20.5173 71.5292 20.1013 71.9559 19.76C72.3825 19.4187 72.7665 19.248 73.1079 19.248C73.2359 19.248 73.3745 19.2693 73.5239 19.312C73.6732 19.3547 73.8119 19.408 73.9399 19.472C74.0679 19.536 74.1745 19.6 74.2599 19.664C74.3452 19.7173 74.3932 19.76 74.4039 19.792C74.3505 20.0053 74.2225 20.2987 74.0199 20.672C73.8279 21.0347 73.6199 21.4187 73.3959 21.824C73.1719 22.2293 72.9639 22.624 72.7719 23.008C72.5799 23.3813 72.4679 23.68 72.4359 23.904C72.9585 23.1893 73.4492 22.544 73.9079 21.968C74.3665 21.3813 74.7985 20.88 75.2039 20.464C75.6092 20.048 75.9825 19.728 76.3239 19.504C76.6759 19.28 77.0065 19.168 77.3159 19.168C77.5292 19.168 77.7265 19.2267 77.9079 19.344C78.0999 19.4507 78.2332 19.6107 78.3079 19.824C78.2119 20.144 78.0519 20.528 77.8279 20.976C77.6145 21.424 77.3959 21.8987 77.1719 22.4C76.9479 22.8907 76.7452 23.376 76.5639 23.856C76.3932 24.336 76.3079 24.768 76.3079 25.152C76.3079 25.376 76.3399 25.5253 76.4039 25.6C76.4679 25.664 76.5585 25.696 76.6759 25.696C76.8039 25.696 76.9212 25.6747 77.0279 25.632C77.1452 25.5787 77.2305 25.552 77.2839 25.552C77.3479 25.5947 77.3852 25.648 77.3959 25.712C77.4065 25.776 77.4119 25.8347 77.4119 25.888C77.1985 26.0587 76.9799 26.1973 76.7559 26.304C76.5319 26.4213 76.2812 26.48 76.0039 26.48C75.7479 26.48 75.5345 26.4373 75.3639 26.352C75.2039 26.2667 75.0705 26.1493 74.9639 26C74.8572 25.8507 74.7825 25.68 74.7399 25.488C74.6972 25.296 74.6759 25.088 74.6759 24.864C74.6759 24.5013 74.7239 24.144 74.8199 23.792C74.9159 23.4293 75.0279 23.088 75.1559 22.768C75.2945 22.4373 75.4385 22.1333 75.5879 21.856C75.7372 21.568 75.8652 21.312 75.9719 21.088ZM78.9743 24.928C78.9743 24.832 78.9796 24.7147 78.9903 24.576C79.0116 24.4267 79.0436 24.2347 79.0863 24C79.1289 23.7547 79.1823 23.4613 79.2463 23.12C79.3209 22.7787 79.4116 22.368 79.5182 21.888C79.5396 21.7813 79.5876 21.6107 79.6623 21.376C79.7369 21.1413 79.8329 20.896 79.9503 20.64C80.0783 20.3733 80.2276 20.1173 80.3983 19.872C80.5796 19.6267 80.7929 19.4453 81.0383 19.328C81.2196 19.3707 81.4596 19.4827 81.7583 19.664C82.0569 19.8347 82.3129 20.0747 82.5263 20.384C82.2809 20.6613 82.0729 20.9387 81.9023 21.216C81.7423 21.4933 81.5929 21.7813 81.4543 22.08C81.3263 22.3787 81.2036 22.688 81.0863 23.008C80.9796 23.328 80.8569 23.664 80.7183 24.016C80.6009 24.3147 80.4943 24.624 80.3983 24.944C80.3023 25.2533 80.2489 25.5253 80.2383 25.76C80.2383 25.952 80.2329 26.0853 80.2223 26.16C80.2223 26.2453 80.1956 26.288 80.1423 26.288C80.0996 26.288 80.0143 26.2613 79.8863 26.208C79.7583 26.1547 79.6249 26.0747 79.4863 25.968C79.3583 25.8507 79.2409 25.7067 79.1343 25.536C79.0276 25.3653 78.9743 25.1627 78.9743 24.928ZM82.0303 17.984C82.0303 17.92 82.0463 17.824 82.0783 17.696C82.0249 17.6427 81.9769 17.5627 81.9343 17.456C81.9023 17.3493 81.8863 17.2533 81.8863 17.168C81.8863 17.072 81.8969 16.944 81.9183 16.784C81.9503 16.6133 81.9876 16.432 82.0303 16.24C82.0729 16.048 82.1263 15.8507 82.1903 15.648C82.2543 15.4347 82.3183 15.2427 82.3823 15.072C82.5103 15.072 82.6649 15.1093 82.8463 15.184C83.0383 15.248 83.2303 15.3387 83.4223 15.456C83.6143 15.5627 83.7903 15.6853 83.9503 15.824C84.1103 15.952 84.2329 16.0747 84.3183 16.192C84.2009 16.3093 84.0463 16.4747 83.8543 16.688C83.6623 16.8907 83.4756 17.1093 83.2943 17.344C83.1129 17.568 82.9476 17.7813 82.7983 17.984C82.6489 18.1867 82.5529 18.3307 82.5103 18.416C82.3823 18.3947 82.2703 18.3413 82.1743 18.256C82.0783 18.16 82.0303 18.0693 82.0303 17.984ZM85.3315 18.24C85.6088 18.3253 85.8702 18.5173 86.1155 18.816C86.3608 19.104 86.5422 19.424 86.6595 19.776C86.5422 20.064 86.3608 20.4107 86.1155 20.816C85.8702 21.2213 85.6248 21.6373 85.3795 22.064C85.1342 22.48 84.9102 22.88 84.7075 23.264C84.5155 23.6373 84.4035 23.9467 84.3715 24.192C84.5422 24.0107 84.7288 23.8027 84.9315 23.568C85.1448 23.3227 85.3475 23.0827 85.5395 22.848C85.7422 22.6027 85.9288 22.384 86.0995 22.192C86.2702 21.9893 86.4035 21.84 86.4995 21.744C86.7022 21.5307 86.9422 21.2853 87.2195 21.008C87.4968 20.72 87.7848 20.4533 88.0835 20.208C88.3928 19.952 88.7022 19.7387 89.0115 19.568C89.3208 19.3867 89.6035 19.296 89.8595 19.296C90.1368 19.296 90.3662 19.392 90.5475 19.584C90.7395 19.7653 90.8888 19.9573 90.9955 20.16C90.9955 20.1813 90.9528 20.2133 90.8675 20.256C90.7928 20.288 90.6808 20.3893 90.5315 20.56C90.3822 20.752 90.2115 21.0187 90.0195 21.36C89.8382 21.6907 89.6568 22.0533 89.4755 22.448C89.3048 22.832 89.1608 23.2267 89.0435 23.632C88.9262 24.0373 88.8675 24.4053 88.8675 24.736C88.8675 25.0027 88.8995 25.1733 88.9635 25.248C89.0382 25.3227 89.1395 25.36 89.2675 25.36C89.3848 25.36 89.5075 25.3333 89.6355 25.28C89.7635 25.2267 89.8648 25.2 89.9395 25.2C89.9822 25.2213 90.0142 25.2693 90.0355 25.344C90.0675 25.408 90.0835 25.4667 90.0835 25.52C89.9982 25.5947 89.8968 25.6693 89.7795 25.744C89.6622 25.8187 89.5395 25.888 89.4115 25.952C89.2835 26.016 89.1555 26.0693 89.0275 26.112C88.9102 26.1547 88.8035 26.176 88.7075 26.176C88.3982 26.176 88.1422 26.128 87.9395 26.032C87.7475 25.9467 87.5928 25.8293 87.4755 25.68C87.3688 25.5307 87.2942 25.3547 87.2515 25.152C87.2088 24.9387 87.1875 24.7147 87.1875 24.48C87.1875 24.352 87.1982 24.208 87.2195 24.048C87.2408 23.888 87.2835 23.7013 87.3475 23.488C87.4115 23.264 87.5022 23.0027 87.6195 22.704C87.7368 22.3947 87.8862 22.0267 88.0675 21.6C88.0462 21.6 87.9022 21.6747 87.6355 21.824C87.3688 21.9733 87.0808 22.2027 86.7715 22.512C86.2702 22.992 85.8168 23.4667 85.4115 23.936C85.0168 24.4053 84.6115 24.928 84.1955 25.504C83.9608 25.8347 83.7528 26.112 83.5715 26.336C83.4008 26.5707 83.2515 26.7253 83.1235 26.8C82.8995 26.672 82.7342 26.4907 82.6275 26.256C82.5208 26.032 82.4408 25.7973 82.3875 25.552C82.3875 25.3493 82.4142 25.0933 82.4675 24.784C82.5315 24.4747 82.6115 24.1333 82.7075 23.76C82.8142 23.376 82.9422 22.976 83.0915 22.56C83.2408 22.144 83.4062 21.728 83.5875 21.312C83.9928 20.3733 84.3608 19.6373 84.6915 19.104C85.0328 18.5707 85.2462 18.2827 85.3315 18.24ZM91.3961 24.928C91.3961 24.832 91.4015 24.7147 91.4121 24.576C91.4335 24.4267 91.4655 24.2347 91.5081 24C91.5508 23.7547 91.6041 23.4613 91.6681 23.12C91.7428 22.7787 91.8335 22.368 91.9401 21.888C91.9615 21.7813 92.0095 21.6107 92.0841 21.376C92.1588 21.1413 92.2548 20.896 92.3721 20.64C92.5001 20.3733 92.6495 20.1173 92.8201 19.872C93.0015 19.6267 93.2148 19.4453 93.4601 19.328C93.6415 19.3707 93.8815 19.4827 94.1801 19.664C94.4788 19.8347 94.7348 20.0747 94.9481 20.384C94.7028 20.6613 94.4948 20.9387 94.3241 21.216C94.1641 21.4933 94.0148 21.7813 93.8761 22.08C93.7481 22.3787 93.6255 22.688 93.5081 23.008C93.4015 23.328 93.2788 23.664 93.1401 24.016C93.0228 24.3147 92.9161 24.624 92.8201 24.944C92.7241 25.2533 92.6708 25.5253 92.6601 25.76C92.6601 25.952 92.6548 26.0853 92.6441 26.16C92.6441 26.2453 92.6175 26.288 92.5641 26.288C92.5215 26.288 92.4361 26.2613 92.3081 26.208C92.1801 26.1547 92.0468 26.0747 91.9081 25.968C91.7801 25.8507 91.6628 25.7067 91.5561 25.536C91.4495 25.3653 91.3961 25.1627 91.3961 24.928ZM94.4521 17.984C94.4521 17.92 94.4681 17.824 94.5001 17.696C94.4468 17.6427 94.3988 17.5627 94.3561 17.456C94.3241 17.3493 94.3081 17.2533 94.3081 17.168C94.3081 17.072 94.3188 16.944 94.3401 16.784C94.3721 16.6133 94.4095 16.432 94.4521 16.24C94.4948 16.048 94.5481 15.8507 94.6121 15.648C94.6761 15.4347 94.7401 15.2427 94.8041 15.072C94.9321 15.072 95.0868 15.1093 95.2681 15.184C95.4601 15.248 95.6521 15.3387 95.8441 15.456C96.0361 15.5627 96.2121 15.6853 96.3721 15.824C96.5321 15.952 96.6548 16.0747 96.7401 16.192C96.6228 16.3093 96.4681 16.4747 96.2761 16.688C96.0841 16.8907 95.8975 17.1093 95.7161 17.344C95.5348 17.568 95.3695 17.7813 95.2201 17.984C95.0708 18.1867 94.9748 18.3307 94.9321 18.416C94.8041 18.3947 94.6921 18.3413 94.5961 18.256C94.5001 18.16 94.4521 18.0693 94.4521 17.984ZM109.458 27.184C109.437 27.1947 109.416 27.2 109.394 27.2C109.373 27.2 109.33 27.2 109.266 27.2C109.117 27.2 108.941 27.1733 108.738 27.12C108.546 27.0773 108.354 27.0187 108.162 26.944C107.981 26.88 107.821 26.8053 107.682 26.72C107.554 26.6347 107.474 26.56 107.442 26.496C107.432 26.3467 107.426 26.192 107.426 26.032C107.426 25.872 107.426 25.7173 107.426 25.568C107.426 24.3733 107.512 23.1253 107.682 21.824C107.864 20.5227 108.157 19.1147 108.562 17.6C108.605 17.4507 108.648 17.264 108.69 17.04C108.744 16.8053 108.797 16.5547 108.85 16.288C108.594 16.4907 108.29 16.816 107.938 17.264C107.586 17.7013 107.213 18.224 106.818 18.832C106.434 19.4293 106.045 20.0907 105.65 20.816C105.266 21.5307 104.914 22.2613 104.594 23.008C104.274 23.744 103.997 24.4747 103.762 25.2C103.538 25.9253 103.4 26.5973 103.346 27.216C102.834 27.0667 102.477 26.9173 102.274 26.768C102.082 26.6187 101.986 26.4373 101.986 26.224C101.986 26.032 102.045 25.76 102.162 25.408C102.28 25.056 102.445 24.64 102.658 24.16C102.872 23.68 103.133 23.1467 103.442 22.56C103.752 21.9627 104.093 21.3227 104.466 20.64C104.893 19.8613 105.309 19.1307 105.714 18.448C106.13 17.7653 106.536 17.1467 106.93 16.592C107.325 16.0373 107.709 15.5573 108.082 15.152C108.466 14.7467 108.845 14.4373 109.218 14.224C109.368 14.224 109.565 14.2613 109.81 14.336C110.066 14.4107 110.312 14.5013 110.546 14.608C110.792 14.7147 111.005 14.8267 111.186 14.944C111.378 15.0507 111.485 15.1413 111.506 15.216C111.357 15.5147 111.181 15.9627 110.978 16.56C110.776 17.1573 110.568 17.8347 110.354 18.592C110.152 19.3493 109.954 20.1547 109.762 21.008C109.581 21.8507 109.437 22.6613 109.33 23.44C109.576 22.8533 109.858 22.2453 110.178 21.616C110.509 20.976 110.856 20.3467 111.218 19.728C111.581 19.0987 111.949 18.4907 112.322 17.904C112.706 17.3173 113.08 16.784 113.442 16.304C113.805 15.8133 114.141 15.3867 114.45 15.024C114.77 14.6613 115.053 14.3947 115.298 14.224C115.448 14.224 115.645 14.2613 115.89 14.336C116.146 14.4107 116.392 14.5013 116.626 14.608C116.872 14.7147 117.085 14.8267 117.266 14.944C117.458 15.0507 117.565 15.1413 117.586 15.216C117.245 15.824 116.946 16.5653 116.69 17.44C116.434 18.3147 116.216 19.232 116.034 20.192C115.864 21.152 115.73 22.1067 115.634 23.056C115.549 23.9947 115.506 24.8373 115.506 25.584C115.506 25.8293 115.506 26.0853 115.506 26.352C115.506 26.6187 115.517 26.896 115.538 27.184C115.389 27.184 115.208 27.1627 114.994 27.12C114.792 27.088 114.589 27.04 114.386 26.976C114.194 26.912 114.018 26.8373 113.858 26.752C113.698 26.6773 113.586 26.592 113.522 26.496C113.512 26.3467 113.506 26.192 113.506 26.032C113.506 25.872 113.506 25.7173 113.506 25.568C113.506 24.3733 113.592 23.1253 113.762 21.824C113.944 20.5227 114.237 19.1147 114.642 17.6C114.685 17.4507 114.733 17.248 114.786 16.992C114.84 16.736 114.893 16.4693 114.946 16.192C114.648 16.3413 114.306 16.6293 113.922 17.056C113.549 17.472 113.165 17.984 112.77 18.592C112.386 19.1893 112.002 19.856 111.618 20.592C111.245 21.328 110.904 22.08 110.594 22.848C110.296 23.6053 110.04 24.3627 109.826 25.12C109.624 25.8667 109.501 26.5547 109.458 27.184ZM118.315 25.088C118.315 24.704 118.373 24.208 118.491 23.6C118.619 22.9813 118.779 22.32 118.971 21.616C119.173 20.9013 119.403 20.176 119.659 19.44C119.915 18.6933 120.176 17.9947 120.443 17.344C120.709 16.6933 120.971 16.1227 121.227 15.632C121.483 15.1413 121.712 14.7893 121.915 14.576C122.021 14.5867 122.16 14.6293 122.331 14.704C122.512 14.768 122.693 14.848 122.875 14.944C123.056 15.04 123.221 15.1467 123.371 15.264C123.52 15.3707 123.616 15.472 123.659 15.568C123.349 15.8453 123.04 16.2667 122.731 16.832C122.432 17.3867 122.139 18.0213 121.851 18.736C121.573 19.4507 121.312 20.208 121.067 21.008C120.821 21.7973 120.608 22.5653 120.427 23.312C120.245 24.0587 120.101 24.752 119.995 25.392C119.899 26.032 119.851 26.5493 119.851 26.944C119.851 27.1253 119.867 27.2373 119.899 27.28C119.664 27.2693 119.493 27.2267 119.387 27.152C119.28 27.088 119.195 27.0133 119.131 26.928C119.077 26.8533 119.024 26.7733 118.971 26.688C118.928 26.6133 118.859 26.5547 118.763 26.512C118.688 26.48 118.624 26.4053 118.571 26.288C118.517 26.1707 118.469 26.0427 118.427 25.904C118.395 25.7547 118.368 25.6053 118.347 25.456C118.325 25.3067 118.315 25.184 118.315 25.088ZM131.618 26.064C131.522 26.16 131.378 26.2667 131.186 26.384C131.004 26.512 130.807 26.624 130.594 26.72C130.38 26.8267 130.162 26.9173 129.938 26.992C129.724 27.0773 129.548 27.1253 129.41 27.136C129.271 27.136 129.148 27.0827 129.042 26.976C128.935 26.8693 128.823 26.624 128.706 26.24C128.588 25.8667 128.45 25.3227 128.29 24.608C128.14 23.8827 127.948 22.9013 127.714 21.664C127.106 22.2933 126.54 22.9013 126.018 23.488C125.495 24.0747 125.047 24.6187 124.674 25.12C124.3 25.6213 124.007 26.0587 123.794 26.432C123.58 26.8053 123.474 27.088 123.474 27.28C123.346 27.2693 123.212 27.2213 123.074 27.136C122.946 27.0507 122.828 26.9493 122.722 26.832C122.615 26.7147 122.524 26.5867 122.45 26.448C122.386 26.3093 122.354 26.176 122.354 26.048C122.386 25.9307 122.466 25.7653 122.594 25.552C122.722 25.3387 122.882 25.1093 123.074 24.864C123.479 24.3413 124.055 23.7387 124.802 23.056C125.559 22.3627 126.471 21.6 127.538 20.768C126.844 17.3227 125.863 15.6 124.594 15.6C124.722 15.2907 124.924 15.0187 125.202 14.784C125.49 14.5493 125.794 14.4053 126.114 14.352C126.466 14.352 126.754 14.4 126.978 14.496C127.202 14.5813 127.404 14.8053 127.586 15.168C127.767 15.5307 127.948 16.08 128.13 16.816C128.311 17.5413 128.54 18.5387 128.818 19.808C129.17 19.4347 129.506 19.056 129.826 18.672C130.156 18.2773 130.46 17.8987 130.738 17.536C131.015 17.1733 131.26 16.8373 131.474 16.528C131.687 16.2187 131.852 15.952 131.97 15.728C132.087 15.5253 132.146 15.3173 132.146 15.104C132.146 14.912 132.087 14.6613 131.97 14.352C132.311 14.5547 132.567 14.7467 132.738 14.928C132.919 15.0987 133.074 15.3387 133.202 15.648C133.18 15.904 133.106 16.16 132.978 16.416C132.86 16.672 132.647 16.9813 132.338 17.344C132.039 17.696 131.623 18.1333 131.09 18.656C130.556 19.1787 129.858 19.8293 128.994 20.608C129.196 21.568 129.394 22.3787 129.586 23.04C129.778 23.7013 129.975 24.2453 130.178 24.672C130.38 25.088 130.599 25.408 130.834 25.632C131.068 25.8453 131.33 25.9893 131.618 26.064ZM136.589 25.376C136.376 25.344 136.152 25.2587 135.917 25.12C135.693 24.9813 135.474 24.816 135.261 24.624C135.346 24.3147 135.432 24.0107 135.517 23.712C135.602 23.4027 135.688 23.0987 135.773 22.8C135.592 22.8213 135.41 22.8373 135.229 22.848C135.048 22.8587 134.866 22.864 134.685 22.864C134.301 22.864 133.992 22.7733 133.757 22.592C133.533 22.4 133.421 22.1387 133.421 21.808C133.421 21.7547 133.432 21.6747 133.453 21.568C133.485 21.4507 133.512 21.3653 133.533 21.312C133.736 21.344 133.928 21.3653 134.109 21.376C134.301 21.3867 134.546 21.392 134.845 21.392C135.09 21.392 135.33 21.392 135.565 21.392C135.81 21.392 136.045 21.3813 136.269 21.36C136.514 20.688 136.76 20.0907 137.005 19.568C137.261 19.0347 137.512 18.6133 137.757 18.304C137.885 18.3253 138.05 18.3787 138.253 18.464C138.456 18.5493 138.653 18.6453 138.845 18.752C139.048 18.848 139.229 18.9493 139.389 19.056C139.549 19.1627 139.65 19.248 139.693 19.312C139.448 19.5787 139.218 19.872 139.005 20.192C138.792 20.5013 138.578 20.8427 138.365 21.216C138.749 21.184 139.08 21.152 139.357 21.12C139.645 21.088 139.864 21.072 140.013 21.072C140.248 21.072 140.456 21.1947 140.637 21.44C140.818 21.6853 140.952 22.0373 141.037 22.496C140.728 22.464 140.472 22.4427 140.269 22.432C140.077 22.4213 139.906 22.416 139.757 22.416C139.373 22.416 139.005 22.432 138.653 22.464C138.312 22.4853 137.986 22.5173 137.677 22.56C137.474 23.008 137.282 23.4667 137.101 23.936C136.92 24.4053 136.749 24.8853 136.589 25.376Z" fill="#724106"/>
<defs>
<linearGradient id="paint0_linear_21_3" x1="63.4179" y1="38" x2="147.63" y2="-19.7659" gradientUnits="userSpaceOnUse">
<stop stop-color="#FFC587"/>
<stop offset="1" stop-color="#F5CFA5"/>
</linearGradient>
</defs>
</svg>
