<svg width="85" height="85" viewBox="0 0 85 85" fill="none" xmlns="http://www.w3.org/2000/svg">
<path d="M42.256 44.648C42.576 44.648 42.736 45.864 42.736 48.296C42.736 50.696 42.576 51.896 42.256 51.896L39.088 51.944V57.992C39.088 58.344 38.432 58.6 37.12 58.76C35.808 58.92 34.672 59 33.712 59L31.744 58.904C30.112 58.776 29.296 58.488 29.296 58.04V52.088H19.744C18.912 51.256 18.16 50.184 17.488 48.872C16.816 47.528 16.48 46.568 16.48 45.992C16.48 45.384 16.576 44.904 16.768 44.552L27.28 25.928C27.408 25.672 28.384 25.48 30.208 25.352C32.064 25.224 34 25.16 36.016 25.16C38.032 25.16 39.04 25.24 39.04 25.4L39.088 44.648H42.256ZM30.688 44.696V34.664L25.072 44.696H30.688ZM48.9115 56.168C46.9275 53.96 45.9355 50.904 45.9355 47C45.9355 43.096 46.9275 40.04 48.9115 37.832C50.9275 35.624 53.6315 34.52 57.0235 34.52C60.4155 34.52 63.1035 35.624 65.0875 37.832C67.0715 40.04 68.0635 43.096 68.0635 47C68.0635 50.904 67.0715 53.96 65.0875 56.168C63.1035 58.376 60.4155 59.48 57.0235 59.48C53.6315 59.48 50.9275 58.376 48.9115 56.168ZM57.0235 42.536C55.2315 42.536 54.3355 44.008 54.3355 46.952C54.3355 49.896 55.2315 51.368 57.0235 51.368C58.8475 51.368 59.7595 49.896 59.7595 46.952C59.7595 44.008 58.8475 42.536 57.0235 42.536Z" fill="url(#paint0_linear_0_1)"/>
<defs>
<linearGradient id="paint0_linear_0_1" x1="43" y1="15" x2="43" y2="70" gradientUnits="userSpaceOnUse">
<stop stop-color="#666666"/>
<stop offset="1"/>
</linearGradient>
</defs>
</svg>
