<svg width="85" height="85" viewBox="0 0 85 85" fill="none" xmlns="http://www.w3.org/2000/svg">
<path d="M34 54.032C32.1013 54.032 31.152 53.8187 31.152 53.392L30.48 40.56L26.576 53.552C26.4907 53.808 25.7653 53.936 24.4 53.936C23.0347 53.936 22.3307 53.8187 22.288 53.584L18.256 40.432L17.808 53.2C17.7867 53.52 17.3813 53.744 16.592 53.872C15.8027 53.9787 15.1413 54.032 14.608 54.032C14.096 54.032 13.5947 54 13.104 53.936C12.08 53.7867 11.5787 53.52 11.6 53.136L12.336 32.336C12.336 31.824 13.6373 31.568 16.24 31.568C17.008 31.568 17.9467 31.632 19.056 31.76C20.1653 31.8667 20.784 32.0907 20.912 32.432L24.496 42.512L27.632 32.4C27.824 31.8453 29.296 31.568 32.048 31.568C32.8373 31.568 33.776 31.632 34.864 31.76C35.9733 31.8667 36.528 32.0693 36.528 32.368L37.456 53.36C37.456 53.5947 37.04 53.7653 36.208 53.872C35.376 53.9787 34.64 54.032 34 54.032ZM46.3273 53.808C46.3273 53.9787 45.3459 54.064 43.3833 54.064C41.4419 54.064 40.4713 53.9893 40.4713 53.84V38.128C40.4713 37.9787 41.4419 37.904 43.3833 37.904C45.3459 37.904 46.3273 37.968 46.3273 38.096V53.808ZM46.3273 36.208C46.3273 36.3573 45.3459 36.432 43.3833 36.432C41.4419 36.432 40.4713 36.368 40.4713 36.24V31.632C40.4713 31.4187 41.4419 31.312 43.3833 31.312C45.3459 31.312 46.3273 31.376 46.3273 31.504V36.208ZM55.9093 53.808C55.9093 53.9573 55.1413 54.032 53.6053 54.032C51.4719 53.968 50.4053 53.8507 50.4053 53.68V43.312H49.5733C49.0186 43.312 48.6559 42.8427 48.4853 41.904C48.4426 41.6267 48.4213 41.3493 48.4213 41.072C48.4213 40.4107 48.5493 39.7493 48.8053 39.088C49.1893 38.1493 49.7866 37.68 50.5973 37.68C51.4079 37.68 52.1333 37.872 52.7733 38.256C53.4133 38.64 53.8399 39.024 54.0533 39.408C55.3973 38.256 56.9973 37.68 58.8533 37.68C60.7093 37.68 62.0533 38.1813 62.8853 39.184C63.7173 40.1867 64.1333 41.8293 64.1333 44.112V53.712C64.1333 53.968 63.2159 54.096 61.3813 54.096C59.5679 54.096 58.6613 53.968 58.6613 53.712V44.464C58.6613 43.3973 58.2879 42.864 57.5413 42.864C57.3279 42.864 57.0293 42.96 56.6453 43.152C56.2613 43.3227 56.0159 43.4507 55.9093 43.536V53.808ZM72.7023 53.808C72.7023 53.9787 71.7209 54.064 69.7583 54.064C67.8169 54.064 66.8463 53.9893 66.8463 53.84V38.128C66.8463 37.9787 67.8169 37.904 69.7583 37.904C71.7209 37.904 72.7023 37.968 72.7023 38.096V53.808ZM72.7023 36.208C72.7023 36.3573 71.7209 36.432 69.7583 36.432C67.8169 36.432 66.8463 36.368 66.8463 36.24V31.632C66.8463 31.4187 67.8169 31.312 69.7583 31.312C71.7209 31.312 72.7023 31.376 72.7023 31.504V36.208Z" fill="url(#paint0_linear_0_1)"/>
<defs>
<linearGradient id="paint0_linear_0_1" x1="42.5" y1="24" x2="42.5" y2="61" gradientUnits="userSpaceOnUse">
<stop stop-color="#666666"/>
<stop offset="1"/>
</linearGradient>
</defs>
</svg>
