<svg width="148" height="149" viewBox="0 0 148 149" fill="none" xmlns="http://www.w3.org/2000/svg">
<rect width="148" height="149" fill="white"/>
<rect x="8" y="9" width="140" height="140" fill="#7C7C7C"/>
<g filter="url(#filter0_b_0_1)">
<path d="M0 0H140V140H0V0Z" fill="url(#paint0_linear_0_1)"/>
</g>
<path d="M41.88 29.512H35.928V30.152H38.2V30.632H40.664V31.112H40.6V31.592H41.528V32.232H38.04V32.392H37.368V32.616C37.368 32.7653 37.336 32.904 37.272 33.032H39.544C39.3947 33.3307 39.1493 33.48 38.808 33.48H33.496V33.512H33.816V34.152H33.88V34.792H33.72V35.432H33.304V35.912H34.904V36.232H33.56V36.712H32.856V37.352H34.072V37.672H33.848V38.312H33.624V38.952H33.24V39.592H32.888V40.072H34.072V40.552H33.592V41.192H33.784V41.352H34.008V41.672H35.608V42.152H34.52V42.792H35V43.432H33.656V44.072H34.2V44.392H34.424V44.872H34.936V45.512H34.744V45.992H33.912V46.472H33.816V46.792H33.784V47.272H34.136V47.752H33.848V48.136C33.848 48.2427 33.8373 48.328 33.816 48.392H33.496C33.432 48.6053 33.3147 48.7653 33.144 48.872H33.208C33.1013 48.9573 32.952 49 32.76 49H26.36C26.1893 49 26.0293 48.9573 25.88 48.872H25.816C25.6667 48.7653 25.5493 48.6053 25.464 48.392H25.752C25.7307 48.328 25.72 48.2427 25.72 48.136V47.752H26.008V47.272H25.656V46.792H25.688V46.472H25.784V45.992H26.616V45.512H26.808V44.872H26.296V44.392H26.072V44.072H25.528V43.432H26.872V42.792H26.392V42.152H27.48V41.672H25.88V41.352H25.656V41.192H25.464V40.552H25.944V40.072H24.76V39.592H25.112V38.952H25.496V38.312H25.72V37.672H25.944V37.352H24.728V36.712H25.432V36.232H26.776V35.912H25.176V35.432H25.592V34.792H25.752V34.152H25.688V33.512H25.368V33.48H20.056C19.736 33.48 19.48 33.3307 19.288 33.032H17.016C16.9947 32.968 16.9733 32.904 16.952 32.84C16.9093 32.776 16.888 32.7013 16.888 32.616V32.392H17.56V32.232H21.048V31.592H20.12V31.112H20.184V30.632H17.72V30.152H15.448V29.512H21.4V29.032H18.072V28.392H18.712V27.752H19.544V27.592H20.024V27.464C20.024 27.2507 20.088 27.08 20.216 26.952H19.512C19.6827 26.7173 19.9173 26.6 20.216 26.6H38.968C39.2667 26.6 39.5013 26.7173 39.672 26.952H40.344C40.4507 27.1013 40.504 27.272 40.504 27.464V27.592H40.024V27.752H39.192V28.392H38.552V29.032H41.88V29.512ZM62.8878 47.272L63.1118 47.912H62.5678L62.6318 48.072C62.6318 48.0933 62.6318 48.1253 62.6318 48.168C62.6531 48.1893 62.6638 48.2107 62.6638 48.232H62.4718V48.296C62.4718 48.552 62.3758 48.744 62.1838 48.872H62.2158C62.1091 48.9573 61.9704 49 61.7998 49H55.8798C55.7304 49 55.6024 48.9893 55.4958 48.968C55.4104 48.9253 55.3144 48.8933 55.2078 48.872C55.0371 48.7867 54.9091 48.6907 54.8238 48.584C54.7384 48.456 54.6744 48.3387 54.6318 48.232H54.7917V48.2L54.7278 48.072L54.6638 47.912H55.2078L54.9838 47.272H54.3758L54.2798 46.952H55.5918L55.3678 46.312H54.9838L54.8878 46.088H48.0078L47.9438 46.312H47.5598L47.3358 46.952H46.9838L46.8558 47.272H46.6638L46.4398 47.912H46.4718L46.4078 48.072L46.3758 48.2L46.3438 48.232H46.1838C46.1411 48.3387 46.0771 48.456 45.9918 48.584C45.9064 48.6907 45.7784 48.7867 45.6078 48.872H46.5677C46.4824 48.8933 46.3864 48.9253 46.2798 48.968C46.1731 48.9893 46.0451 49 45.8958 49H39.9758C39.8051 49 39.6771 48.9573 39.5918 48.872H38.6318C38.4184 48.7227 38.3117 48.5307 38.3117 48.296V48.232H38.5038C38.5038 48.168 38.5144 48.1147 38.5358 48.072L38.5678 47.912H38.5358L38.7598 47.272H38.9518L39.0798 46.952H39.4318L39.6558 46.312H40.0078L40.2318 45.672H38.9838L39.1118 45.352H39.0158L39.1758 44.872H39.4958L39.5598 44.712H38.8558L39.0798 44.072H40.1678L40.2638 43.752H39.2718L39.3358 43.592H39.4958L39.7198 42.952H39.6238L39.7838 42.472H39.9118L40.1358 41.832H40.5518L40.7118 41.352L40.7758 41.192H42.3758L42.4398 41.032H42.3438L42.5038 40.552H40.7118L40.9358 39.912H41.5118L41.5758 39.752H41.2238L41.2878 39.592H42.3118L42.5358 38.952H41.2878L41.4158 38.632H41.8958L42.1198 37.992H41.8318L41.9918 37.512H42.3438L42.5677 36.872H42.4718L42.5358 36.712H41.7998L41.9278 36.392H42.6318L42.7918 35.912H42.4718L42.5038 35.752H43.0798L43.3038 35.112H42.5998L42.7598 34.632H42.4078L42.5038 34.312H40.2958L40.3918 33.992H39.9758L40.1998 33.352H39.7838L39.9758 32.872H41.2238L41.4478 32.232H44.6478L44.8078 31.752H43.2718L43.3998 31.432H44.5838L44.8078 30.792H43.7518L43.9118 30.312H44.5838L44.8078 29.672H44.7118L44.9358 29.032H44.0398L44.0718 28.872H47.1438L47.3678 28.232H47.2718L47.3358 28.072H46.2158L46.3438 27.656L46.4398 27.432H46.7598L46.9518 27.112H46.8558C46.9624 26.9627 47.1118 26.8453 47.3038 26.76C47.4958 26.6533 47.7304 26.6 48.0078 26.6H54.9518C55.2291 26.6 55.4638 26.6533 55.6558 26.76C55.8478 26.8453 55.9971 26.9627 56.1038 27.112H56.2318L56.4237 27.432H56.1038C56.1464 27.5173 56.1678 27.592 56.1678 27.656L56.3278 28.072H57.4478L57.4798 28.232H57.5758L57.7998 28.872H54.7598L54.8238 29.032H55.7198L55.9438 29.672H56.0398L56.2638 30.312H55.5918L55.7518 30.792H56.8078L57.0318 31.432H55.8478L55.9757 31.752H57.5118L57.6718 32.232H54.4718L54.6958 32.872H53.4478L53.6078 33.352H53.9918L54.2158 33.992H52.9678L53.0958 34.312H58.1838L58.2798 34.632H58.0238L58.1838 35.112H57.5438L57.7678 35.752H56.9998L57.0318 35.912H58.1838L58.3438 36.392H58.3758L58.5038 36.712H57.4478L57.5118 36.872H58.5358L58.7598 37.512H59.1118L59.2718 37.992H59.1758L59.3998 38.632H59.9118L60.0398 38.952H59.1118L59.3358 39.592H59.9758L60.0078 39.752H59.8478L59.9118 39.912H59.3358L59.5278 40.552H61.3518L61.5118 41.032H61.6078L61.6718 41.192H60.0398L60.1038 41.352H60.1358L60.2958 41.832H59.8798L60.1038 42.472H59.9438L60.1358 42.952H60.2318L60.4558 43.592H60.2958L60.3598 43.752H61.3518L61.4798 44.072H60.3598L60.5838 44.712H61.2878L61.3518 44.872H61.0318L61.2238 45.352H61.2878L61.4158 45.672H62.6638L62.8878 46.312H63.2718L63.4958 46.952H62.1838L62.2798 47.272H62.8878ZM49.5118 34.632H49.8958L49.7358 35.112H51.0478L50.8878 34.632H51.1438L51.0478 34.312H49.6078L49.5118 34.632ZM50.5678 35.752L50.4078 35.208L50.2478 35.752H50.5678ZM48.6478 39.592L48.5838 39.752H48.9358L48.9038 39.848H52.5198L52.4878 39.752H52.6478L52.6158 39.592H51.9758L51.7838 38.952H52.7118L52.6158 38.632H52.0718L51.8798 37.992H51.9758L51.8478 37.512H51.4958L51.3038 36.872H50.2798L50.2158 36.712H51.2718L51.1758 36.392H51.1438L50.9838 35.912H49.9598L49.8318 36.392H49.1278L49.0318 36.712H49.7358L49.7038 36.872H49.7998L49.6078 37.512H49.2558L49.0958 37.992H49.3838L49.1918 38.632H48.7118L48.6158 38.952H49.8638L49.6718 39.592H48.6478ZM85.796 45.832H83.012L82.692 46.312H85.316L85.028 46.632H82.852L82.692 46.792H82.98C82.724 47.048 82.468 47.2613 82.212 47.432H82.724C82.5747 47.5387 82.404 47.6453 82.212 47.752H82.052L81.764 47.912H81.828C81.7853 47.9333 81.732 47.9547 81.668 47.976C81.604 47.9973 81.5507 48.0293 81.508 48.072H81.412C81.1987 48.1573 80.9747 48.2427 80.74 48.328C80.5053 48.4133 80.26 48.488 80.004 48.552H80.068C79.7907 48.616 79.5133 48.68 79.236 48.744C78.9587 48.7867 78.6707 48.8293 78.372 48.872H78.468C78.1267 48.9147 77.764 48.9467 77.38 48.968C77.0173 48.9893 76.6333 49 76.228 49H65.284C65.092 49 64.9427 48.9573 64.836 48.872H64.708C64.6013 48.808 64.5053 48.7013 64.42 48.552H64.356C64.292 48.424 64.26 48.2853 64.26 48.136V48.072H64.356V47.912H64.292V47.752H64.452V47.432H63.94V46.792H63.652V46.632H65.828V46.312H63.172V45.832H65.956V45.192H63.652V45.032H63.62V44.712H65.316V44.392H64.132V44.072H65.188V43.592H64.26V43.112H64.836V42.952H64.356V41.992H64.132V41.672H64.292V41.192H64.1V40.712H63.556V40.392H62.884V40.072H64.58V39.912H62.308V39.752H64.452V39.592H63.876V39.432H64.228V39.112H64.004V38.632H64.036V38.152H64.164V37.992H64.26V37.672H65.028V37.032H65.54V36.552H64.356V35.912H64.132V35.592H63.748V35.112H64.26V34.472H63.428V34.312H64.324V34.152H65.412V33.832H65.892V33.672H63.46V33.192H64.356V32.712H64.228V32.392H64.26V32.072H64.164V31.592H64.1V31.432H64.644V31.272H63.62V30.792H63.972V30.632H64.1V29.832H64.26V29.672H62.468V29.512H63.268V29.032H65.06V28.552H62.372V28.392H63.236V28.072H63.46V27.432H63.396C63.396 27.2613 63.4493 27.1013 63.556 26.952H64.708C64.8787 26.7173 65.1027 26.6 65.38 26.6H76.004C76.708 26.6 77.3587 26.632 77.956 26.696C78.5747 26.76 79.1507 26.8453 79.684 26.952H78.564C78.8413 27.016 79.108 27.0907 79.364 27.176C79.6413 27.24 79.8867 27.3253 80.1 27.432H80.164C80.3987 27.5173 80.612 27.6133 80.804 27.72C80.996 27.8267 81.188 27.944 81.38 28.072H81.156C81.2413 28.1147 81.316 28.168 81.38 28.232C81.4653 28.296 81.54 28.3493 81.604 28.392H80.74L80.932 28.552H83.62C83.7053 28.6373 83.78 28.7227 83.844 28.808C83.9293 28.872 84.004 28.9467 84.068 29.032H82.276C82.34 29.1173 82.404 29.2027 82.468 29.288C82.532 29.352 82.5853 29.4267 82.628 29.512H81.828L81.924 29.672H83.716L83.812 29.832H83.652C83.716 29.9387 83.7693 30.0453 83.812 30.152C83.8547 30.2373 83.8973 30.3227 83.94 30.408C83.9827 30.472 84.0147 30.5467 84.036 30.632H83.876L83.94 30.792H83.588C83.6307 30.8773 83.6627 30.9627 83.684 31.048C83.7053 31.112 83.7267 31.1867 83.748 31.272H84.772C84.772 31.2933 84.772 31.3147 84.772 31.336C84.7933 31.3573 84.804 31.3893 84.804 31.432H84.26C84.2813 31.4747 84.292 31.528 84.292 31.592H84.356L84.452 32.072H84.548C84.548 32.1147 84.548 32.168 84.548 32.232C84.548 32.296 84.5587 32.3493 84.58 32.392C84.58 32.4347 84.58 32.488 84.58 32.552C84.58 32.616 84.5907 32.6693 84.612 32.712H84.58C84.6013 32.7973 84.612 32.8827 84.612 32.968C84.612 33.032 84.612 33.1067 84.612 33.192H84.324V33.32C84.324 33.384 84.3133 33.448 84.292 33.512C84.292 33.5547 84.292 33.608 84.292 33.672H84.868C84.868 33.6933 84.8573 33.7147 84.836 33.736C84.836 33.7573 84.836 33.7893 84.836 33.832H84.484L84.452 34.152H84.932C84.932 34.216 84.9213 34.2693 84.9 34.312H84.484C84.4627 34.3547 84.452 34.408 84.452 34.472C84.388 34.664 84.3027 34.8773 84.196 35.112H83.684L83.428 35.592H83.812C83.7693 35.6347 83.7267 35.688 83.684 35.752C83.6627 35.816 83.6307 35.8693 83.588 35.912H83.78C83.6093 36.168 83.4173 36.3813 83.204 36.552H84.42C84.2067 36.7653 84.004 36.9253 83.812 37.032H83.3C83.1507 37.16 82.9907 37.256 82.82 37.32C82.9267 37.3627 83.0333 37.416 83.14 37.48C83.268 37.544 83.3853 37.608 83.492 37.672H82.724C82.852 37.7573 83.0013 37.864 83.172 37.992H83.076L83.268 38.152H83.14L83.62 38.632H83.588C83.652 38.7173 83.716 38.8027 83.78 38.888C83.844 38.952 83.8973 39.0267 83.94 39.112H84.164L84.356 39.432H84.004L84.1 39.592H84.676C84.676 39.6133 84.6973 39.6667 84.74 39.752H82.596L82.692 39.912H84.964C84.964 39.9333 84.9853 39.9867 85.028 40.072H83.332C83.3747 40.1147 83.396 40.168 83.396 40.232C83.4173 40.296 83.4387 40.3493 83.46 40.392H84.644L84.74 40.712H84.9L84.996 41.192H84.964C84.9853 41.2773 84.996 41.3627 84.996 41.448C85.0173 41.512 85.028 41.5867 85.028 41.672H84.996V41.992H84.964V42.312H85.092C85.092 42.4187 85.0813 42.5253 85.06 42.632C85.06 42.7387 85.0493 42.8453 85.028 42.952H85.956C85.956 42.9733 85.9453 42.9947 85.924 43.016C85.924 43.0373 85.924 43.0693 85.924 43.112H85.028C85.0067 43.1973 84.996 43.2827 84.996 43.368C84.996 43.432 84.9853 43.5067 84.964 43.592H85.86L85.764 44.072H84.708L84.612 44.392H85.828L85.7 44.712H84.004C83.9827 44.7547 83.9613 44.808 83.94 44.872C83.94 44.936 83.9187 44.9893 83.876 45.032H83.908C83.908 45.0533 83.8867 45.1067 83.844 45.192H86.148C86.0627 45.4053 85.9453 45.6187 85.796 45.832ZM71.428 34.312V34.472H72.26V35.016H74.948C75.4387 35.016 75.7907 34.8347 76.004 34.472L76.1 34.312H76.516L76.58 34.152H76.068L76.164 33.832H76.516V33.672H75.94C75.9613 33.6507 75.972 33.6187 75.972 33.576C75.972 33.512 75.9613 33.448 75.94 33.384C75.94 33.32 75.9293 33.256 75.908 33.192H76.228C76.2067 33.0213 76.1427 32.8613 76.036 32.712C76.0147 32.648 75.972 32.5947 75.908 32.552C75.8653 32.488 75.8227 32.4347 75.78 32.392C75.6733 32.3067 75.5453 32.2427 75.396 32.2C75.268 32.136 75.1187 32.104 74.948 32.104H72.26V32.392H72.228V32.712H72.356V33.192H71.46V33.672H73.892V33.832H73.412V34.152H72.324V34.312H71.428ZM72.356 42.952H72.836V43.112H72.26V43.496H75.236C75.4707 43.496 75.6627 43.464 75.812 43.4C75.9827 43.3147 76.132 43.2187 76.26 43.112H77.156C77.1773 43.0693 77.1987 43.0373 77.22 43.016C77.2413 42.9947 77.2627 42.9733 77.284 42.952H76.388C76.516 42.76 76.612 42.5467 76.676 42.312H76.548C76.5693 42.2693 76.58 42.216 76.58 42.152C76.58 42.088 76.58 42.0347 76.58 41.992H76.612V41.672H76.644C76.6227 41.5867 76.6013 41.512 76.58 41.448C76.5587 41.3627 76.5267 41.2773 76.484 41.192H76.516C76.4093 40.9787 76.292 40.8187 76.164 40.712H76.004C75.8547 40.5627 75.6413 40.456 75.364 40.392H74.18C74.116 40.3707 74.0093 40.36 73.86 40.36H70.884V40.392H71.556V40.712H72.1V41.192H72.292V41.672H72.132V41.992H72.356V42.952ZM43.928 85.272H44.088V85.592H43.256V86.232H41.144C41.144 86.3173 41.1227 86.4027 41.08 86.488C41.0373 86.5733 40.9947 86.648 40.952 86.712H39.864C39.7787 86.7973 39.7147 86.8507 39.672 86.872H40.952C40.8453 86.9573 40.696 87 40.504 87H35.448C35.32 87 35.2027 86.9893 35.096 86.968C34.9893 86.9253 34.8933 86.8933 34.808 86.872H33.496C33.4107 86.8293 33.3253 86.776 33.24 86.712H34.328C34.2213 86.6267 34.136 86.5413 34.072 86.456C34.008 86.3707 33.9547 86.3067 33.912 86.264V86.232H35.992L35.576 85.592H36.408L36.184 85.272H36.024L35.704 84.792H32.024L31.576 84.152H32.056L31.64 83.512H30.52L30.392 83.352H31.864L31.544 82.872H32.216L31.896 82.392H30.584L30.168 81.752H32.184L32.088 81.592H31.032L30.84 81.272H29.848L29.432 80.632H28.888L28.792 80.472H30.264L29.944 79.992H28.28V80.472H26.68V80.632H28.856V81.272H29.176V81.592H29.208V81.752H28.28V82.392H26.776V82.872H28.536V83.352H28.216V83.512H27.832V84.152H28.536V84.792H28.824V85.272H27.512V85.592H28.632V86.232H27.224C27.224 86.3173 27.2027 86.4027 27.16 86.488C27.1173 86.5733 27.0747 86.648 27.032 86.712H28.056C27.9707 86.7973 27.9067 86.8507 27.864 86.872H26.872C26.7653 86.9573 26.616 87 26.424 87H20.632C20.4187 87 20.2587 86.9573 20.152 86.872H21.176C21.1333 86.8507 21.0693 86.7973 20.984 86.712H19.928C19.8853 86.648 19.8427 86.5733 19.8 86.488C19.7573 86.4027 19.736 86.3173 19.736 86.232H21.112V85.592H19.992V85.272H21.304V84.792H21.016V84.152H20.312V83.512H20.696V83.352H21.016V82.872H19.256V82.392H20.76V81.752H21.688V81.592H21.656V81.272H21.336V80.632H19.16V80.472H20.76V79.992H22.296V79.832H20.6V79.672H21.24V79.032H20.728V78.392H20.76V78.232H20.504V78.072H20.536V77.592H19.32V77.432H20.152V77.112H18.264V76.472H21.432V76.152H19.416V75.512H20.568V75.352H20.76V74.872H21.336V74.552H21.624V74.072H20.792V73.912H20.472V73.592H20.152V72.952H20.76V72.472H21.624V72.152H23.64V71.992H21.144V71.832H20.312V71.352H19.96V70.872H20.536V70.232H21.368V69.752H22.168V69.432H20.568V69.272H20.76V68.632H21.496V68.472H19.992V68.152H20.92V67.512H19.704V67.032H20.504V66.712H17.656V66.232H17.048V65.912H19.192V65.464C19.192 65.3787 19.2027 65.3147 19.224 65.272H21.368C21.368 65.1867 21.4107 65.08 21.496 64.952H20.92C21.0907 64.7173 21.3253 64.6 21.624 64.6H26.68C26.9147 64.6 27.1173 64.632 27.288 64.696C27.4587 64.76 27.5973 64.8453 27.704 64.952H28.28C28.3653 65.0373 28.4507 65.144 28.536 65.272H26.392C26.392 65.2933 26.392 65.304 26.392 65.304C26.4133 65.304 26.424 65.3147 26.424 65.336L26.776 65.912H24.632L24.824 66.232H25.432L25.72 66.712H28.568L28.76 67.032H27.992L28.28 67.512H29.464L29.88 68.152H28.952L29.144 68.472H30.648L30.744 68.632H30.008L30.392 69.272H30.2L30.296 69.432H31.896L32.088 69.752H31.288L31.608 70.232H30.776L31.16 70.872H30.552L30.84 71.352H31.192L31.512 71.832H32.344L32.44 71.992H32.92V71.832H33.88V71.352H32.952V70.872H33.176V70.232H33.816V69.752H34.584V69.432H33.048V68.632H34.936V68.472H34.904V68.152H32.888V67.512H33.592V67.032H34.52V66.712H32.568V66.232H35.064V65.912H34.872V65.464C34.872 65.3787 34.8827 65.3147 34.904 65.272H33.848C33.8693 65.1867 33.9227 65.08 34.008 64.952H32.92C33.0907 64.7173 33.3253 64.6 33.624 64.6H39.416C39.7147 64.6 39.9493 64.7173 40.12 64.952H41.208C41.2507 65.0373 41.2933 65.144 41.336 65.272H42.392V65.912H42.584V66.232H40.088V66.712H42.04V67.032H41.112V67.512H40.408V68.152H42.424V68.472H42.456V68.632H40.568V69.432H42.104V69.752H41.336V70.232H40.696V70.872H40.472V71.352H41.4V71.832H40.44V71.992H42.68V72.152H41.496V72.472H41.176V72.952H40.12V73.592H39.032V73.912H40.696V74.072H41.784V74.552H41.496V74.872H40.92V75.352H40.728V75.512H39.576V76.152H41.592V76.472H38.424V77.112H40.312V77.432H39.48V77.592H40.696V78.072H40.664V78.232H41.688V78.392H40.984V79.032H41.048V79.672H41.944V79.832H40.408V79.992H41.336V80.472H39.864V80.632H40.376V81.272H41.368V81.592H42.424V81.752H40.376V82.392H41.688V82.872H41.016V83.352H39.576V83.512H40.696V84.152H40.216V84.792H43.928V85.272ZM35.16 71.992H34.936L35.032 72.152H35.16V71.992ZM33.016 72.152L33.208 72.472H32.344L32.632 72.952H33.656V72.472H33.976V72.152H33.016ZM32.6 72.952H32.024L32.408 73.592H32.6V72.952ZM30.456 79.832L30.36 79.672H29.464L29.048 79.032H28.952L28.536 78.392H29.24L29.112 78.232H28.28V78.392H28.248V79.032H28.76V79.672H28.12V79.832H30.456ZM64.8315 74.712H66.4315V75.352H66.1435V75.992H65.8555V76.472H65.1835V76.632H65.4395V76.792H64.5435V77.112H66.0795V77.592H65.1515V77.752H65.1835C65.1835 77.8587 65.1728 77.9653 65.1515 78.072C65.1515 78.1787 65.1515 78.2853 65.1515 78.392H65.1195C65.0982 78.456 65.0875 78.552 65.0875 78.68V79.032H64.9275C64.9062 79.0747 64.8955 79.128 64.8955 79.192C64.8955 79.256 64.8955 79.3093 64.8955 79.352H65.2155L65.1195 79.992H64.8315C64.8102 80.0987 64.7888 80.2053 64.7675 80.312C64.7675 80.4187 64.7462 80.5253 64.7035 80.632H65.0555C65.0555 80.6533 65.0448 80.6747 65.0235 80.696C65.0235 80.7173 65.0235 80.7493 65.0235 80.792H65.5035C65.5035 80.8133 65.4928 80.8347 65.4715 80.856C65.4715 80.8773 65.4715 80.9093 65.4715 80.952H64.8955C64.8742 81.0373 64.8528 81.1227 64.8315 81.208C64.8102 81.272 64.7888 81.3467 64.7675 81.432H64.6715L64.4795 81.912H64.1275C64.1062 81.9973 64.0742 82.0827 64.0315 82.168C63.9888 82.232 63.9462 82.3067 63.9035 82.392H64.1915C64.1488 82.4987 64.0955 82.6053 64.0315 82.712H63.8395C63.8182 82.7973 63.7755 82.8827 63.7115 82.968C63.6688 83.032 63.6262 83.1067 63.5835 83.192H64.5755L64.3515 83.512H63.1675L62.8155 83.992H63.1675L62.7195 84.472H63.0715C63.0502 84.4933 63.0182 84.5147 62.9755 84.536C62.9542 84.5573 62.9328 84.5893 62.9115 84.632H63.2955C63.2315 84.6747 63.1675 84.728 63.1035 84.792C63.0608 84.856 63.0075 84.9093 62.9435 84.952H62.3355C62.2715 84.9947 62.2075 85.048 62.1435 85.112C62.0795 85.176 62.0048 85.2293 61.9195 85.272H62.1435C62.0795 85.3147 62.0048 85.368 61.9195 85.432C61.8555 85.496 61.7808 85.5493 61.6955 85.592H61.6315C61.4395 85.6987 61.2475 85.8053 61.0555 85.912C60.8635 86.0187 60.6608 86.1253 60.4475 86.232H60.3515C60.2875 86.2533 60.2235 86.2747 60.1595 86.296C60.0955 86.3173 60.0315 86.3493 59.9675 86.392C59.8182 86.456 59.6688 86.52 59.5195 86.584C59.3915 86.6267 59.2422 86.6693 59.0715 86.712H59.0395C58.3355 86.9253 57.5675 87.0853 56.7355 87.192H56.7675C56.4262 87.2347 56.0635 87.2667 55.6795 87.288C55.3168 87.3093 54.9542 87.32 54.5915 87.32C54.2075 87.32 53.8342 87.3093 53.4715 87.288C53.1088 87.2667 52.7462 87.2347 52.3835 87.192C51.5728 87.1067 50.7942 86.9467 50.0475 86.712H50.0795C49.9302 86.6693 49.7808 86.6267 49.6315 86.584C49.4822 86.52 49.3328 86.456 49.1835 86.392H49.1515C49.0875 86.3493 49.0235 86.3173 48.9595 86.296C48.8955 86.2747 48.8315 86.2533 48.7675 86.232H48.8635C48.6502 86.1253 48.4475 86.0187 48.2555 85.912C48.0635 85.8053 47.8715 85.6987 47.6795 85.592H47.7435L47.2635 85.272H47.0715C46.9862 85.2293 46.9115 85.176 46.8475 85.112C46.7835 85.048 46.7195 84.9947 46.6555 84.952H47.2635L46.8795 84.632H46.4955C46.4742 84.5893 46.4528 84.5573 46.4315 84.536C46.4102 84.5147 46.3782 84.4933 46.3355 84.472H46.0155C45.9302 84.3867 45.8448 84.312 45.7595 84.248C45.6955 84.1627 45.6315 84.0773 45.5675 83.992H45.2155L44.8315 83.512H46.0155L45.8235 83.192H44.7995C44.7568 83.1067 44.7142 83.032 44.6715 82.968C44.6288 82.8827 44.5862 82.7973 44.5435 82.712H44.7355C44.6715 82.6053 44.6182 82.4987 44.5755 82.392H44.2875C44.2448 82.3067 44.2022 82.232 44.1595 82.168C44.1382 82.0827 44.1062 81.9973 44.0635 81.912H44.4475L44.2555 81.432H44.3515C44.3302 81.3467 44.3088 81.272 44.2875 81.208C44.2662 81.1227 44.2448 81.0373 44.2235 80.952H44.5755C44.5542 80.9093 44.5435 80.856 44.5435 80.792H44.2235C44.2235 80.7493 44.2128 80.7173 44.1915 80.696C44.1915 80.6747 44.1915 80.6533 44.1915 80.632H44.1275C44.1062 80.5253 44.0848 80.4187 44.0635 80.312C44.0422 80.2053 44.0208 80.0987 43.9995 79.992H44.1595C44.1382 79.8853 44.1168 79.7787 44.0955 79.672C44.0955 79.5653 44.0955 79.4587 44.0955 79.352H43.9035L43.8715 79.032H44.0955V78.68C44.0955 78.6373 44.0848 78.5947 44.0635 78.552C44.0635 78.488 44.0635 78.4347 44.0635 78.392H43.6475C43.6262 78.2853 43.6155 78.1787 43.6155 78.072C43.6155 77.9653 43.6155 77.8587 43.6155 77.752H43.8395V77.592H43.7435V77.112H44.3835V76.792H43.2635V76.632H43.8715V76.472H43.8395V75.992H43.6795V75.352H43.8715V74.712H43.6475V74.232H42.4635V73.592H43.8395C43.8608 73.5493 43.8715 73.496 43.8715 73.432H44.3835V73.272H43.9995V72.952H44.0315L44.0955 72.312H44.0315C44.0315 72.2267 44.0315 72.152 44.0315 72.088C44.0528 72.0027 44.0742 71.9173 44.0955 71.832H43.9995C43.9995 71.7467 43.9995 71.672 43.9995 71.608C44.0208 71.5227 44.0422 71.4373 44.0635 71.352H43.9995C44.0208 71.2667 44.0422 71.192 44.0635 71.128C44.0848 71.0427 44.1062 70.9573 44.1275 70.872H43.2315C43.2315 70.8293 43.2315 70.7973 43.2315 70.776C43.2528 70.7547 43.2635 70.7333 43.2635 70.712H44.2235L44.3195 70.392H44.2555L44.3195 70.232H44.7995C44.8208 70.1893 44.8422 70.136 44.8635 70.072C44.8848 70.008 44.9062 69.9547 44.9275 69.912H44.6075C44.6715 69.72 44.7568 69.5067 44.8635 69.272H44.7675C44.8315 69.1653 44.8848 69.0587 44.9275 68.952C44.9915 68.824 45.0555 68.7173 45.1195 68.632H45.2155L45.3115 68.472H44.7995L44.8955 68.312H45.4075L45.5035 68.152H45.4395L45.8235 67.672H45.5995L46.0155 67.192C46.1222 67.0853 46.2288 66.9787 46.3355 66.872C46.4635 66.744 46.5915 66.6373 46.7195 66.552H46.3995L46.5915 66.392H46.2395C46.2822 66.3493 46.3142 66.3173 46.3355 66.296C46.3782 66.2747 46.4208 66.2533 46.4635 66.232H47.2635C47.3488 66.1893 47.4342 66.136 47.5195 66.072C47.6048 66.008 47.6902 65.9547 47.7755 65.912H47.8715C48.0848 65.8053 48.2982 65.6987 48.5115 65.592C48.7248 65.464 48.9382 65.3573 49.1515 65.272H49.2475C49.6742 65.08 50.1435 64.92 50.6555 64.792H50.8155C51.4342 64.6213 52.0848 64.4933 52.7675 64.408C53.4502 64.3227 54.1542 64.28 54.8795 64.28C56.3942 64.28 57.7382 64.4507 58.9115 64.792H58.7195C58.9542 64.856 59.1888 64.9307 59.4235 65.016C59.6582 65.08 59.8822 65.1653 60.0955 65.272H59.9675C60.2022 65.3573 60.4155 65.464 60.6075 65.592C60.8208 65.6987 61.0342 65.8053 61.2475 65.912H61.1195L61.5995 66.232H60.7995C60.8422 66.2533 60.8742 66.2747 60.8955 66.296C60.9382 66.3173 60.9808 66.3493 61.0235 66.392H61.3755C61.4182 66.4133 61.4608 66.4347 61.5035 66.456C61.5462 66.4773 61.5782 66.5093 61.5995 66.552H61.9195C62.0475 66.6373 62.1648 66.744 62.2715 66.872C62.3995 66.9787 62.5168 67.0853 62.6235 67.192H62.6555C62.7408 67.2773 62.8155 67.3627 62.8795 67.448C62.9435 67.512 63.0075 67.5867 63.0715 67.672H63.2955L63.6795 68.152H63.7435C63.8075 68.216 63.8502 68.2693 63.8715 68.312H63.3595L63.4555 68.472H63.9995L64.0955 68.632H63.9995C64.0635 68.7173 64.1168 68.824 64.1595 68.952C64.2235 69.0587 64.2875 69.1653 64.3515 69.272H64.4475L64.7355 69.912H65.0555L65.1515 70.232H64.6715L64.7355 70.392H64.7995L64.8955 70.712H64.7995C64.7995 70.7333 64.7995 70.7547 64.7995 70.776C64.8208 70.7973 64.8315 70.8293 64.8315 70.872H63.4875C63.5302 70.9573 63.5515 71.0427 63.5515 71.128C63.5728 71.192 63.5942 71.2667 63.6155 71.352H65.2795C65.3008 71.4373 65.3115 71.5227 65.3115 71.608C65.3328 71.672 65.3435 71.7467 65.3435 71.832H64.8955C64.9168 71.9173 64.9275 72.0027 64.9275 72.088C64.9488 72.152 64.9595 72.2267 64.9595 72.312H65.3755L65.4395 72.952H65.0235V73.048C65.0235 73.0693 65.0235 73.1013 65.0235 73.144C65.0448 73.1867 65.0555 73.2293 65.0555 73.272H65.9195V73.432H65.1515C65.1728 73.4747 65.1835 73.528 65.1835 73.592H65.7595C65.7808 73.6987 65.7915 73.8053 65.7915 73.912C65.7915 74.0187 65.7915 74.1253 65.7915 74.232H64.8315V74.712ZM57.8235 75.352H58.1115V74.712H56.5115V74.232H57.4715C57.4715 74.1253 57.4715 74.0187 57.4715 73.912C57.4715 73.8053 57.4608 73.6987 57.4395 73.592H56.8635C56.8635 73.5493 56.8528 73.5173 56.8315 73.496C56.8315 73.4747 56.8315 73.4533 56.8315 73.432H57.5995V73.272H56.7355C56.7355 73.2293 56.7248 73.1973 56.7035 73.176C56.7035 73.1547 56.7035 73.1333 56.7035 73.112V72.952H57.0875C57.0875 72.8453 57.0768 72.7387 57.0555 72.632C57.0555 72.504 57.0448 72.3973 57.0235 72.312H56.6075C56.5862 72.2267 56.5648 72.152 56.5435 72.088C56.5222 72.0027 56.4902 71.9173 56.4475 71.832H56.8955C56.8315 71.6613 56.7462 71.5013 56.6395 71.352H54.9755C54.8688 71.1813 54.6982 71.0213 54.4635 70.872H55.8075C55.6795 70.7867 55.5835 70.7333 55.5195 70.712H55.6155C55.2955 70.584 54.9435 70.52 54.5595 70.52C54.1755 70.52 53.8235 70.584 53.5035 70.712H52.5755C52.4902 70.7333 52.3835 70.7867 52.2555 70.872H53.1515C52.9808 70.9787 52.8102 71.1387 52.6395 71.352H52.7035C52.5968 71.5013 52.5115 71.6613 52.4475 71.832H52.5435C52.5222 71.9173 52.5008 72.0027 52.4795 72.088C52.4582 72.152 52.4262 72.2267 52.3835 72.312H52.4475C52.4262 72.3973 52.4048 72.504 52.3835 72.632C52.3835 72.7387 52.3835 72.8453 52.3835 72.952H52.3195V73.272H52.7035V73.432H52.1915V73.592H50.7835V74.232H51.9675V74.712H52.1915V75.352H51.9995V75.992H52.1595V76.472H52.1915C52.1915 76.536 52.2022 76.5893 52.2235 76.632H51.5835V76.792H52.7035V77.112H52.0635V77.592H52.1595V77.752H51.9355C51.9355 77.8587 51.9355 77.9653 51.9355 78.072C51.9568 78.1787 51.9675 78.2853 51.9675 78.392H52.4155V78.488C52.4155 78.5733 52.4155 78.6693 52.4155 78.776C52.4155 78.8613 52.4262 78.9467 52.4475 79.032H52.2235C52.2448 79.0747 52.2555 79.128 52.2555 79.192C52.2555 79.256 52.2662 79.3093 52.2875 79.352H52.4795C52.5008 79.4587 52.5328 79.5653 52.5755 79.672C52.6182 79.7787 52.6608 79.8853 52.7035 79.992H52.5435C52.6715 80.2267 52.8422 80.44 53.0555 80.632H53.1195C53.1622 80.6533 53.2048 80.6853 53.2475 80.728C53.2902 80.7493 53.3328 80.7707 53.3755 80.792H53.6635C53.7275 80.8133 53.7915 80.8453 53.8555 80.888C53.9195 80.9093 53.9835 80.9307 54.0475 80.952H53.6635C53.9195 81.0373 54.2182 81.08 54.5595 81.08C54.9008 81.08 55.1995 81.0373 55.4555 80.952H55.9995C56.0635 80.9307 56.1275 80.9093 56.1915 80.888C56.2555 80.8453 56.3195 80.8133 56.3835 80.792H55.8715C55.9142 80.7707 55.9568 80.7493 55.9995 80.728C56.0422 80.6853 56.0848 80.6533 56.1275 80.632H55.7755C55.9675 80.4827 56.1382 80.2693 56.2875 79.992H56.5755C56.6822 79.7573 56.7675 79.544 56.8315 79.352H56.5115C56.5328 79.3093 56.5435 79.256 56.5435 79.192C56.5435 79.128 56.5542 79.0747 56.5755 79.032H56.7355C56.7568 78.9467 56.7675 78.8613 56.7675 78.776C56.7675 78.6693 56.7675 78.5733 56.7675 78.488V78.392H56.8315C56.8315 78.2853 56.8315 78.1787 56.8315 78.072C56.8315 77.9653 56.8422 77.8587 56.8635 77.752H56.8315V77.592H57.7595V77.112H56.2235V76.792H57.1195V76.632H56.8635V76.472H57.5355V75.992H57.8235V75.352ZM89.0988 67.512H83.1468V68.152H85.4188V68.632H87.8828V69.112H87.8188V69.592H88.7468V70.232H85.2588V70.392H84.5868V70.616C84.5868 70.7653 84.5548 70.904 84.4908 71.032H86.7628C86.6134 71.3307 86.3681 71.48 86.0268 71.48H80.7148V71.512H81.0348V72.152H81.0988V72.792H80.9388V73.432H80.5228V73.912H82.1228V74.232H80.7788V74.712H80.0748V75.352H81.2908V75.672H81.0668V76.312H80.8428V76.952H80.4588V77.592H80.1068V78.072H81.2908V78.552H80.8108V79.192H81.0028V79.352H81.2268V79.672H82.8268V80.152H81.7388V80.792H82.2188V81.432H80.8748V82.072H81.4188V82.392H81.6428V82.872H82.1548V83.512H81.9628V83.992H81.1308V84.472H81.0348V84.792H81.0028V85.272H81.3548V85.752H81.0668V86.136C81.0668 86.2427 81.0561 86.328 81.0348 86.392H80.7148C80.6508 86.6053 80.5334 86.7653 80.3628 86.872H80.4268C80.3201 86.9573 80.1708 87 79.9788 87H73.5788C73.4081 87 73.2481 86.9573 73.0988 86.872H73.0348C72.8854 86.7653 72.7681 86.6053 72.6828 86.392H72.9708C72.9494 86.328 72.9388 86.2427 72.9388 86.136V85.752H73.2268V85.272H72.8748V84.792H72.9068V84.472H73.0028V83.992H73.8348V83.512H74.0268V82.872H73.5148V82.392H73.2908V82.072H72.7468V81.432H74.0908V80.792H73.6108V80.152H74.6988V79.672H73.0988V79.352H72.8748V79.192H72.6828V78.552H73.1628V78.072H71.9788V77.592H72.3308V76.952H72.7148V76.312H72.9388V75.672H73.1628V75.352H71.9468V74.712H72.6508V74.232H73.9948V73.912H72.3948V73.432H72.8108V72.792H72.9708V72.152H72.9068V71.512H72.5868V71.48H67.2747C66.9548 71.48 66.6988 71.3307 66.5068 71.032H64.2347C64.2134 70.968 64.1921 70.904 64.1707 70.84C64.1281 70.776 64.1068 70.7013 64.1068 70.616V70.392H64.7787V70.232H68.2668V69.592H67.3388V69.112H67.4028V68.632H64.9387V68.152H62.6667V67.512H68.6188V67.032H65.2907V66.392H65.9307V65.752H66.7628V65.592H67.2428V65.464C67.2428 65.2507 67.3068 65.08 67.4348 64.952H66.7308C66.9014 64.7173 67.1361 64.6 67.4348 64.6H86.1868C86.4854 64.6 86.7201 64.7173 86.8908 64.952H87.5628C87.6694 65.1013 87.7228 65.272 87.7228 65.464V65.592H87.2428V65.752H86.4108V66.392H85.7708V67.032H89.0988V67.512ZM109.765 81.432H112.293V81.912H107.429V82.552H110.565V83.192H107.813V83.832H108.165V84.312H107.941V84.632H107.269V84.952H107.237V85.272H107.909V85.912H108.837V86.136C108.837 86.1787 108.827 86.2107 108.805 86.232H103.109C103.088 86.2747 103.077 86.328 103.077 86.392H105.285C105.221 86.6053 105.104 86.7653 104.933 86.872H104.325C104.219 86.9573 104.069 87 103.877 87H87.2052C87.0346 87 86.8746 86.9573 86.7253 86.872H87.3332C87.1839 86.7653 87.0666 86.6053 86.9812 86.392H84.7412C84.7199 86.3493 84.7092 86.296 84.7092 86.232H90.4373V85.912H89.5093V85.272H88.8372V84.952H88.8693V84.632H89.5413V84.312H89.7653V83.832H89.4133V83.192H92.1653V82.552H89.0293V81.912H93.8933V81.432H91.3653V81.112H92.1013V80.792H92.4213V80.472H88.8693V80.152H88.0373V79.672H91.0133V79.512H88.6453V79.192H89.3493V78.872H89.8613V78.392H89.7973V77.752H89.4773V77.112H88.9973V76.792H89.3813V76.152H89.0293V75.832H89.5413V75.352H89.6693V74.872H90.2453V74.712H89.7013V74.072H89.2213V73.592H89.3493V73.112H89.4133V72.472H89.8932V71.832H89.1893V71.192H89.2853V70.552H90.1813V70.072H89.7013V69.592H89.4453V69.432H90.7893V68.952H93.1573V68.632H92.1973V68.312H89.0933V68.152H89.4453V67.672H89.4773V67.192H89.5733V66.552H89.5413V65.752H89.4773V65.464C89.4773 65.3787 89.4879 65.3147 89.5093 65.272H89.1893C89.2746 64.824 89.5519 64.6 90.0213 64.6H106.437C106.928 64.6 107.205 64.824 107.269 65.272H107.589C107.611 65.3147 107.621 65.3787 107.621 65.464V65.752H107.685V66.552H107.717V67.192H107.621V67.672H107.589V68.152H107.237V68.312H110.341V68.632H111.301V68.952H108.933V69.432H107.589V69.592H107.845V70.072H108.325C108.283 70.2853 108.208 70.4453 108.101 70.552H107.205C107.056 70.744 106.843 70.84 106.565 70.84H96.9653V71.192H96.8693V71.832H97.5733V72.472H97.0933V72.856H105.989C106.224 72.856 106.427 72.9413 106.597 73.112H106.533C106.64 73.2187 106.715 73.3787 106.757 73.592H106.661V74.072H107.141V74.712H107.685V74.872H107.109V75.352H106.981V75.832H106.469V76.152H106.821V76.792H106.437V77.112H106.917V77.752H107.237V77.88C107.237 78.1147 107.184 78.2853 107.077 78.392H107.141C106.971 78.6267 106.736 78.744 106.437 78.744H97.5413V78.872H97.0293V79.192H96.3253V79.512H98.6933V79.672H95.7173V80.152H96.5493V80.472H100.101V80.76H109.957C110.064 80.76 110.149 80.7707 110.213 80.792H109.861C110.075 80.856 110.235 80.9627 110.341 81.112H109.605C109.691 81.24 109.744 81.3467 109.765 81.432Z" fill="black"/>
<path d="M16 118V100.3H16.9V118H16ZM17.8 118V100.3H18.7V118H17.8ZM19.6 118V100.3H22.3V118H19.6ZM23.2 118V100.3H25.9V118H23.2ZM28.6 118V100.3H29.5V118H28.6ZM30.4141 118V100.3H33.1141V118H30.4141ZM34.0141 118V100.3H34.9141V118H34.0141ZM35.8141 118V100.3H36.7141V118H35.8141ZM39.4141 118V100.3H40.3141V118H39.4141ZM41.2141 118V100.3H43.9141V118H41.2141ZM44.8281 118V100.3H45.7281V118H44.8281ZM46.6281 118V100.3H49.3281V118H46.6281ZM50.2281 118V100.3H51.1281V118H50.2281ZM53.8281 118V100.3H54.7281V118H53.8281ZM55.6281 118V100.3H58.3281V118H55.6281ZM59.2422 118V100.3H60.1422V118H59.2422ZM62.8422 118V100.3H65.5422V118H62.8422ZM66.4422 118V100.3H67.3422V118H66.4422ZM68.2422 118V100.3H70.9422V118H68.2422ZM71.8422 118V100.3H72.7422V118H71.8422ZM73.6562 118V100.3H74.5563V118H73.6562ZM75.4563 118V100.3H76.3563V118H75.4563ZM77.2563 118V100.3H79.9563V118H77.2563ZM80.8563 118V100.3H81.7563V118H80.8563ZM84.4563 118V100.3H87.1563V118H84.4563ZM88.0703 118V100.3H90.7703V118H88.0703ZM91.6703 118V100.3H92.5703V118H91.6703ZM93.4703 118V100.3H96.1703V118H93.4703ZM97.0703 118V100.3H97.9703V118H97.0703ZM100.67 118V100.3H101.57V118H100.67ZM102.484 118V100.3H103.384V118H102.484ZM104.284 118V100.3H105.184V118H104.284ZM106.084 118V100.3H108.784V118H106.084ZM109.684 118V100.3H112.384V118H109.684ZM115.084 118V100.3H115.984V118H115.084ZM116.898 118V100.3H119.598V118H116.898ZM120.498 118V100.3H121.398V118H120.498ZM122.298 118V100.3H124.998V118H122.298ZM127.698 118V100.3H128.598V118H127.698ZM129.498 118V100.3H130.398V118H129.498Z" fill="black"/>
<defs>
<filter id="filter0_b_0_1" x="-4" y="-4" width="148" height="148" filterUnits="userSpaceOnUse" color-interpolation-filters="sRGB">
<feFlood flood-opacity="0" result="BackgroundImageFix"/>
<feGaussianBlur in="BackgroundImageFix" stdDeviation="2"/>
<feComposite in2="SourceAlpha" operator="in" result="effect1_backgroundBlur_0_1"/>
<feBlend mode="normal" in="SourceGraphic" in2="effect1_backgroundBlur_0_1" result="shape"/>
</filter>
<linearGradient id="paint0_linear_0_1" x1="24" y1="83" x2="123" y2="40" gradientUnits="userSpaceOnUse">
<stop stop-color="#89F8FF"/>
<stop offset="1" stop-color="#FFA5EB"/>
</linearGradient>
</defs>
</svg>
