<svg width="395" height="112" viewBox="0 0 395 112" fill="none" xmlns="http://www.w3.org/2000/svg">
<rect width="395" height="112" rx="17" fill="url(#paint0_linear_82_4)"/>
<path d="M86.5156 84.8477C86.5156 84.6289 86.5898 84.4453 86.7383 84.2969C86.8945 84.1406 87.082 84.0625 87.3008 84.0625H94.1211C94.3398 84.0625 94.5273 84.1367 94.6836 84.2852C94.832 84.4414 94.9062 84.6289 94.9062 84.8477C94.9062 85.0664 94.8281 85.2539 94.6719 85.4102C94.5234 85.5586 94.3398 85.6328 94.1211 85.6328H91.5078V90.3789C91.4609 90.8477 91.2031 91.1016 90.7344 91.1406C90.5156 91.1406 90.3242 91.0703 90.1602 90.9297C90.0039 90.7812 89.9258 90.5977 89.9258 90.3789V85.6328H87.3008C87.082 85.6328 86.8984 85.5547 86.75 85.3984C86.5938 85.25 86.5156 85.0664 86.5156 84.8477ZM102.688 90.3555V87.5312C102.688 87.3359 102.586 87.2344 102.383 87.2266H98.2812C98.1328 87.2344 98.0039 87.3008 97.8945 87.4258C97.7852 87.543 97.7031 87.6836 97.6484 87.8477C97.6016 88.0039 97.5781 88.1641 97.5781 88.3281C97.5781 88.4844 97.6016 88.6445 97.6484 88.8086C97.7031 88.9648 97.7852 89.1055 97.8945 89.2305C98.0039 89.3477 98.1328 89.4062 98.2812 89.4062H101.281C101.5 89.4062 101.684 89.4844 101.832 89.6406C101.988 89.7891 102.066 89.9727 102.066 90.1914C102.066 90.4102 101.988 90.5938 101.832 90.7422C101.684 90.8984 101.5 90.9766 101.281 90.9766H98.3281C97.7812 90.9688 97.3281 90.8164 96.9688 90.5195C96.6172 90.2148 96.3633 89.875 96.207 89.5C96.0586 89.1172 95.9844 88.7227 95.9844 88.3164C95.9844 87.9258 96.0625 87.543 96.2188 87.168C96.375 86.7852 96.6289 86.4453 96.9805 86.1484C97.332 85.8438 97.8516 85.6797 98.5391 85.6562H103.461C103.68 85.6562 103.867 85.7305 104.023 85.8789C104.18 86.0195 104.262 86.1992 104.27 86.418V90.3555C104.27 90.5742 104.188 90.7578 104.023 90.9062C103.867 91.0469 103.68 91.1172 103.461 91.1172C102.992 91.0781 102.734 90.8242 102.688 90.3555ZM107.363 84.6367V89.1016C107.363 89.2969 107.465 89.3984 107.668 89.4062H111.77C111.918 89.3984 112.047 89.3359 112.156 89.2188C112.266 89.0938 112.344 88.9531 112.391 88.7969C112.445 88.6328 112.473 88.4688 112.473 88.3047C112.473 88.1484 112.445 87.9922 112.391 87.8359C112.344 87.6719 112.266 87.5312 112.156 87.4141C112.047 87.2891 111.918 87.2266 111.77 87.2266H108.77C108.551 87.2266 108.363 87.1523 108.207 87.0039C108.059 86.8477 107.984 86.6602 107.984 86.4414C107.984 86.2227 108.062 86.0391 108.219 85.8906C108.367 85.7344 108.551 85.6562 108.77 85.6562H111.723C112.27 85.6641 112.719 85.8203 113.07 86.125C113.43 86.4219 113.684 86.7617 113.832 87.1445C113.988 87.5195 114.066 87.9102 114.066 88.3164C114.066 88.707 113.988 89.0938 113.832 89.4766C113.676 89.8516 113.422 90.1914 113.07 90.4961C112.719 90.793 112.199 90.9531 111.512 90.9766H106.59C106.371 90.9766 106.184 90.9062 106.027 90.7656C105.871 90.6172 105.789 90.4336 105.781 90.2148V84.6367C105.781 84.418 105.859 84.2383 106.016 84.0977C106.18 83.9492 106.371 83.875 106.59 83.875C107.059 83.9141 107.316 84.168 107.363 84.6367ZM119.07 83.7461C119.477 83.7461 119.875 83.793 120.266 83.8867C120.664 83.9805 121.043 84.1211 121.402 84.3086C121.762 84.4883 122.078 84.7305 122.352 85.0352C122.633 85.3398 122.785 85.7031 122.809 86.125V86.6172V90.3555C122.762 90.8242 122.504 91.0781 122.035 91.1172C121.816 91.1172 121.625 91.0469 121.461 90.9062C121.305 90.7578 121.227 90.5742 121.227 90.3555V86.4883C121.211 86.2461 121.117 86.0469 120.945 85.8906C120.781 85.7266 120.594 85.5977 120.383 85.5039C120.18 85.4102 119.965 85.3398 119.738 85.293C119.52 85.2461 119.297 85.2227 119.07 85.2227C118.844 85.2227 118.617 85.2461 118.391 85.293C118.172 85.3398 117.957 85.4102 117.746 85.5039C117.543 85.5977 117.355 85.7266 117.184 85.8906C117.02 86.0469 116.93 86.2461 116.914 86.4883V90.3555C116.875 90.8242 116.621 91.0781 116.152 91.1172C115.934 91.1172 115.742 91.0469 115.578 90.9062C115.422 90.7578 115.344 90.5742 115.344 90.3555V86.6172V86.125C115.367 85.7031 115.516 85.3398 115.789 85.0352C116.062 84.7305 116.379 84.4883 116.738 84.3086C117.098 84.1211 117.473 83.9805 117.863 83.8867C118.262 83.793 118.664 83.7461 119.07 83.7461ZM126.711 90.9766C126.023 90.9531 125.504 90.793 125.152 90.4961C124.801 90.1914 124.547 89.8516 124.391 89.4766C124.234 89.0938 124.156 88.707 124.156 88.3164C124.156 87.9102 124.23 87.5195 124.379 87.1445C124.535 86.7617 124.789 86.4219 125.141 86.125C125.5 85.8203 125.953 85.6641 126.5 85.6562H130.297C130.844 85.6641 131.293 85.8203 131.645 86.125C132.004 86.4219 132.258 86.7617 132.406 87.1445C132.562 87.5195 132.641 87.9102 132.641 88.3164C132.641 88.707 132.562 89.0938 132.406 89.4766C132.25 89.8516 131.996 90.1914 131.645 90.4961C131.293 90.793 130.773 90.9531 130.086 90.9766H126.711ZM126.453 87.2266C126.305 87.2266 126.176 87.2891 126.066 87.4141C125.957 87.5312 125.875 87.6719 125.82 87.8359C125.773 87.9922 125.75 88.1484 125.75 88.3047C125.75 88.4688 125.773 88.6328 125.82 88.7969C125.875 88.9531 125.957 89.0938 126.066 89.2188C126.176 89.3359 126.305 89.3984 126.453 89.4062H130.344C130.492 89.3984 130.621 89.3359 130.73 89.2188C130.84 89.0938 130.918 88.9531 130.965 88.7969C131.02 88.6328 131.047 88.4688 131.047 88.3047C131.047 88.1484 131.02 87.9922 130.965 87.8359C130.918 87.6719 130.84 87.5312 130.73 87.4141C130.621 87.2891 130.492 87.2266 130.344 87.2266H126.453ZM136.531 83.875C136.75 83.875 136.938 83.9492 137.094 84.0977C137.25 84.2383 137.332 84.418 137.34 84.6367V85.6562H141.324C141.543 85.6562 141.73 85.7305 141.887 85.8789C142.035 86.0352 142.109 86.2227 142.109 86.4414C142.109 86.6602 142.031 86.8477 141.875 87.0039C141.727 87.1523 141.543 87.2266 141.324 87.2266H137.34V87.4609C137.332 87.7812 137.352 88.0781 137.398 88.3516C137.453 88.6172 137.578 88.8555 137.773 89.0664C137.969 89.2773 138.215 89.3906 138.512 89.4062H141.371C141.59 89.4141 141.77 89.4961 141.91 89.6523C142.059 89.8086 142.133 89.9961 142.133 90.2148C142.125 90.4258 142.047 90.6055 141.898 90.7539C141.758 90.8945 141.582 90.9688 141.371 90.9766H138.113C137.566 90.9453 137.113 90.7617 136.754 90.4258C136.402 90.082 136.148 89.6641 135.992 89.1719C135.844 88.6797 135.766 88.1562 135.758 87.6016V87.2266H134.41C134.191 87.2266 134.008 87.1484 133.859 86.9922C133.703 86.8438 133.625 86.6602 133.625 86.4414C133.625 86.2227 133.699 86.0391 133.848 85.8906C134.004 85.7344 134.191 85.6562 134.41 85.6562H135.758V84.6367C135.766 84.4258 135.844 84.25 135.992 84.1094C136.141 83.9609 136.32 83.8828 136.531 83.875ZM145.66 90.9766C144.973 90.9531 144.453 90.793 144.102 90.4961C143.75 90.1914 143.496 89.8516 143.34 89.4766C143.184 89.0938 143.105 88.707 143.105 88.3164C143.105 87.9102 143.18 87.5195 143.328 87.1445C143.484 86.7617 143.738 86.4219 144.09 86.125C144.449 85.8203 144.902 85.6641 145.449 85.6562H149.902C150.121 85.6562 150.305 85.7305 150.453 85.8789C150.609 86.0195 150.688 86.1914 150.688 86.3945C150.688 86.6055 150.609 86.7852 150.453 86.9336C150.305 87.0742 150.121 87.1445 149.902 87.1445H145.52C145.348 87.1445 145.195 87.2031 145.062 87.3203C144.938 87.4375 144.844 87.5898 144.781 87.7773C144.727 87.9648 144.699 88.1484 144.699 88.3281C144.699 88.5234 144.727 88.7148 144.781 88.9023C144.844 89.0898 144.938 89.2422 145.062 89.3594C145.195 89.4688 145.348 89.5273 145.52 89.5352H149.902C150.121 89.5352 150.305 89.6055 150.453 89.7461C150.609 89.8867 150.688 90.0547 150.688 90.25C150.688 90.4531 150.609 90.625 150.453 90.7656C150.305 90.9062 150.121 90.9766 149.902 90.9766H145.66ZM150.547 88.293C150.547 88.4414 150.48 88.5703 150.348 88.6797C150.23 88.7812 150.082 88.832 149.902 88.832H146.07C145.891 88.832 145.738 88.7812 145.613 88.6797C145.488 88.5703 145.426 88.4414 145.426 88.293C145.426 88.1523 145.488 88.0273 145.613 87.918C145.738 87.8164 145.891 87.7656 146.07 87.7656H149.902C150.082 87.7656 150.234 87.8203 150.359 87.9297C150.484 88.0312 150.547 88.1523 150.547 88.293ZM160.273 90.3555C159.914 89.8164 159.555 89.1094 159.195 88.2344L157.906 84.9062C157.867 84.8203 157.844 84.7266 157.836 84.625C157.82 84.4062 157.883 84.2188 158.023 84.0625C158.172 83.9062 158.359 83.8281 158.586 83.8281C158.828 83.8281 159.008 83.8828 159.125 83.9922C159.25 84.0938 159.352 84.2266 159.43 84.3906L160.543 87.4375C160.668 87.7578 160.789 88.0625 160.906 88.3516C161.031 88.6328 161.168 88.8906 161.316 89.125C161.465 89.3594 161.633 89.4844 161.82 89.5C162 89.4844 162.16 89.3594 162.301 89.125C162.457 88.8906 162.594 88.6328 162.711 88.3516C162.836 88.0625 162.961 87.7578 163.086 87.4375L164.176 84.3906C164.254 84.2266 164.352 84.0938 164.469 83.9922C164.594 83.8828 164.785 83.8281 165.043 83.8281C165.27 83.8281 165.453 83.9062 165.594 84.0625C165.742 84.2188 165.809 84.4062 165.793 84.625C165.785 84.7266 165.762 84.8203 165.723 84.9062L164.434 88.2344C164.074 89.125 163.715 89.8359 163.355 90.3672C163.004 90.8906 162.492 91.1562 161.82 91.1641C161.141 91.1562 160.625 90.8867 160.273 90.3555ZM169.402 90.9766C168.715 90.9531 168.195 90.793 167.844 90.4961C167.492 90.1914 167.238 89.8516 167.082 89.4766C166.926 89.0938 166.848 88.707 166.848 88.3164C166.848 87.9102 166.922 87.5195 167.07 87.1445C167.227 86.7617 167.48 86.4219 167.832 86.125C168.191 85.8203 168.645 85.6641 169.191 85.6562H173.645C173.863 85.6562 174.047 85.7305 174.195 85.8789C174.352 86.0195 174.43 86.1914 174.43 86.3945C174.43 86.6055 174.352 86.7852 174.195 86.9336C174.047 87.0742 173.863 87.1445 173.645 87.1445H169.262C169.09 87.1445 168.938 87.2031 168.805 87.3203C168.68 87.4375 168.586 87.5898 168.523 87.7773C168.469 87.9648 168.441 88.1484 168.441 88.3281C168.441 88.5234 168.469 88.7148 168.523 88.9023C168.586 89.0898 168.68 89.2422 168.805 89.3594C168.938 89.4688 169.09 89.5273 169.262 89.5352H173.645C173.863 89.5352 174.047 89.6055 174.195 89.7461C174.352 89.8867 174.43 90.0547 174.43 90.25C174.43 90.4531 174.352 90.625 174.195 90.7656C174.047 90.9062 173.863 90.9766 173.645 90.9766H169.402ZM174.289 88.293C174.289 88.4414 174.223 88.5703 174.09 88.6797C173.973 88.7812 173.824 88.832 173.645 88.832H169.812C169.633 88.832 169.48 88.7812 169.355 88.6797C169.23 88.5703 169.168 88.4414 169.168 88.293C169.168 88.1523 169.23 88.0273 169.355 87.918C169.48 87.8164 169.633 87.7656 169.812 87.7656H173.645C173.824 87.7656 173.977 87.8203 174.102 87.9297C174.227 88.0312 174.289 88.1523 174.289 88.293ZM178.156 90.9766C177.469 90.9531 176.949 90.793 176.598 90.4961C176.246 90.1914 175.992 89.8516 175.836 89.4766C175.68 89.0938 175.602 88.707 175.602 88.3164C175.602 87.9102 175.676 87.5195 175.824 87.1445C175.98 86.7617 176.234 86.4219 176.586 86.125C176.945 85.8203 177.398 85.6641 177.945 85.6562H182.398C182.617 85.6562 182.801 85.7344 182.949 85.8906C183.105 86.0391 183.184 86.2227 183.184 86.4414C183.184 86.6602 183.105 86.8477 182.949 87.0039C182.801 87.1523 182.617 87.2266 182.398 87.2266H177.898C177.75 87.2266 177.621 87.2891 177.512 87.4141C177.402 87.5312 177.32 87.6719 177.266 87.8359C177.219 87.9922 177.195 88.1484 177.195 88.3047C177.195 88.4688 177.219 88.6328 177.266 88.7969C177.32 88.9531 177.402 89.0938 177.512 89.2188C177.621 89.3359 177.75 89.3984 177.898 89.4062H182.398C182.617 89.4062 182.801 89.4844 182.949 89.6406C183.105 89.7891 183.184 89.9727 183.184 90.1914C183.184 90.4102 183.105 90.5938 182.949 90.7422C182.801 90.8984 182.617 90.9766 182.398 90.9766H178.156ZM186.957 83.875C187.176 83.875 187.363 83.9492 187.52 84.0977C187.676 84.2383 187.758 84.418 187.766 84.6367V85.6562H191.75C191.969 85.6562 192.156 85.7305 192.312 85.8789C192.461 86.0352 192.535 86.2227 192.535 86.4414C192.535 86.6602 192.457 86.8477 192.301 87.0039C192.152 87.1523 191.969 87.2266 191.75 87.2266H187.766V87.4609C187.758 87.7812 187.777 88.0781 187.824 88.3516C187.879 88.6172 188.004 88.8555 188.199 89.0664C188.395 89.2773 188.641 89.3906 188.938 89.4062H191.797C192.016 89.4141 192.195 89.4961 192.336 89.6523C192.484 89.8086 192.559 89.9961 192.559 90.2148C192.551 90.4258 192.473 90.6055 192.324 90.7539C192.184 90.8945 192.008 90.9688 191.797 90.9766H188.539C187.992 90.9453 187.539 90.7617 187.18 90.4258C186.828 90.082 186.574 89.6641 186.418 89.1719C186.27 88.6797 186.191 88.1562 186.184 87.6016V87.2266H184.836C184.617 87.2266 184.434 87.1484 184.285 86.9922C184.129 86.8438 184.051 86.6602 184.051 86.4414C184.051 86.2227 184.125 86.0391 184.273 85.8906C184.43 85.7344 184.617 85.6562 184.836 85.6562H186.184V84.6367C186.191 84.4258 186.27 84.25 186.418 84.1094C186.566 83.9609 186.746 83.8828 186.957 83.875ZM196.109 90.9766C195.422 90.9531 194.902 90.793 194.551 90.4961C194.199 90.1914 193.945 89.8516 193.789 89.4766C193.633 89.0938 193.555 88.707 193.555 88.3164C193.555 87.9102 193.629 87.5195 193.777 87.1445C193.934 86.7617 194.188 86.4219 194.539 86.125C194.898 85.8203 195.352 85.6641 195.898 85.6562H199.695C200.242 85.6641 200.691 85.8203 201.043 86.125C201.402 86.4219 201.656 86.7617 201.805 87.1445C201.961 87.5195 202.039 87.9102 202.039 88.3164C202.039 88.707 201.961 89.0938 201.805 89.4766C201.648 89.8516 201.395 90.1914 201.043 90.4961C200.691 90.793 200.172 90.9531 199.484 90.9766H196.109ZM195.852 87.2266C195.703 87.2266 195.574 87.2891 195.465 87.4141C195.355 87.5312 195.273 87.6719 195.219 87.8359C195.172 87.9922 195.148 88.1484 195.148 88.3047C195.148 88.4688 195.172 88.6328 195.219 88.7969C195.273 88.9531 195.355 89.0938 195.465 89.2188C195.574 89.3359 195.703 89.3984 195.852 89.4062H199.742C199.891 89.3984 200.02 89.3359 200.129 89.2188C200.238 89.0938 200.316 88.9531 200.363 88.7969C200.418 88.6328 200.445 88.4688 200.445 88.3047C200.445 88.1484 200.418 87.9922 200.363 87.8359C200.316 87.6719 200.238 87.5312 200.129 87.4141C200.02 87.2891 199.891 87.2266 199.742 87.2266H195.852ZM203.633 87.1328C203.781 86.7578 204.031 86.4219 204.383 86.125C204.742 85.8203 205.195 85.6641 205.742 85.6562H210.148C210.367 85.6562 210.551 85.7344 210.699 85.8906C210.855 86.0391 210.934 86.2227 210.934 86.4414C210.934 86.6602 210.855 86.8477 210.699 87.0039C210.551 87.1523 210.367 87.2266 210.148 87.2266H205.695C205.547 87.2266 205.418 87.2891 205.309 87.4141C205.199 87.5312 205.113 87.6719 205.051 87.8359C204.996 88 204.969 88.1562 204.969 88.3047V90.3555C204.922 90.8242 204.664 91.0781 204.195 91.1172C203.977 91.1172 203.785 91.0469 203.621 90.9062C203.465 90.7578 203.387 90.5742 203.387 90.3555V88.3164H203.398C203.398 87.9102 203.477 87.5156 203.633 87.1328ZM220.766 85.6328C220.469 85.6484 220.219 85.7617 220.016 85.9727C219.82 86.1836 219.68 86.4258 219.594 86.6992C219.508 86.9648 219.465 87.2383 219.465 87.5195C219.465 87.8008 219.504 88.0781 219.582 88.3516C219.668 88.625 219.812 88.8672 220.016 89.0781C220.219 89.2812 220.469 89.3906 220.766 89.4062H224.633C225.125 89.4531 225.395 89.7227 225.441 90.2148C225.434 90.4336 225.352 90.6172 225.195 90.7656C225.039 90.9062 224.852 90.9766 224.633 90.9766H220.895H220.355C219.809 90.9453 219.359 90.7383 219.008 90.3555C218.656 89.9648 218.402 89.5234 218.246 89.0312C218.098 88.5391 218.023 88.0352 218.023 87.5195C218.023 87.1367 218.066 86.7578 218.152 86.3828C218.238 86.0078 218.371 85.6523 218.551 85.3164C218.738 84.9727 218.984 84.6797 219.289 84.4375C219.602 84.1953 219.957 84.0703 220.355 84.0625H220.578H224.633C225.125 84.1094 225.395 84.3789 225.441 84.8711C225.441 85.0898 225.359 85.2734 225.195 85.4219C225.039 85.5625 224.852 85.6328 224.633 85.6328H220.766ZM233.07 90.3555V87.5312C233.07 87.3359 232.969 87.2344 232.766 87.2266H228.664C228.516 87.2344 228.387 87.3008 228.277 87.4258C228.168 87.543 228.086 87.6836 228.031 87.8477C227.984 88.0039 227.961 88.1641 227.961 88.3281C227.961 88.4844 227.984 88.6445 228.031 88.8086C228.086 88.9648 228.168 89.1055 228.277 89.2305C228.387 89.3477 228.516 89.4062 228.664 89.4062H231.664C231.883 89.4062 232.066 89.4844 232.215 89.6406C232.371 89.7891 232.449 89.9727 232.449 90.1914C232.449 90.4102 232.371 90.5938 232.215 90.7422C232.066 90.8984 231.883 90.9766 231.664 90.9766H228.711C228.164 90.9688 227.711 90.8164 227.352 90.5195C227 90.2148 226.746 89.875 226.59 89.5C226.441 89.1172 226.367 88.7227 226.367 88.3164C226.367 87.9258 226.445 87.543 226.602 87.168C226.758 86.7852 227.012 86.4453 227.363 86.1484C227.715 85.8438 228.234 85.6797 228.922 85.6562H233.844C234.062 85.6562 234.25 85.7305 234.406 85.8789C234.562 86.0195 234.645 86.1992 234.652 86.418V90.3555C234.652 90.5742 234.57 90.7578 234.406 90.9062C234.25 91.0469 234.062 91.1172 233.844 91.1172C233.375 91.0781 233.117 90.8242 233.07 90.3555ZM238.543 90.9766C237.855 90.9531 237.336 90.793 236.984 90.4961C236.633 90.1914 236.379 89.8516 236.223 89.4766C236.066 89.0938 235.988 88.707 235.988 88.3164C235.988 87.9102 236.062 87.5195 236.211 87.1445C236.367 86.7617 236.621 86.4219 236.973 86.125C237.332 85.8203 237.785 85.6641 238.332 85.6562H242.785C243.004 85.6562 243.188 85.7344 243.336 85.8906C243.492 86.0391 243.57 86.2227 243.57 86.4414C243.57 86.6602 243.492 86.8477 243.336 87.0039C243.188 87.1523 243.004 87.2266 242.785 87.2266H238.285C238.137 87.2266 238.008 87.2891 237.898 87.4141C237.789 87.5312 237.707 87.6719 237.652 87.8359C237.605 87.9922 237.582 88.1484 237.582 88.3047C237.582 88.4688 237.605 88.6328 237.652 88.7969C237.707 88.9531 237.789 89.0938 237.898 89.2188C238.008 89.3359 238.137 89.3984 238.285 89.4062H242.785C243.004 89.4062 243.188 89.4844 243.336 89.6406C243.492 89.7891 243.57 89.9727 243.57 90.1914C243.57 90.4102 243.492 90.5938 243.336 90.7422C243.188 90.8984 243.004 90.9766 242.785 90.9766H238.543ZM245.609 83.875C245.82 83.8828 246 83.9609 246.148 84.1094C246.297 84.25 246.375 84.4258 246.383 84.6367V85.6562H250.016C250.562 85.6641 251.012 85.8203 251.363 86.125C251.723 86.4219 251.977 86.7578 252.125 87.1328C252.281 87.5156 252.359 87.9102 252.359 88.3164H252.371V90.3555C252.371 90.5742 252.289 90.7578 252.125 90.9062C251.969 91.0469 251.781 91.1172 251.562 91.1172C251.094 91.0781 250.836 90.8242 250.789 90.3555V88.3047C250.789 88.1562 250.758 88 250.695 87.8359C250.641 87.6719 250.559 87.5312 250.449 87.4141C250.34 87.2891 250.211 87.2266 250.062 87.2266H246.383V90.3789C246.336 90.8477 246.078 91.1016 245.609 91.1406C245.391 91.1406 245.199 91.0703 245.035 90.9297C244.879 90.7812 244.801 90.5977 244.801 90.3789V84.6367C244.809 84.418 244.891 84.2383 245.047 84.0977C245.203 83.9492 245.391 83.875 245.609 83.875ZM256.25 90.9766C255.562 90.9531 255.043 90.793 254.691 90.4961C254.34 90.1914 254.086 89.8516 253.93 89.4766C253.773 89.0938 253.695 88.707 253.695 88.3164C253.695 87.9102 253.77 87.5195 253.918 87.1445C254.074 86.7617 254.328 86.4219 254.68 86.125C255.039 85.8203 255.492 85.6641 256.039 85.6562H260.492C260.711 85.6562 260.895 85.7305 261.043 85.8789C261.199 86.0195 261.277 86.1914 261.277 86.3945C261.277 86.6055 261.199 86.7852 261.043 86.9336C260.895 87.0742 260.711 87.1445 260.492 87.1445H256.109C255.938 87.1445 255.785 87.2031 255.652 87.3203C255.527 87.4375 255.434 87.5898 255.371 87.7773C255.316 87.9648 255.289 88.1484 255.289 88.3281C255.289 88.5234 255.316 88.7148 255.371 88.9023C255.434 89.0898 255.527 89.2422 255.652 89.3594C255.785 89.4688 255.938 89.5273 256.109 89.5352H260.492C260.711 89.5352 260.895 89.6055 261.043 89.7461C261.199 89.8867 261.277 90.0547 261.277 90.25C261.277 90.4531 261.199 90.625 261.043 90.7656C260.895 90.9062 260.711 90.9766 260.492 90.9766H256.25ZM261.137 88.293C261.137 88.4414 261.07 88.5703 260.938 88.6797C260.82 88.7812 260.672 88.832 260.492 88.832H256.66C256.48 88.832 256.328 88.7812 256.203 88.6797C256.078 88.5703 256.016 88.4414 256.016 88.293C256.016 88.1523 256.078 88.0273 256.203 87.918C256.328 87.8164 256.48 87.7656 256.66 87.7656H260.492C260.672 87.7656 260.824 87.8203 260.949 87.9297C261.074 88.0312 261.137 88.1523 261.137 88.293ZM276.441 87.8828C276.59 88.1953 276.664 88.5117 276.664 88.832C276.664 89.1445 276.586 89.457 276.43 89.7695C276.273 90.0742 276.02 90.3477 275.668 90.5898C275.316 90.8242 274.867 90.9414 274.32 90.9414H274.25C274.203 90.9492 274.156 90.9531 274.109 90.9531H269.398C269.188 90.9453 269.008 90.8711 268.859 90.7305C268.719 90.582 268.645 90.4023 268.637 90.1914V84.8242C268.645 84.6133 268.719 84.4375 268.859 84.2969C269.008 84.1484 269.188 84.0703 269.398 84.0625H273.43C273.477 84.0625 273.523 84.0664 273.57 84.0742H273.641C274.188 84.0898 274.637 84.2148 274.988 84.4492C275.34 84.6836 275.594 84.9531 275.75 85.2578C275.906 85.5547 275.984 85.8555 275.984 86.1602C275.984 86.4727 275.91 86.7773 275.762 87.0742C275.754 87.0898 275.746 87.1016 275.738 87.1094C276.059 87.3359 276.293 87.5938 276.441 87.8828ZM274.391 89.3828C274.539 89.3906 274.66 89.3633 274.754 89.3008C274.855 89.2383 274.93 89.168 274.977 89.0898C275.023 89.0039 275.047 88.918 275.047 88.832C275.047 88.7773 275.023 88.7031 274.977 88.6094C274.93 88.5078 274.855 88.4258 274.754 88.3633C274.66 88.3008 274.539 88.2656 274.391 88.2578H273.641H270.219V89.0664C270.219 89.2773 270.328 89.3828 270.547 89.3828H270.641H274.391ZM274.086 86.582C274.18 86.5273 274.25 86.4648 274.297 86.3945C274.344 86.3164 274.367 86.2383 274.367 86.1602C274.367 86.082 274.344 86.0078 274.297 85.9375C274.25 85.8594 274.176 85.793 274.074 85.7383C273.98 85.6758 273.859 85.6406 273.711 85.6328H270.547C270.328 85.6328 270.219 85.7383 270.219 85.9492V86.6875H273.711C273.859 86.6797 273.984 86.6445 274.086 86.582ZM280.297 90.9766C279.609 90.9531 279.09 90.793 278.738 90.4961C278.387 90.1914 278.133 89.8516 277.977 89.4766C277.82 89.0938 277.742 88.707 277.742 88.3164C277.742 87.9102 277.816 87.5195 277.965 87.1445C278.121 86.7617 278.375 86.4219 278.727 86.125C279.086 85.8203 279.539 85.6641 280.086 85.6562H283.883C284.43 85.6641 284.879 85.8203 285.23 86.125C285.59 86.4219 285.844 86.7617 285.992 87.1445C286.148 87.5195 286.227 87.9102 286.227 88.3164C286.227 88.707 286.148 89.0938 285.992 89.4766C285.836 89.8516 285.582 90.1914 285.23 90.4961C284.879 90.793 284.359 90.9531 283.672 90.9766H280.297ZM280.039 87.2266C279.891 87.2266 279.762 87.2891 279.652 87.4141C279.543 87.5312 279.461 87.6719 279.406 87.8359C279.359 87.9922 279.336 88.1484 279.336 88.3047C279.336 88.4688 279.359 88.6328 279.406 88.7969C279.461 88.9531 279.543 89.0938 279.652 89.2188C279.762 89.3359 279.891 89.3984 280.039 89.4062H283.93C284.078 89.3984 284.207 89.3359 284.316 89.2188C284.426 89.0938 284.504 88.9531 284.551 88.7969C284.605 88.6328 284.633 88.4688 284.633 88.3047C284.633 88.1484 284.605 87.9922 284.551 87.8359C284.504 87.6719 284.426 87.5312 284.316 87.4141C284.207 87.2891 284.078 87.2266 283.93 87.2266H280.039ZM290 90.9766C289.312 90.9531 288.793 90.793 288.441 90.4961C288.09 90.1914 287.836 89.8516 287.68 89.4766C287.523 89.0938 287.445 88.707 287.445 88.3164C287.445 87.9102 287.52 87.5195 287.668 87.1445C287.824 86.7617 288.078 86.4219 288.43 86.125C288.789 85.8203 289.242 85.6641 289.789 85.6562H293.586C294.133 85.6641 294.582 85.8203 294.934 86.125C295.293 86.4219 295.547 86.7617 295.695 87.1445C295.852 87.5195 295.93 87.9102 295.93 88.3164C295.93 88.707 295.852 89.0938 295.695 89.4766C295.539 89.8516 295.285 90.1914 294.934 90.4961C294.582 90.793 294.062 90.9531 293.375 90.9766H290ZM289.742 87.2266C289.594 87.2266 289.465 87.2891 289.355 87.4141C289.246 87.5312 289.164 87.6719 289.109 87.8359C289.062 87.9922 289.039 88.1484 289.039 88.3047C289.039 88.4688 289.062 88.6328 289.109 88.7969C289.164 88.9531 289.246 89.0938 289.355 89.2188C289.465 89.3359 289.594 89.3984 289.742 89.4062H293.633C293.781 89.3984 293.91 89.3359 294.02 89.2188C294.129 89.0938 294.207 88.9531 294.254 88.7969C294.309 88.6328 294.336 88.4688 294.336 88.3047C294.336 88.1484 294.309 87.9922 294.254 87.8359C294.207 87.6719 294.129 87.5312 294.02 87.4141C293.91 87.2891 293.781 87.2266 293.633 87.2266H289.742ZM304.719 86.3359C304.719 86.5312 304.641 86.6953 304.484 86.8281C304.336 86.9531 304.152 87.0156 303.934 87.0156H298.977C298.875 87.0156 298.793 87.0352 298.73 87.0742C298.668 87.1133 298.621 87.1562 298.59 87.2031C298.559 87.2422 298.543 87.2773 298.543 87.3086C298.543 87.3477 298.559 87.3906 298.59 87.4375C298.621 87.4766 298.668 87.5156 298.73 87.5547C298.793 87.5859 298.875 87.6055 298.977 87.6133H302.809C303.301 87.6211 303.707 87.7188 304.027 87.9062C304.348 88.0859 304.574 88.3008 304.707 88.5508C304.848 88.793 304.918 89.0391 304.918 89.2891C304.918 89.5312 304.848 89.7773 304.707 90.0273C304.566 90.2695 304.336 90.4844 304.016 90.6719C303.703 90.8516 303.301 90.9414 302.809 90.9414C302.723 90.9492 302.66 90.9531 302.621 90.9531H298.074C297.855 90.9531 297.668 90.8906 297.512 90.7656C297.363 90.6328 297.289 90.4727 297.289 90.2852C297.289 90.0898 297.367 89.9258 297.523 89.793C297.672 89.668 297.855 89.6055 298.074 89.6055H302.902C303.02 89.6133 303.113 89.5977 303.184 89.5586C303.262 89.5195 303.32 89.4766 303.359 89.4297C303.398 89.3828 303.418 89.3359 303.418 89.2891C303.418 89.2656 303.398 89.2266 303.359 89.1719C303.32 89.1094 303.262 89.0625 303.184 89.0312C303.113 88.9922 303.02 88.9688 302.902 88.9609H299.059C298.605 88.9531 298.23 88.8594 297.934 88.6797C297.637 88.4922 297.426 88.2773 297.301 88.0352C297.176 87.793 297.113 87.5508 297.113 87.3086C297.113 87.0664 297.176 86.8281 297.301 86.5938C297.434 86.3516 297.645 86.1445 297.934 85.9727C298.23 85.793 298.605 85.6953 299.059 85.6797C299.137 85.6719 299.195 85.668 299.234 85.668H303.934C304.152 85.668 304.336 85.7344 304.484 85.8672C304.641 85.9922 304.719 86.1484 304.719 86.3359ZM308.762 83.875C308.98 83.875 309.168 83.9492 309.324 84.0977C309.48 84.2383 309.562 84.418 309.57 84.6367V85.6562H313.555C313.773 85.6562 313.961 85.7305 314.117 85.8789C314.266 86.0352 314.34 86.2227 314.34 86.4414C314.34 86.6602 314.262 86.8477 314.105 87.0039C313.957 87.1523 313.773 87.2266 313.555 87.2266H309.57V87.4609C309.562 87.7812 309.582 88.0781 309.629 88.3516C309.684 88.6172 309.809 88.8555 310.004 89.0664C310.199 89.2773 310.445 89.3906 310.742 89.4062H313.602C313.82 89.4141 314 89.4961 314.141 89.6523C314.289 89.8086 314.363 89.9961 314.363 90.2148C314.355 90.4258 314.277 90.6055 314.129 90.7539C313.988 90.8945 313.812 90.9688 313.602 90.9766H310.344C309.797 90.9453 309.344 90.7617 308.984 90.4258C308.633 90.082 308.379 89.6641 308.223 89.1719C308.074 88.6797 307.996 88.1562 307.988 87.6016V87.2266H306.641C306.422 87.2266 306.238 87.1484 306.09 86.9922C305.934 86.8438 305.855 86.6602 305.855 86.4414C305.855 86.2227 305.93 86.0391 306.078 85.8906C306.234 85.7344 306.422 85.6562 306.641 85.6562H307.988V84.6367C307.996 84.4258 308.074 84.25 308.223 84.1094C308.371 83.9609 308.551 83.8828 308.762 83.875Z" fill="url(#paint1_linear_82_4)"/>
<path d="M25.0938 31.0859C25.0938 29.7734 25.5391 28.6719 26.4297 27.7812C27.3672 26.8437 28.4922 26.375 29.8047 26.375H70.7266C72.0391 26.375 73.1641 26.8203 74.1016 27.7109C74.9922 28.6484 75.4375 29.7734 75.4375 31.0859C75.4375 32.3984 74.9688 33.5234 74.0312 34.4609C73.1406 35.3516 72.0391 35.7969 70.7266 35.7969H55.0469V64.2734C54.7656 67.0859 53.2188 68.6094 50.4062 68.8438C49.0938 68.8438 47.9453 68.4219 46.9609 67.5781C46.0234 66.6875 45.5547 65.5859 45.5547 64.2734V35.7969H29.8047C28.4922 35.7969 27.3906 35.3281 26.5 34.3906C25.5625 33.5 25.0938 32.3984 25.0938 31.0859ZM96.25 64.1328C94.0938 60.8984 91.9375 56.6562 89.7812 51.4062L82.0469 31.4375C81.8125 30.9219 81.6719 30.3594 81.625 29.75C81.5312 28.4375 81.9062 27.3125 82.75 26.375C83.6406 25.4375 84.7656 24.9688 86.125 24.9688C87.5781 24.9688 88.6562 25.2969 89.3594 25.9531C90.1094 26.5625 90.7188 27.3594 91.1875 28.3438L97.8672 46.625C98.6172 48.5469 99.3438 50.375 100.047 52.1094C100.797 53.7969 101.617 55.3438 102.508 56.75C103.398 58.1562 104.406 58.9062 105.531 59C106.609 58.9062 107.57 58.1562 108.414 56.75C109.352 55.3438 110.172 53.7969 110.875 52.1094C111.625 50.375 112.375 48.5469 113.125 46.625L119.664 28.3438C120.133 27.3594 120.719 26.5625 121.422 25.9531C122.172 25.2969 123.32 24.9688 124.867 24.9688C126.227 24.9688 127.328 25.4375 128.172 26.375C129.062 27.3125 129.461 28.4375 129.367 29.75C129.32 30.3594 129.18 30.9219 128.945 31.4375L121.211 51.4062C119.055 56.75 116.898 61.0156 114.742 64.2031C112.633 67.3438 109.562 68.9375 105.531 68.9844C101.453 68.9375 98.3594 67.3203 96.25 64.1328ZM152.641 35.7969C150.859 35.8906 149.359 36.5703 148.141 37.8359C146.969 39.1016 146.125 40.5547 145.609 42.1953C145.094 43.7891 144.836 45.4297 144.836 47.1172C144.836 48.8047 145.07 50.4688 145.539 52.1094C146.055 53.75 146.922 55.2031 148.141 56.4688C149.359 57.6875 150.859 58.3438 152.641 58.4375H175.844C178.797 58.7188 180.414 60.3359 180.695 63.2891C180.648 64.6016 180.156 65.7031 179.219 66.5938C178.281 67.4375 177.156 67.8594 175.844 67.8594H153.414H150.18C146.898 67.6719 144.203 66.4297 142.094 64.1328C139.984 61.7891 138.461 59.1406 137.523 56.1875C136.633 53.2344 136.188 50.2109 136.188 47.1172C136.188 44.8203 136.445 42.5469 136.961 40.2969C137.477 38.0469 138.273 35.9141 139.352 33.8984C140.477 31.8359 141.953 30.0781 143.781 28.625C145.656 27.1719 147.789 26.4219 150.18 26.375H151.516H175.844C178.797 26.6562 180.414 28.2734 180.695 31.2266C180.695 32.5391 180.203 33.6406 179.219 34.5312C178.281 35.375 177.156 35.7969 175.844 35.7969H152.641Z" fill="url(#paint2_linear_82_4)"/>
<path d="M218.219 55.5312C218.812 56.7812 219.109 58.0469 219.109 59.3281C219.109 60.5781 218.797 61.8281 218.172 63.0781C217.547 64.2969 216.531 65.3906 215.125 66.3594C213.719 67.2969 211.922 67.7656 209.734 67.7656H209.453C209.266 67.7969 209.078 67.8125 208.891 67.8125H190.047C189.203 67.7812 188.484 67.4844 187.891 66.9219C187.328 66.3281 187.031 65.6094 187 64.7656V43.2969C187.031 42.4531 187.328 41.75 187.891 41.1875C188.484 40.5938 189.203 40.2812 190.047 40.25H206.172C206.359 40.25 206.547 40.2656 206.734 40.2969H207.016C209.203 40.3594 211 40.8594 212.406 41.7969C213.812 42.7344 214.828 43.8125 215.453 45.0312C216.078 46.2188 216.391 47.4219 216.391 48.6406C216.391 49.8906 216.094 51.1094 215.5 52.2969C215.469 52.3594 215.438 52.4062 215.406 52.4375C216.688 53.3438 217.625 54.375 218.219 55.5312ZM210.016 61.5312C210.609 61.5625 211.094 61.4531 211.469 61.2031C211.875 60.9531 212.172 60.6719 212.359 60.3594C212.547 60.0156 212.641 59.6719 212.641 59.3281C212.641 59.1094 212.547 58.8125 212.359 58.4375C212.172 58.0312 211.875 57.7031 211.469 57.4531C211.094 57.2031 210.609 57.0625 210.016 57.0312H207.016H193.328V60.2656C193.328 61.1094 193.766 61.5312 194.641 61.5312H195.016H210.016ZM208.797 50.3281C209.172 50.1094 209.453 49.8594 209.641 49.5781C209.828 49.2656 209.922 48.9531 209.922 48.6406C209.922 48.3281 209.828 48.0312 209.641 47.75C209.453 47.4375 209.156 47.1719 208.75 46.9531C208.375 46.7031 207.891 46.5625 207.297 46.5312H194.641C193.766 46.5312 193.328 46.9531 193.328 47.7969V50.75H207.297C207.891 50.7188 208.391 50.5781 208.797 50.3281ZM233.641 67.9062C230.891 67.8125 228.812 67.1719 227.406 65.9844C226 64.7656 224.984 63.4062 224.359 61.9062C223.734 60.375 223.422 58.8281 223.422 57.2656C223.422 55.6406 223.719 54.0781 224.312 52.5781C224.938 51.0469 225.953 49.6875 227.359 48.5C228.797 47.2812 230.609 46.6562 232.797 46.625H247.984C250.172 46.6562 251.969 47.2812 253.375 48.5C254.812 49.6875 255.828 51.0469 256.422 52.5781C257.047 54.0781 257.359 55.6406 257.359 57.2656C257.359 58.8281 257.047 60.375 256.422 61.9062C255.797 63.4062 254.781 64.7656 253.375 65.9844C251.969 67.1719 249.891 67.8125 247.141 67.9062H233.641ZM232.609 52.9062C232.016 52.9062 231.5 53.1562 231.062 53.6562C230.625 54.125 230.297 54.6875 230.078 55.3438C229.891 55.9688 229.797 56.5938 229.797 57.2188C229.797 57.875 229.891 58.5312 230.078 59.1875C230.297 59.8125 230.625 60.375 231.062 60.875C231.5 61.3438 232.016 61.5938 232.609 61.625H248.172C248.766 61.5938 249.281 61.3438 249.719 60.875C250.156 60.375 250.469 59.8125 250.656 59.1875C250.875 58.5312 250.984 57.875 250.984 57.2188C250.984 56.5938 250.875 55.9688 250.656 55.3438C250.469 54.6875 250.156 54.125 249.719 53.6562C249.281 53.1562 248.766 52.9062 248.172 52.9062H232.609ZM272.453 67.9062C269.703 67.8125 267.625 67.1719 266.219 65.9844C264.812 64.7656 263.797 63.4062 263.172 61.9062C262.547 60.375 262.234 58.8281 262.234 57.2656C262.234 55.6406 262.531 54.0781 263.125 52.5781C263.75 51.0469 264.766 49.6875 266.172 48.5C267.609 47.2812 269.422 46.6562 271.609 46.625H286.797C288.984 46.6562 290.781 47.2812 292.188 48.5C293.625 49.6875 294.641 51.0469 295.234 52.5781C295.859 54.0781 296.172 55.6406 296.172 57.2656C296.172 58.8281 295.859 60.375 295.234 61.9062C294.609 63.4062 293.594 64.7656 292.188 65.9844C290.781 67.1719 288.703 67.8125 285.953 67.9062H272.453ZM271.422 52.9062C270.828 52.9062 270.312 53.1562 269.875 53.6562C269.438 54.125 269.109 54.6875 268.891 55.3438C268.703 55.9688 268.609 56.5938 268.609 57.2188C268.609 57.875 268.703 58.5312 268.891 59.1875C269.109 59.8125 269.438 60.375 269.875 60.875C270.312 61.3438 270.828 61.5938 271.422 61.625H286.984C287.578 61.5938 288.094 61.3438 288.531 60.875C288.969 60.375 289.281 59.8125 289.469 59.1875C289.688 58.5312 289.797 57.875 289.797 57.2188C289.797 56.5938 289.688 55.9688 289.469 55.3438C289.281 54.6875 288.969 54.125 288.531 53.6562C288.094 53.1562 287.578 52.9062 286.984 52.9062H271.422ZM331.328 49.3438C331.328 50.125 331.016 50.7812 330.391 51.3125C329.797 51.8125 329.062 52.0625 328.188 52.0625H308.359C307.953 52.0625 307.625 52.1406 307.375 52.2969C307.125 52.4531 306.938 52.625 306.812 52.8125C306.688 52.9688 306.625 53.1094 306.625 53.2344C306.625 53.3906 306.688 53.5625 306.812 53.75C306.938 53.9062 307.125 54.0625 307.375 54.2188C307.625 54.3438 307.953 54.4219 308.359 54.4531H323.688C325.656 54.4844 327.281 54.875 328.562 55.625C329.844 56.3438 330.75 57.2031 331.281 58.2031C331.844 59.1719 332.125 60.1562 332.125 61.1562C332.125 62.125 331.844 63.1094 331.281 64.1094C330.719 65.0781 329.797 65.9375 328.516 66.6875C327.266 67.4062 325.656 67.7656 323.688 67.7656C323.344 67.7969 323.094 67.8125 322.938 67.8125H304.75C303.875 67.8125 303.125 67.5625 302.5 67.0625C301.906 66.5312 301.609 65.8906 301.609 65.1406C301.609 64.3594 301.922 63.7031 302.547 63.1719C303.141 62.6719 303.875 62.4219 304.75 62.4219H324.062C324.531 62.4531 324.906 62.3906 325.188 62.2344C325.5 62.0781 325.734 61.9062 325.891 61.7188C326.047 61.5312 326.125 61.3438 326.125 61.1562C326.125 61.0625 326.047 60.9062 325.891 60.6875C325.734 60.4375 325.5 60.25 325.188 60.125C324.906 59.9688 324.531 59.875 324.062 59.8438H308.688C306.875 59.8125 305.375 59.4375 304.188 58.7188C303 57.9688 302.156 57.1094 301.656 56.1406C301.156 55.1719 300.906 54.2031 300.906 53.2344C300.906 52.2656 301.156 51.3125 301.656 50.375C302.188 49.4062 303.031 48.5781 304.188 47.8906C305.375 47.1719 306.875 46.7812 308.688 46.7188C309 46.6875 309.234 46.6719 309.391 46.6719H328.188C329.062 46.6719 329.797 46.9375 330.391 47.4688C331.016 47.9688 331.328 48.5938 331.328 49.3438ZM347.5 39.5C348.375 39.5 349.125 39.7969 349.75 40.3906C350.375 40.9531 350.703 41.6719 350.734 42.5469V46.625H366.672C367.547 46.625 368.297 46.9219 368.922 47.5156C369.516 48.1406 369.812 48.8906 369.812 49.7656C369.812 50.6406 369.5 51.3906 368.875 52.0156C368.281 52.6094 367.547 52.9062 366.672 52.9062H350.734V53.8438C350.703 55.125 350.781 56.3125 350.969 57.4062C351.188 58.4688 351.688 59.4219 352.469 60.2656C353.25 61.1094 354.234 61.5625 355.422 61.625H366.859C367.734 61.6562 368.453 61.9844 369.016 62.6094C369.609 63.2344 369.906 63.9844 369.906 64.8594C369.875 65.7031 369.562 66.4219 368.969 67.0156C368.406 67.5781 367.703 67.875 366.859 67.9062H353.828C351.641 67.7812 349.828 67.0469 348.391 65.7031C346.984 64.3281 345.969 62.6562 345.344 60.6875C344.75 58.7188 344.438 56.625 344.406 54.4062V52.9062H339.016C338.141 52.9062 337.406 52.5938 336.812 51.9688C336.188 51.375 335.875 50.6406 335.875 49.7656C335.875 48.8906 336.172 48.1562 336.766 47.5625C337.391 46.9375 338.141 46.625 339.016 46.625H344.406V42.5469C344.438 41.7031 344.75 41 345.344 40.4375C345.938 39.8438 346.656 39.5312 347.5 39.5Z" fill="url(#paint3_linear_82_4)"/>
<rect x="222" y="27" width="147" height="3" rx="1.5" fill="url(#paint4_linear_82_4)"/>
<rect x="269" y="33" width="100" height="3" rx="1.5" fill="url(#paint5_linear_82_4)"/>
<defs>
<linearGradient id="paint0_linear_82_4" x1="368.915" y1="17.271" x2="37.815" y2="92.9523" gradientUnits="userSpaceOnUse">
<stop stop-color="#F6F6F6"/>
<stop offset="0.370192" stop-color="#F1F1F1"/>
</linearGradient>
<linearGradient id="paint1_linear_82_4" x1="86" y1="88.5" x2="316" y2="88.5" gradientUnits="userSpaceOnUse">
<stop stop-color="#630081"/>
<stop offset="1" stop-color="#003179"/>
</linearGradient>
<linearGradient id="paint2_linear_82_4" x1="112" y1="26.5" x2="106.5" y2="70.5" gradientUnits="userSpaceOnUse">
<stop stop-color="#424242"/>
<stop offset="1"/>
</linearGradient>
<linearGradient id="paint3_linear_82_4" x1="267" y1="78.5" x2="271" y2="33.5" gradientUnits="userSpaceOnUse">
<stop/>
<stop offset="1" stop-color="#4E4E4E"/>
</linearGradient>
<linearGradient id="paint4_linear_82_4" x1="222" y1="28.5" x2="369" y2="28.5" gradientUnits="userSpaceOnUse">
<stop stop-color="#003789"/>
<stop offset="1" stop-color="#3D0072"/>
</linearGradient>
<linearGradient id="paint5_linear_82_4" x1="269" y1="34.5" x2="369" y2="34.5" gradientUnits="userSpaceOnUse">
<stop stop-color="#970062"/>
<stop offset="1" stop-color="#6B00BC"/>
</linearGradient>
</defs>
</svg>
